<svg xmlns="http://www.w3.org/2000/svg" viewBox="0 0 40.67 187.8"><defs><style>.cls-1,.cls-2{fill:#eaeaea;}.cls-2{stroke:#000;stroke-width:1.57px;}.cls-2,.cls-3{stroke-miterlimit:10;}.cls-3{fill:none;stroke:#f4f4f4;}</style></defs><title>a-type-key</title><g id="Layer_2" data-name="Layer 2"><g id="Layer_1-2" data-name="Layer 1"><path class="cls-1" d="M39.89,184.8A2.2,2.2,0,0,1,37.7,187L3.1,187a2.2,2.2,0,0,1-2.2-2.19L.78,119A2.19,2.19,0,0,1,3,116.82h8.42a2.2,2.2,0,0,0,2.2-2.2L13.63,3A2.2,2.2,0,0,1,15.83.78h15.9A2.2,2.2,0,0,1,33.92,3l-.12,111.7a2.2,2.2,0,0,0,2.19,2.2h1.63a2.2,2.2,0,0,1,2.2,2.2Z"/><path class="cls-2" d="M39.89,184.8A2.2,2.2,0,0,1,37.7,187L3.1,187a2.2,2.2,0,0,1-2.2-2.19L.78,119A2.19,2.19,0,0,1,3,116.82h8.42a2.2,2.2,0,0,0,2.2-2.2L13.63,3A2.2,2.2,0,0,1,15.83.78h15.9A2.2,2.2,0,0,1,33.92,3l-.12,111.7a2.2,2.2,0,0,0,2.19,2.2h1.63a2.2,2.2,0,0,1,2.2,2.2Z"/><line class="cls-3" x1="31.95" y1="2.73" x2="31.99" y2="114.98"/><line class="cls-3" x1="37.9" y1="118.65" x2="37.94" y2="185.33"/></g></g></svg>