<svg xmlns="http://www.w3.org/2000/svg" viewBox="0 0 17.86 113.84">
  <defs>
    <style>
      .cls-1,.cls-2{fill:none;stroke-miterlimit:10;}.cls-1{stroke:#000;stroke-width:1.57px;}.cls-2{stroke:#f4f4f4;opacity:0.7;isolation:isolate;}
    </style>
  </defs>
  <g id="Layer_2" data-name="Layer 2">
    <g id="Layer_1-2" data-name="Layer 1">
      <path id='asharp0' d="M1.73.78a.94.94 0 0 0-.94.94v110.39a.94.94 0 0 0 .94.94h14.41a.94.94 0 0 0 .94-.94V1.72a.94.94 0 0 0-.94-.94H1.73z"/>
      <path class="cls-1" d="M1.73.78a.94.94 0 0 0-.94.94v110.39a.94.94 0 0 0 .94.94h14.41a.94.94 0 0 0 .94-.94V1.72a.94.94 0 0 0-.94-.94H1.73z"/>
      <path class="cls-2" d="M16.51 1.64l.04 110.65"/>
    </g>
  </g>
</svg>