<svg xmlns="http://www.w3.org/2000/svg" viewBox="0 0 40.68 187.8"><defs><style>.cls-1,#c1{fill:#eaeaea;}#c1{stroke:#000;stroke-width:1.57px;}#c1,.cls-3{stroke-miterlimit:10;}.cls-3{fill:none;stroke:#f4f4f4;}</style></defs><title>c-type-key</title><g id="Layer_2" data-name="Layer 2"><g id="Layer_1-2" data-name="Layer 1"><path class="cls-1" d="M40.09,184.81A2.2,2.2,0,0,1,37.9,187L3.3,187a2.2,2.2,0,0,1-2.2-2.19L.78,3A2.19,2.19,0,0,1,3,.78h22.4A2.2,2.2,0,0,1,27.57,3l.05,111.43a2.2,2.2,0,0,0,2.2,2.19l8,0a2.2,2.2,0,0,1,2.2,2.19Z"/><path id="c1" d="M40.09,184.81A2.2,2.2,0,0,1,37.9,187L3.3,187a2.2,2.2,0,0,1-2.2-2.19L.78,3A2.19,2.19,0,0,1,3,.78h22.4A2.2,2.2,0,0,1,27.57,3l.05,111.43a2.2,2.2,0,0,0,2.2,2.19l8,0a2.2,2.2,0,0,1,2.2,2.19Z"/><line class="cls-3" x1="25.79" y1="2.54" x2="25.83" y2="114.8"/><line class="cls-3" x1="38.17" y1="118.46" x2="38.21" y2="185.14"/></g></g></svg>