<svg xmlns="http://www.w3.org/2000/svg" viewBox="0 0 40.68 187.8"><defs><style>.cls-1,#e1{fill:#eaeaea;}#e1{stroke:#000;stroke-width:1.57px;}#e1,.cls-3{stroke-miterlimit:10;}.cls-3{fill:none;stroke:#f4f4f4;}</style></defs><title>e1</title><g id="Layer_2" data-name="Layer 2"><g id="Layer_1-2" data-name="Layer 1"><path class="cls-1" d="M.78,184.81A2.2,2.2,0,0,0,3,187l34.6,0a2.2,2.2,0,0,0,2.2-2.2L40.09,3A2.19,2.19,0,0,0,37.9.78H15.5A2.2,2.2,0,0,0,13.3,3l.13,111.43a2.19,2.19,0,0,1-2.19,2.19l-8.19,0a2.2,2.2,0,0,0-2.2,2.19Z"/><path id='e1' d="M.78,184.81A2.2,2.2,0,0,0,3,187l34.6,0a2.2,2.2,0,0,0,2.2-2.2L40.09,3A2.19,2.19,0,0,0,37.9.78H15.5A2.2,2.2,0,0,0,13.3,3l.13,111.43a2.19,2.19,0,0,1-2.19,2.19l-8.19,0a2.2,2.2,0,0,0-2.2,2.19Z"/><line class="cls-3" x1="37.8" y1="2.52" x2="37.84" y2="185.12"/></g></g></svg>