<?xml version="1.0" encoding="utf-8"?>

<!-- Generator: Adobe Illustrator 21.0.2, SVG Export Plug-In . SVG Version: 6.00 Build 0)  -->
<svg version="1.1" id="Layer_1" xmlns="http://www.w3.org/2000/svg" xmlns:xlink="http://www.w3.org/1999/xlink" x="0px" y="0px"
	 viewBox="0 0 150 185" style="enable-background:new 0 0 150 185; cursor: pointer; " xml:space="preserve">
<path id="email_contact_icon" d="M10.4,130.7V60c0-0.1,0.1-0.9,0.4-2.3l41.6,35.6l-41.5,39.9C10.6,132.1,10.4,131.2,10.4,130.7z M16,52.7
	c0.6-0.2,1.3-0.4,2.1-0.4h112.2c0.7,0,1.5,0.1,2.2,0.4L90.6,88.5l-5.5,4.4l-10.9,9l-10.9-9l-5.5-4.4L16,52.7z M16.1,138L58,97.8
	L74.2,111l16.2-13.1l41.9,40.2c-0.7,0.2-1.4,0.4-2.1,0.4H18C17.4,138.4,16.7,138.2,16.1,138z M95.9,93.3l41.5-35.6
	c0.2,0.7,0.4,1.5,0.4,2.3v70.8c0,0.7-0.1,1.6-0.4,2.5L95.9,93.3z"/>
<g>
	<path d="M42.1,170.7l2.1,1.1c-0.7,1.3-1.5,2.4-2.4,3.2c-0.9,0.8-1.9,1.4-3,1.9c-1.1,0.4-2.4,0.6-3.8,0.6c-3.1,0-5.6-1-7.3-3.1
		s-2.6-4.4-2.6-6.9c0-2.4,0.7-4.6,2.2-6.5c1.9-2.4,4.4-3.6,7.6-3.6c3.3,0,5.9,1.2,7.8,3.7c1.4,1.7,2.1,3.9,2.1,6.5H27.6
		c0,2.2,0.8,4,2.1,5.5s3.1,2.1,5.1,2.1c1,0,1.9-0.2,2.8-0.5c0.9-0.3,1.7-0.8,2.3-1.3C40.6,172.8,41.3,171.9,42.1,170.7z M42.1,165.5
		c-0.3-1.3-0.8-2.4-1.4-3.1s-1.5-1.4-2.5-1.9c-1-0.5-2.1-0.7-3.3-0.7c-1.9,0-3.5,0.6-4.8,1.8c-1,0.9-1.7,2.2-2.2,4L42.1,165.5
		L42.1,165.5z"/>
	<path d="M49.3,157.9h2.5v3.3c0.9-1.2,1.7-2.1,2.6-2.7c1.2-0.8,2.6-1.1,3.9-1.1c0.9,0,1.8,0.2,2.6,0.5s1.5,0.8,2,1.5
		c0.5,0.6,1,1.5,1.4,2.6c0.8-1.5,1.8-2.6,3.1-3.4c1.2-0.8,2.5-1.2,4-1.2c1.3,0,2.5,0.3,3.5,1s1.8,1.6,2.3,2.8s0.7,3,0.7,5.4V177
		h-2.5v-10.4c0-2.1-0.1-3.5-0.4-4.2s-0.8-1.4-1.5-1.9c-0.7-0.5-1.6-0.7-2.5-0.7c-1.2,0-2.3,0.4-3.3,1.1c-1,0.7-1.7,1.6-2.2,2.8
		c-0.5,1.2-0.7,3.1-0.7,5.9v7.5h-2.5v-9.8c0-2.3-0.1-3.9-0.4-4.7s-0.8-1.5-1.5-2c-0.7-0.5-1.6-0.7-2.5-0.7c-1.1,0-2.2,0.3-3.2,1
		s-1.7,1.6-2.2,2.8c-0.5,1.2-0.7,2.9-0.7,5.3v8.1h-2.5V157.9z"/>
	<path d="M102.2,157.9V177h-2.4v-3.3c-1,1.3-2.2,2.2-3.5,2.8c-1.3,0.6-2.7,0.9-4.2,0.9c-2.7,0-5-1-6.9-2.9s-2.9-4.4-2.9-7.2
		c0-2.8,1-5.1,2.9-7.1s4.3-2.9,7-2.9c1.6,0,3,0.3,4.3,1c1.3,0.7,2.4,1.7,3.3,3v-3.5L102.2,157.9L102.2,157.9z M92.3,159.8
		c-1.4,0-2.6,0.3-3.8,1c-1.2,0.7-2.1,1.6-2.8,2.8c-0.7,1.2-1,2.5-1,3.9c0,1.3,0.3,2.6,1,3.9c0.7,1.2,1.6,2.2,2.8,2.9
		c1.2,0.7,2.4,1,3.7,1c1.3,0,2.6-0.3,3.8-1c1.2-0.7,2.1-1.6,2.8-2.8c0.7-1.2,1-2.5,1-3.9c0-2.2-0.7-4.1-2.2-5.5
		C96.3,160.5,94.5,159.8,92.3,159.8z"/>
	<path d="M108.6,150c0.6,0,1,0.2,1.4,0.6c0.4,0.4,0.6,0.9,0.6,1.4c0,0.6-0.2,1-0.6,1.4c-0.4,0.4-0.9,0.6-1.4,0.6
		c-0.5,0-1-0.2-1.4-0.6c-0.4-0.4-0.6-0.9-0.6-1.4c0-0.6,0.2-1,0.6-1.4C107.6,150.2,108,150,108.6,150z M107.4,157.9h2.5V177h-2.5
		V157.9z"/>
	<path d="M114.6,150.5h2.5V177h-2.5V150.5z"/>
</g>
</svg>
