<svg xmlns="http://www.w3.org/2000/svg" viewBox="0 0 40.68 187.8"><defs><style>.cls-1,#g0,.cls-3,.cls-4{fill:#eaeaea;}#g0,.cls-3,.cls-4{stroke:#000;}#g0,.cls-3,.cls-4,.cls-5{stroke-miterlimit:10;}#g0{stroke-width:1.57px;}.cls-3{stroke-width:0.32px;}.cls-4{stroke-width:0.35px;}.cls-5{fill:none;stroke:#f4f4f4;}</style></defs><title>d-type-key</title><g id="Layer_2" data-name="Layer 2"><g id="Layer_1-2" data-name="Layer 1"><g id="Layer_16_copy_3" data-name="Layer 16 copy 3"><path class="cls-1" d="M39.89,184.81A2.2,2.2,0,0,1,37.7,187L3.1,187a2.2,2.2,0,0,1-2.2-2.19L.78,119A2.19,2.19,0,0,1,3,116.82H4.8A2.19,2.19,0,0,0,7,114.63L7,3A2.2,2.2,0,0,1,9.24.78H31.73A2.2,2.2,0,0,1,33.92,3l-.12,111.7a2.2,2.2,0,0,0,2.19,2.2h1.63a2.2,2.2,0,0,1,2.2,2.19Z"/><path id="g0" d="M39.89,184.81A2.2,2.2,0,0,1,37.7,187L3.1,187a2.2,2.2,0,0,1-2.2-2.19L.78,119A2.19,2.19,0,0,1,3,116.82H4.8A2.19,2.19,0,0,0,7,114.63L7,3A2.2,2.2,0,0,1,9.24.78H31.73A2.2,2.2,0,0,1,33.92,3l-.12,111.7a2.2,2.2,0,0,0,2.19,2.2h1.63a2.2,2.2,0,0,1,2.2,2.19Z"/><path class="cls-3" d="M2.15,119.37"/><path class="cls-3" d="M8.95,119.36"/><path class="cls-4" d="M8.95,112.41"/><path class="cls-4" d="M8.95,120.45"/><path class="cls-3" d="M33.46,119.42"/><path class="cls-3" d="M39.63,119.42"/><path class="cls-4" d="M33.74,111.37"/><path class="cls-4" d="M33.55,119.41"/><path class="cls-3" d="M33.65,119.2"/><path class="cls-3" d="M39.53,119.19"/><path class="cls-3" d="M33.71,119.3"/><path class="cls-3" d="M39.59,119.3"/></g><line class="cls-5" x1="37.9" y1="118.44" x2="37.94" y2="185.12"/><line class="cls-5" x1="31.97" y1="2.53" x2="32.01" y2="114.78"/></g></g></svg>