<?xml version="1.0" encoding="utf-8"?>
<!-- Generator: Adobe Illustrator 16.0.0, SVG Export Plug-In . SVG Version: 6.00 Build 0)  -->
<!DOCTYPE svg PUBLIC "-//W3C//DTD SVG 1.1//EN" "http://www.w3.org/Graphics/SVG/1.1/DTD/svg11.dtd">
<svg version="1.1" id="Layer_1" xmlns="http://www.w3.org/2000/svg" xmlns:xlink="http://www.w3.org/1999/xlink" x="0px" y="0px"
	 width="170px" height="206px" viewBox="353.5 107.5 170 206" enable-background="new 353.5 107.5 170 206" xml:space="preserve">
<path fill="#000000" d="M434.696,116.421c-40.036,0-72.501,32.458-72.501,72.499c0,32.032,20.772,59.209,49.58,68.795
	c3.624,0.67,4.953-1.573,4.953-3.486c0-1.729-0.066-7.441-0.098-13.499c-20.171,4.387-24.427-8.555-24.427-8.555
	c-3.296-8.38-8.05-10.608-8.05-10.608c-6.576-4.501,0.497-4.407,0.497-4.407c7.278,0.512,11.114,7.472,11.114,7.472
	c6.467,11.085,16.96,7.879,21.097,6.025c0.652-4.686,2.53-7.882,4.604-9.692c-16.104-1.834-33.033-8.05-33.033-35.831
	c0-7.912,2.834-14.382,7.471-19.46c-0.753-1.826-3.235-9.202,0.704-19.186c0,0,6.088-1.948,19.941,7.431
	c5.782-1.605,11.986-2.411,18.146-2.44c6.161,0.029,12.368,0.835,18.161,2.44c13.837-9.379,19.919-7.431,19.919-7.431
	c3.945,9.983,1.465,17.359,0.712,19.186c4.649,5.078,7.459,11.548,7.459,19.46c0,27.846-16.959,33.979-33.103,35.772
	c2.601,2.251,4.917,6.662,4.917,13.426c0,9.701-0.081,17.508-0.081,19.897c0,1.93,1.303,4.19,4.979,3.48
	c28.791-9.598,49.539-36.767,49.539-68.789C507.197,148.879,474.737,116.421,434.696,116.421"/>
<path fill="#000000" d="M389.655,220.514c-0.159,0.361-0.726,0.468-1.24,0.223c-0.529-0.237-0.823-0.729-0.651-1.091
	c0.154-0.37,0.721-0.473,1.249-0.224C389.536,219.657,389.837,220.151,389.655,220.514"/>
<path fill="#000000" d="M392.594,223.787c-0.345,0.323-1.024,0.174-1.482-0.333c-0.475-0.506-0.561-1.183-0.211-1.506
	c0.356-0.321,1.013-0.171,1.485,0.333C392.862,222.794,392.953,223.464,392.594,223.787"/>
<path fill="#000000" d="M395.451,227.965c-0.445,0.31-1.174,0.02-1.621-0.624c-0.445-0.646-0.445-1.422,0.01-1.729
	c0.449-0.31,1.166-0.03,1.622,0.608C395.904,226.875,395.904,227.648,395.451,227.965"/>
<path fill="#000000" d="M399.368,231.999c-0.398,0.438-1.243,0.32-1.864-0.279c-0.636-0.584-0.81-1.412-0.413-1.851
	c0.403-0.44,1.254-0.316,1.879,0.277C399.599,230.729,399.789,231.565,399.368,231.999"/>
<path fill="#000000" d="M404.769,234.34c-0.174,0.568-0.989,0.828-1.811,0.586c-0.819-0.249-1.356-0.913-1.189-1.488
	c0.169-0.571,0.986-0.839,1.813-0.582C404.401,233.101,404.942,233.766,404.769,234.34"/>
<path fill="#000000" d="M410.703,234.774c0.021,0.599-0.675,1.094-1.539,1.105c-0.864,0.021-1.566-0.465-1.576-1.054
	c0-0.602,0.683-1.093,1.549-1.108C409.998,233.699,410.703,234.181,410.703,234.774"/>
<path fill="#000000" d="M416.224,233.835c0.104,0.583-0.494,1.182-1.352,1.341c-0.841,0.153-1.619-0.206-1.728-0.784
	c-0.106-0.598,0.506-1.195,1.347-1.354C415.349,232.892,416.115,233.24,416.224,233.835"/>
<g>
	<path fill="#000000" d="M399.73,277.375h2.461v15.24c0,2.684-0.234,4.646-0.703,5.889c-0.645,1.758-1.764,3.111-3.357,4.061
		s-3.51,1.424-5.748,1.424c-1.641,0-3.114-0.232-4.421-0.696c-1.307-0.465-2.37-1.087-3.19-1.869
		c-0.82-0.781-1.576-1.925-2.268-3.429h2.672c0.728,1.266,1.666,2.203,2.816,2.813c1.148,0.609,2.574,0.914,4.275,0.914
		c1.678,0,3.096-0.313,4.251-0.938s1.979-1.41,2.473-2.355c0.493-0.946,0.739-2.474,0.739-4.582v-0.984
		c-0.927,1.172-2.059,2.071-3.396,2.698c-1.337,0.627-2.756,0.94-4.258,0.94c-1.76,0-3.414-0.437-4.962-1.31
		c-1.549-0.873-2.745-2.048-3.59-3.524s-1.267-3.1-1.267-4.869s0.439-3.419,1.32-4.948c0.879-1.529,2.096-2.739,3.65-3.63
		s3.193-1.336,4.918-1.336c1.432,0,2.766,0.296,4.004,0.888c1.236,0.592,2.43,1.567,3.58,2.927V277.375z M392.471,279.256
		c-1.395,0-2.689,0.337-3.885,1.011s-2.133,1.605-2.813,2.795s-1.02,2.476-1.02,3.858c0,2.098,0.703,3.832,2.109,5.203
		s3.229,2.057,5.467,2.057c2.262,0,4.081-0.68,5.458-2.039s2.065-3.146,2.065-5.361c0-1.441-0.316-2.728-0.949-3.858
		s-1.529-2.024-2.689-2.681S393.807,279.256,392.471,279.256z"/>
	<path fill="#000000" d="M408.317,269.5c0.56,0,1.038,0.199,1.435,0.598s0.596,0.879,0.596,1.441c0,0.551-0.199,1.025-0.596,1.424
		s-0.875,0.598-1.435,0.598c-0.548,0-1.021-0.199-1.418-0.598c-0.396-0.398-0.595-0.873-0.595-1.424
		c0-0.563,0.198-1.043,0.595-1.441C407.297,269.699,407.77,269.5,408.317,269.5z M407.096,277.375h2.461V296.5h-2.461V277.375z"/>
	<path fill="#000000" d="M416.816,270.273h2.461v7.102h3.902v2.127h-3.902V296.5h-2.461v-16.998h-3.357v-2.127h3.357V270.273z"/>
	<path fill="#000000" d="M426.871,269.992h2.461v10.811c0.996-1.313,2.092-2.294,3.287-2.944s2.49-0.976,3.885-0.976
		c1.43,0,2.698,0.363,3.806,1.09s1.925,1.702,2.452,2.927s0.791,3.144,0.791,5.757v9.844h-2.461v-9.123
		c0-2.203-0.088-3.674-0.264-4.412c-0.305-1.266-0.858-2.218-1.661-2.856s-1.854-0.958-3.155-0.958
		c-1.488,0-2.821,0.492-3.999,1.477s-1.954,2.203-2.329,3.656c-0.234,0.938-0.352,2.672-0.352,5.203v7.014h-2.461V269.992z"/>
	<path fill="#000000" d="M448.51,277.375h2.461v8.93c0,2.18,0.117,3.68,0.352,4.5c0.353,1.172,1.024,2.098,2.016,2.777
		c0.992,0.68,2.175,1.02,3.548,1.02s2.538-0.331,3.495-0.993c0.955-0.662,1.616-1.532,1.98-2.61
		c0.246-0.738,0.369-2.303,0.369-4.693v-8.93h2.514v9.387c0,2.637-0.308,4.623-0.923,5.959s-1.541,2.382-2.777,3.138
		s-2.786,1.134-4.649,1.134s-3.419-0.378-4.667-1.134s-2.18-1.811-2.795-3.164s-0.923-3.39-0.923-6.108V277.375z"/>
	<path fill="#000000" d="M470.869,296.5v-26.508h2.461v10.67c1.029-1.266,2.184-2.212,3.459-2.839
		c1.276-0.627,2.676-0.94,4.197-0.94c2.705,0,5.014,0.981,6.928,2.944s2.871,4.345,2.871,7.146c0,2.766-0.966,5.127-2.897,7.084
		s-4.256,2.936-6.972,2.936c-1.557,0-2.968-0.334-4.232-1.002c-1.264-0.668-2.382-1.67-3.354-3.006v3.516H470.869z M480.713,294.619
		c1.367,0,2.631-0.337,3.788-1.011s2.078-1.62,2.762-2.839c0.685-1.219,1.026-2.508,1.026-3.867s-0.345-2.654-1.035-3.885
		c-0.689-1.23-1.615-2.188-2.779-2.874s-2.405-1.028-3.727-1.028c-1.345,0-2.622,0.343-3.832,1.028s-2.14,1.608-2.788,2.769
		c-0.649,1.16-0.974,2.467-0.974,3.92c0,2.215,0.728,4.066,2.184,5.555C476.793,293.875,478.585,294.619,480.713,294.619z"/>
</g>
</svg>
