<svg xmlns:dc="http://purl.org/dc/elements/1.1/" xmlns:cc="http://creativecommons.org/ns#" xmlns:rdf="http://www.w3.org/1999/02/22-rdf-syntax-ns#" xmlns:svg="http://www.w3.org/2000/svg" xmlns="http://www.w3.org/2000/svg" viewBox="0 0 907.46252 404.82501" height="404.82501" width="907.46252" xml:space="preserve" id="svg2"> <metadata id="metadata8"></metadata> <defs id="defs6"></defs> <g transform="matrix(1.25,0,0,-1.25,0,404.825)" id="g10"> <g transform="scale(0.1,0.1)" id="g12"> <path id="path14" style="fill:#100f0d;fill-opacity:1;fill-rule:nonzero;stroke:none" d="m 2251.16,2417.64 c 0,22.86 -26.66,22.86 -39.48,22.86 -43.8,0 -120.8,-3.02 -166.8,-4.82 -18.26,-0.72 -31.12,-1.23 -34.06,-1.23 -2.54,0 -12.44,0.39 -27.29,0.94 -43.84,1.66 -135.02,5.11 -204.33,5.11 -12.8,0 -39.48,0 -39.48,-22.86 0,-10.89 9.71,-18.78 23.08,-18.78 18.52,0 52.49,-2.05 67.95,-5.86 75.22,-20.39 87.3,-35.76 87.3,-201.65 l 0,-343.46 c 0,-30.67 -11.91,-51.27 -37.63,-64.92 -50.22,-28.52 -154.61,-41.52 -230.34,-41.52 -205.27,0 -384.4,72.1 -532.41,214.33 -74.44,71.24 -215.205,278.92 -215.205,554.81 0,219.96 74.89,409.84 200.335,507.92 149.03,115.94 296.93,131.92 434.53,131.92 254.82,0 422.74,-80.7 476.03,-160.54 35.04,-55.28 41.17,-118.23 42.06,-130.54 1.93,-16.97 4.1,-36.21 20.99,-36.21 23.24,0 25.14,22.23 25.14,49.1 0,146.68 7.61,216.76 11.69,254.4 1.59,14.7 2.65,24.41 2.65,32.47 0,14.48 -10.3,22.86 -31.04,24.91 -54.28,2.12 -125.11,10.72 -164.92,20.05 -6.78,1.4 -167.72,34.5 -314.95,34.5 -158.11,0 -363.36,-14.57 -548.75,-128.27 -216.324,-134.23 -345.468,-384.85 -345.468,-670.44 0,-273.11 132.66,-483.62 246.254,-580.9 167.764,-144.48 396.114,-217.77 678.704,-217.77 126.99,0 308.64,24.09 437.88,91.82 28.03,16.11 29.99,23.62 29.99,114.88 l 0,226.28 c 0,84.34 0,145.25 4.08,209.75 4.22,72.64 21.98,100.13 71.05,109.06 23.78,3.91 35.72,5.88 49.37,5.88 13.37,0 23.07,7.89 23.07,18.78"></path> <path id="path16" style="fill:#100f0d;fill-opacity:1;fill-rule:nonzero;stroke:none" d="m 2803.75,2302.82 -255.98,0 c 0.07,0.21 0.16,0.47 0.27,0.72 l 119.21,365.74 c 1.58,4.73 2.91,7.49 3.82,9.07 0.93,-1.6 2.26,-4.39 3.86,-9.17 L 2803.48,2304 c 0.1,-0.46 0.19,-0.86 0.27,-1.18 z m 405.87,-429.49 c -13.11,0 -32.79,1.35 -52.33,7.86 -29.63,8.48 -66.12,32.5 -112.18,146.46 -58.9,146.8 -183.7,472.76 -258.27,667.52 -29.88,78.04 -51.55,134.63 -57.36,149.35 -15.9,41.06 -22.56,53 -36.04,53 -13.41,0 -19.74,-12.19 -36.1,-57.22 l -307.53,-841.34 c -26.03,-72.34 -52.1,-115.65 -108.36,-123 -10.93,-1.35 -29.62,-2.63 -38.46,-2.63 -11.28,0 -18.86,-5.98 -18.86,-14.84 0,-17.53 21.89,-17.53 32.41,-17.53 43.04,0 90.69,1.84 122.22,3.05 14.95,0.58 26.05,1 30.86,1 5.96,0 18.92,-0.65 34.37,-1.42 23.05,-1.16 51.76,-2.63 71.32,-2.63 22.31,0 26.99,9.54 26.99,17.53 0,5.54 -2.62,14.84 -20.22,14.84 l -13.56,0 c -17.31,0 -44.78,8.83 -44.78,32.59 0,23.77 6.6,55.2 18.62,88.64 l 81.14,239.42 c 2.48,6.16 5,6.67 7.36,6.67 l 291.3,0 c 3.31,0 4.15,-0.35 5.94,-3.82 l 125.97,-333.26 c 3.43,-9.13 3.87,-17.22 1.23,-22.71 -1.76,-3.7 -4.23,-4.86 -4.73,-5.04 -12.65,-3.14 -14.54,-11.35 -14.54,-15.98 0,-13.81 15.35,-14.58 40.77,-15.85 l 6.36,-0.31 c 60.35,-1.74 135.96,-2.72 212.91,-2.72 22.41,0 33.78,5.91 33.78,17.53 0,9.84 -6.8,14.84 -20.23,14.84"></path> <path id="path18" style="fill:#100f0d;fill-opacity:1;fill-rule:nonzero;stroke:none" d="m 4643.63,1873.33 c -13.08,0 -47.79,0 -86.02,11.83 -55.25,18 -63.58,93.12 -68.55,137.98 l -90.78,831.84 c -2.27,21.54 -5.91,42.54 -22.89,42.54 -15.1,0 -22.19,-16.05 -26.4,-25.51 l -392.38,-838.11 -408.36,839.39 c -6.61,14.55 -13.64,24.23 -26.42,24.23 -16.08,0 -19.86,-20.92 -21.55,-30.31 l -97.54,-883.35 -0.5,-4.88 c -5.09,-48.71 -9.87,-94.75 -48.35,-101.74 -19.66,-3.91 -28.78,-3.91 -39.35,-3.91 -10.06,0 -20.24,-4.65 -20.24,-13.49 0,-12.53 10,-18.88 29.74,-18.88 23.33,0 58.09,1.65 83.47,2.84 14.49,0.67 25.9,1.21 30.32,1.21 3.41,0 12.21,-0.4 24.22,-0.96 26.86,-1.23 67.43,-3.09 101.78,-3.09 9.3,0 31.06,0 31.06,18.88 0,7.68 -7.52,13.49 -17.5,13.49 -8.17,0 -27.88,1.37 -50.19,6.65 -17.29,3.44 -29.83,18.35 -29.83,35.43 0,23.21 0,47.17 1.34,68.52 l 52.8,612.68 c 32.14,-72.53 161.14,-348.94 173,-372.56 l 2.2,-4.44 c 37.04,-74.38 126.38,-253.51 156.34,-310.01 l 3.05,-5.77 c 25.66,-48.61 31.76,-60.17 44.89,-60.17 14.95,0 20.04,10.76 41.44,56.06 l 334.2,709.19 63.45,-682.06 c 2.56,-22.99 0.84,-37.97 -1.26,-41.73 -9.08,-2.17 -13.69,-7.47 -13.69,-15.79 0,-13.86 14.84,-17.67 44.07,-20.2 51.57,-4.21 198.39,-8.17 226.8,-8.17 31.71,0 35.13,13.21 35.13,18.88 0,6.14 -3.04,13.49 -17.5,13.49"></path> <path id="path20" style="fill:#100f0d;fill-opacity:1;fill-rule:nonzero;stroke:none" d="m 5360.94,2040.45 c -14.24,0 -16.98,-15.13 -18.99,-26.26 -9.37,-54.74 -25.08,-80.27 -58.01,-94.15 -34.57,-14.63 -94.11,-14.63 -129.69,-14.63 -135.72,0 -149.34,18.84 -153.18,106.63 -0.96,20.63 -0.53,109.63 -0.22,174.62 0.13,25.53 0.24,47.55 0.24,60.68 l 0,121.28 c 0,2.51 0.44,2.94 2.98,2.94 23.09,0 159.09,-2.75 196.32,-6.84 48.57,-5.01 60.59,-24.76 65.98,-43.53 5.22,-16.95 5.22,-29.85 5.22,-43.53 0,-11.6 6.4,-19.11 16.31,-19.11 16.36,0 16.36,20.58 16.36,32.88 0,9 2.66,59.52 5.47,87.56 2.58,28.08 6.16,47.57 8.53,60.47 1.5,8.19 2.5,13.61 2.5,17.33 0,15.98 -9.45,17.71 -13.53,17.71 -8.06,0 -13.79,-6.55 -23.25,-17.39 l -2.39,-2.77 c -10.95,-12.15 -30.11,-14.56 -60.39,-17.07 -23.18,-2.04 -128.08,-2.77 -219.35,-3.02 -0.18,0.29 -0.76,1.68 -0.76,7.38 l 0,380.3 c 0,5.78 1.14,7.07 1.58,7.07 l 0.01,0 c 17.11,0 165.1,-1.37 188.05,-4.1 71.72,-7.93 83.92,-23.42 92.39,-42.76 6.13,-14.63 7.77,-36.42 7.77,-46.99 0,-20.35 9.64,-24.64 17.72,-24.64 7.97,0 13.42,6.91 16.21,20.76 1.83,11.05 3.62,40.12 5.06,63.48 0.74,12.44 1.39,23.07 1.87,27.86 2.41,22.45 5.72,37.04 8.1,47.7 1.73,7.58 2.97,13.07 2.97,17.74 0,16.63 -7.64,19.1 -12.19,19.1 -5.46,0 -9.9,-2.24 -13.84,-4.23 -2.39,-1.21 -4.66,-2.35 -7.08,-2.85 -11.39,-2.84 -34.16,-5.46 -57.89,-6.69 -31.22,-1.33 -303.69,-1.34 -315.26,-1.34 -1.71,0 -8.36,0.26 -18.32,0.64 -29.48,1.11 -90.8,3.45 -137.41,3.45 -8.6,0 -28.74,0 -28.74,-17.7 0,-8.68 7.45,-14.97 17.71,-14.97 12.44,0 35.09,-1.37 45.48,-4 39.05,-8.26 51.15,-24.5 53.95,-72.41 2.75,-43.88 2.75,-82.56 2.75,-297.19 l 0,-242.52 c 0,-129.18 0,-240.76 -6.82,-298.1 -5.96,-43.13 -12.96,-65.82 -34.79,-70.17 -7.31,-1.63 -25.84,-5.37 -39.89,-5.37 -12.24,0 -17.72,-7.51 -17.72,-14.92 0,-17.72 20.14,-17.72 28.74,-17.72 29.46,0 81.23,2.04 112.17,3.28 12.25,0.48 20.91,0.81 22.89,0.81 12.02,0 29.03,-0.75 52.6,-1.81 53.44,-2.4 142.91,-6.42 287.71,-6.42 53.72,0 69.93,0 80.92,40.94 6.79,28.51 18.1,122.63 18.1,135.21 0,10.23 0,27.38 -14.95,27.38"></path> <path id="path22" style="fill:#100f0d;fill-opacity:1;fill-rule:nonzero;stroke:none" d="m 6678.02,2444.32 c -5.99,0 -9.51,-4.63 -12.61,-8.71 l -1.66,-2.16 c -5.15,-7.41 -12.01,-9.88 -31.83,-11.52 -10.93,-0.77 -21.78,-0.77 -35.55,-0.77 l -125.08,-0.79 c 0,0.15 0,0.3 0,0.47 l 0,244.65 c 0,1.87 0.29,2.67 0.38,2.11 l 123.15,-2.42 c 28.38,-0.73 44.82,-13.68 48.51,-21.69 4.3,-9.31 6.6,-22.03 6.6,-27.61 0,-15.49 10.24,-16.27 12.29,-16.27 4.62,0 10.61,2.45 12.99,14.38 1.08,6.46 2.07,22.53 2.94,36.7 0.46,7.37 0.84,13.7 1.12,16.51 1.38,12.85 3.27,21.25 4.65,27.37 1.05,4.57 1.79,7.89 1.79,10.91 0,8.19 -4.74,13.9 -11.5,13.9 -3.53,0 -6.39,-1.61 -8.92,-3.01 -1.29,-0.74 -2.7,-1.57 -4.41,-2.14 -4.81,-1.61 -13.84,-1.99 -24.3,-2.45 l -9.06,-0.4 c -17.38,-0.76 -166.75,-0.8 -196.53,-0.8 -0.98,0 -4.76,0.16 -10.47,0.37 -17.13,0.66 -52.78,2 -79.91,2 -4.83,0 -19.48,0 -19.48,-13.05 0,-6.57 5.62,-11.52 13.07,-11.52 6.87,0 19.94,-0.78 25.81,-2.22 21.55,-4.59 27.52,-12.72 29.14,-39.49 1.55,-25.38 1.55,-71.89 1.55,-196.21 l 0,-140.81 c 0,-74.56 0,-187.23 -3.94,-220.34 -3.27,-23.72 -6.94,-36.16 -18,-38.37 -4.18,-0.92 -14.74,-3.04 -22.56,-3.04 -9,0 -13.1,-5.95 -13.1,-11.49 0,-13.11 14.66,-13.11 19.49,-13.11 17.19,0 47.31,1.21 65.31,1.95 7.01,0.28 11.97,0.47 13.09,0.47 0.91,0 4.24,-0.12 9.34,-0.3 17.89,-0.71 55.12,-2.12 89.09,-2.12 17.59,0 19.48,9.18 19.48,13.11 0,5.54 -4.09,11.49 -13.07,11.49 -6.59,0 -23.65,1.51 -35.14,3.14 -18.53,2.46 -22.97,14.25 -25.46,38.15 -3.94,33.23 -3.94,145.9 -3.94,220.46 l 0,67.99 c 0,0.19 0,0.36 0.01,0.52 30.39,0 124.75,-0.19 142.69,-2.36 21.22,-2.7 32.56,-14.37 36.07,-24.26 2.63,-7.91 3.54,-17.24 4.26,-24.72 l 0.23,-1.96 c 0,-8.3 4.92,-13.9 12.27,-13.9 12.3,0 12.3,14.25 12.3,21.9 0,5.56 1.6,37.5 3.17,52.96 1.46,16.23 3.55,27.5 4.93,34.94 0.93,5.05 1.5,8.47 1.5,10.5 0,11.79 -7.48,13.06 -10.7,13.06"></path> <path id="path24" style="fill:#100f0d;fill-opacity:1;fill-rule:nonzero;stroke:none" d="m 6063.66,2097.07 0,523.28 c 79.26,-36.74 144.26,-123.59 144.26,-267.87 0,-171.26 -80.56,-233.18 -144.26,-255.41 z m -76.47,543.2 c 18.55,-1.37 37.1,-5.14 55.22,-11.37 l 0,-538.1 c -21.78,-5.21 -39.66,-6.02 -48.62,-6.02 -2.23,0 -4.38,0.29 -6.6,0.34 l 0,555.15 z m -71.42,-5.14 c 15.82,3.42 32.55,5.33 50.17,5.67 l 0,-554.47 c -17.51,1.95 -34.27,5.73 -50.17,11.19 l 0,537.61 z m -21.26,-528.99 c -91.67,42.5 -150.04,145.25 -150.04,278.39 0,126.74 55.91,214.86 150.04,244.98 l 0,-523.37 z m 82.49,575.48 c -234.51,0 -321.91,-195.98 -321.91,-319.51 0,-154.66 99.23,-321.14 317.1,-321.14 188.85,0 325.91,140.43 325.91,333.93 0,183.46 -129.04,306.72 -321.1,306.72"></path> <path id="path26" style="fill:#100f0d;fill-opacity:1;fill-rule:nonzero;stroke:none" d="m 7246.26,1425.43 c -11.76,48.01 -27.89,113.75 -27.89,149.01 0,11.86 0,29.8 -16.29,29.8 -4.68,0 -11.38,-1.33 -21.54,-3.4 -27.59,-5.57 -78.94,-15.92 -169.58,-15.92 l -6705.065,0 c -23.692,0 -97.903,4.04 -152.032,9.64 -32.32,2.41 -51.086,10.73 -64.7771,16.81 -8.0742,3.57 -14.4414,6.39 -20.6836,6.39 -11.1406,0 -17.5664,-16.89 -24.8007,-38.91 l -0.9063,-2.8 C 40.4023,1566.9 0,1394.75 0,1373.64 c 0,-22.26 12.457,-23.99 16.2695,-23.99 11.6719,0 19.3086,7.06 25.3985,23.32 5.8476,13.65 11.3633,26.52 32.2343,58.77 29.1487,43.74 72.1287,56.95 191.5707,58.87 l 279.035,3.77 0,-810.091 c 0,-181.258 0,-455.211 -9.559,-535.789 -8.504,-61.7109 -18.687,-94.1914 -50.894,-100.6211 -21.328,-4.7383 -42.457,-7.5781 -56.516,-7.5781 -16.254,0 -22.016,-9.8203 -22.016,-18.2188 C 405.523,0 430.824,0 442.988,0 c 41.282,0 113.821,2.89844 157.168,4.64063 17.199,0.69921 29.317,1.14843 32.086,1.14843 2.223,0 10.371,-0.26953 22.914,-0.76953 C 698.281,3.39844 788.023,0 869.734,0 c 31.012,0 37.524,12.0117 37.524,22.082 0,8.3985 -5.797,18.2188 -22.082,18.2188 -16.625,0 -58.403,3.7109 -86.035,7.6601 -50.465,6.7305 -63.383,40.4297 -69.594,100.3981 -9.609,80.719 -9.609,354.672 -9.609,535.93 l 0,810.201 6217.492,-3.88 c 166.25,-3.47 270.22,-41 278.13,-100.17 l 1.92,-21.13 c 1.58,-22.06 4.21,-38.96 22.05,-38.96 4.71,0 20.14,2.27 20.14,31.71 0,8.41 -4.85,28.53 -13.41,63.37"></path> <path id="path28" style="fill:#100f0d;fill-opacity:1;fill-rule:nonzero;stroke:none" d="m 2050.99,208.621 c -11.75,0 -41.88,2.66 -62.04,5.508 -35.39,4.742 -44.48,28.609 -48.84,71.152 -6.95,58.36 -6.95,171.629 -6.95,302.758 l 0,246.172 c 0,217.869 0,257.139 2.78,301.699 2.81,49.76 14.07,67.65 46.22,73.61 16.33,2.74 24.52,4.1 33.88,4.1 10.32,0 17.84,6.32 17.84,15.01 0,17.8 -20.35,17.8 -29.02,17.8 -29.92,0 -82.46,-2.09 -113.82,-3.33 -12.47,-0.48 -21.25,-0.85 -23.28,-0.85 -1.72,0 -8.44,0.27 -18.51,0.65 -29.91,1.14 -92.16,3.53 -139.55,3.53 -8.67,0 -28.98,0 -28.98,-17.8 0,-8.69 7.5,-15.01 17.8,-15.01 12.6,0 35.57,-1.41 46.18,-4.05 39.77,-8.44 52.1,-24.95 54.93,-73.71 2.78,-44.51 2.78,-83.78 2.78,-301.649 l 0,-29.371 c 0,-1.031 -0.12,-1.52 -0.1,-1.621 -0.2,-0.059 -0.7,-0.188 -1.69,-0.188 l -593.01,0 c -0.98,0 -1.4,0.098 -1.6,0.098 -0.07,0.191 -0.19,0.68 -0.19,1.711 l 0,29.371 c 0,217.869 0,257.139 2.79,301.699 2.8,49.76 14.07,67.65 46.21,73.61 16.34,2.74 24.52,4.1 33.92,4.1 10.31,0 17.8,6.32 17.8,15.01 0,17.8 -20.35,17.8 -29.02,17.8 -29.96,0 -82.51,-2.09 -113.89,-3.33 -12.42,-0.48 -21.15,-0.85 -23.16,-0.85 -1.72,0 -8.44,0.27 -18.53,0.65 -29.92,1.14 -92.19,3.53 -139.538,3.53 -8.695,0 -29.019,0 -29.019,-17.8 0,-8.69 7.519,-15.01 17.844,-15.01 12.601,0 35.573,-1.41 46.123,-4.05 39.78,-8.44 52.11,-24.95 54.94,-73.71 2.78,-44.51 2.78,-83.78 2.78,-301.649 l 0,-246.172 c 0,-131.129 0,-244.398 -6.92,-302.617 -5.88,-42.871 -13.24,-66.973 -35.39,-71.383 -7.45,-1.66 -26.35,-5.418 -40.565,-5.418 -12.324,0 -17.84,-7.551 -17.84,-15 0,-17.851 20.352,-17.851 29.015,-17.851 29.96,0 82.53,2.128 113.94,3.371 12.42,0.488 21.16,0.82 23.16,0.82 1.59,0 7.47,-0.191 16.51,-0.543 31.26,-1.148 96.26,-3.648 155.5,-3.648 25.24,0 29.01,11.179 29.01,17.851 0,6.899 -4.68,15 -17.84,15 -11.7,0 -41.83,2.66 -62.04,5.508 -35.39,4.742 -44.48,28.609 -48.85,71.152 -6.94,58.36 -6.94,171.629 -6.94,302.758 l 0,146.84 c 0,1.019 0.12,1.519 0.1,1.609 0.2,0.051 0.69,0.192 1.69,0.192 l 593.01,0 c 1.79,0 1.79,-1.102 1.79,-1.801 l 0,-146.84 c 0,-131.129 0,-244.398 -6.92,-302.617 -6.08,-43.871 -13.18,-66.922 -35.37,-71.383 -7.49,-1.66 -26.44,-5.418 -40.63,-5.418 -12.28,0 -17.8,-7.551 -17.8,-15 0,-17.851 20.31,-17.851 28.97,-17.851 29.99,0 82.56,2.128 113.97,3.371 12.39,0.488 21.13,0.82 23.13,0.82 1.62,0 7.52,-0.191 16.61,-0.543 31.24,-1.148 96.25,-3.648 155.44,-3.648 25.25,0 29.02,11.179 29.02,17.851 0,6.899 -4.68,15 -17.84,15"></path> <path id="path30" style="fill:#100f0d;fill-opacity:1;fill-rule:nonzero;stroke:none" d="m 2425.31,1169.91 c 0,5.31 2.22,8.69 6.45,10.41 13.13,3.94 49.79,8.13 91.82,8.13 147.36,0 235.34,-102.09 235.34,-273.098 0,-96.122 -30.81,-174.582 -82.46,-209.993 -32.71,-22.769 -73.38,-25.39 -101.14,-25.39 -59.3,0 -123.66,9.621 -143.44,21.383 -4.69,2.847 -6.57,6.078 -6.57,11.136 l 0,457.422 z m 804.6,-961.289 c -8.22,0 -27.44,0 -53.52,4.078 -37.09,5.942 -94.72,22.59 -166.82,98.699 -70.99,75.883 -153.64,181.942 -249.3,304.731 l -37.53,48.101 c 113.86,106.34 166.93,209.36 166.93,323.829 0,98.051 -62.43,169.061 -99.29,195.581 -77.13,55.34 -174.6,62.79 -259.8,62.79 -27.3,0 -79.77,-1.65 -118.09,-2.87 -22.97,-0.72 -41.27,-1.31 -46.98,-1.31 -1.72,0 -8.43,0.27 -18.53,0.65 -29.89,1.14 -92.14,3.53 -139.48,3.53 -8.68,0 -29.03,0 -29.03,-17.8 0,-8.69 7.5,-15.01 17.8,-15.01 12.63,0 35.62,-1.41 46.18,-4.05 43.82,-9.29 52.38,-30.24 54.93,-73.71 2.79,-44.51 2.79,-83.78 2.79,-301.649 l 0,-246.172 c 0,-131.129 0,-244.398 -6.93,-302.617 -6.07,-43.832 -13.2,-66.922 -35.43,-71.383 -7.45,-1.66 -26.36,-5.418 -40.56,-5.418 -12.29,0 -17.81,-7.551 -17.81,-15 0,-17.851 20.36,-17.851 29.02,-17.851 35.7,0 103.25,3.011 125.45,3.96 l 5.99,0.231 c 1.62,0 7.52,-0.191 16.63,-0.543 31.25,-1.148 96.26,-3.648 155.43,-3.648 25.25,0 29.02,11.179 29.02,17.851 0,6.899 -4.7,15 -17.85,15 -11.71,0 -41.83,2.66 -62.04,5.508 -35.39,4.742 -44.47,28.609 -48.84,71.152 -6.94,58.36 -6.94,171.629 -6.94,302.758 l 0,33.57 c 0,4.551 1.03,4.551 3.01,4.61 l 172.21,-2.86 c 6,0 8.62,-1.621 12.92,-5.8 11.82,-15.368 30.68,-41.387 52.52,-71.52 29.44,-40.598 66.09,-91.148 99.91,-135.48 l 17.76,-23.411 c 70.11,-92.5 116.42,-153.609 173.17,-183.968 38.52,-20.739 75.66,-27.41 152.83,-27.41 l 99.3,0 c 16.96,0 40.19,0 40.19,17.851 0,8.098 -8.81,15 -19.22,15"></path> <path id="path32" style="fill:#100f0d;fill-opacity:1;fill-rule:nonzero;stroke:none" d="m 5409.66,1246.43 c -37.97,0 -71.37,-1.84 -93.49,-3.07 -11.5,-0.63 -20.22,-1.11 -25.39,-1.11 -5.06,0 -15.71,0.46 -29.97,1.06 -29.17,1.24 -73.23,3.12 -115.5,3.12 -12.94,0 -34.63,0 -34.63,-16.41 0,-10.88 6,-16.4 17.85,-16.4 10.11,0 41.9,-1.22 66.87,-6.78 38,-9.8 48.21,-35.83 49.63,-126.63 l 14.98,-693.48 c -23.82,25.34 -63.22,68.571 -111.05,121.059 -62.3,68.383 -139.82,153.461 -212.81,231.602 -216.37,231.82 -423.85,456.039 -444.93,479.899 -3.62,3.6 -7.87,8.33 -12.4,13.34 -18.12,20.15 -30.79,33.34 -41.21,33.34 -18.84,0 -22.03,-23.58 -22.03,-76.5 l -1.42,-801.458 c 0,-127.801 -7.62,-163.024 -37.42,-171.352 -17.87,-5.98 -40.92,-8.039 -55.25,-8.039 -13.12,0 -17.8,-7.781 -17.8,-15 0,-17.851 18.85,-17.851 28.97,-17.851 43.69,0 85.81,2.089 111,3.269 11.3,0.563 19.47,0.922 23.3,0.922 3.54,0 10.51,-0.332 20.51,-0.77 26.4,-1.293 70.57,-3.421 127.76,-3.421 9.49,0 31.78,0 31.78,17.851 0,7.219 -4.69,15 -17.84,15 -3.82,0 -38.07,0.231 -68.02,8.078 -30.73,9.121 -46.87,35.75 -49.89,156.11 l -17.61,651.861 c 42.43,-47.51 191.11,-213.459 353.07,-388.022 148.69,-159.867 350.22,-365.488 365.26,-379.187 77.65,-77.633 92.62,-91.481 106.77,-91.481 17.05,0 19.22,11.918 19.22,105.918 l 2.81,819.652 c 0,85.12 5.76,109.4 46.72,118.08 15.97,3.99 25.23,3.99 31.96,3.99 15.18,0 21.98,8.25 21.98,16.4 0,16.41 -19.88,16.41 -31.78,16.41"></path> <path id="path34" style="fill:#100f0d;fill-opacity:1;fill-rule:nonzero;stroke:none" d="m 6210.44,377.859 c -14.29,0 -17.08,-15.281 -19.11,-26.5 -9.47,-55.589 -25.45,-81.531 -58.97,-95.699 -35.15,-14.898 -95.58,-14.898 -131.67,-14.898 -137.95,0 -151.77,19.129 -155.67,108.398 -1,20.969 -0.53,111.34 -0.22,177.289 0.14,25.942 0.24,48.242 0.24,61.59 l 0,123.063 c 0,2.796 0.63,3.199 3.14,3.199 23.49,0 161.78,-2.781 199.35,-6.973 49.39,-5.058 61.62,-25.207 67.09,-44.34 5.33,-17.187 5.33,-30.347 5.33,-44.226 0,-11.641 6.43,-19.172 16.36,-19.172 16.42,0 16.42,20.781 16.42,33.18 0,9.07 2.69,60.308 5.57,88.921 2.59,28.61 6.26,48.379 8.67,61.469 1.54,8.238 2.55,13.692 2.55,17.442 0,16.089 -9.53,17.839 -13.62,17.839 -8.13,0 -13.9,-6.621 -23.48,-17.621 l -2.41,-2.769 c -10.32,-11.481 -26.56,-14.512 -61.42,-17.391 -23.5,-2.082 -129.96,-2.832 -222.76,-3 -0.18,0.281 -0.79,1.692 -0.79,7.578 l 0,386.042 c 0,6.07 1.21,7.37 1.76,7.39 16.61,0 167.55,-1.46 190.91,-4.17 72.89,-8.09 85.3,-23.87 93.94,-43.53 6.19,-14.9 7.84,-37.04 7.84,-47.8 0,-20.52 9.68,-24.81 17.79,-24.81 8.09,0 13.57,6.97 16.31,20.89 1.9,11.14 3.71,40.38 5.12,63.91 0.81,12.85 1.48,23.91 1.99,28.81 2.4,22.85 5.77,37.72 8.23,48.56 1.71,7.64 2.98,13.16 2.98,17.85 0,16.74 -7.66,19.25 -12.23,19.25 -5.51,0 -10.03,-2.27 -13.99,-4.3 -2.45,-1.24 -4.74,-2.4 -7.21,-2.89 -11.42,-2.91 -34.54,-5.57 -58.82,-6.81 -31.65,-1.38 -308.21,-1.38 -319.96,-1.38 -1.75,0 -8.5,0.27 -18.65,0.65 -29.89,1.14 -92.14,3.53 -139.41,3.53 -8.7,0 -29.02,0 -29.02,-17.8 0,-8.69 7.5,-15.01 17.8,-15.01 12.59,0 35.56,-1.41 46.18,-4.05 43.82,-9.29 52.37,-30.24 54.92,-73.71 2.79,-44.51 2.79,-83.78 2.79,-301.649 l 0,-246.172 c 0,-131.129 0,-244.398 -6.93,-302.617 -6.07,-43.832 -13.2,-66.922 -35.43,-71.383 -7.45,-1.66 -26.35,-5.418 -40.58,-5.418 -12.27,0 -17.77,-7.551 -17.77,-15 0,-17.851 20.34,-17.851 29.01,-17.851 29.89,0 82.41,2.128 113.8,3.371 12.48,0.488 21.26,0.82 23.29,0.82 12.2,0 29.46,-0.742 53.35,-1.852 54.27,-2.418 145.08,-6.507 292.09,-6.507 54.4,0 70.84,0 81.95,41.429 7.29,30.489 18.39,126.188 18.39,137.231 0,10.308 0,27.597 -15.04,27.597"></path> <path id="path36" style="fill:#100f0d;fill-opacity:1;fill-rule:nonzero;stroke:none" d="m 6754.97,787.641 -39.08,30.699 c -135.22,110.762 -168.24,155.871 -168.24,229.83 0,93.11 66.49,155.65 165.43,155.65 117.87,0 157.45,-49.41 169.01,-70.71 7.63,-13.93 16.01,-50.67 17.47,-67.56 1.27,-10.11 3.03,-23.98 17.71,-23.98 16.43,0 16.43,24.27 16.43,38.8 0,74.54 3.44,118.86 4.91,137.8 0.42,5.43 0.7,8.88 0.7,10.46 0,14.51 -11.02,16.38 -20.6,16.38 -9.95,0 -20.02,1.05 -47.4,6.85 -40.27,9.63 -82.1,14.11 -131.65,14.11 -179.92,0 -296.18,-101.4 -296.18,-258.32 0,-94.47 31.35,-183.119 184.26,-308.638 l 62.97,-51.742 c 124.37,-102.688 158.42,-155.719 158.42,-246.692 0,-89.137 -66.42,-179.359 -193.39,-179.359 -51.94,0 -175.41,13.383 -200.55,137.422 -4.02,18.847 -4.02,37.839 -4.02,50.347 0,8.231 0,21.981 -16.43,21.981 -15.13,0 -16.82,-18.43 -17.77,-28.559 -0.27,-4.269 -0.69,-9.738 -1.2,-16.371 -2.18,-28.23 -5.85,-75.519 -5.85,-132.309 0,-37.031 0.97,-47.23 24.69,-59.101 53.06,-25.84 115.35,-38.449 190.35,-38.449 84.42,0 158.76,20.75 215.02,60.019 89.73,63.699 121.72,164.461 121.72,237.539 0,108.262 -33.82,197.621 -206.73,333.903"></path> <path id="path38" style="fill:#100f0d;fill-opacity:1;fill-rule:nonzero;stroke:none" d="m 3577.02,1190.41 c 30.24,7.96 62.53,12.6 96.72,13.94 l 0,-977.432 c -34.02,4.602 -66.25,13.191 -96.72,25.301 l 0,938.191 z m -36.11,-921.73 c -152.66,79.429 -249.2,256.031 -249.2,482.992 0,216.566 92.56,369.198 249.2,427.298 l 0,-910.29 z m 259.02,914.51 0,-953.928 c -29.92,-5.602 -54.12,-6.672 -67.3,-6.672 -7.75,0 -15.18,0.828 -22.79,1.191 l 0,980.649 c 37.21,-1.59 74.6,-8.59 110.95,-21.24 l -20.86,0 z m 312.13,-487.499 c 0,-321.23 -160.82,-424.859 -276.02,-457.871 l 0,939.88 c 149.51,-58.94 276.02,-214.759 276.02,-482.009 z m -408.77,570.279 c -406.28,0 -557.68,-339.49 -557.68,-553.482 0,-267.898 171.89,-556.308 549.26,-556.308 327.21,0 564.71,243.39 564.71,578.699 0,317.651 -223.56,531.091 -556.29,531.091"></path> <path id="path40" style="fill:#231f20;fill-opacity:1;fill-rule:nonzero;stroke:none" d="m 7087.51,1235.88 0,-12.35 -34.96,0 0,-91.39 -14.18,0 0,91.39 -34.96,0 0,12.35 84.1,0"></path> <path id="path42" style="fill:#231f20;fill-opacity:1;fill-rule:nonzero;stroke:none" d="m 7100.09,1235.88 20.11,0 29.82,-87.69 29.63,87.69 19.97,0 0,-103.74 -13.41,0 0,61.22 c 0,2.11 0.04,5.64 0.15,10.53 0.09,4.89 0.14,10.15 0.14,15.72 l -29.61,-87.47 -13.91,0 -29.91,87.47 0,-3.16 c 0,-2.54 0.08,-6.4 0.22,-11.59 0.13,-5.23 0.2,-9.04 0.2,-11.5 l 0,-61.22 -13.4,0 0,103.74"></path> </g> </g> </svg>