<?xml version="1.0" encoding="utf-8"?>
<!-- Generator: Adobe Illustrator 21.0.2, SVG Export Plug-In . SVG Version: 6.00 Build 0)  -->
<svg version="1.1" id="Layer_1" xmlns="http://www.w3.org/2000/svg" xmlns:xlink="http://www.w3.org/1999/xlink" x="0px" y="0px"
	 viewBox="0 0 589.1 429.9" style="enable-background:new 0 0 589.1 429.9;" xml:space="preserve">
<style type="text/css">
	.st0{fill:none;}
	.st1{fill:none;stroke:#231F20;stroke-width:0.3;}
	.st2{fill:none;stroke:#231F20;stroke-width:0.3;stroke-linejoin:bevel;}
	.st3{fill:#A33B3B;}
	.st4{fill:#843535;stroke:#000000;stroke-width:1.5687;stroke-miterlimit:10;}
	.st5{fill:#A33B3B;stroke:#000000;stroke-width:0.6764;stroke-miterlimit:10;}
	.st6{enable-background:new    ;}
	.st7{fill:none;stroke:#000000;stroke-width:0.8667;stroke-miterlimit:10;}
	.st8{fill:none;stroke:#000000;stroke-width:2.8634;stroke-miterlimit:10;}
	.st9{fill:#F48260;}
	.st10{font-family:'Arial-BoldMT';}
	.st11{font-size:10.2096px;}
	.st12{fill:none;stroke:#000000;stroke-width:1.5687;stroke-miterlimit:10;}
	.st13{fill:none;stroke:#000000;stroke-miterlimit:10;}
	.st14{fill:none;stroke:#000000;stroke-width:1.2766;stroke-miterlimit:10;}
	.st15{opacity:0.3;fill:none;stroke:#000000;stroke-width:2.8634;stroke-miterlimit:10;enable-background:new    ;}
	.st16{fill:none;stroke:#000000;stroke-width:0.7245;stroke-miterlimit:10;}
	.st17{fill:none;stroke:#000000;stroke-width:0.8057;stroke-miterlimit:10;}
	.st18{fill:#FF1F1F;stroke:#FFD04D;stroke-width:0.2428;stroke-miterlimit:10;}
	.st19{fill:none;stroke:#000000;stroke-width:0.3188;stroke-miterlimit:10;}
	.st20{fill:none;stroke:#000000;stroke-width:0.3537;stroke-miterlimit:10;}
	.st21{fill:#FFFFFF;}
	.st22{fill:#848484;}
	.st23{fill:#C6C6C6;}
	.st24{fill:none;stroke:#000000;stroke-width:0.6764;stroke-miterlimit:10;}
	.st25{fill:#F9F9F9;}
	.st26{fill:url(#SVGID_1_);stroke:#000000;stroke-width:0.6764;stroke-miterlimit:10;}
	.st27{opacity:0.8;fill:none;stroke:#F4F4F4;stroke-miterlimit:10;enable-background:new    ;}
	.st28{opacity:0.8;fill:none;stroke:#F4F4F4;stroke-width:0.6805;stroke-miterlimit:10;enable-background:new    ;}
	.st29{opacity:0.14;}
	.st30{display:none;opacity:0.1;fill:url(#SVGID_4_);enable-background:new    ;}
</style>
<pattern  y="429.9" width="72" height="72" patternUnits="userSpaceOnUse" id="SVGID_2_" viewBox="6.5 -72.6 72 72" style="overflow:visible;">
	<g>
		<rect x="6.5" y="-72.6" class="st0" width="72" height="72"/>
		<g>
			<rect x="6.5" y="-72.6" class="st0" width="72" height="72"/>
			<g>
				<polygon class="st0" points="6.5,-0.6 78.5,-0.6 78.5,-72.6 6.5,-72.6 				"/>
				<g>
					<polygon class="st0" points="6.5,-72.6 78.5,-72.6 78.5,-0.6 6.5,-0.6 					"/>
					<g>
						<polygon class="st0" points="6.5,-0.6 78.5,-0.6 78.5,-72.6 6.5,-72.6 						"/>
						<g>
							<polygon class="st0" points="6.5,-0.6 78.5,-0.6 78.5,-72.6 6.5,-72.6 							"/>
							<g>
								<line class="st1" x1="36" y1="-73.7" x2="36" y2="-72"/>
								<line class="st1" x1="35.5" y1="-73.7" x2="35.1" y2="-72.6"/>
								<line class="st1" x1="36.5" y1="-73.7" x2="37" y2="-72.6"/>
							</g>
							<g>
								<line class="st1" x1="77" y1="-49.4" x2="83.9" y2="-49.4"/>
								<line class="st1" x1="78.3" y1="-36" x2="85.2" y2="-36"/>
								<line class="st1" x1="78" y1="-12.7" x2="84.9" y2="-12.7"/>
								<line class="st1" x1="77.1" y1="-4.1" x2="84" y2="-4.1"/>
								<line class="st1" x1="77.4" y1="-66" x2="81.8" y2="-66"/>
							</g>
							<g>
								<line class="st1" x1="23.6" y1="-70" x2="30.4" y2="-70"/>
								<line class="st1" x1="36.6" y1="-66.5" x2="43.4" y2="-66.5"/>
								<line class="st1" x1="62.7" y1="-68.2" x2="69.6" y2="-68.2"/>
								<line class="st1" x1="65.6" y1="-62.6" x2="72.4" y2="-62.6"/>
								<line class="st1" x1="54.6" y1="-59.4" x2="61.4" y2="-59.4"/>
								<line class="st1" x1="42.1" y1="-56.7" x2="48.9" y2="-56.7"/>
								<line class="st1" x1="29.1" y1="-53.5" x2="35.9" y2="-53.5"/>
								<line class="st1" x1="40.6" y1="-49.2" x2="47.4" y2="-49.2"/>
								<line class="st1" x1="52.1" y1="-45" x2="58.9" y2="-45"/>
								<line class="st1" x1="46.8" y1="-41.1" x2="53.7" y2="-41.1"/>
								<line class="st1" x1="60.6" y1="-53.4" x2="67.4" y2="-53.4"/>
								<line class="st1" x1="60.3" y1="-37.9" x2="67.2" y2="-37.9"/>
								<line class="st1" x1="18.1" y1="-62.7" x2="24.9" y2="-62.7"/>
								<line class="st1" x1="7.1" y1="-59.5" x2="13.9" y2="-59.5"/>
								<line class="st1" x1="13.1" y1="-53.5" x2="19.9" y2="-53.5"/>
								<line class="st1" x1="5" y1="-49.4" x2="11.9" y2="-49.4"/>
								<line class="st1" x1="12.2" y1="-44.9" x2="19.1" y2="-44.9"/>
								<line class="st1" x1="27.3" y1="-42.1" x2="34.2" y2="-42.1"/>
								<line class="st1" x1="35.8" y1="-37.9" x2="42.7" y2="-37.9"/>
								<line class="st1" x1="29.3" y1="-30.7" x2="36.2" y2="-30.7"/>
								<line class="st1" x1="41.8" y1="-31.9" x2="48.7" y2="-31.9"/>
								<line class="st1" x1="10.3" y1="-32" x2="17.2" y2="-32"/>
								<line class="st1" x1="6.3" y1="-36" x2="13.2" y2="-36"/>
								<line class="st1" x1="6" y1="-12.7" x2="12.9" y2="-12.7"/>
								<line class="st1" x1="18" y1="-16.7" x2="24.9" y2="-16.7"/>
								<line class="st1" x1="19.6" y1="-23.4" x2="26.5" y2="-23.4"/>
								<line class="st1" x1="12.5" y1="-7.4" x2="19.4" y2="-7.4"/>
								<line class="st1" x1="5.1" y1="-4.1" x2="12" y2="-4.1"/>
								<line class="st1" x1="34.8" y1="-22" x2="41.7" y2="-22"/>
								<line class="st1" x1="48.3" y1="-26.5" x2="55.2" y2="-26.5"/>
								<line class="st1" x1="47.5" y1="-18.6" x2="54.4" y2="-18.6"/>
								<line class="st1" x1="58.5" y1="-21.9" x2="65.4" y2="-21.9"/>
								<line class="st1" x1="65.5" y1="-16.6" x2="72.4" y2="-16.6"/>
								<line class="st1" x1="41" y1="-11.5" x2="47.9" y2="-11.5"/>
								<line class="st1" x1="33.5" y1="-8.5" x2="40.4" y2="-8.5"/>
								<line class="st1" x1="32.6" y1="-1.7" x2="39.4" y2="-1.7"/>
								<line class="st1" x1="45" y1="-4.2" x2="51.9" y2="-4.2"/>
								<line class="st1" x1="60" y1="-7.2" x2="66.9" y2="-7.2"/>
								<line class="st1" x1="70.2" y1="-54.1" x2="77.1" y2="-54.1"/>
								<line class="st1" x1="71.3" y1="-41.2" x2="78.2" y2="-41.2"/>
								<line class="st1" x1="72" y1="-18.6" x2="78.9" y2="-18.6"/>
								<line class="st1" x1="72.8" y1="-26.6" x2="79.7" y2="-26.6"/>
								<line class="st1" x1="27" y1="-70" x2="27" y2="-68.2"/>
								<line class="st1" x1="40" y1="-66.5" x2="40" y2="-64.7"/>
								<line class="st1" x1="66.1" y1="-68.2" x2="66.1" y2="-66.5"/>
								<line class="st1" x1="69" y1="-62.6" x2="69" y2="-60.9"/>
								<line class="st1" x1="58" y1="-59.4" x2="58" y2="-57.6"/>
								<line class="st1" x1="45.5" y1="-56.7" x2="45.5" y2="-55"/>
								<line class="st1" x1="32.5" y1="-53.5" x2="32.5" y2="-51.7"/>
								<line class="st1" x1="44" y1="-49.2" x2="44" y2="-47.5"/>
								<line class="st1" x1="55.5" y1="-45" x2="55.5" y2="-43.2"/>
								<line class="st1" x1="50.3" y1="-41.1" x2="50.3" y2="-39.4"/>
								<line class="st1" x1="64" y1="-53.4" x2="64" y2="-51.6"/>
								<line class="st1" x1="63.8" y1="-37.9" x2="63.8" y2="-36.1"/>
								<line class="st1" x1="21.5" y1="-62.7" x2="21.5" y2="-61"/>
								<line class="st1" x1="10.5" y1="-59.5" x2="10.5" y2="-57.7"/>
								<line class="st1" x1="16.5" y1="-53.5" x2="16.5" y2="-51.7"/>
								<line class="st1" x1="8.4" y1="-49.4" x2="8.4" y2="-47.6"/>
								<line class="st1" x1="15.6" y1="-44.9" x2="15.6" y2="-43.1"/>
								<line class="st1" x1="30.8" y1="-42.1" x2="30.8" y2="-40.4"/>
								<line class="st1" x1="39.3" y1="-37.9" x2="39.3" y2="-36.1"/>
								<line class="st1" x1="32.8" y1="-30.7" x2="32.8" y2="-29"/>
								<line class="st1" x1="45.3" y1="-31.9" x2="45.3" y2="-30.1"/>
								<line class="st1" x1="76.3" y1="-26.6" x2="76.3" y2="-24.9"/>
								<line class="st1" x1="13.8" y1="-32" x2="13.8" y2="-30.2"/>
								<line class="st1" x1="9.8" y1="-36" x2="9.8" y2="-34.2"/>
								<line class="st1" x1="9.4" y1="-12.7" x2="9.4" y2="-11"/>
								<line class="st1" x1="21.4" y1="-16.7" x2="21.4" y2="-15"/>
								<line class="st1" x1="23.1" y1="-23.4" x2="23.1" y2="-21.6"/>
								<line class="st1" x1="15.9" y1="-7.4" x2="15.9" y2="-5.6"/>
								<line class="st1" x1="8.6" y1="-4.1" x2="8.6" y2="-2.4"/>
								<line class="st1" x1="38.3" y1="-22" x2="38.3" y2="-20.2"/>
								<line class="st1" x1="51.8" y1="-26.5" x2="51.8" y2="-24.7"/>
								<line class="st1" x1="50.9" y1="-18.6" x2="50.9" y2="-16.9"/>
								<line class="st1" x1="61.9" y1="-21.9" x2="61.9" y2="-20.1"/>
								<line class="st1" x1="68.9" y1="-16.6" x2="68.9" y2="-14.9"/>
								<line class="st1" x1="44.4" y1="-11.5" x2="44.4" y2="-9.7"/>
								<line class="st1" x1="36.9" y1="-8.5" x2="36.9" y2="-6.7"/>
								<line class="st1" x1="36" y1="-1.7" x2="36" y2="0"/>
								<line class="st1" x1="48.4" y1="-4.2" x2="48.4" y2="-2.5"/>
								<line class="st1" x1="63.4" y1="-7.2" x2="63.4" y2="-5.5"/>
								<line class="st1" x1="73.6" y1="-54.1" x2="73.6" y2="-52.4"/>
								<line class="st1" x1="74.8" y1="-41.2" x2="74.8" y2="-39.5"/>
								<line class="st1" x1="75.4" y1="-18.6" x2="75.4" y2="-16.9"/>
								<line class="st1" x1="26.5" y1="-70" x2="26.1" y2="-68.9"/>
								<line class="st1" x1="39.5" y1="-66.5" x2="39.1" y2="-65.4"/>
								<line class="st1" x1="65.6" y1="-68.2" x2="65.2" y2="-67.1"/>
								<line class="st1" x1="68.5" y1="-62.6" x2="68.1" y2="-61.5"/>
								<line class="st1" x1="57.5" y1="-59.4" x2="57.1" y2="-58.2"/>
								<line class="st1" x1="45" y1="-56.7" x2="44.6" y2="-55.6"/>
								<line class="st1" x1="32" y1="-53.5" x2="31.6" y2="-52.4"/>
								<line class="st1" x1="43.5" y1="-49.2" x2="43.1" y2="-48.1"/>
								<line class="st1" x1="55" y1="-45" x2="54.6" y2="-43.9"/>
								<line class="st1" x1="49.8" y1="-41.1" x2="49.3" y2="-40"/>
								<line class="st1" x1="63.5" y1="-53.4" x2="63.1" y2="-52.2"/>
								<line class="st1" x1="63.3" y1="-37.9" x2="62.8" y2="-36.7"/>
								<line class="st1" x1="21" y1="-62.7" x2="20.6" y2="-61.6"/>
								<line class="st1" x1="10" y1="-59.5" x2="9.6" y2="-58.4"/>
								<line class="st1" x1="16" y1="-53.5" x2="15.6" y2="-52.4"/>
								<line class="st1" x1="7.9" y1="-49.4" x2="7.5" y2="-48.2"/>
								<line class="st1" x1="15.1" y1="-44.9" x2="14.7" y2="-43.7"/>
								<line class="st1" x1="30.3" y1="-42.1" x2="29.8" y2="-41"/>
								<line class="st1" x1="38.8" y1="-37.9" x2="38.3" y2="-36.7"/>
								<line class="st1" x1="32.3" y1="-30.7" x2="31.8" y2="-29.6"/>
								<line class="st1" x1="44.8" y1="-31.9" x2="44.3" y2="-30.7"/>
								<line class="st1" x1="13.3" y1="-32" x2="12.8" y2="-30.9"/>
								<line class="st1" x1="9.3" y1="-36" x2="8.8" y2="-34.9"/>
								<line class="st1" x1="8.9" y1="-12.7" x2="8.5" y2="-11.6"/>
								<line class="st1" x1="20.9" y1="-16.7" x2="20.5" y2="-15.6"/>
								<line class="st1" x1="22.6" y1="-23.4" x2="22.1" y2="-22.2"/>
								<line class="st1" x1="15.4" y1="-7.4" x2="15" y2="-6.2"/>
								<line class="st1" x1="8.1" y1="-4.1" x2="7.6" y2="-3"/>
								<line class="st1" x1="37.8" y1="-22" x2="37.3" y2="-20.9"/>
								<line class="st1" x1="51.3" y1="-26.5" x2="50.8" y2="-25.4"/>
								<line class="st1" x1="50.4" y1="-18.6" x2="50" y2="-17.5"/>
								<line class="st1" x1="61.4" y1="-21.9" x2="61" y2="-20.7"/>
								<line class="st1" x1="68.4" y1="-16.6" x2="68" y2="-15.5"/>
								<line class="st1" x1="43.9" y1="-11.5" x2="43.5" y2="-10.4"/>
								<line class="st1" x1="36.4" y1="-8.5" x2="36" y2="-7.4"/>
								<line class="st1" x1="35.5" y1="-1.7" x2="35.1" y2="-0.6"/>
								<line class="st1" x1="47.9" y1="-4.2" x2="47.5" y2="-3.1"/>
								<line class="st1" x1="62.9" y1="-7.2" x2="62.5" y2="-6.1"/>
								<line class="st1" x1="73.1" y1="-54.1" x2="72.7" y2="-53"/>
								<line class="st1" x1="74.3" y1="-41.2" x2="73.8" y2="-40.1"/>
								<line class="st1" x1="74.9" y1="-18.6" x2="74.5" y2="-17.5"/>
								<line class="st1" x1="75.8" y1="-26.6" x2="75.3" y2="-25.5"/>
								<line class="st1" x1="25.9" y1="-70" x2="25.3" y2="-69.4"/>
								<line class="st1" x1="38.9" y1="-66.5" x2="38.3" y2="-65.9"/>
								<line class="st1" x1="65" y1="-68.2" x2="64.4" y2="-67.6"/>
								<line class="st1" x1="67.9" y1="-62.6" x2="67.3" y2="-62"/>
								<line class="st1" x1="56.9" y1="-59.4" x2="56.3" y2="-58.7"/>
								<line class="st1" x1="44.4" y1="-56.7" x2="43.8" y2="-56.1"/>
								<line class="st1" x1="31.4" y1="-53.5" x2="30.8" y2="-52.9"/>
								<line class="st1" x1="42.9" y1="-49.2" x2="42.3" y2="-48.6"/>
								<line class="st1" x1="54.4" y1="-45" x2="53.8" y2="-44.4"/>
								<line class="st1" x1="49.2" y1="-41.1" x2="48.5" y2="-40.5"/>
								<line class="st1" x1="62.9" y1="-53.4" x2="62.3" y2="-52.7"/>
								<line class="st1" x1="62.7" y1="-37.9" x2="62" y2="-37.2"/>
								<line class="st1" x1="20.4" y1="-62.7" x2="19.8" y2="-62.1"/>
								<line class="st1" x1="9.4" y1="-59.5" x2="8.8" y2="-58.9"/>
								<line class="st1" x1="15.4" y1="-53.5" x2="14.8" y2="-52.9"/>
								<line class="st1" x1="7.3" y1="-49.4" x2="6.7" y2="-48.7"/>
								<line class="st1" x1="14.5" y1="-44.9" x2="13.9" y2="-44.2"/>
								<line class="st1" x1="29.7" y1="-42.1" x2="29" y2="-41.5"/>
								<line class="st1" x1="38.2" y1="-37.9" x2="37.5" y2="-37.2"/>
								<line class="st1" x1="31.7" y1="-30.7" x2="31" y2="-30.1"/>
								<line class="st1" x1="44.2" y1="-31.9" x2="43.5" y2="-31.2"/>
								<line class="st1" x1="12.7" y1="-32" x2="12" y2="-31.4"/>
								<line class="st1" x1="8.7" y1="-36" x2="8" y2="-35.4"/>
								<line class="st1" x1="8.3" y1="-12.7" x2="7.7" y2="-12.1"/>
								<line class="st1" x1="20.3" y1="-16.7" x2="19.7" y2="-16.1"/>
								<line class="st1" x1="22" y1="-23.4" x2="21.3" y2="-22.7"/>
								<line class="st1" x1="14.8" y1="-7.4" x2="14.2" y2="-6.7"/>
								<line class="st1" x1="7.5" y1="-4.1" x2="6.8" y2="-3.5"/>
								<line class="st1" x1="37.2" y1="-22" x2="36.5" y2="-21.4"/>
								<line class="st1" x1="50.7" y1="-26.5" x2="50" y2="-25.9"/>
								<line class="st1" x1="49.8" y1="-18.6" x2="49.2" y2="-18"/>
								<line class="st1" x1="60.8" y1="-21.9" x2="60.2" y2="-21.2"/>
								<line class="st1" x1="67.8" y1="-16.6" x2="67.2" y2="-16"/>
								<line class="st1" x1="43.3" y1="-11.5" x2="42.7" y2="-10.9"/>
								<line class="st1" x1="35.8" y1="-8.5" x2="35.2" y2="-7.9"/>
								<line class="st1" x1="34.9" y1="-1.7" x2="34.3" y2="-1.1"/>
								<line class="st1" x1="47.3" y1="-4.2" x2="46.7" y2="-3.6"/>
								<line class="st1" x1="62.3" y1="-7.2" x2="61.7" y2="-6.6"/>
								<line class="st1" x1="72.5" y1="-54.1" x2="71.9" y2="-53.5"/>
								<line class="st1" x1="73.7" y1="-41.2" x2="73" y2="-40.6"/>
								<line class="st1" x1="74.3" y1="-18.6" x2="73.7" y2="-18"/>
								<line class="st1" x1="75.2" y1="-26.6" x2="74.5" y2="-26"/>
								<line class="st1" x1="27.5" y1="-70" x2="28" y2="-68.9"/>
								<line class="st1" x1="40.5" y1="-66.5" x2="41" y2="-65.4"/>
								<line class="st1" x1="66.6" y1="-68.2" x2="67.2" y2="-67.1"/>
								<line class="st1" x1="69.5" y1="-62.6" x2="70" y2="-61.5"/>
								<line class="st1" x1="58.5" y1="-59.4" x2="59" y2="-58.2"/>
								<line class="st1" x1="46" y1="-56.7" x2="46.5" y2="-55.6"/>
								<line class="st1" x1="33" y1="-53.5" x2="33.5" y2="-52.4"/>
								<line class="st1" x1="44.5" y1="-49.2" x2="45" y2="-48.1"/>
								<line class="st1" x1="56" y1="-45" x2="56.5" y2="-43.9"/>
								<line class="st1" x1="50.8" y1="-41.1" x2="51.3" y2="-40"/>
								<line class="st1" x1="64.5" y1="-53.4" x2="65" y2="-52.2"/>
								<line class="st1" x1="64.3" y1="-37.9" x2="64.8" y2="-36.7"/>
								<line class="st1" x1="22" y1="-62.7" x2="22.5" y2="-61.6"/>
								<line class="st1" x1="11" y1="-59.5" x2="11.5" y2="-58.4"/>
								<line class="st1" x1="17" y1="-53.5" x2="17.5" y2="-52.4"/>
								<line class="st1" x1="8.9" y1="-49.4" x2="9.5" y2="-48.2"/>
								<line class="st1" x1="16.1" y1="-44.9" x2="16.7" y2="-43.7"/>
								<line class="st1" x1="31.3" y1="-42.1" x2="31.8" y2="-41"/>
								<line class="st1" x1="39.8" y1="-37.9" x2="40.3" y2="-36.7"/>
								<line class="st1" x1="33.3" y1="-30.7" x2="33.8" y2="-29.6"/>
								<line class="st1" x1="45.8" y1="-31.9" x2="46.3" y2="-30.7"/>
								<line class="st1" x1="75.9" y1="-18.6" x2="76.5" y2="-17.5"/>
								<line class="st1" x1="76.8" y1="-26.6" x2="77.3" y2="-25.5"/>
								<line class="st1" x1="14.3" y1="-32" x2="14.8" y2="-30.9"/>
								<line class="st1" x1="10.3" y1="-36" x2="10.8" y2="-34.9"/>
								<line class="st1" x1="9.9" y1="-12.7" x2="10.5" y2="-11.6"/>
								<line class="st1" x1="21.9" y1="-16.7" x2="22.5" y2="-15.6"/>
								<line class="st1" x1="23.6" y1="-23.4" x2="24.1" y2="-22.2"/>
								<line class="st1" x1="16.4" y1="-7.4" x2="17" y2="-6.2"/>
								<line class="st1" x1="9.1" y1="-4.1" x2="9.6" y2="-3"/>
								<line class="st1" x1="38.8" y1="-22" x2="39.3" y2="-20.9"/>
								<line class="st1" x1="52.3" y1="-26.5" x2="52.8" y2="-25.4"/>
								<line class="st1" x1="51.4" y1="-18.6" x2="52" y2="-17.5"/>
								<line class="st1" x1="62.4" y1="-21.9" x2="63" y2="-20.7"/>
								<line class="st1" x1="69.4" y1="-16.6" x2="70" y2="-15.5"/>
								<line class="st1" x1="44.9" y1="-11.5" x2="45.5" y2="-10.4"/>
								<line class="st1" x1="37.4" y1="-8.5" x2="38" y2="-7.4"/>
								<line class="st1" x1="36.5" y1="-1.7" x2="37" y2="-0.6"/>
								<line class="st1" x1="48.9" y1="-4.2" x2="49.5" y2="-3.1"/>
								<line class="st1" x1="63.9" y1="-7.2" x2="64.5" y2="-6.1"/>
								<line class="st1" x1="74.1" y1="-54.1" x2="74.7" y2="-53"/>
								<line class="st1" x1="75.3" y1="-41.2" x2="75.8" y2="-40.1"/>
								<line class="st1" x1="28.1" y1="-70" x2="28.8" y2="-69.3"/>
								<line class="st1" x1="41.1" y1="-66.5" x2="41.8" y2="-65.8"/>
								<line class="st1" x1="67.2" y1="-68.2" x2="67.9" y2="-67.5"/>
								<line class="st1" x1="70.1" y1="-62.6" x2="70.8" y2="-61.9"/>
								<line class="st1" x1="59.1" y1="-59.4" x2="59.8" y2="-58.7"/>
								<line class="st1" x1="46.6" y1="-56.7" x2="47.3" y2="-56"/>
								<line class="st1" x1="33.6" y1="-53.5" x2="34.3" y2="-52.8"/>
								<line class="st1" x1="45.1" y1="-49.2" x2="45.8" y2="-48.5"/>
								<line class="st1" x1="56.6" y1="-45" x2="57.3" y2="-44.3"/>
								<line class="st1" x1="51.3" y1="-41.1" x2="52" y2="-40.4"/>
								<line class="st1" x1="65.1" y1="-53.4" x2="65.8" y2="-52.7"/>
								<line class="st1" x1="64.8" y1="-37.9" x2="65.5" y2="-37.2"/>
								<line class="st1" x1="22.6" y1="-62.7" x2="23.3" y2="-62"/>
								<line class="st1" x1="11.6" y1="-59.5" x2="12.3" y2="-58.8"/>
								<line class="st1" x1="17.6" y1="-53.5" x2="18.3" y2="-52.8"/>
								<line class="st1" x1="9.5" y1="-49.4" x2="10.2" y2="-48.7"/>
								<line class="st1" x1="75.8" y1="-41.2" x2="76.5" y2="-40.5"/>
								<line class="st1" x1="16.7" y1="-44.9" x2="17.4" y2="-44.2"/>
								<line class="st1" x1="31.8" y1="-42.1" x2="32.5" y2="-41.4"/>
								<line class="st1" x1="40.3" y1="-37.9" x2="41" y2="-37.2"/>
								<line class="st1" x1="33.8" y1="-30.7" x2="34.5" y2="-30"/>
								<line class="st1" x1="46.3" y1="-31.9" x2="47" y2="-31.2"/>
								<line class="st1" x1="76.5" y1="-18.6" x2="77.2" y2="-17.9"/>
								<line class="st1" x1="77.3" y1="-26.6" x2="78" y2="-25.9"/>
								<line class="st1" x1="14.8" y1="-32" x2="15.5" y2="-31.3"/>
								<line class="st1" x1="10.8" y1="-36" x2="11.5" y2="-35.3"/>
								<line class="st1" x1="10.5" y1="-12.7" x2="11.2" y2="-12"/>
								<line class="st1" x1="22.5" y1="-16.7" x2="23.2" y2="-16"/>
								<line class="st1" x1="24.1" y1="-23.4" x2="24.8" y2="-22.7"/>
								<line class="st1" x1="17" y1="-7.4" x2="17.7" y2="-6.7"/>
								<line class="st1" x1="9.6" y1="-4.1" x2="10.3" y2="-3.4"/>
								<line class="st1" x1="39.3" y1="-22" x2="40" y2="-21.3"/>
								<line class="st1" x1="52.8" y1="-26.5" x2="53.5" y2="-25.8"/>
								<line class="st1" x1="52" y1="-18.6" x2="52.7" y2="-17.9"/>
								<line class="st1" x1="63" y1="-21.9" x2="63.7" y2="-21.2"/>
								<line class="st1" x1="70" y1="-16.6" x2="70.7" y2="-15.9"/>
								<line class="st1" x1="45.5" y1="-11.5" x2="46.2" y2="-10.8"/>
								<line class="st1" x1="38" y1="-8.5" x2="38.7" y2="-7.8"/>
								<line class="st1" x1="37.1" y1="-1.7" x2="37.8" y2="-1"/>
								<line class="st1" x1="49.5" y1="-4.2" x2="50.2" y2="-3.5"/>
								<line class="st1" x1="64.5" y1="-7.2" x2="65.2" y2="-6.5"/>
								<line class="st1" x1="74.7" y1="-54.1" x2="75.4" y2="-53.4"/>
								<line class="st1" x1="25.3" y1="-70.4" x2="28.9" y2="-70.4"/>
								<line class="st1" x1="38.3" y1="-66.9" x2="41.9" y2="-66.9"/>
								<line class="st1" x1="64.4" y1="-68.6" x2="68" y2="-68.6"/>
								<line class="st1" x1="67.3" y1="-63" x2="70.9" y2="-63"/>
								<line class="st1" x1="56.3" y1="-59.7" x2="59.9" y2="-59.7"/>
								<line class="st1" x1="43.8" y1="-57.1" x2="47.4" y2="-57.1"/>
								<line class="st1" x1="30.8" y1="-53.9" x2="34.4" y2="-53.9"/>
								<line class="st1" x1="42.3" y1="-49.6" x2="45.9" y2="-49.6"/>
								<line class="st1" x1="53.8" y1="-45.4" x2="57.4" y2="-45.4"/>
								<line class="st1" x1="48.5" y1="-41.5" x2="52.1" y2="-41.5"/>
								<line class="st1" x1="62.3" y1="-53.7" x2="65.9" y2="-53.7"/>
								<line class="st1" x1="62" y1="-38.2" x2="65.6" y2="-38.2"/>
								<line class="st1" x1="19.8" y1="-63.1" x2="23.4" y2="-63.1"/>
								<line class="st1" x1="8.8" y1="-59.9" x2="12.4" y2="-59.9"/>
								<line class="st1" x1="14.8" y1="-53.9" x2="18.4" y2="-53.9"/>
								<line class="st1" x1="6.7" y1="-49.7" x2="10.3" y2="-49.7"/>
								<line class="st1" x1="13.9" y1="-45.2" x2="17.5" y2="-45.2"/>
								<line class="st1" x1="29" y1="-42.5" x2="32.6" y2="-42.5"/>
								<line class="st1" x1="37.5" y1="-38.2" x2="41.1" y2="-38.2"/>
								<line class="st1" x1="31" y1="-31.1" x2="34.6" y2="-31.1"/>
								<line class="st1" x1="43.5" y1="-32.2" x2="47.1" y2="-32.2"/>
								<line class="st1" x1="12" y1="-32.4" x2="15.6" y2="-32.4"/>
								<line class="st1" x1="8" y1="-36.4" x2="11.6" y2="-36.4"/>
								<line class="st1" x1="7.7" y1="-13.1" x2="11.3" y2="-13.1"/>
								<line class="st1" x1="19.7" y1="-17.1" x2="23.3" y2="-17.1"/>
								<line class="st1" x1="21.3" y1="-23.7" x2="24.9" y2="-23.7"/>
								<line class="st1" x1="14.2" y1="-7.7" x2="17.8" y2="-7.7"/>
								<line class="st1" x1="6.8" y1="-4.5" x2="10.4" y2="-4.5"/>
								<line class="st1" x1="36.5" y1="-22.4" x2="40.1" y2="-22.4"/>
								<line class="st1" x1="50" y1="-26.9" x2="53.6" y2="-26.9"/>
								<line class="st1" x1="49.2" y1="-19" x2="52.8" y2="-19"/>
								<line class="st1" x1="60.2" y1="-22.2" x2="63.8" y2="-22.2"/>
								<line class="st1" x1="67.2" y1="-17" x2="70.8" y2="-17"/>
								<line class="st1" x1="42.7" y1="-11.9" x2="46.3" y2="-11.9"/>
								<line class="st1" x1="35.2" y1="-8.9" x2="38.8" y2="-8.9"/>
								<line class="st1" x1="34.3" y1="-2.1" x2="37.9" y2="-2.1"/>
								<line class="st1" x1="46.7" y1="-4.6" x2="50.3" y2="-4.6"/>
								<line class="st1" x1="61.7" y1="-7.6" x2="65.3" y2="-7.6"/>
								<line class="st1" x1="71.9" y1="-54.5" x2="75.5" y2="-54.5"/>
								<line class="st1" x1="73" y1="-41.6" x2="76.6" y2="-41.6"/>
								<line class="st1" x1="73.7" y1="-19" x2="77.3" y2="-19"/>
								<line class="st1" x1="74.5" y1="-27" x2="78.1" y2="-27"/>
								<line class="st1" x1="13.9" y1="-3.7" x2="18.3" y2="-3.7"/>
								<line class="st1" x1="19.8" y1="-8.5" x2="24.1" y2="-8.5"/>
								<line class="st1" x1="45.4" y1="-6.6" x2="54.1" y2="-6.6"/>
								<line class="st1" x1="13.3" y1="-14" x2="17.6" y2="-14"/>
								<line class="st1" x1="26" y1="-18" x2="30.4" y2="-18"/>
								<line class="st1" x1="61.4" y1="-3.6" x2="65.8" y2="-3.6"/>
								<line class="st1" x1="67.3" y1="-8.4" x2="71.6" y2="-8.4"/>
								<line class="st1" x1="60.8" y1="-13.9" x2="65.1" y2="-13.9"/>
								<line class="st1" x1="8.1" y1="-27.7" x2="12.4" y2="-27.7"/>
								<line class="st1" x1="33.7" y1="-25.9" x2="42.4" y2="-25.9"/>
								<line class="st1" x1="14.3" y1="-37.2" x2="18.7" y2="-37.2"/>
								<line class="st1" x1="49.7" y1="-22.9" x2="54.1" y2="-22.9"/>
								<line class="st1" x1="55.6" y1="-27.6" x2="59.9" y2="-27.6"/>
								<line class="st1" x1="49.1" y1="-33.1" x2="53.4" y2="-33.1"/>
								<line class="st1" x1="20.9" y1="-44.5" x2="25.3" y2="-44.5"/>
								<line class="st1" x1="26.8" y1="-49.2" x2="31.2" y2="-49.2"/>
								<line class="st1" x1="52.4" y1="-47.4" x2="61.2" y2="-47.4"/>
								<line class="st1" x1="20.3" y1="-54.7" x2="24.7" y2="-54.7"/>
								<line class="st1" x1="33.1" y1="-58.7" x2="37.4" y2="-58.7"/>
								<line class="st1" x1="68.4" y1="-44.4" x2="72.8" y2="-44.4"/>
								<line class="st1" x1="5.4" y1="-66" x2="9.8" y2="-66"/>
								<line class="st1" x1="11.3" y1="-70.7" x2="15.7" y2="-70.7"/>
								<line class="st1" x1="36.9" y1="-68.9" x2="45.7" y2="-68.9"/>
								<line class="st1" x1="52.9" y1="-65.9" x2="57.3" y2="-65.9"/>
								<line class="st1" x1="58.8" y1="-70.6" x2="63.2" y2="-70.6"/>
								<line class="st1" x1="8.9" y1="-40.9" x2="13.3" y2="-40.9"/>
								<line class="st1" x1="70.3" y1="-10.6" x2="74.6" y2="-10.6"/>
								<line class="st1" x1="70.1" y1="-71.4" x2="74.4" y2="-71.4"/>
								<line class="st1" x1="46.1" y1="-60.4" x2="50.4" y2="-60.4"/>
								<line class="st1" x1="27" y1="-38.9" x2="33.4" y2="-38.9"/>
								<line class="st1" x1="74.2" y1="-23" x2="78.6" y2="-23"/>
								<line class="st1" x1="73.6" y1="-33.2" x2="77.9" y2="-33.2"/>
								<line class="st1" x1="74.6" y1="-44.9" x2="79" y2="-44.9"/>
							</g>
							<g>
								<line class="st1" x1="0" y1="-18.6" x2="6.9" y2="-18.6"/>
								<line class="st1" x1="0.8" y1="-26.6" x2="7.7" y2="-26.6"/>
								<line class="st1" x1="2.2" y1="-23" x2="6.6" y2="-23"/>
								<line class="st1" x1="2.6" y1="-44.9" x2="7" y2="-44.9"/>
							</g>
						</g>
					</g>
				</g>
			</g>
		</g>
	</g>
</pattern>
<pattern  y="429.9" width="72" height="72" patternUnits="userSpaceOnUse" id="SVGID_3_" viewBox="25.5 -92.8 72 72" style="overflow:visible;">
	<g>
		<rect x="25.5" y="-92.8" class="st0" width="72" height="72"/>
		<g>
			<rect x="25.5" y="-92.8" class="st0" width="72" height="72"/>
			<g>
				<polygon class="st0" points="25.5,-92.8 97.5,-92.8 97.5,-20.8 25.5,-20.8 				"/>
				<g>
					<polyline class="st2" points="56.3,-21.5 58,-19.8 75.7,-2 					"/>
					<polyline class="st1" points="60.7,-21.6 62.6,-19.7 70.1,-12 					"/>
					<polyline class="st2" points="71.1,-21.5 71.3,-19.5 72,-8.5 					"/>
					<polyline class="st2" points="91.2,-21.6 91.7,-19.9 96.4,-3.8 					"/>
					<polyline class="st2" points="74.4,-21.5 74.5,-19.5 75.9,-4.8 					"/>
					<polyline class="st2" points="79,-21.5 79.2,-19.7 81.1,-5 					"/>
					<polyline class="st2" points="82.7,-21.5 82.9,-19.7 84.9,-6 					"/>
					<polyline class="st2" points="87.7,-21.5 88.1,-19.8 91.7,-4.7 					"/>
					<polyline class="st1" points="66.3,-21.6 68,-19.9 69.6,-18.4 					"/>
					<polyline class="st1" points="51.1,-21.6 52.6,-19.7 68.3,-0.1 					"/>
					<polyline class="st1" points="29.7,-22 32.2,-19.5 35.1,-16.7 					"/>
					<polyline class="st1" points="26.3,-21.4 27.5,-19.9 32.4,-14 					"/>
					<polyline class="st2" points="94.9,-21.5 97,-18.6 98.2,-16.9 					"/>
					<polyline class="st2" points="94.3,-21.9 95.2,-19.7 97,-15.4 98,-12.8 					"/>
				</g>
				<g>
					<polyline class="st2" points="22.9,-21.5 25,-18.6 26.2,-16.9 					"/>
					<polyline class="st2" points="22.3,-21.9 23.2,-19.7 25,-15.4 26,-12.8 					"/>
				</g>
				<g>
					<polyline class="st2" points="97,-90.6 98.2,-88.9 102,-83.6 					"/>
					<polyline class="st2" points="97,-87.4 98,-84.8 100.4,-79.1 					"/>
					<polyline class="st1" points="96.8,-70.7 98.1,-72.1 106.2,-81.4 					"/>
					<polyline class="st1" points="96.7,-61.9 98.2,-63.4 115.7,-80.9 					"/>
					<polyline class="st1" points="96.9,-75.5 98.2,-76.9 102.7,-81.5 					"/>
					<polyline class="st1" points="96.9,-67.2 98.2,-68.4 111,-81.2 					"/>
					<polyline class="st2" points="96.7,-38 98.2,-39 102.6,-41.8 					"/>
					<polyline class="st1" points="96.7,-34.7 98.3,-35.8 105.9,-40.5 					"/>
					<polyline class="st1" points="96.5,-28.8 98.2,-30 109.4,-37.5 					"/>
					<polyline class="st1" points="99.7,-27.5 98.2,-26.7 96.5,-25.7 					"/>
					<polyline class="st1" points="96.6,-41.3 98,-41.1 99.9,-40.8 					"/>
					<polyline class="st1" points="99.2,-44.5 98.2,-44.9 96.5,-45.5 					"/>
					<polyline class="st2" points="100.2,-42.7 98.1,-43.1 96.5,-43.5 					"/>
					<polyline class="st1" points="96.8,-53.5 98.2,-52.5 102.4,-49.3 					"/>
					<polyline class="st1" points="96.7,-50.3 98.3,-49.3 101.6,-47.3 					"/>
					<polyline class="st2" points="96.8,-58.2 98.4,-56.8 104.4,-51.5 					"/>
					<polyline class="st2" points="96.5,-47 98.2,-46 99.6,-45.2 					"/>
					<polyline class="st1" points="97.5,-26.3 101.7,-22 104.2,-19.5 					"/>
					<polyline class="st1" points="95.1,-25.2 98.3,-21.4 99.5,-19.9 					"/>
				</g>
				<g>
					<line class="st1" x1="60.9" y1="-74.5" x2="65.6" y2="-72.3"/>
					<line class="st1" x1="60.6" y1="-77.5" x2="63.9" y2="-75.3"/>
					<line class="st1" x1="34.1" y1="-50.8" x2="57.5" y2="-51.3"/>
					<line class="st1" x1="33.1" y1="-47.3" x2="59" y2="-47.5"/>
					<line class="st2" x1="28.7" y1="-58.7" x2="47.6" y2="-80.8"/>
					<line class="st2" x1="47.6" y1="-77.3" x2="47.5" y2="-55.3"/>
					<line class="st1" x1="32.6" y1="-84.5" x2="57.1" y2="-83.5"/>
					<line class="st1" x1="69.6" y1="-50.5" x2="61.1" y2="-55"/>
					<line class="st1" x1="34.2" y1="-54.5" x2="26.8" y2="-60.4"/>
					<line class="st1" x1="54.5" y1="-80.3" x2="54.4" y2="-55.7"/>
					<line class="st1" x1="57.5" y1="-80.3" x2="57.4" y2="-55.9"/>
					<line class="st1" x1="50.3" y1="-80.6" x2="50.7" y2="-55.5"/>
					<line class="st1" x1="44.6" y1="-74.3" x2="44.5" y2="-55.1"/>
					<line class="st1" x1="40.6" y1="-68.8" x2="39.5" y2="-54.9"/>
					<line class="st1" x1="36.9" y1="-65.8" x2="35.9" y2="-54.6"/>
					<line class="st1" x1="33.6" y1="-61.5" x2="32.9" y2="-57.5"/>
					<line class="st1" x1="33.9" y1="-87.3" x2="54.4" y2="-86.5"/>
					<line class="st1" x1="36.8" y1="-90.3" x2="51.1" y2="-89.8"/>
					<line class="st2" x1="30.4" y1="-44.3" x2="58.2" y2="-44.3"/>
					<line class="st2" x1="77.6" y1="-55.8" x2="68.2" y2="-47.8"/>
					<line class="st2" x1="76.1" y1="-37" x2="59.5" y2="-48.8"/>
					<line class="st2" x1="70.6" y1="-46.5" x2="77.3" y2="-52.7"/>
					<line class="st1" x1="70.1" y1="-44.5" x2="60.3" y2="-52.7"/>
					<line class="st2" x1="51.9" y1="-40.8" x2="68.6" y2="-23.3"/>
					<line class="st2" x1="56.1" y1="-41" x2="69.6" y2="-27.8"/>
					<line class="st2" x1="59.4" y1="-42" x2="67.6" y2="-33.5"/>
					<line class="st2" x1="58.7" y1="-46.2" x2="69.4" y2="-36.5"/>
					<line class="st1" x1="73.1" y1="-73.3" x2="78.9" y2="-59"/>
					<line class="st1" x1="85" y1="-76.4" x2="93.1" y2="-74"/>
					<line class="st1" x1="83" y1="-75.9" x2="90.9" y2="-71"/>
					<line class="st1" x1="80.5" y1="-75.2" x2="88.9" y2="-69"/>
					<line class="st1" x1="77.7" y1="-74.4" x2="88.1" y2="-65.7"/>
					<line class="st1" x1="77.6" y1="-72.5" x2="86.1" y2="-61.8"/>
					<line class="st1" x1="75.4" y1="-72.3" x2="85.4" y2="-56"/>
					<line class="st1" x1="28.1" y1="-26.5" x2="40.6" y2="-35.3"/>
					<line class="st1" x1="42.1" y1="-33" x2="29.9" y2="-24.3"/>
					<line class="st1" x1="43.9" y1="-31" x2="31.9" y2="-22"/>
					<line class="st1" x1="78.9" y1="-59" x2="81.1" y2="-53"/>
					<line class="st1" x1="80.2" y1="-52.9" x2="71.2" y2="-43.9"/>
					<line class="st1" x1="37.9" y1="-23.3" x2="47.6" y2="-22.8"/>
					<line class="st1" x1="80.4" y1="-45" x2="74.6" y2="-39.5"/>
					<line class="st1" x1="83.9" y1="-41.4" x2="81.1" y2="-36.3"/>
					<line class="st1" x1="86.1" y1="-38" x2="92.6" y2="-37.5"/>
					<line class="st1" x1="82.1" y1="-44" x2="77.9" y2="-36.5"/>
					<line class="st1" x1="61.1" y1="-71.5" x2="73.6" y2="-68.8"/>
					<line class="st1" x1="61.9" y1="-67.8" x2="74.9" y2="-64.8"/>
					<line class="st1" x1="60.8" y1="-64.2" x2="76.9" y2="-60.5"/>
					<line class="st1" x1="61.2" y1="-60.6" x2="76.1" y2="-57"/>
					<line class="st1" x1="61.1" y1="-57.9" x2="73.9" y2="-54.5"/>
					<line class="st1" x1="64.6" y1="-55" x2="71.7" y2="-52.5"/>
					<line class="st1" x1="39.4" y1="-25" x2="46.4" y2="-24.8"/>
					<line class="st1" x1="41.1" y1="-26.8" x2="44.7" y2="-26.6"/>
					<polyline class="st2" points="56.3,-93.5 58,-91.8 75.7,-74 					"/>
					<polyline class="st1" points="60.7,-93.6 62.6,-91.7 70.1,-84 					"/>
					<polyline class="st2" points="71.1,-93.5 71.3,-91.5 72,-80.5 					"/>
					<polyline class="st2" points="91.2,-93.6 91.7,-91.9 96.4,-75.8 					"/>
					<polyline class="st2" points="74.4,-93.5 74.5,-91.5 75.9,-76.8 					"/>
					<polyline class="st2" points="79,-93.5 79.2,-91.7 81.1,-77 					"/>
					<polyline class="st2" points="82.7,-93.5 82.9,-91.7 84.9,-78 					"/>
					<polyline class="st2" points="87.7,-93.5 88.1,-91.8 91.7,-76.7 					"/>
					<polyline class="st1" points="66.3,-93.6 68,-91.9 69.6,-90.4 					"/>
					<polyline class="st1" points="51.1,-93.6 52.6,-91.7 68.3,-72.1 					"/>
					<polyline class="st1" points="29.7,-94 32.2,-91.5 35.1,-88.7 					"/>
					<polyline class="st1" points="26.3,-93.4 27.5,-91.9 32.4,-86 					"/>
					<polyline class="st2" points="25,-90.6 26.2,-88.9 30,-83.6 					"/>
					<polyline class="st2" points="25,-87.4 26,-84.8 28.4,-79.1 					"/>
					<polyline class="st1" points="24.8,-70.7 26.1,-72.1 34.2,-81.4 					"/>
					<polyline class="st1" points="24.7,-61.9 26.2,-63.4 43.7,-80.9 					"/>
					<polyline class="st1" points="24.9,-75.5 26.2,-76.9 30.7,-81.5 					"/>
					<polyline class="st1" points="24.9,-67.2 26.2,-68.4 39,-81.2 					"/>
					<polyline class="st2" points="24.7,-38 26.2,-39 30.6,-41.8 					"/>
					<polyline class="st1" points="24.7,-34.7 26.3,-35.8 33.9,-40.5 					"/>
					<polyline class="st1" points="24.5,-28.8 26.2,-30 37.4,-37.5 					"/>
					<polyline class="st1" points="27.7,-27.5 26.2,-26.7 24.5,-25.7 					"/>
					<polyline class="st1" points="24.6,-41.3 26,-41.1 27.9,-40.8 					"/>
					<polyline class="st1" points="27.2,-44.5 26.2,-44.9 24.5,-45.5 					"/>
					<polyline class="st2" points="28.2,-42.7 26.1,-43.1 24.5,-43.5 					"/>
					<polyline class="st1" points="24.8,-53.5 26.2,-52.5 30.4,-49.3 					"/>
					<polyline class="st1" points="24.7,-50.3 26.3,-49.3 29.6,-47.3 					"/>
					<polyline class="st2" points="24.8,-58.2 26.4,-56.8 32.4,-51.5 					"/>
					<polyline class="st2" points="24.5,-47 26.2,-46 27.6,-45.2 					"/>
					<polyline class="st2" points="36.9,-41.1 56.3,-21.5 58,-19.8 					"/>
					<polyline class="st1" points="40.9,-41.8 60.7,-21.6 62.6,-19.7 					"/>
					<polyline class="st2" points="70.4,-32 71.1,-21.5 71.3,-19.5 					"/>
					<polyline class="st2" points="90.1,-25.3 91.2,-21.6 91.7,-19.9 					"/>
					<polyline class="st2" points="73.1,-35.8 74.4,-21.5 74.5,-19.5 					"/>
					<polyline class="st2" points="77.4,-34.5 79,-21.5 79.2,-19.7 					"/>
					<polyline class="st2" points="80.9,-33.8 82.7,-21.5 82.9,-19.7 					"/>
					<polyline class="st2" points="84.7,-34.2 87.7,-21.5 88.1,-19.8 					"/>
					<polyline class="st1" points="45.9,-41 66.3,-21.6 68,-19.9 					"/>
					<polyline class="st1" points="46.1,-27.8 51.1,-21.6 52.6,-19.7 					"/>
					<polyline class="st1" points="25.5,-26.3 29.7,-22 32.2,-19.5 					"/>
					<polyline class="st1" points="23.1,-25.2 26.3,-21.4 27.5,-19.9 					"/>
					<polyline class="st2" points="94.9,-93.5 97,-90.6 98.2,-88.9 					"/>
					<polyline class="st2" points="94.3,-93.9 95.2,-91.7 97,-87.4 98,-84.8 					"/>
					<polyline class="st1" points="86.1,-58.5 96.8,-70.7 98.1,-72.1 					"/>
					<polyline class="st1" points="87.4,-52.5 96.7,-61.9 98.2,-63.4 					"/>
					<polyline class="st1" points="88.7,-67 96.9,-75.5 98.2,-76.9 					"/>
					<polyline class="st1" points="72.1,-42.5 96.9,-67.2 98.2,-68.4 					"/>
					<polyline class="st2" points="88.6,-32.9 96.7,-38 98.2,-39 					"/>
					<polyline class="st1" points="87.6,-29 96.7,-34.7 98.3,-35.8 					"/>
					<polyline class="st1" points="92.4,-26 96.5,-28.8 98.2,-30 					"/>
					<polyline class="st1" points="98.2,-26.7 96.5,-25.7 94.4,-24.5 					"/>
					<polyline class="st1" points="83.4,-43.5 96.6,-41.3 98,-41.1 					"/>
					<polyline class="st1" points="98.2,-44.9 96.5,-45.5 83.4,-49.8 					"/>
					<polyline class="st2" points="98.1,-43.1 96.5,-43.5 81.6,-46.8 					"/>
					<polyline class="st1" points="93.9,-55.8 96.8,-53.5 98.2,-52.5 					"/>
					<polyline class="st1" points="90.9,-53.8 96.7,-50.3 98.3,-49.3 					"/>
					<polyline class="st2" points="94.7,-60 96.8,-58.2 98.4,-56.8 					"/>
					<polyline class="st2" points="88.9,-51.5 96.5,-47 98.2,-46 					"/>
					<line class="st1" x1="95.1" y1="-25.2" x2="98.3" y2="-21.4"/>
					<polyline class="st2" points="93.9,-23 94.3,-21.9 95.2,-19.7 					"/>
				</g>
				<g>
					<polyline class="st2" points="22.9,-93.5 25,-90.6 26.2,-88.9 					"/>
					<polyline class="st2" points="22.3,-93.9 23.2,-91.7 25,-87.4 26,-84.8 					"/>
					<polyline class="st1" points="14.1,-58.5 24.8,-70.7 26.1,-72.1 					"/>
					<polyline class="st1" points="15.4,-52.5 24.7,-61.9 26.2,-63.4 					"/>
					<polyline class="st1" points="16.7,-67 24.9,-75.5 26.2,-76.9 					"/>
					<polyline class="st1" points="0.1,-42.5 24.9,-67.2 26.2,-68.4 					"/>
					<polyline class="st2" points="16.6,-32.9 24.7,-38 26.2,-39 					"/>
					<polyline class="st1" points="15.6,-29 24.7,-34.7 26.3,-35.8 					"/>
					<polyline class="st1" points="20.4,-26 24.5,-28.8 26.2,-30 					"/>
					<polyline class="st1" points="26.2,-26.7 24.5,-25.7 22.4,-24.5 					"/>
					<polyline class="st1" points="11.4,-43.5 24.6,-41.3 26,-41.1 					"/>
					<polyline class="st1" points="26.2,-44.9 24.5,-45.5 11.4,-49.8 					"/>
					<polyline class="st2" points="26.1,-43.1 24.5,-43.5 9.6,-46.8 					"/>
					<polyline class="st1" points="21.9,-55.8 24.8,-53.5 26.2,-52.5 					"/>
					<polyline class="st1" points="18.9,-53.8 24.7,-50.3 26.3,-49.3 					"/>
					<polyline class="st2" points="22.7,-60 24.8,-58.2 26.4,-56.8 					"/>
					<polyline class="st2" points="16.9,-51.5 24.5,-47 26.2,-46 					"/>
					<line class="st1" x1="23.1" y1="-25.2" x2="26.3" y2="-21.4"/>
				</g>
				<g>
					<polyline class="st1" points="97.5,-98.3 101.7,-94 104.2,-91.5 					"/>
					<polyline class="st1" points="95.1,-97.2 98.3,-93.4 99.5,-91.9 					"/>
				</g>
				<g>
					<polyline class="st2" points="36.9,-113.1 56.3,-93.5 58,-91.8 					"/>
					<polyline class="st1" points="40.9,-113.8 60.7,-93.6 62.6,-91.7 					"/>
					<polyline class="st2" points="70.4,-104 71.1,-93.5 71.3,-91.5 					"/>
					<polyline class="st2" points="90.1,-97.3 91.2,-93.6 91.7,-91.9 					"/>
					<polyline class="st2" points="73.1,-107.8 74.4,-93.5 74.5,-91.5 					"/>
					<polyline class="st2" points="77.4,-106.5 79,-93.5 79.2,-91.7 					"/>
					<polyline class="st2" points="80.9,-105.8 82.7,-93.5 82.9,-91.7 					"/>
					<polyline class="st2" points="84.7,-106.2 87.7,-93.5 88.1,-91.8 					"/>
					<polyline class="st1" points="45.9,-113 66.3,-93.6 68,-91.9 					"/>
					<polyline class="st1" points="46.1,-99.8 51.1,-93.6 52.6,-91.7 					"/>
					<polyline class="st1" points="25.5,-98.3 29.7,-94 32.2,-91.5 					"/>
					<polyline class="st1" points="23.1,-97.2 26.3,-93.4 27.5,-91.9 					"/>
					<polyline class="st2" points="93.9,-95 94.3,-93.9 95.2,-91.7 					"/>
				</g>
			</g>
		</g>
	</g>
</pattern>
<polygon class="st3" points="587.5,427.7 568.8,427.7 568.8,422.8 129.8,422.8 129.1,427.7 2.5,427.7 2.5,2.2 587.5,2.2 "/>
<rect x="129.7" y="230.4" class="st4" width="439.1" height="192.8"/>
<path class="st5" d="M40.5,192.4"/>
<g class="st6">
	<path d="M360.7,202.2l2.1-5.6h0.8l2.3,5.6H365l-0.6-1.7h-2.3l-0.6,1.7H360.7z M362.3,199.9h1.9l-0.6-1.5c-0.2-0.5-0.3-0.9-0.4-1.2
		c-0.1,0.4-0.2,0.7-0.3,1.1L362.3,199.9z"/>
	<path d="M367.3,202.2v-4.9h-1.8v-0.7h4.4v0.7H368v4.9H367.3z"/>
	<path d="M372.1,202.2v-4.9h-1.8v-0.7h4.4v0.7h-1.8v4.9H372.1z"/>
	<path d="M374.2,202.2l2.1-5.6h0.8l2.3,5.6h-0.8l-0.6-1.7h-2.3l-0.6,1.7H374.2z M375.8,199.9h1.9l-0.6-1.5c-0.2-0.5-0.3-0.9-0.4-1.2
		c-0.1,0.4-0.2,0.7-0.3,1.1L375.8,199.9z"/>
	<path d="M384,200.2l0.7,0.2c-0.2,0.6-0.4,1.1-0.8,1.4c-0.4,0.3-0.9,0.5-1.5,0.5s-1.1-0.1-1.5-0.4c-0.4-0.2-0.7-0.6-0.9-1.1
		c-0.2-0.5-0.3-1-0.3-1.5c0-0.6,0.1-1.1,0.3-1.5c0.2-0.4,0.5-0.8,0.9-1s0.9-0.3,1.4-0.3c0.6,0,1,0.1,1.4,0.4
		c0.4,0.3,0.6,0.7,0.8,1.2l-0.7,0.2c-0.1-0.4-0.3-0.7-0.6-0.9c-0.2-0.2-0.6-0.3-0.9-0.3c-0.4,0-0.8,0.1-1.1,0.3s-0.5,0.5-0.6,0.8
		c-0.1,0.4-0.2,0.7-0.2,1.1c0,0.5,0.1,0.9,0.2,1.2c0.1,0.4,0.4,0.6,0.6,0.8c0.3,0.2,0.6,0.3,0.9,0.3c0.4,0,0.8-0.1,1.1-0.4
		C383.7,201,383.9,200.7,384,200.2z"/>
	<path d="M385.6,202.2v-5.6h0.7v2.8l2.8-2.8h1l-2.3,2.3l2.4,3.3h-1l-2-2.8l-0.9,0.9v1.9L385.6,202.2L385.6,202.2z"/>
</g>
<g class="st6">
	<path d="M414,200.4l0.7-0.1c0,0.3,0.1,0.5,0.2,0.7s0.3,0.3,0.6,0.4s0.5,0.2,0.9,0.2c0.3,0,0.5,0,0.7-0.1s0.4-0.2,0.5-0.3
		s0.2-0.3,0.2-0.5s-0.1-0.3-0.2-0.5c-0.1-0.1-0.3-0.2-0.5-0.3c-0.1-0.1-0.5-0.1-1-0.3c-0.5-0.1-0.9-0.2-1.1-0.3
		c-0.3-0.1-0.5-0.3-0.6-0.5s-0.2-0.4-0.2-0.7s0.1-0.5,0.2-0.8c0.2-0.2,0.4-0.4,0.7-0.6s0.6-0.2,1-0.2s0.8,0.1,1.1,0.2
		c0.3,0.1,0.6,0.3,0.7,0.6c0.2,0.3,0.3,0.6,0.3,0.9l-0.7,0.1c0-0.4-0.2-0.6-0.4-0.8c-0.2-0.2-0.5-0.3-1-0.3c-0.4,0-0.8,0.1-1,0.2
		c-0.2,0.2-0.3,0.4-0.3,0.6c0,0.2,0.1,0.4,0.2,0.5s0.5,0.3,1.1,0.4c0.6,0.1,1,0.3,1.2,0.4c0.3,0.1,0.6,0.3,0.7,0.6
		c0.2,0.2,0.2,0.5,0.2,0.8s-0.1,0.6-0.3,0.8c-0.2,0.3-0.4,0.5-0.7,0.6c-0.3,0.1-0.7,0.2-1.1,0.2c-0.5,0-0.9-0.1-1.3-0.2
		c-0.3-0.1-0.6-0.4-0.8-0.7C414.1,201.1,414,200.7,414,200.4z"/>
	<path d="M423.1,196.6h0.7v3.2c0,0.6-0.1,1-0.2,1.3s-0.4,0.6-0.7,0.8s-0.8,0.3-1.3,0.3s-0.9-0.1-1.3-0.3c-0.3-0.2-0.6-0.4-0.7-0.8
		s-0.2-0.8-0.2-1.4v-3.2h0.7v3.2c0,0.5,0,0.8,0.1,1.1c0.1,0.2,0.2,0.4,0.5,0.5c0.2,0.1,0.5,0.2,0.8,0.2c0.5,0,0.9-0.1,1.2-0.4
		c0.2-0.2,0.3-0.7,0.3-1.4L423.1,196.6L423.1,196.6z"/>
	<path d="M424.8,200.4l0.7-0.1c0,0.3,0.1,0.5,0.2,0.7s0.3,0.3,0.6,0.4s0.5,0.2,0.9,0.2c0.3,0,0.5,0,0.7-0.1s0.4-0.2,0.5-0.3
		s0.2-0.3,0.2-0.5s-0.1-0.3-0.2-0.5c-0.1-0.1-0.3-0.2-0.5-0.3c-0.1-0.1-0.5-0.1-1-0.3c-0.5-0.1-0.9-0.2-1.1-0.3
		c-0.3-0.1-0.5-0.3-0.6-0.5s-0.2-0.4-0.2-0.7s0.1-0.5,0.2-0.8c0.2-0.2,0.4-0.4,0.7-0.6s0.6-0.2,1-0.2s0.8,0.1,1.1,0.2
		c0.3,0.1,0.6,0.3,0.7,0.6c0.2,0.3,0.3,0.6,0.3,0.9l-0.7,0.1c0-0.4-0.2-0.6-0.4-0.8c-0.2-0.2-0.5-0.3-1-0.3c-0.4,0-0.8,0.1-1,0.2
		c-0.2,0.2-0.3,0.4-0.3,0.6c0,0.2,0.1,0.4,0.2,0.5s0.5,0.3,1.1,0.4c0.6,0.1,1,0.3,1.2,0.4c0.3,0.1,0.6,0.3,0.7,0.6
		c0.2,0.2,0.2,0.5,0.2,0.8s-0.1,0.6-0.3,0.8c-0.2,0.3-0.4,0.5-0.7,0.6c-0.3,0.1-0.7,0.2-1.1,0.2c-0.5,0-0.9-0.1-1.3-0.2
		c-0.3-0.1-0.6-0.4-0.8-0.7C424.9,201.1,424.8,200.7,424.8,200.4z"/>
	<path d="M431.7,202.2v-4.9h-1.8v-0.7h4.4v0.7h-1.8v4.9H431.7z"/>
	<path d="M433.8,202.2l2.1-5.6h0.8l2.3,5.6h-0.8l-0.6-1.7h-2.3l-0.6,1.7H433.8z M435.4,199.9h1.9l-0.6-1.5c-0.2-0.5-0.3-0.9-0.4-1.2
		c-0.1,0.4-0.2,0.7-0.3,1.1L435.4,199.9z"/>
	<path d="M439.8,202.2v-5.6h0.7v5.6H439.8z"/>
	<path d="M441.8,202.2v-5.6h0.8l2.9,4.4v-4.4h0.7v5.6h-0.8l-2.9-4.4v4.4H441.8z"/>
</g>
<g class="st6">
	<path d="M473,202.2v-5.6h1.9c0.4,0,0.8,0,1,0.1c0.3,0.1,0.6,0.2,0.8,0.4c0.3,0.2,0.5,0.6,0.7,1c0.1,0.4,0.2,0.8,0.2,1.3
		c0,0.4-0.1,0.8-0.1,1.1c-0.1,0.3-0.2,0.6-0.4,0.8c-0.2,0.2-0.3,0.4-0.5,0.5s-0.4,0.2-0.7,0.3c-0.3,0.1-0.6,0.1-0.9,0.1L473,202.2
		L473,202.2z M473.8,201.5h1.2c0.4,0,0.7,0,0.9-0.1c0.2-0.1,0.4-0.2,0.5-0.3c0.2-0.2,0.3-0.4,0.4-0.7s0.1-0.7,0.1-1.1
		c0-0.6-0.1-1-0.3-1.3c-0.2-0.3-0.4-0.5-0.7-0.6c-0.2-0.1-0.5-0.1-1-0.1h-1.2L473.8,201.5L473.8,201.5z"/>
	<path d="M478.7,202.2v-5.6h4v0.7h-3.3v1.7h3.1v0.7h-3.1v1.9h3.4v0.7L478.7,202.2L478.7,202.2z"/>
	<path d="M487.9,200.2l0.7,0.2c-0.2,0.6-0.4,1.1-0.8,1.4c-0.4,0.3-0.9,0.5-1.5,0.5s-1.1-0.1-1.5-0.4c-0.4-0.2-0.7-0.6-0.9-1.1
		c-0.2-0.5-0.3-1-0.3-1.5c0-0.6,0.1-1.1,0.3-1.5c0.2-0.4,0.5-0.8,0.9-1s0.9-0.3,1.4-0.3c0.6,0,1,0.1,1.4,0.4
		c0.4,0.3,0.6,0.7,0.8,1.2l-0.7,0.2c-0.1-0.4-0.3-0.7-0.6-0.9c-0.2-0.2-0.6-0.3-0.9-0.3c-0.4,0-0.8,0.1-1.1,0.3s-0.5,0.5-0.6,0.8
		c-0.1,0.4-0.2,0.7-0.2,1.1c0,0.5,0.1,0.9,0.2,1.2c0.1,0.4,0.4,0.6,0.6,0.8c0.3,0.2,0.6,0.3,0.9,0.3c0.4,0,0.8-0.1,1.1-0.4
		C487.6,201,487.7,200.7,487.9,200.2z"/>
	<path d="M488.9,202.2l2.1-5.6h0.8l2.3,5.6h-0.8l-0.6-1.7h-2.3l-0.6,1.7H488.9z M490.5,199.9h1.9l-0.6-1.5c-0.2-0.5-0.3-0.9-0.4-1.2
		c-0.1,0.4-0.2,0.7-0.3,1.1L490.5,199.9z"/>
	<path d="M495.7,202.2v-2.4l-2.2-3.2h0.9l1.1,1.7c0.2,0.3,0.4,0.6,0.6,0.9c0.2-0.3,0.4-0.6,0.6-1l1.1-1.6h0.9l-2.2,3.2v2.4
		L495.7,202.2L495.7,202.2z"/>
</g>
<g class="st6">
	<path d="M522.2,202.2v-5.6h2.5c0.5,0,0.9,0.1,1.1,0.1c0.3,0.1,0.5,0.3,0.6,0.5c0.2,0.3,0.2,0.5,0.2,0.8c0,0.4-0.1,0.7-0.4,1
		c-0.3,0.3-0.7,0.4-1.2,0.5c0.2,0.1,0.3,0.2,0.4,0.3c0.2,0.2,0.4,0.4,0.6,0.7l1,1.5h-0.9l-0.7-1.2c-0.2-0.3-0.4-0.6-0.5-0.8
		s-0.3-0.3-0.4-0.4c-0.1-0.1-0.2-0.1-0.3-0.1s-0.2,0-0.4,0H523v2.5L522.2,202.2L522.2,202.2z M523,199h1.6c0.3,0,0.6,0,0.8-0.1
		s0.3-0.2,0.4-0.3c0.1-0.2,0.1-0.3,0.1-0.5c0-0.3-0.1-0.5-0.3-0.7s-0.5-0.3-0.9-0.3H523V199z"/>
	<path d="M527.9,202.2v-5.6h4v0.7h-3.3v1.7h3.1v0.7h-3.1v1.9h3.4v0.7L527.9,202.2L527.9,202.2z"/>
	<path d="M533,202.2v-5.6h0.7v4.9h2.8v0.7L533,202.2L533,202.2z"/>
	<path d="M537.4,202.2v-5.6h4v0.7h-3.3v1.7h3.1v0.7h-3.1v1.9h3.4v0.7L537.4,202.2L537.4,202.2z"/>
	<path d="M542,202.2l2.1-5.6h0.8l2.3,5.6h-0.8l-0.6-1.7h-2.3l-0.6,1.7H542z M543.6,199.9h1.9l-0.6-1.5c-0.2-0.5-0.3-0.9-0.4-1.2
		c-0.1,0.4-0.2,0.7-0.3,1.1L543.6,199.9z"/>
	<path d="M547.6,200.4l0.7-0.1c0,0.3,0.1,0.5,0.2,0.7c0.1,0.2,0.3,0.3,0.6,0.4c0.3,0.1,0.5,0.2,0.9,0.2c0.3,0,0.5,0,0.7-0.1
		s0.4-0.2,0.5-0.3s0.2-0.3,0.2-0.5s-0.1-0.3-0.2-0.5c-0.1-0.1-0.3-0.2-0.5-0.3c-0.1-0.1-0.5-0.1-1-0.3c-0.5-0.1-0.9-0.2-1.1-0.3
		c-0.3-0.1-0.5-0.3-0.6-0.5s-0.2-0.4-0.2-0.7s0.1-0.5,0.2-0.8c0.2-0.2,0.4-0.4,0.7-0.6c0.3-0.1,0.6-0.2,1-0.2s0.8,0.1,1.1,0.2
		c0.3,0.1,0.6,0.3,0.7,0.6c0.2,0.3,0.3,0.6,0.3,0.9l-0.7,0.1c0-0.4-0.2-0.6-0.4-0.8s-0.5-0.3-1-0.3c-0.4,0-0.8,0.1-1,0.2
		c-0.2,0.2-0.3,0.4-0.3,0.6c0,0.2,0.1,0.4,0.2,0.5c0.1,0.1,0.5,0.3,1.1,0.4c0.6,0.1,1,0.3,1.2,0.4c0.3,0.1,0.6,0.3,0.7,0.6
		c0.2,0.2,0.2,0.5,0.2,0.8s-0.1,0.6-0.3,0.8c-0.2,0.3-0.4,0.5-0.7,0.6s-0.7,0.2-1.1,0.2c-0.5,0-0.9-0.1-1.3-0.2
		c-0.3-0.1-0.6-0.4-0.8-0.7C547.7,201.1,547.6,200.7,547.6,200.4z"/>
	<path d="M553,202.2v-5.6h4v0.7h-3.3v1.7h3.1v0.7h-3.1v1.9h3.4v0.7L553,202.2L553,202.2z"/>
</g>
<line class="st7" x1="375.5" y1="151.9" x2="375.5" y2="154.5"/>
<line class="st7" x1="368.7" y1="153" x2="369.5" y2="155.5"/>
<line class="st7" x1="362.7" y1="156.1" x2="364.3" y2="158.2"/>
<line class="st7" x1="358" y1="160.9" x2="360.1" y2="162.4"/>
<line class="st7" x1="355.1" y1="166.9" x2="357.5" y2="167.7"/>
<line class="st7" x1="354.1" y1="173.6" x2="356.7" y2="173.6"/>
<line class="st7" x1="355.2" y1="180.2" x2="357.7" y2="179.4"/>
<line class="st7" x1="358.3" y1="186.1" x2="360.4" y2="184.6"/>
<line class="st7" x1="363.1" y1="190.8" x2="364.6" y2="188.7"/>
<path class="st7" d="M369.1,193.8"/>
<path class="st7" d="M375.7,192.2"/>
<path class="st7" d="M375.7,194.8"/>
<path class="st7" d="M381.6,191.2"/>
<path class="st7" d="M382.4,193.7"/>
<line class="st7" x1="388.3" y1="190.6" x2="386.8" y2="188.5"/>
<line class="st7" x1="393" y1="185.8" x2="390.9" y2="184.2"/>
<line class="st7" x1="396" y1="179.8" x2="393.5" y2="179"/>
<line class="st7" x1="397" y1="173.1" x2="394.4" y2="173.1"/>
<line class="st7" x1="395.9" y1="166.5" x2="393.4" y2="167.3"/>
<line class="st7" x1="392.8" y1="160.6" x2="390.6" y2="162.1"/>
<line class="st7" x1="388" y1="155.9" x2="386.4" y2="158"/>
<line class="st7" x1="382" y1="152.9" x2="381.1" y2="155.3"/>
<path class="st7" d="M368.1,188.3"/>
<path class="st7" d="M383.4,190.5"/>
<path class="st7" d="M369.6,157.7"/>
<path class="st7" d="M368.7,155.3"/>
<path class="st7" d="M364.6,160.7"/>
<path class="st7" d="M363,158.7"/>
<path class="st7" d="M361,165.2"/>
<path class="st7" d="M358.7,163.9"/>
<path class="st7" d="M359.1,170.7"/>
<path class="st7" d="M356.5,170.2"/>
<path class="st7" d="M359.1,176.4"/>
<path class="st7" d="M356.6,176.9"/>
<path class="st7" d="M361.2,181.9"/>
<path class="st7" d="M390.1,181.5"/>
<path class="st7" d="M392.3,182.8"/>
<path class="st7" d="M392,176"/>
<path class="st7" d="M391.9,170.2"/>
<path class="st7" d="M394.5,169.8"/>
<path class="st7" d="M389.9,164.8"/>
<path class="st7" d="M392.1,163.5"/>
<path class="st7" d="M386.1,160.4"/>
<path class="st7" d="M387.8,158.4"/>
<path class="st7" d="M381,157.6"/>
<path class="st7" d="M383.5,155.1"/>
<path class="st7" d="M365.1,188.8c-4.9-3.4-8.2-9.1-8.2-15.5c0-10.3,8.4-18.7,18.7-18.7c10.3,0,18.7,8.4,18.7,18.7
	c0,6.2-3.2,11.8-7.9,15.2"/>
<line class="st8" x1="68.7" y1="234.1" x2="68.7" y2="393.4"/>
<g id="Layer_27">
	<polygon class="st9" points="429.7,134.4 490.3,135.3 491,144.8 430,144.9 	"/>
	<text transform="matrix(1 0 0 1 432.7275 143.833)" class="st10 st11">ENVELOPE</text>
	<polygon class="st12" points="587.5,427.7 568.8,427.7 568.8,422.8 129.8,422.8 129.8,427.7 2.5,427.7 2.5,2.2 587.5,2.2 	"/>
</g>
<g id="Layer_27_copy">
	<text transform="matrix(1 0 0 1 432.7275 143.0332)" class="st10 st11">ENVELOPE</text>
	<polyline class="st13" points="2.5,427.7 2.5,2.2 587.5,2.2 587.5,427.7 	"/>
</g>
<line class="st7" x1="430.1" y1="152" x2="430.1" y2="154.6"/>
<line class="st7" x1="423.3" y1="153.1" x2="424.1" y2="155.6"/>
<line class="st7" x1="417.4" y1="156.2" x2="418.9" y2="158.3"/>
<line class="st7" x1="412.7" y1="161" x2="414.8" y2="162.5"/>
<line class="st7" x1="409.7" y1="167" x2="412.1" y2="167.8"/>
<line class="st7" x1="408.7" y1="173.7" x2="411.3" y2="173.7"/>
<line class="st7" x1="409.8" y1="180.3" x2="412.3" y2="179.5"/>
<line class="st7" x1="412.9" y1="186.2" x2="415" y2="184.7"/>
<line class="st7" x1="417.7" y1="190.9" x2="419.2" y2="188.8"/>
<path class="st7" d="M423.7,191.7"/>
<path class="st7" d="M435.4,191.6"/>
<line class="st7" x1="442.9" y1="190.7" x2="441.4" y2="188.6"/>
<line class="st7" x1="447.6" y1="185.9" x2="445.5" y2="184.3"/>
<line class="st7" x1="450.6" y1="179.9" x2="448.1" y2="179.1"/>
<line class="st7" x1="451.6" y1="173.2" x2="449" y2="173.2"/>
<line class="st7" x1="450.5" y1="166.6" x2="448" y2="167.4"/>
<line class="st7" x1="447.4" y1="160.7" x2="445.3" y2="162.2"/>
<line class="st7" x1="442.6" y1="156" x2="441" y2="158.1"/>
<line class="st7" x1="436.6" y1="153" x2="435.8" y2="155.4"/>
<path class="st7" d="M422.8,188.4"/>
<path class="st7" d="M427.5,189.9"/>
<path class="st7" d="M432.4,190"/>
<path class="st7" d="M437.1,188.6"/>
<path class="st7" d="M437.2,190.9"/>
<path class="st7" d="M424.2,157.8"/>
<path class="st7" d="M423.3,155.4"/>
<path class="st7" d="M419.2,160.8"/>
<path class="st7" d="M417.6,158.8"/>
<path class="st7" d="M415.6,165.3"/>
<path class="st7" d="M413.3,164"/>
<path class="st7" d="M413.7,170.8"/>
<path class="st7" d="M411.1,170.3"/>
<path class="st7" d="M413.7,176.6"/>
<path class="st7" d="M411.2,177"/>
<path class="st7" d="M415.8,182"/>
<path class="st7" d="M444.7,181.6"/>
<path class="st7" d="M446.9,182.9"/>
<path class="st7" d="M446.6,176.1"/>
<path class="st7" d="M446.5,170.3"/>
<path class="st7" d="M449.1,169.9"/>
<path class="st7" d="M444.5,164.9"/>
<path class="st7" d="M446.7,163.6"/>
<path class="st7" d="M440.7,160.5"/>
<path class="st7" d="M442.4,158.5"/>
<path class="st7" d="M435.6,157.7"/>
<path class="st7" d="M438.1,155.2"/>
<path class="st7" d="M419.7,188.9c-4.9-3.4-8.2-9.1-8.2-15.5c0-10.3,8.4-18.7,18.7-18.7c10.3,0,18.7,8.4,18.7,18.7
	c0,6.2-3.2,11.8-7.9,15.2"/>
<line class="st7" x1="484.8" y1="152" x2="484.8" y2="154.6"/>
<line class="st7" x1="478" y1="153.1" x2="478.8" y2="155.6"/>
<line class="st7" x1="472" y1="156.3" x2="473.6" y2="158.4"/>
<line class="st7" x1="467.4" y1="161.1" x2="469.5" y2="162.6"/>
<line class="st7" x1="464.4" y1="167.1" x2="466.8" y2="167.9"/>
<line class="st7" x1="463.4" y1="173.7" x2="466" y2="173.7"/>
<line class="st7" x1="464.5" y1="180.3" x2="467" y2="179.5"/>
<line class="st7" x1="467.6" y1="186.3" x2="469.7" y2="184.7"/>
<line class="st7" x1="472.4" y1="191" x2="473.9" y2="188.9"/>
<path class="st7" d="M490.9,191.3"/>
<line class="st7" x1="497.6" y1="190.7" x2="496.1" y2="188.6"/>
<line class="st7" x1="502.3" y1="185.9" x2="500.2" y2="184.4"/>
<line class="st7" x1="505.3" y1="179.9" x2="502.8" y2="179.1"/>
<line class="st7" x1="506.3" y1="173.3" x2="503.7" y2="173.3"/>
<line class="st7" x1="505.2" y1="166.6" x2="502.7" y2="167.5"/>
<line class="st7" x1="502.1" y1="160.7" x2="500" y2="162.2"/>
<line class="st7" x1="497.3" y1="156" x2="495.7" y2="158.1"/>
<line class="st7" x1="491.3" y1="153" x2="490.5" y2="155.5"/>
<path class="st7" d="M477.5,188.4"/>
<path class="st7" d="M491.8,188.6"/>
<path class="st7" d="M492.7,190.6"/>
<path class="st7" d="M478.9,157.9"/>
<path class="st7" d="M478,155.4"/>
<path class="st7" d="M473.9,160.8"/>
<path class="st7" d="M472.3,158.8"/>
<path class="st7" d="M470.3,165.3"/>
<path class="st7" d="M468,164"/>
<path class="st7" d="M468.4,170.8"/>
<path class="st7" d="M465.8,170.3"/>
<path class="st7" d="M468.4,176.6"/>
<path class="st7" d="M465.9,177"/>
<path class="st7" d="M470.5,182"/>
<path class="st7" d="M499.4,181.6"/>
<path class="st7" d="M501.6,182.9"/>
<path class="st7" d="M501.3,176.2"/>
<path class="st7" d="M501.2,170.4"/>
<path class="st7" d="M503.8,169.9"/>
<path class="st7" d="M499.2,165"/>
<path class="st7" d="M501.4,163.7"/>
<path class="st7" d="M495.4,160.6"/>
<path class="st7" d="M497.1,158.6"/>
<path class="st7" d="M490.3,157.7"/>
<path class="st7" d="M492.8,155.3"/>
<path class="st7" d="M474.4,189c-4.9-3.4-8.2-9.1-8.2-15.5c0-10.3,8.4-18.7,18.7-18.7s18.7,8.4,18.7,18.7c0,6.2-3.2,11.8-7.9,15.2"
	/>
<line class="st7" x1="539.4" y1="152.1" x2="539.4" y2="154.7"/>
<line class="st7" x1="532.6" y1="153.3" x2="533.4" y2="155.7"/>
<line class="st7" x1="526.7" y1="156.4" x2="528.2" y2="158.5"/>
<line class="st7" x1="522" y1="161.2" x2="524.1" y2="162.7"/>
<line class="st7" x1="519" y1="167.2" x2="521.5" y2="168"/>
<line class="st7" x1="518" y1="173.8" x2="520.6" y2="173.8"/>
<line class="st7" x1="519.1" y1="180.4" x2="521.6" y2="179.6"/>
<line class="st7" x1="522.2" y1="186.4" x2="524.3" y2="184.8"/>
<line class="st7" x1="527" y1="191.1" x2="528.5" y2="189"/>
<path class="st7" d="M533,191.9"/>
<path class="st7" d="M544.7,191.7"/>
<line class="st7" x1="552.2" y1="190.8" x2="550.7" y2="188.7"/>
<line class="st7" x1="556.9" y1="186" x2="554.8" y2="184.5"/>
<line class="st7" x1="559.9" y1="180" x2="557.4" y2="179.2"/>
<line class="st7" x1="560.9" y1="173.4" x2="558.3" y2="173.4"/>
<line class="st7" x1="559.8" y1="166.8" x2="557.3" y2="167.6"/>
<line class="st7" x1="556.7" y1="160.8" x2="554.6" y2="162.3"/>
<line class="st7" x1="551.9" y1="156.1" x2="550.4" y2="158.2"/>
<line class="st7" x1="545.9" y1="153.1" x2="545.1" y2="155.6"/>
<path class="st7" d="M532.1,188.6"/>
<path class="st7" d="M536.8,190.1"/>
<path class="st7" d="M546.4,188.7"/>
<path class="st7" d="M546.5,191"/>
<path class="st7" d="M533.5,158"/>
<path class="st7" d="M532.6,155.5"/>
<path class="st7" d="M528.6,160.9"/>
<path class="st7" d="M526.9,159"/>
<path class="st7" d="M524.9,165.4"/>
<path class="st7" d="M522.6,164.1"/>
<path class="st7" d="M523,170.9"/>
<path class="st7" d="M520.4,170.5"/>
<path class="st7" d="M523.1,176.7"/>
<path class="st7" d="M520.5,177.1"/>
<path class="st7" d="M525.1,182.1"/>
<path class="st7" d="M554,181.7"/>
<path class="st7" d="M556.3,183"/>
<path class="st7" d="M555.9,176.3"/>
<path class="st7" d="M555.8,170.5"/>
<path class="st7" d="M558.4,170"/>
<path class="st7" d="M553.8,165.1"/>
<path class="st7" d="M556,163.8"/>
<path class="st7" d="M550,160.7"/>
<path class="st7" d="M551.7,158.7"/>
<path class="st7" d="M545,157.8"/>
<path class="st7" d="M547.4,155.4"/>
<path class="st7" d="M529,189.1c-4.9-3.4-8.2-9.1-8.2-15.5c0-10.3,8.4-18.7,18.7-18.7s18.7,8.4,18.7,18.7c0,6.2-3.2,11.8-7.9,15.2"
	/>
<g id="Layer_9_copy_3">
	<g>
		<line class="st14" x1="53.9" y1="246" x2="62.9" y2="246"/>
		<line class="st7" x1="58.7" y1="251.4" x2="62.9" y2="251.4"/>
		<line class="st7" x1="58.7" y1="257" x2="62.9" y2="257"/>
		<line class="st7" x1="58.7" y1="262.8" x2="62.9" y2="262.8"/>
		<line class="st14" x1="53.9" y1="268.6" x2="62.9" y2="268.6"/>
		<line class="st7" x1="58.7" y1="274" x2="62.9" y2="274"/>
		<line class="st7" x1="58.7" y1="279.7" x2="62.9" y2="279.7"/>
		<line class="st7" x1="58.7" y1="285.5" x2="62.9" y2="285.5"/>
		<line class="st14" x1="53.9" y1="291.1" x2="62.9" y2="291.1"/>
		<line class="st7" x1="58.7" y1="296.5" x2="62.9" y2="296.5"/>
		<line class="st7" x1="58.7" y1="302.2" x2="62.9" y2="302.2"/>
		<line class="st7" x1="58.7" y1="308" x2="62.9" y2="308"/>
		<line class="st14" x1="53.9" y1="246" x2="62.9" y2="246"/>
		<line class="st7" x1="58.7" y1="251.4" x2="62.9" y2="251.4"/>
		<line class="st7" x1="58.7" y1="257" x2="62.9" y2="257"/>
		<line class="st7" x1="58.7" y1="262.8" x2="62.9" y2="262.8"/>
		<line class="st14" x1="53.9" y1="268.6" x2="62.9" y2="268.6"/>
		<line class="st7" x1="58.7" y1="274" x2="62.9" y2="274"/>
		<line class="st7" x1="58.7" y1="279.7" x2="62.9" y2="279.7"/>
		<line class="st7" x1="58.7" y1="285.5" x2="62.9" y2="285.5"/>
		<line class="st14" x1="53.9" y1="313.9" x2="62.9" y2="313.9"/>
		<line class="st7" x1="58.7" y1="319.3" x2="62.9" y2="319.3"/>
		<line class="st7" x1="58.7" y1="324.9" x2="62.9" y2="324.9"/>
		<line class="st7" x1="58.7" y1="330.8" x2="62.9" y2="330.8"/>
		<line class="st14" x1="53.9" y1="246" x2="62.9" y2="246"/>
		<line class="st7" x1="58.7" y1="251.4" x2="62.9" y2="251.4"/>
		<line class="st7" x1="58.7" y1="257" x2="62.9" y2="257"/>
		<line class="st7" x1="58.7" y1="262.8" x2="62.9" y2="262.8"/>
		<line class="st14" x1="53.9" y1="268.6" x2="62.9" y2="268.6"/>
		<line class="st7" x1="58.7" y1="274" x2="62.9" y2="274"/>
		<line class="st7" x1="58.7" y1="279.7" x2="62.9" y2="279.7"/>
		<line class="st7" x1="58.7" y1="285.5" x2="62.9" y2="285.5"/>
		<line class="st14" x1="53.9" y1="359.2" x2="62.9" y2="359.2"/>
		<line class="st7" x1="58.7" y1="364.6" x2="62.9" y2="364.6"/>
		<line class="st7" x1="58.7" y1="370.2" x2="62.9" y2="370.2"/>
		<line class="st7" x1="58.7" y1="376" x2="62.9" y2="376"/>
		<line class="st14" x1="53.9" y1="246" x2="62.9" y2="246"/>
		<line class="st7" x1="58.7" y1="251.4" x2="62.9" y2="251.4"/>
		<line class="st7" x1="58.7" y1="257" x2="62.9" y2="257"/>
		<line class="st7" x1="58.7" y1="262.8" x2="62.9" y2="262.8"/>
		<line class="st14" x1="53.9" y1="268.6" x2="62.9" y2="268.6"/>
		<line class="st7" x1="58.7" y1="274" x2="62.9" y2="274"/>
		<line class="st7" x1="58.7" y1="279.7" x2="62.9" y2="279.7"/>
		<line class="st7" x1="58.7" y1="285.5" x2="62.9" y2="285.5"/>
		<line class="st14" x1="53.9" y1="336.5" x2="62.9" y2="336.5"/>
		<line class="st7" x1="58.7" y1="341.9" x2="62.9" y2="341.9"/>
		<line class="st7" x1="58.7" y1="347.6" x2="62.9" y2="347.6"/>
		<line class="st7" x1="58.7" y1="353.4" x2="62.9" y2="353.4"/>
		<line class="st14" x1="53.9" y1="381.5" x2="62.9" y2="381.5"/>
	</g>
	<g>
		<line class="st14" x1="83.9" y1="245.9" x2="74.8" y2="245.9"/>
		<line class="st7" x1="79" y1="251.3" x2="74.8" y2="251.3"/>
		<line class="st7" x1="79" y1="257" x2="74.8" y2="257"/>
		<line class="st7" x1="79" y1="262.8" x2="74.8" y2="262.8"/>
		<line class="st14" x1="83.9" y1="268.6" x2="74.8" y2="268.6"/>
		<line class="st7" x1="79" y1="274" x2="74.8" y2="274"/>
		<line class="st7" x1="79" y1="279.6" x2="74.8" y2="279.6"/>
		<line class="st7" x1="79" y1="285.4" x2="74.8" y2="285.4"/>
		<line class="st14" x1="83.9" y1="291.1" x2="74.8" y2="291.1"/>
		<line class="st7" x1="79" y1="296.5" x2="74.8" y2="296.5"/>
		<line class="st7" x1="79" y1="302.1" x2="74.8" y2="302.1"/>
		<line class="st7" x1="79" y1="307.9" x2="74.8" y2="307.9"/>
		<line class="st14" x1="83.9" y1="245.9" x2="74.8" y2="245.9"/>
		<line class="st7" x1="79" y1="251.3" x2="74.8" y2="251.3"/>
		<line class="st7" x1="79" y1="257" x2="74.8" y2="257"/>
		<line class="st7" x1="79" y1="262.8" x2="74.8" y2="262.8"/>
		<line class="st14" x1="83.9" y1="268.6" x2="74.8" y2="268.6"/>
		<line class="st7" x1="79" y1="274" x2="74.8" y2="274"/>
		<line class="st7" x1="79" y1="279.6" x2="74.8" y2="279.6"/>
		<line class="st7" x1="79" y1="285.4" x2="74.8" y2="285.4"/>
		<line class="st14" x1="83.9" y1="313.8" x2="74.8" y2="313.8"/>
		<line class="st7" x1="79" y1="319.2" x2="74.8" y2="319.2"/>
		<line class="st7" x1="79" y1="324.9" x2="74.8" y2="324.9"/>
		<line class="st7" x1="79" y1="330.7" x2="74.8" y2="330.7"/>
		<line class="st14" x1="83.9" y1="245.9" x2="74.8" y2="245.9"/>
		<line class="st7" x1="79" y1="251.3" x2="74.8" y2="251.3"/>
		<line class="st7" x1="79" y1="257" x2="74.8" y2="257"/>
		<line class="st7" x1="79" y1="262.8" x2="74.8" y2="262.8"/>
		<line class="st14" x1="83.9" y1="268.6" x2="74.8" y2="268.6"/>
		<line class="st7" x1="79" y1="274" x2="74.8" y2="274"/>
		<line class="st7" x1="79" y1="279.6" x2="74.8" y2="279.6"/>
		<line class="st7" x1="79" y1="285.4" x2="74.8" y2="285.4"/>
		<line class="st14" x1="83.9" y1="359.1" x2="74.8" y2="359.1"/>
		<line class="st7" x1="79" y1="364.5" x2="74.8" y2="364.5"/>
		<line class="st7" x1="79" y1="370.2" x2="74.8" y2="370.2"/>
		<line class="st7" x1="79" y1="376" x2="74.8" y2="376"/>
		<line class="st14" x1="83.9" y1="245.9" x2="74.8" y2="245.9"/>
		<line class="st7" x1="79" y1="251.3" x2="74.8" y2="251.3"/>
		<line class="st7" x1="79" y1="257" x2="74.8" y2="257"/>
		<line class="st7" x1="79" y1="262.8" x2="74.8" y2="262.8"/>
		<line class="st14" x1="83.9" y1="268.6" x2="74.8" y2="268.6"/>
		<line class="st7" x1="79" y1="274" x2="74.8" y2="274"/>
		<line class="st7" x1="79" y1="279.6" x2="74.8" y2="279.6"/>
		<line class="st7" x1="79" y1="285.4" x2="74.8" y2="285.4"/>
		<line class="st14" x1="83.9" y1="336.5" x2="74.8" y2="336.5"/>
		<line class="st7" x1="79" y1="341.9" x2="74.8" y2="341.9"/>
		<line class="st7" x1="79" y1="347.5" x2="74.8" y2="347.5"/>
		<line class="st7" x1="79" y1="353.3" x2="74.8" y2="353.3"/>
		<line class="st14" x1="83.9" y1="381.5" x2="74.8" y2="381.5"/>
	</g>
	<line class="st15" x1="68.8" y1="234" x2="68.8" y2="393.3"/>
</g>
<g id="Layer_13">
	<g>
		<path d="M63.5,410.3l-1.9-5.8h0.8l0.9,2.9c0.2,0.8,0.5,1.5,0.6,2.2l0,0c0.2-0.7,0.4-1.4,0.7-2.2l1-2.9h0.8l-2.1,5.8H63.5
			L63.5,410.3z"/>
		<path d="M71.9,407.3c0,2-1.2,3.1-2.7,3.1s-2.6-1.2-2.6-2.9c0-1.8,1.1-3,2.7-3C70.9,404.4,71.9,405.6,71.9,407.3z M67.4,407.4
			c0,1.2,0.7,2.3,1.8,2.3c1.2,0,1.9-1.1,1.9-2.4c0-1.1-0.6-2.4-1.8-2.4C68.1,405,67.4,406.1,67.4,407.4z"/>
		<path d="M72.9,404.5h0.7v5.2h2.5v0.6h-3.2V404.5z"/>
		<path d="M76.8,409.8c0-0.3,0.2-0.5,0.5-0.5s0.5,0.2,0.5,0.5s-0.2,0.5-0.5,0.5C77,410.4,76.8,410.1,76.8,409.8z"/>
	</g>
	<line class="st16" x1="68.8" y1="272.2" x2="68.8" y2="242.6"/>
</g>
<g id="Layer_16_copy_2">
	<path class="st17" d="M189.9,351.6"/>
	<path class="st17" d="M179.5,351.6"/>
</g>
<path class="st18" d="M182.7,347.8"/>
<path class="st18" d="M161.3,347.8"/>
<path class="st19" d="M309.3,352.1"/>
<path class="st19" d="M316.1,352.1"/>
<path class="st20" d="M316.1,345.2"/>
<path class="st20" d="M316.1,353.2"/>
<path class="st19" d="M340.6,352.2"/>
<path class="st19" d="M346.8,352.2"/>
<path class="st20" d="M340.9,344.1"/>
<path class="st20" d="M340.7,352.2"/>
<path class="st19" d="M340.8,352"/>
<path class="st19" d="M346.7,352"/>
<path class="st19" d="M340.9,352.1"/>
<path class="st19" d="M346.8,352.1"/>
<path class="st17" d="M320.4,351.2"/>
<path class="st17" d="M310.1,351.2"/>
<path class="st18" d="M313.2,347.4"/>
<path class="st18" d="M291.9,347.4"/>
<path class="st19" d="M384,352"/>
<path class="st19" d="M390.2,352"/>
<path class="st20" d="M384.3,344"/>
<path class="st20" d="M384.1,352"/>
<path class="st19" d="M384.2,351.8"/>
<path class="st19" d="M390.1,351.8"/>
<path class="st19" d="M384.3,351.9"/>
<path class="st19" d="M390.2,351.9"/>
<path class="st17" d="M363.8,351.1"/>
<path class="st19" d="M483.3,351.6"/>
<path class="st19" d="M490.1,351.6"/>
<path class="st20" d="M490.1,344.6"/>
<path class="st20" d="M490.1,352.7"/>
<path class="st19" d="M514.6,351.6"/>
<path class="st19" d="M520.7,351.6"/>
<path class="st20" d="M514.9,343.6"/>
<path class="st20" d="M514.7,351.6"/>
<path class="st19" d="M514.8,351.4"/>
<path class="st19" d="M520.6,351.4"/>
<path class="st19" d="M514.8,351.5"/>
<path class="st19" d="M520.7,351.5"/>
<path class="st17" d="M494.4,350.7"/>
<path class="st17" d="M484,350.7"/>
<path class="st18" d="M487.2,346.9"/>
<path class="st18" d="M465.8,346.9"/>
<polyline class="st12" points="129.7,427.7 129.7,230.4 568.8,230.4 568.8,427.7 "/>
<g>
	<path class="st21" d="M364.7,45.7h-21.6v-2.2h18.2C363,43.4,364.1,44.2,364.7,45.7z M365,48.6h-21.9v-2.2h21.8
		c0,0.2,0.1,0.5,0.1,0.7V48.6L365,48.6z M348.6,51.6h-5.5v-2.2h5.5V51.6z M364.7,52.3c-0.6,1.5-1.7,2.2-3.4,2.2h-18.2v-2.2H364.7z
		 M364.7,57.5h-21.6v-2.2h18.2C363,55.3,364.1,56,364.7,57.5z M348.6,60.5h-5.5v-2.2h5.5V60.5z M348.6,63.4h-5.5v-2.2h5.5V63.4z
		 M365,65.6c0,0.2,0,0.5-0.1,0.7h-21.8v-2.2H365V65.6L365,65.6z M364.7,67.1c-0.6,1.5-1.7,2.2-3.4,2.2h-18.2v-2.2H364.7z M365,50.8
		c0,0.2,0,0.5-0.1,0.7h-5.4v-2.2h5.5V50.8L365,50.8z M365,60.5h-5.5v-2.2h5.4c0.1,0.2,0.1,0.5,0.1,0.7V60.5L365,60.5z M365,63.4
		h-5.5v-2.2h5.5V63.4z"/>
	<path class="st21" d="M387.2,48.6h-20v-1.5c0-0.2,0-0.5,0.1-0.7h20L387.2,48.6L387.2,48.6z M372.7,51.6h-5.5v-2.2h5.5V51.6z
		 M387.2,54.5h-20v-2.2h20V54.5L387.2,54.5z M387.2,57.5h-20v-2.2h20V57.5L387.2,57.5z M372.7,60.5h-5.5v-2.2h5.5V60.5z M372.7,63.4
		h-5.5v-2.2h5.5V63.4z M387.2,66.4h-20c0-0.2-0.1-0.5-0.1-0.7v-1.5h20L387.2,66.4L387.2,66.4z M387.2,45.7h-19.7
		c0.6-1.5,1.7-2.2,3.4-2.2h16.4L387.2,45.7L387.2,45.7z M387.2,69.3h-16.4c-1.6,0-2.7-0.7-3.4-2.2h19.7L387.2,69.3L387.2,69.3z"/>
	<path class="st21" d="M396.4,45.7h-7v-2.2h5.5L396.4,45.7z M398.5,48.6h-9.1v-2.2h7.5L398.5,48.6z M400.6,51.6h-11.2v-2.2h9.6
		L400.6,51.6z M402.7,54.5h-7.3l-0.5-0.7v0.7h-5.5v-2.2h11.7L402.7,54.5z M394.9,57.5h-5.5v-2.2h5.5V57.5z M394.9,60.5h-5.5v-2.2
		h5.5V60.5z M394.9,63.4h-5.5v-2.2h5.5V63.4z M394.9,66.4h-5.5v-2.2h5.5V66.4z M394.9,69.3h-5.5v-2.2h5.5V69.3z M404.7,57.5h-7.3
		l-1.5-2.2h7.3L404.7,57.5z M411.3,60.5h-11.7l-1.6-2.2h7.3l0.5,0.7v-0.7h5.5L411.3,60.5L411.3,60.5z M411.3,63.4h-9.6l-1.6-2.2
		h11.2V63.4L411.3,63.4z M411.3,66.4h-7.5l-1.6-2.2h9.1V66.4L411.3,66.4z M411.3,69.3h-5.5l-1.6-2.2h7L411.3,69.3L411.3,69.3z
		 M411.3,45.7h-5.5v-2.2h5.5V45.7z M411.3,48.6h-5.5v-2.2h5.5V48.6z M411.3,51.6h-5.5v-2.2h5.5V51.6z M411.3,54.5h-5.5v-2.2h5.5
		V54.5z M411.3,57.5h-5.5v-2.2h5.5V57.5z"/>
	<path class="st21" d="M429.1,45.7h-6.5v-2.2h5.5L429.1,45.7z M430.5,48.6h-7.9v-2.2h6.9L430.5,48.6z M431.9,51.6h-9.4v-2.2h8.3
		L431.9,51.6z M433.3,54.5h-10.8v-2.2h9.7L433.3,54.5z M434.7,57.5h-6.2l-0.5-1.1v1.1h-5.5v-2.2h11.1L434.7,57.5z M428,60.5h-5.5
		v-2.2h5.5V60.5z M428,63.4h-5.5v-2.2h5.5V63.4z M428,66.4h-5.5v-2.2h5.5V66.4z M428,69.3h-5.5v-2.2h5.5V69.3z M436.1,60.5h-6.2
		l-1.1-2.2h6.2L436.1,60.5z M442.5,61.2l-1.1,2.2h-10.1l-1.1-2.2H442.5z M441,64.2l-1.1,2.2h-7.2l-1.1-2.2H441z M439.6,67.1
		l-1.1,2.2h-4.4l-1.1-2.2H439.6z M443.9,58.2l-1.1,2.2h-6.2l1.1-2.2H443.9z M450.2,57.5h-5.5v-1.1l-0.5,1.1H438l1.1-2.2h11.1V57.5
		L450.2,57.5z M450.2,54.5h-10.8l1.1-2.2h9.7L450.2,54.5L450.2,54.5z M450.2,51.6h-9.4l1.1-2.2h8.3V51.6L450.2,51.6z M450.2,48.6
		h-7.9l1.1-2.2h6.9L450.2,48.6L450.2,48.6z M450.2,45.7h-6.5l1.1-2.2h5.5L450.2,45.7L450.2,45.7z M450.2,60.5h-5.5v-2.2h5.5V60.5z
		 M450.2,63.4h-5.5v-2.2h5.5V63.4z M450.2,66.4h-5.5v-2.2h5.5V66.4z M450.2,69.3h-5.5v-2.2h5.5V69.3z"/>
	<path class="st21" d="M457.9,45.7h-5.5v-2.2h5.5V45.7z M457.9,48.6h-5.5v-2.2h5.5V48.6z M457.9,51.6h-5.5v-2.2h5.5V51.6z
		 M457.9,54.5h-5.5v-2.2h5.5V54.5z M457.9,57.5h-5.5v-2.2h5.5V57.5z M457.9,60.5h-5.5v-2.2h5.5V60.5z M457.9,63.4h-5.5v-2.2h5.5
		V63.4z M474.3,65.6c0,0.2,0,0.5-0.1,0.7h-21.7c-0.1-0.2-0.1-0.5-0.1-0.7v-1.5h21.9L474.3,65.6L474.3,65.6z M474,67.1
		c-0.6,1.5-1.7,2.2-3.4,2.2H456c-1.6,0-2.7-0.7-3.4-2.2H474z M474.3,45.7h-5.5v-2.2h5.5V45.7z M474.3,48.6h-5.5v-2.2h5.5V48.6z
		 M474.3,51.6h-5.5v-2.2h5.5V51.6z M474.3,54.5h-5.5v-2.2h5.5V54.5z M474.3,57.5h-5.5v-2.2h5.5V57.5z M474.3,60.5h-5.5v-2.2h5.5
		V60.5z M474.3,63.4h-5.5v-2.2h5.5V63.4z"/>
	<path class="st21" d="M498,45.7h-21.6v-2.2h18.2C496.3,43.4,497.4,44.2,498,45.7z M498.3,48.6h-21.9v-2.2h21.8
		c0.1,0.2,0.1,0.5,0.1,0.7V48.6L498.3,48.6z M481.9,51.6h-5.5v-2.2h5.5V51.6z M498,52.3c-0.6,1.5-1.7,2.2-3.4,2.2h-18.2v-2.2H498z
		 M498,57.5h-21.6v-2.2h18.2C496.3,55.3,497.4,56,498,57.5z M481.9,60.5h-5.5v-2.2h5.5V60.5z M481.9,63.4h-5.5v-2.2h5.5V63.4z
		 M481.9,66.4h-5.5v-2.2h5.5V66.4z M481.9,69.3h-5.5v-2.2h5.5V69.3z M498.3,50.8c0,0.2,0,0.5-0.1,0.7h-5.4v-2.2h5.5V50.8L498.3,50.8
		z M498.3,60.5h-5.5v-2.2h5.4c0.1,0.2,0.1,0.5,0.1,0.7V60.5L498.3,60.5z M498.3,63.4h-5.5v-2.2h5.5V63.4z M498.3,66.4h-5.5v-2.2h5.5
		V66.4z M498.3,69.3h-5.5v-2.2h5.5V69.3z"/>
	<path class="st21" d="M522,45.7h-21.6v-2.2h18.2C520.3,43.4,521.4,44.2,522,45.7z M522.3,48.6h-21.9v-2.2h21.8
		c0,0.2,0.1,0.5,0.1,0.7V48.6L522.3,48.6z M505.9,51.6h-5.5v-2.2h5.5V51.6z M522,52.3c-0.6,1.5-1.7,2.2-3.4,2.2h-18.2v-2.2H522z
		 M522,57.5h-21.6v-2.2h18.2C520.3,55.3,521.4,56,522,57.5z M505.9,60.5h-5.5v-2.2h5.5V60.5z M505.9,63.4h-5.5v-2.2h5.5V63.4z
		 M505.9,66.4h-5.5v-2.2h5.5V66.4z M505.9,69.3h-5.5v-2.2h5.5V69.3z M522.3,50.8c0,0.2,0,0.5-0.1,0.7h-5.4v-2.2h5.5V50.8z
		 M522.3,60.5h-5.5v-2.2h5.4c0,0.2,0.1,0.5,0.1,0.7V60.5z M522.3,63.4h-5.5v-2.2h5.5V63.4z M522.3,66.4h-5.5v-2.2h5.5V66.4z
		 M522.3,69.3h-5.5v-2.2h5.5V69.3z"/>
	<path class="st21" d="M530.5,67.1l-0.9,2.2h-6.2l0.9-2.2H530.5z M531.7,64.2l-0.9,2.2h-6.2l0.9-2.2H531.7z M548.4,63.4h-22.7
		l0.9-2.2h20.9L548.4,63.4z M547.2,60.5h-20.3l0.9-2.2h18.6L547.2,60.5z M535.1,55.3l-0.9,2.2H528l0.9-2.2H535.1z M536.3,52.3
		l-0.9,2.2h-6.2l0.9-2.2H536.3z M543.7,51.6h-6.2l-0.5-1.2l-0.5,1.2h-6.2l0.9-2.2h11.6L543.7,51.6z M542.6,48.6h-11l0.9-2.2h9.3
		L542.6,48.6z M541.4,45.7h-8.7l0.9-2.2h6.9L541.4,45.7z M544.9,54.5h-6.2l-0.9-2.2h6.2L544.9,54.5z M546.1,57.5h-6.2l-0.9-2.2h6.2
		L546.1,57.5z M549.6,66.4h-6.2l-0.9-2.2h6.2L549.6,66.4z M550.7,69.3h-6.2l-0.9-2.2h6.2L550.7,69.3z"/>
	<path class="st21" d="M552.8,45.7h-6.9l-1.6-2.2h6.9L552.8,45.7z M554.9,48.6H548l-1.6-2.2h6.9L554.9,48.6z M565.5,49.4l-1.6,2.2
		h-13.8l-1.6-2.2h6.9l1.6,2.2l1.6-2.2H565.5z M563.4,52.3l-1.6,2.2h-9.5l-1.6-2.2H563.4z M561.3,55.3l-1.5,2.2h-5.5l-1.5-2.2H561.3z
		 M559.8,60.5h-5.5v-2.2h5.5V60.5z M559.8,63.4h-5.5v-2.2h5.5V63.4z M559.8,66.4h-5.5v-2.2h5.5V66.4z M559.8,69.3h-5.5v-2.2h5.5
		V69.3z M567.7,46.4l-1.6,2.2h-6.9l1.6-2.2H567.7z M569.8,43.4l-1.6,2.2h-6.9l1.6-2.2H569.8z"/>
</g>
<g>
	<path d="M343.6,100.7V79h8.1c5.2,0,9.3,2.4,9.3,7.9c0,7.3-6.1,8.6-10,7.9v5.9L343.6,100.7L343.6,100.7z M351,89.2
		c1.7,0.2,3.3-0.1,3.3-2.3c0-2-1.9-2.2-3.3-2V89.2z"/>
	<path d="M363.4,100.7V79h8.5c4.7,0,7.1,1,8.2,4.3c0.2,0.7,0.3,1.4,0.3,2.1c0,1.9-0.9,3.8-2.2,4.6c1.6,0.4,2.4,1.7,2.4,4v6.7h-7
		v-6.1c0-1.9-2.1-1.8-3.1-1.8v7.9H363.4L363.4,100.7L363.4,100.7z M370.4,87.6h1.6c1.6,0,2.2-0.4,2.2-1.6c0-1.5-1.2-1.6-2.4-1.6
		h-1.3L370.4,87.6L370.4,87.6z"/>
	<path d="M382.9,89.8c0-6.2,5-11.3,11.1-11.3s11.1,5,11.1,11.3s-5,11.3-11.1,11.3C387.9,101.1,382.9,96.1,382.9,89.8z M397.6,89.8
		c0-2.1-1.6-3.8-3.7-3.8c-2,0-3.7,1.7-3.7,3.8c0,2,1.7,3.8,3.7,3.8C395.9,93.6,397.6,91.9,397.6,89.8z"/>
	<path d="M407.4,90c0-6.7,4.7-11.5,11.1-11.5c3.3,0,6.5,1.1,8.9,3.4l-4.7,4.7c-1.1-1.2-2.3-1.6-3.7-1.6c-2.6,0-4.6,2.1-4.6,5
		c0,2.8,2.4,4.7,4.6,4.7c1.6,0,3-0.8,3.5-2.1h-4.6l4.3-5.5h8c0,6.9-2.9,13.9-11.2,13.9C412.6,101.1,407.4,96.7,407.4,90z"/>
	<path d="M432.7,100.7V79h8.5c4.7,0,7.1,1,8.2,4.3c0.2,0.7,0.3,1.4,0.3,2.1c0,1.9-0.9,3.8-2.2,4.6c1.6,0.4,2.4,1.7,2.4,4v6.7h-7
		v-6.1c0-1.9-2.1-1.8-3.1-1.8v7.9H432.7L432.7,100.7L432.7,100.7z M439.8,87.6h1.6c1.6,0,2.2-0.4,2.2-1.6c0-1.5-1.2-1.6-2.4-1.6
		h-1.3L439.8,87.6L439.8,87.6z"/>
	<path d="M452.9,100.7V87.4c0-5.3,3.6-8.4,8.9-8.4h8v21.7h-7.1v-6h-2.8v6H452.9z M460.1,89.4h2.7v-5.1h-0.9c-1.1,0-1.8,0.6-1.8,1.6
		L460.1,89.4L460.1,89.4z"/>
	<path d="M500.2,100.7h-7.1V86.1c0-0.9-0.9-1.4-1.8-1.4h-1.2v15.9H483V86.1c0-0.9-0.9-1.4-1.8-1.4H480v15.9h-7V79h18.4
		c5.4,0,8.8,3,8.8,7.6L500.2,100.7L500.2,100.7z"/>
	<path d="M530.6,100.7h-7.1V86.1c0-0.9-0.9-1.4-1.8-1.4h-1.2v15.9h-7.1V86.1c0-0.9-0.9-1.4-1.8-1.4h-1.2v15.9h-7.1V79h18.4
		c5.4,0,8.8,3,8.8,7.6L530.6,100.7L530.6,100.7z"/>
	<path d="M533.8,100.7V79h15.1v5.8H541v2.4h6.9v5.2H541V95h7.8v5.7H533.8L533.8,100.7z"/>
	<path d="M551.9,100.7V79h8.5c4.7,0,7.1,1,8.2,4.3c0.2,0.7,0.3,1.4,0.3,2.1c0,1.9-0.9,3.8-2.2,4.6c1.6,0.4,2.4,1.7,2.4,4v6.7h-7
		v-6.1c0-1.9-2.1-1.8-3.1-1.8v7.9H551.9L551.9,100.7L551.9,100.7z M559,87.6h1.6c1.6,0,2.2-0.4,2.2-1.6c0-1.5-1.2-1.6-2.4-1.6H559
		V87.6L559,87.6L559,87.6z"/>
</g>
<line class="st0" x1="569.2" y1="154.2" x2="569.2" y2="24.2"/>
<g id="Layer_28">
	<polyline class="st22" points="107.5,31.9 39.9,35.6 23.6,15.3 27.6,13 102.1,13 284.6,13 289.2,15.1 272.6,35.4 	"/>
	<polyline class="st23" points="273.3,99.6 273.6,34.3 289.2,15.1 291.9,19.6 292.5,89.9 292.5,202.8 289.8,208.4 274,190.5 	"/>
	<polyline class="st21" points="39,99.6 39.5,34.9 23.1,15.1 20.4,19.6 19.9,89.9 20.3,202.4 22.5,208.4 40.3,190.4 	"/>
	<polyline class="st21" points="108.5,192.7 40.2,190.7 23.1,207.5 28.6,211.6 103.1,211.6 285.6,211.6 290,208.5 273.6,189.2 	"/>
</g>
<g>
	<path class="st12" d="M292.5,201.4c0,5.6-4.6,10.1-10.1,10.1H30.7c-5.6,0-10.1-4.6-10.1-10.1V22.8c0-5.6,4.6-10.1,10.1-10.1h251.6
		c5.6,0,10.1,4.6,10.1,10.1L292.5,201.4L292.5,201.4z"/>
</g>
<g>
	<path d="M277,183.1c0,5.6-4.6,10.1-10.1,10.1H47c-5.6,0-10.1-4.6-10.1-10.1V42.4c0-5.6,4.6-10.1,10.1-10.1h219.8
		c5.6,0,10.1,4.6,10.1,10.1v140.7H277z"/>
	<path class="st24" d="M277,183.1c0,5.6-4.6,10.1-10.1,10.1H47c-5.6,0-10.1-4.6-10.1-10.1V42.4c0-5.6,4.6-10.1,10.1-10.1h219.8
		c5.6,0,10.1,4.6,10.1,10.1v140.7H277z"/>
</g>
<g>
	<path class="st25" d="M267.5,171.6c0,5.6-4.6,10.1-10.1,10.1H56.5c-5.6,0-10.1-4.6-10.1-10.1V53.2c0-5.6,4.6-10.1,10.1-10.1h200.9
		c5.6,0,10.1,4.6,10.1,10.1V171.6z"/>
	<path class="st24" d="M267.5,171.6c0,5.6-4.6,10.1-10.1,10.1H56.5c-5.6,0-10.1-4.6-10.1-10.1V53.2c0-5.6,4.6-10.1,10.1-10.1h200.9
		c5.6,0,10.1,4.6,10.1,10.1V171.6z"/>
</g>
<pattern  id="SVGID_1_" xlink:href="#SVGID_2_" patternTransform="matrix(1 0 0 -1 -578.986 -49288.6992)">
</pattern>
<path class="st26" d="M23.6,15.3l16.2,20.3L23.6,15.3z"/>
<line class="st24" x1="22.6" y1="207.9" x2="40.2" y2="190.4"/>
<line class="st24" x1="289.7" y1="208.1" x2="273.9" y2="190.2"/>
<line class="st24" x1="289.2" y1="15.1" x2="273.2" y2="34.5"/>
<g>
	<path class="st12" d="M569,208.7c0,1.6-1.4,3-3,3H347.5c-1.6,0-3-1.4-3-3v-66.5c0-1.6,1.4-3,3-3H566c1.6,0,3,1.4,3,3V208.7z"/>
</g>
<rect x="429" y="133.7" class="st3" width="62" height="11.9"/>
<g id="Layer_34">
	<g class="st6">
		<path d="M435.8,142.6v-6.4h4.8v1.1h-3.5v1.4h3.2v1.1h-3.2v1.8h3.6v1.1L435.8,142.6L435.8,142.6L435.8,142.6z"/>
		<path d="M441.8,142.6v-6.4h1.3l2.6,4.3v-4.3h1.2v6.4h-1.3l-2.6-4.2v4.2H441.8z"/>
		<path d="M449.9,142.6l-2.3-6.4h1.4l1.6,4.8l1.6-4.8h1.4l-2.3,6.4H449.9z"/>
		<path d="M454.3,142.6v-6.4h4.8v1.1h-3.5v1.4h3.2v1.1h-3.2v1.8h3.6v1.1L454.3,142.6L454.3,142.6L454.3,142.6z"/>
		<path d="M460.3,142.6v-6.4h1.3v5.3h3.2v1.1L460.3,142.6L460.3,142.6z"/>
		<path d="M465.5,139.4c0-0.7,0.1-1.2,0.3-1.7c0.1-0.3,0.3-0.6,0.6-0.9c0.3-0.3,0.5-0.5,0.8-0.6c0.4-0.2,0.9-0.3,1.4-0.3
			c0.9,0,1.7,0.3,2.3,0.9c0.6,0.6,0.9,1.4,0.9,2.5c0,1-0.3,1.9-0.9,2.4c-0.6,0.6-1.3,0.9-2.3,0.9s-1.7-0.3-2.3-0.9
			C465.8,141.2,465.5,140.4,465.5,139.4z M466.9,139.3c0,0.7,0.2,1.3,0.5,1.7s0.8,0.6,1.3,0.6s0.9-0.2,1.3-0.6
			c0.3-0.4,0.5-0.9,0.5-1.7c0-0.7-0.2-1.3-0.5-1.7s-0.8-0.5-1.3-0.5s-1,0.2-1.3,0.6C467,138,466.9,138.6,466.9,139.3z"/>
		<path d="M472.8,142.6v-6.4h2.1c0.8,0,1.3,0,1.5,0.1c0.4,0.1,0.7,0.3,0.9,0.6c0.2,0.3,0.4,0.7,0.4,1.3c0,0.4-0.1,0.7-0.2,1
			s-0.3,0.5-0.5,0.6c-0.2,0.2-0.4,0.3-0.7,0.3c-0.3,0.1-0.8,0.1-1.3,0.1h-0.9v2.4L472.8,142.6L472.8,142.6L472.8,142.6z
			 M474.1,137.2v1.8h0.7c0.5,0,0.9,0,1-0.1c0.2-0.1,0.3-0.2,0.4-0.3s0.1-0.3,0.1-0.5s-0.1-0.4-0.2-0.6c-0.1-0.1-0.3-0.2-0.5-0.3
			c-0.2,0-0.5,0-0.9,0L474.1,137.2L474.1,137.2z"/>
		<path d="M478.8,142.6v-6.4h4.8v1.1h-3.5v1.4h3.2v1.1h-3.2v1.8h3.6v1.1L478.8,142.6L478.8,142.6L478.8,142.6z"/>
	</g>
</g>
<line class="st27" x1="585" y1="3.3" x2="585" y2="426.8"/>
<line class="st28" x1="127.5" y1="229.6" x2="127.7" y2="426.4"/>
<g class="st29">
	<polyline class="st13" points="587.5,-1.1 587.5,424.4 568.8,424.2 568.8,419.6 129.8,419.5 129.8,424.4 2.5,424.4 	"/>
</g>
<pattern  id="SVGID_4_" xlink:href="#SVGID_3_" patternTransform="matrix(1 0 0 1 -428.486 16435.5664)">
</pattern>
<polygon class="st30" points="587.5,428.7 568.8,422.8 562.6,233.5 129.7,230.4 131.5,428.7 2.5,428.7 2.5,3.7 587.5,3.7 "/>
</svg>
