<svg xmlns="http://www.w3.org/2000/svg" viewBox="0 0 53.91 62.39"><title>languages</title><g id="Layer_2" data-name="Layer 2"><g id="Layer_1-2" data-name="Layer 1"><path d="M5.49,2.57a1,1,0,0,1-.94.94H1.44V6.39H0V0H4.54a.91.91,0,0,1,.67.28.91.91,0,0,1,.28.67ZM4,2.16V1.35H1.44v.81Z"/><path d="M12.38,0,9.85,3.48V6.39H8.42V3.48L5.89,0H7.73L9.14,2l1.41-2Z"/><path d="M18.27,1.35H16.33v5H14.89v-5H12.78V0h5.49Z"/><path d="M24.21,6.39H22.77V3.51H20.16V6.39H18.72V0h1.44V2.16h2.61V0h1.44Z"/><path d="M30.15,5.45a1,1,0,0,1-.94.94H25.6a1,1,0,0,1-.94-.94V.95a.91.91,0,0,1,.28-.67A.91.91,0,0,1,25.6,0h3.6a.91.91,0,0,1,.67.28.91.91,0,0,1,.28.67ZM28.71,5V1.35H26.1V5Z"/><path d="M36.09,6.39H34.67L32,2.71V6.39H30.6V0H32l2.63,3.69V0h1.44Z"/><path d="M5.49,19.45a1,1,0,0,1-.94.94H.94a.91.91,0,0,1-.67-.28A.91.91,0,0,1,0,19.45V17.6H1.44V19H4V14H5.49Z"/><path d="M12.53,20.39H10.91L10.33,19H7.85l-.58,1.44H5.65L8.21,14H10ZM9.79,17.6l-.7-1.76-.7,1.76Z"/><path d="M17.79,14l-2.56,6.39H13.47L10.92,14h1.62l1.82,4.55L16.17,14Z"/><path d="M23.06,20.39H21.44L20.86,19H18.38l-.58,1.44H16.18L18.74,14H20.5ZM20.32,17.6l-.7-1.76-.7,1.76Z"/><path d="M28.71,19.45a1,1,0,0,1-.94.94H23.22V19h4V17.51h-3.1a1,1,0,0,1-.94-.94V14.95a1,1,0,0,1,.94-.95h4.54v1.35h-4v.81h3.1a1,1,0,0,1,.94.94Z"/><path d="M34.2,20.39H30.1a1,1,0,0,1-.94-.94v-4.5A1,1,0,0,1,30.1,14h4.1v1.35H30.6V19h3.6Z"/><path d="M40.14,20.39H38.7V17.51H36.09v2.88H34.65V14h4.54a1,1,0,0,1,.94.95v1a.94.94,0,0,1-.66.9.94.94,0,0,1,.66.9ZM38.7,16.16v-.81H36.09v.81Z"/><path d="M42,20.39H40.59V14H42Z"/><path d="M48,16.57a1,1,0,0,1-.94.94h-3.1v2.88H42.48V14H47a1,1,0,0,1,.94.95Zm-1.44-.41v-.81H43.92v.81Z"/><path d="M53.91,15.35H52v5H50.53v-5H48.42V14h5.49Z"/><path d="M5.49,34.39H4V31.51H1.44v2.88H0V28H1.44v2.16H4V28H5.49Z"/><path d="M11.43,29.35H9.49v5H8.05v-5H5.94V28h5.49Z"/><path d="M18.81,34.39H17.37v-3l-1.46,3H14.78l-1.46-3v3H11.88V28H13.3l2,4.22L17.39,28h1.42Z"/><path d="M24.3,34.39H20.2a1,1,0,0,1-.94-.94V28H20.7v5h3.6Z"/><path d="M24.67,34.71l1.93-6.53h.91l-1.93,6.53Z"/><path d="M32.77,34.39h-4.1a1,1,0,0,1-.94-.94v-4.5a1,1,0,0,1,.94-.95h4.1v1.35h-3.6V33h3.6Z"/><path d="M38.71,33.45a1,1,0,0,1-.94.94H33.22V33h4V31.51h-3.1a1,1,0,0,1-.94-.94V28.95a1,1,0,0,1,.94-.95h4.54v1.35h-4v.81h3.1a1,1,0,0,1,.94.94Z"/><path d="M44.65,33.45a1,1,0,0,1-.94.94H39.16V33h4V31.51H40.1a1,1,0,0,1-.94-.94V28.95A1,1,0,0,1,40.1,28h4.54v1.35h-4v.81h3.1a1,1,0,0,1,.94.94Z"/><path d="M5.49,47.45a1,1,0,0,1-.94.94H.94a.91.91,0,0,1-.67-.28A.91.91,0,0,1,0,47.45V45.6H1.44V47H4V42H5.49Z"/><path d="M12.53,48.39H10.91L10.33,47H7.85l-.58,1.44H5.65L8.21,42H10ZM9.79,45.6l-.7-1.76-.7,1.76Z"/><path d="M17.79,42l-2.56,6.39H13.47L10.92,42h1.62l1.82,4.55L16.17,42Z"/><path d="M23.06,48.39H21.44L20.86,47H18.38l-.58,1.44H16.18L18.74,42H20.5ZM20.32,45.6l-.7-1.76-.7,1.76Z"/><path d="M5,62.39H.94a.91.91,0,0,1-.67-.28A.91.91,0,0,1,0,61.45v-4.5a.91.91,0,0,1,.28-.67A.91.91,0,0,1,.94,56H5v1.35H1.44V61H5Z"/><path d="M6.09,62.35l.23-1.61H5.6v-.83h.87l.14-1H5.85v-.84h.89L7,56.49h.8l-.23,1.57h.82l.23-1.57h.8l-.23,1.57h.72v.84H9l-.14,1h.75v.83H8.76l-.23,1.61H7.72l.23-1.61H7.13L6.9,62.35Zm2-2.44.14-1H7.42l-.14,1Z"/></g></g></svg>