<?xml version="1.0" encoding="utf-8"?>
<!-- Generator: Adobe Illustrator 21.0.2, SVG Export Plug-In . SVG Version: 6.00 Build 0)  -->
<svg version="1.1" id="Layer_1" xmlns="http://www.w3.org/2000/svg" xmlns:xlink="http://www.w3.org/1999/xlink" x="0px" y="0px"
	 viewBox="0 0 150 185" style="cursor: pointer; enable-background:new 0 0 150 185;" xml:space="preserve">
<g>
	<path id="linkedin_contact_icon" d="M118.6,120.1H99.4V90c0-7.2-0.1-16.4-10-16.4c-10,0-11.5,7.8-11.5,15.9v30.6H58.6v-62H77v8.5h0.3c2.6-4.9,8.9-10,18.2-10
		c19.5,0,23.1,12.8,23.1,29.5L118.6,120.1L118.6,120.1z M36.9,49.7c-6.2,0-11.2-5-11.2-11.2c0-6.2,5-11.2,11.2-11.2
		c6.2,0,11.2,5,11.2,11.2C48,44.7,43,49.7,36.9,49.7L36.9,49.7z M46.5,120.1H27.2V58.1h19.3V120.1L46.5,120.1z M128.2,9.5H17.6
		c-5.3,0-9.6,4.2-9.6,9.4v111.1c0,5.2,4.3,9.4,9.6,9.4h110.6c5.3,0,9.6-4.2,9.6-9.4V18.8C137.8,13.7,133.5,9.5,128.2,9.5L128.2,9.5z
		"/>
</g>
<g>
	<path d="M10.4,150.5h2.5V177h-2.5V150.5z"/>
	<path d="M18.8,150c0.6,0,1,0.2,1.4,0.6s0.6,0.9,0.6,1.4c0,0.6-0.2,1-0.6,1.4s-0.9,0.6-1.4,0.6c-0.5,0-1-0.2-1.4-0.6
		c-0.4-0.4-0.6-0.9-0.6-1.4c0-0.6,0.2-1,0.6-1.4C17.8,150.2,18.3,150,18.8,150z M17.6,157.9H20V177h-2.5V157.9z"/>
	<path d="M25.2,157.9h2.5v3.4c1-1.3,2.1-2.3,3.3-2.9s2.5-1,3.9-1c1.4,0,2.7,0.4,3.8,1.1s1.9,1.7,2.5,2.9s0.8,3.1,0.8,5.7v9.8h-2.5
		v-9.1c0-2.2-0.1-3.7-0.3-4.4c-0.3-1.3-0.8-2.2-1.6-2.9s-1.9-1-3.2-1c-1.5,0-2.8,0.5-4,1.5c-1.2,1-2,2.2-2.3,3.7
		c-0.2,0.9-0.4,2.7-0.4,5.2v7h-2.5V157.9z"/>
	<path d="M47.1,150.5h2.5v15.1l8.9-7.7H62L51.5,167l11.1,10h-3.5l-9.6-8.6v8.6h-2.5L47.1,150.5L47.1,150.5z"/>
	<path d="M81.3,170.7l2.1,1.1c-0.7,1.3-1.5,2.4-2.4,3.2c-0.9,0.8-1.9,1.4-3,1.9s-2.4,0.6-3.8,0.6c-3.1,0-5.6-1-7.3-3.1
		c-1.8-2-2.6-4.4-2.6-6.9c0-2.4,0.7-4.6,2.2-6.5c1.9-2.4,4.4-3.6,7.6-3.6c3.3,0,5.9,1.2,7.8,3.7c1.4,1.7,2.1,3.9,2.1,6.5H66.8
		c0,2.2,0.8,4,2.1,5.5c1.4,1.4,3.1,2.1,5.1,2.1c1,0,1.9-0.2,2.8-0.5c0.9-0.3,1.7-0.8,2.3-1.3C79.8,172.8,80.5,171.9,81.3,170.7z
		 M81.3,165.5c-0.3-1.3-0.8-2.4-1.4-3.1s-1.5-1.4-2.5-1.9s-2.1-0.7-3.3-0.7c-1.9,0-3.5,0.6-4.8,1.8c-1,0.9-1.7,2.2-2.2,4L81.3,165.5
		L81.3,165.5z"/>
	<path d="M107.7,150.5V177h-2.4v-3.3c-1,1.3-2.2,2.2-3.5,2.8s-2.7,0.9-4.2,0.9c-2.7,0-5-1-6.9-2.9s-2.9-4.4-2.9-7.2
		c0-2.8,1-5.1,2.9-7.1s4.3-2.9,7-2.9c1.6,0,3,0.3,4.3,1s2.4,1.7,3.3,3v-10.9L107.7,150.5L107.7,150.5z M97.8,159.8
		c-1.4,0-2.6,0.3-3.8,1c-1.2,0.7-2.1,1.6-2.8,2.8c-0.7,1.2-1,2.5-1,3.9c0,1.3,0.3,2.6,1,3.9c0.7,1.2,1.6,2.2,2.8,2.9
		c1.2,0.7,2.4,1,3.7,1c1.3,0,2.6-0.3,3.8-1c1.2-0.7,2.1-1.6,2.8-2.8c0.6-1.2,1-2.5,1-3.9c0-2.2-0.7-4.1-2.2-5.5
		C101.8,160.5,100,159.8,97.8,159.8z"/>
	<path d="M113.3,151.1h2.6V177h-2.6V151.1z"/>
	<path d="M121.4,157.9h2.5v3.4c1-1.3,2.1-2.3,3.3-2.9s2.5-1,3.9-1c1.4,0,2.7,0.4,3.8,1.1s1.9,1.7,2.5,2.9s0.8,3.1,0.8,5.7v9.8h-2.5
		v-9.1c0-2.2-0.1-3.7-0.3-4.4c-0.3-1.3-0.8-2.2-1.6-2.9s-1.9-1-3.2-1c-1.5,0-2.8,0.5-4,1.5c-1.2,1-2,2.2-2.3,3.7
		c-0.2,0.9-0.4,2.7-0.4,5.2v7h-2.5L121.4,157.9L121.4,157.9z"/>
</g>
</svg>
