<?xml version="1.0" encoding="utf-8"?>
<!-- Generator: Adobe Illustrator 21.0.2, SVG Export Plug-In . SVG Version: 6.00 Build 0)  -->
<svg version="1.1" id="Layer_1" xmlns="http://www.w3.org/2000/svg" xmlns:xlink="http://www.w3.org/1999/xlink" x="0px" y="0px"
	 viewBox="0 0 362 82" style="enable-background:new 0 0 362 82;" xml:space="preserve">
<g>
	<path d="M40.3,30.3c0,3.3-1.1,5.6-3.2,7c-1.3,1.1-3.5,1.6-6.8,1.6H12.6v24.5v1.5h-1.4V21.6h1.3h17.3c3.4,0,6.1,0.8,7.9,2.4
		C39.4,25.6,40.3,27.7,40.3,30.3z M12.6,37.6h17.1c2.8,0,5.1-0.5,6.6-1.5c1.7-1.2,2.6-3.1,2.6-5.8c0-2.3-0.8-4.1-2.4-5.4
		c-1.6-1.3-3.9-1.9-6.8-1.9H12.6V37.6z"/>
	<path d="M65.4,64.9c-2.5,0-4.9-0.6-7.2-1.7c-2.1-1-4.1-2.6-5.9-4.7c-3.6-4.2-5.3-9.3-5.3-15.3c0-5.9,1.8-11,5.3-15.2
		c1.8-2.2,3.8-3.8,5.9-4.7c2.2-1.1,4.6-1.7,7.2-1.7c2.6,0,5,0.6,7.2,1.7c2.1,1,4,2.6,5.9,4.7c3.6,4.2,5.3,9.2,5.3,15.2
		c0,6-1.8,11.1-5.3,15.3c-1.8,2.1-3.7,3.7-5.9,4.7C70.3,64.3,67.9,64.9,65.4,64.9z M53.4,57.5c3.3,4,7.3,5.9,11.9,5.9
		c4.7,0,8.7-2,12-5.9c3.3-4,5-8.7,5-14.3s-1.7-10.4-5-14.3C74,25,70.1,23,65.4,23c-4.7,0-8.7,2-11.9,5.9c-3.3,3.9-4.9,8.7-4.9,14.3
		S50.1,53.6,53.4,57.5z"/>
	<path d="M120.4,30.3c0,3.3-1.1,5.6-3.2,7c-1.3,1.1-3.5,1.6-6.8,1.6H92.6v24.5v1.5h-1.4V21.6h1.3h17.3c3.4,0,6.1,0.8,7.9,2.4
		C119.5,25.6,120.4,27.7,120.4,30.3z M92.6,37.6h17.1c2.8,0,5.1-0.5,6.6-1.5c1.7-1.2,2.6-3.1,2.6-5.8c0-2.3-0.8-4.1-2.4-5.4
		c-1.6-1.3-3.9-1.9-6.8-1.9H92.6V37.6z"/>
	<path d="M127.1,43.2c0-5.9,1.8-11,5.3-15.2c1.8-2.2,3.8-3.8,5.9-4.7c2.2-1.1,4.6-1.7,7.2-1.7c2.9,0,5.7,0.8,8.4,2.3
		c2.7,1.5,4.9,3.7,6.4,6.4h-1.8c-1.6-2.3-3.6-4.1-5.9-5.4c-2.3-1.3-4.7-1.9-7.2-1.9c-4.7,0-8.7,2-11.9,5.9
		c-3.3,3.9-4.9,8.7-4.9,14.3s1.6,10.4,4.9,14.3c3.3,4,7.3,5.9,11.9,5.9c2.4,0,4.8-0.6,7-1.8c2.2-1.2,4.2-2.9,5.8-5.1h1.6
		c-1.6,2.6-3.7,4.6-6.4,6.1c-2.7,1.5-5.3,2.3-8,2.3c-2.5,0-4.9-0.6-7.2-1.7c-2.1-1-4.1-2.6-5.9-4.7C128.8,54.2,127,49.1,127.1,43.2z
		"/>
	<path d="M185.2,64.9c-2.5,0-4.9-0.6-7.2-1.7c-2.1-1-4.1-2.6-5.9-4.7c-3.6-4.2-5.3-9.3-5.3-15.3c0-5.9,1.8-11,5.3-15.2
		c1.8-2.2,3.8-3.8,5.9-4.7c2.2-1.1,4.6-1.7,7.2-1.7c2.6,0,5,0.6,7.2,1.7c2.1,1,4,2.6,5.9,4.7c3.6,4.2,5.3,9.2,5.3,15.2
		c0,6-1.8,11.1-5.3,15.3c-1.8,2.1-3.7,3.7-5.9,4.7C190.1,64.3,187.7,64.9,185.2,64.9z M173.3,57.5c3.3,4,7.3,5.9,11.9,5.9
		c4.7,0,8.7-2,12-5.9c3.3-4,5-8.7,5-14.3s-1.7-10.4-5-14.3c-3.3-3.9-7.3-5.9-12-5.9c-4.7,0-8.7,2-11.9,5.9
		c-3.3,3.9-4.9,8.7-4.9,14.3S170,53.6,173.3,57.5z"/>
	<path d="M229.9,39L241,64.9h-1.5L228.4,39h-15.9v24.5v1.5H211V21.6h1.3h17.2c3.5,0,6.1,0.8,8,2.4c1.8,1.5,2.7,3.7,2.7,6.3
		c0,3.3-1.1,5.6-3.2,7c-1.3,1.1-3.5,1.6-6.8,1.6H229.9z M212.5,37.6h17c2.8,0,5-0.5,6.6-1.5c1.7-1.2,2.6-3.1,2.6-5.7
		c0-2.3-0.8-4.1-2.4-5.4c-1.6-1.3-3.9-1.9-6.8-1.9h-17V37.6z"/>
	<path d="M277.7,21.6h1.5v43.3h-1.5h-0.3l-26.3-41.2v41.2h-1.5V21.6h0.1h1.4h0.3l26.3,41.1V21.6z"/>
</g>
<g transform="translate(0 -540.36)">
	<g>
		<g>
			<g>
				<path d="M350,562.5c-0.1-2.7-1.9-5-4.5-5.8h0c-0.8-0.2-1.6-0.3-2.4-0.3c-1-2.1-3-3.6-5.2-3.8c-0.4-0.1-0.8-0.1-1.3-0.1
					c-0.5-1.7-2-3.2-3.8-3.9c-1.9-0.8-4-0.6-5.7,0.5c-1.2-0.7-2.6-1-4-0.9c-2.7,0.2-4.8,1.8-5.6,4.2c-0.7-0.1-1.3,0-1.9,0.1
					c-2.2,0.5-3.9,2-4.6,4.2c-1.1-0.1-2.3,0.2-3.3,0.7c-2.2,1.1-3.5,3.2-3.5,5.7c0,2.1,1.4,4.2,3.4,5l4.2,41.4
					c0.1,0.5,0.5,0.9,1,0.9h28.6c0.5,0,0.9-0.4,1-0.9l4.4-41.5C348.8,567.2,350.1,564.9,350,562.5z M313.7,608.6l-4.1-40.1h5.7
					l0.9,17c-1.3,1-2.1,2.2-2.1,3.5c0,1.4,0.8,2.6,2.2,3.7l1.1,15.9H313.7z M327.1,584.7c6.4,0,11.2,2.3,11.2,4.4
					c0,2.1-4.6,4.5-11.2,4.5c-6.5,0-11-2.4-11-4.5C316.1,587,320.8,584.7,327.1,584.7z M317.3,568.5h5.6l0,14.6
					c-1.8,0.3-3.4,0.8-4.7,1.4L317.3,568.5z M324.8,568.5h4.6l0,14.3c-0.8-0.1-1.5-0.1-2.3-0.1s-1.6,0-2.3,0.1L324.8,568.5z
					 M331.4,583.1v-14.6h5.7l-0.9,15.9c0,0-0.1,0-0.1,0C334.8,583.8,333.2,583.3,331.4,583.1z M322.9,608.6h-3.5l-1-14.7
					c1.3,0.6,2.9,1,4.5,1.3V608.6z M329.5,608.7h-4.6v-13.2c0.8,0.1,1.5,0.1,2.3,0.1c0.8,0,1.6,0,2.3-0.1V608.7z M335.1,608.6h-3.7
					v-13.4c1.8-0.3,3.4-0.7,4.7-1.3L335.1,608.6z M340.6,608.6h-3.5l1.1-15.9c1.4-1,2.2-2.3,2.2-3.7c0-1.3-0.7-2.5-2.1-3.5l0.9-17
					h5.7L340.6,608.6z M345.9,566.6h-37.3c-1.3-0.4-2.4-1.8-2.4-3.2c0-1.3,0.4-3,2.4-4c0,0,0,0,0,0c1.4-0.8,3.2-0.7,4.6,0.3
					c0.4,0.3,1.1,0.2,1.4-0.2c0.3-0.4,0.2-1.1-0.2-1.4c-0.4-0.3-0.9-0.5-1.3-0.7c0.5-1.4,1.6-2.4,3.1-2.7c1.8-0.4,3.7,0.2,4.8,1.6
					c0.3,0.4,1,0.5,1.4,0.1c0.4-0.3,0.5-1,0.1-1.4c-0.7-0.9-1.7-1.6-2.9-2c0.6-1.6,2-2.6,3.8-2.7c0,0,0,0,0.1,0
					c2-0.3,3.9,0.9,4.5,2.8c0.2,0.5,0.7,0.8,1.3,0.6c0.5-0.2,0.8-0.7,0.6-1.3c-0.2-0.7-0.6-1.3-1-1.8c1.1-0.5,2.3-0.5,3.4,0
					c1.2,0.5,2.1,1.4,2.5,2.5c-1.3,0.5-2.4,1.3-3.2,2.5c-0.3,0.5-0.2,1.1,0.3,1.4c0.5,0.3,1.1,0.2,1.4-0.3c1-1.5,2.7-2.3,4.5-2
					c0,0,0.1,0,0.1,0c1.4,0.1,2.7,1,3.4,2.3c-1.1,0.4-2,1.1-2.8,2c-0.3,0.4-0.3,1,0.1,1.4c0.4,0.3,1,0.3,1.4-0.1
					c1.2-1.5,3.1-2,5.1-1.5c1.8,0.5,3,2.1,3.1,4C348.1,564.3,347.3,565.8,345.9,566.6z"/>
				<path d="M341.5,610.6h-28.6c-0.5,0-1-0.4-1-0.9l-4.2-41.4c-2-0.8-3.4-2.9-3.4-5c0-2.6,1.3-4.7,3.5-5.8c1-0.5,2.2-0.8,3.3-0.7
					c0.7-2.2,2.4-3.7,4.6-4.2c0.6-0.1,1.3-0.2,1.9-0.1c0.8-2.4,2.9-4.1,5.6-4.2c1.4-0.2,2.8,0.1,4,0.9c1.7-1.1,3.8-1.2,5.7-0.5
					c1.8,0.7,3.2,2.2,3.8,3.9c0.5,0,0.9,0,1.2,0.1c2.2,0.2,4.3,1.7,5.2,3.8c0.8,0,1.5,0,2.3,0.3l0,0c2.6,0.8,4.4,3.1,4.5,5.8v0
					c0.1,2.4-1.2,4.7-3.2,5.8l-4.4,41.4C342.4,610.2,342,610.6,341.5,610.6z M310.8,556.9c-1,0-2.1,0.3-3,0.7
					c-2.2,1.1-3.5,3.2-3.5,5.7c0,2.1,1.4,4.1,3.3,4.9l0,0l0,0l4.2,41.4c0.1,0.5,0.5,0.8,0.9,0.8h28.6c0.5,0,0.9-0.4,0.9-0.8
					l4.4-41.5l0,0c2-1.1,3.3-3.4,3.2-5.8v0c-0.1-2.6-1.9-4.9-4.5-5.7l0,0c-0.8-0.2-1.6-0.3-2.3-0.3l0,0l0,0c-0.9-2.1-3-3.6-5.2-3.8
					c-0.4-0.1-0.8-0.1-1.3-0.1l0,0l0,0c-0.5-1.7-2-3.2-3.7-3.9c-1.9-0.7-3.9-0.6-5.6,0.5l0,0l0,0c-1.2-0.7-2.6-1-4-0.9
					c-2.6,0.2-4.8,1.8-5.5,4.2l0,0l0,0c-0.6-0.1-1.3,0-1.9,0.1c-2.2,0.5-3.9,2-4.6,4.2l0,0l0,0C311,556.9,310.9,556.9,310.8,556.9z
					 M329.5,608.7h-4.7v-13.3l0,0c0.8,0.1,1.6,0.1,2.3,0.1c0.8,0,1.6,0,2.3-0.1l0,0V608.7z M324.9,608.6h4.6v-13.1
					c-0.7,0.1-1.4,0.1-2.3,0.1c-0.7,0-1.5,0-2.3-0.1V608.6z M340.6,608.7H337l0,0l1.1-15.9l0,0c1.4-1,2.1-2.3,2.1-3.6
					c0-1.3-0.7-2.5-2.1-3.5l0,0l0,0l0.9-17.1h5.8l0,0L340.6,608.7z M337.1,608.6h3.4l4.2-40.1h-5.7l-0.9,17c1.4,1,2.1,2.2,2.1,3.5
					c0,1.3-0.7,2.6-2.2,3.7L337.1,608.6z M335.1,608.7h-3.8v-13.5l0,0c1.8-0.3,3.4-0.7,4.7-1.3l0,0l0,0.1L335.1,608.7z M331.4,608.6
					h3.6l1-14.7c-1.3,0.6-2.8,1-4.6,1.3V608.6z M322.9,608.7h-3.6l0,0l-1-14.8l0,0c1.3,0.6,2.8,1,4.5,1.3l0,0V608.7z M319.4,608.6
					h3.5v-13.4c-1.6-0.3-3.1-0.7-4.5-1.3L319.4,608.6z M317.4,608.7h-3.7l0,0l-4.1-40.2h5.8l0,0l0.9,17.1l0,0
					c-1.4,1-2.1,2.2-2.1,3.5c0,1.3,0.7,2.6,2.1,3.6l0,0l0,0L317.4,608.7z M313.7,608.6h3.6l-1.1-15.9c-1.4-1.1-2.2-2.3-2.2-3.7
					c0-1.3,0.7-2.5,2.1-3.5l-0.9-17h-5.7L313.7,608.6z M327.1,593.6c-6.5,0-11.1-2.4-11.1-4.6c0-2.1,4.7-4.4,11.1-4.4
					c6.4,0,11.2,2.3,11.2,4.4c0,0.5-0.3,1.1-0.8,1.6C335.8,592.5,331.7,593.6,327.1,593.6z M327.1,584.7c-6.3,0-11,2.3-11,4.3
					c0,2.1,4.5,4.5,11,4.5c5.5,0,9-1.6,10.4-2.9c0.5-0.5,0.8-1.1,0.8-1.6C338.3,587,333.5,584.7,327.1,584.7z M318.1,584.5
					L318.1,584.5l-0.9-16h5.6v0l0,14.6l0,0C321.2,583.4,319.5,583.9,318.1,584.5L318.1,584.5z M317.3,568.5l0.9,15.9
					c1.3-0.6,3-1.1,4.7-1.4l0-14.5H317.3z M336.3,584.5L336.3,584.5c-0.1,0-0.1,0-0.2,0c-1.4-0.6-3-1-4.7-1.3l0,0v-14.6h5.8l0,0
					L336.3,584.5z M331.4,583c1.8,0.3,3.4,0.7,4.7,1.3c0,0,0.1,0,0.1,0l0.9-15.9h-5.7V583z M324.8,582.9L324.8,582.9l0-14.4h4.7v0
					l0,14.4l0,0c-0.7-0.1-1.5-0.1-2.3-0.1C326.3,582.8,325.6,582.8,324.8,582.9L324.8,582.9z M327.1,582.7c0.8,0,1.6,0,2.3,0.1
					l0-14.3h-4.6l0,14.3C325.6,582.7,326.3,582.7,327.1,582.7z M345.9,566.6l-37.3,0c-1.4-0.4-2.4-1.8-2.4-3.3c0-1.3,0.4-3,2.4-4
					l0,0c1.5-0.8,3.2-0.7,4.6,0.3c0.4,0.3,1,0.2,1.3-0.2c0.3-0.4,0.2-1-0.2-1.3c-0.4-0.3-0.9-0.5-1.3-0.7l0,0l0,0
					c0.5-1.4,1.7-2.4,3.1-2.7c1.8-0.4,3.7,0.2,4.8,1.6c0.3,0.4,0.9,0.5,1.3,0.1c0.4-0.3,0.5-0.9,0.1-1.3c-0.7-0.9-1.7-1.6-2.9-2l0,0
					l0,0c0.6-1.6,2-2.6,3.8-2.7h0.1c2-0.3,3.9,0.9,4.6,2.8c0.1,0.2,0.3,0.4,0.5,0.5c0.2,0.1,0.5,0.1,0.7,0c0.2-0.1,0.4-0.3,0.5-0.5
					c0.1-0.2,0.1-0.5,0-0.7c-0.2-0.7-0.6-1.3-1-1.8l0,0l0,0c1.1-0.5,2.3-0.5,3.4,0c1.2,0.5,2.1,1.4,2.6,2.5l0,0l0,0
					c-1.3,0.5-2.4,1.4-3.1,2.5c-0.3,0.4-0.2,1,0.3,1.3c0.2,0.1,0.5,0.2,0.7,0.1c0.2-0.1,0.5-0.2,0.6-0.4c1-1.5,2.7-2.3,4.5-2
					c0,0,0,0,0.1,0c1.4,0.1,2.7,1,3.4,2.3l0,0l0,0c-1.1,0.4-2,1.1-2.7,1.9c-0.3,0.4-0.3,1,0.1,1.3c0.4,0.3,1,0.3,1.3-0.1
					c1.2-1.5,3.1-2,5.1-1.5c1.8,0.5,3,2.1,3.1,4C348.1,564.3,347.3,565.8,345.9,566.6L345.9,566.6z M308.6,566.5h37.2
					c1.4-0.7,2.2-2.3,2.2-4c-0.1-1.8-1.3-3.4-3.1-3.9c-1.9-0.5-3.8,0-5,1.5c-0.4,0.4-1,0.5-1.4,0.1c-0.4-0.4-0.5-1-0.1-1.4
					c0.7-0.9,1.7-1.6,2.7-2c-0.7-1.3-2-2.1-3.4-2.2l0,0c0,0,0,0-0.1,0c-1.8-0.3-3.5,0.5-4.4,2c-0.2,0.2-0.4,0.4-0.6,0.4
					c-0.3,0.1-0.5,0-0.8-0.1c-0.5-0.3-0.6-0.9-0.3-1.4c0.7-1.2,1.9-2,3.2-2.5c-0.4-1.1-1.4-2-2.5-2.5c-1.1-0.4-2.3-0.4-3.3,0
					c0.4,0.5,0.8,1.1,1,1.8c0.1,0.3,0.1,0.5,0,0.8c-0.1,0.2-0.3,0.4-0.6,0.5c-0.3,0.1-0.5,0.1-0.8,0c-0.2-0.1-0.4-0.3-0.5-0.6
					c-0.7-1.8-2.6-3-4.5-2.7l-0.1,0c-1.8,0.1-3.2,1.1-3.8,2.7c1.1,0.4,2.1,1.1,2.8,2c0.4,0.4,0.3,1.1-0.1,1.4
					c-0.4,0.4-1.1,0.3-1.4-0.1c-1.1-1.4-3-2-4.7-1.6c-1.5,0.3-2.6,1.3-3.1,2.7c0.5,0.2,0.9,0.4,1.3,0.7c0.5,0.3,0.6,0.9,0.3,1.4
					c-0.3,0.5-0.9,0.6-1.4,0.3c-1.4-0.9-3.1-1.1-4.5-0.3c0,0,0,0,0,0c-2,1-2.4,2.7-2.4,3.9C306.3,564.7,307.3,566.1,308.6,566.5z"/>
			</g>
			<g>
				<path d="M322.3,560c-1.3-1-3.1-1.3-4.6-0.6c-1.5,0.6-2.4,2.1-2.4,3.8c0,0.5,0.4,1,1,1c0.5,0,1-0.4,1-1c0-1,0.5-1.7,1.2-2
					c0.8-0.4,1.9-0.2,2.6,0.3c0.4,0.4,1,0.3,1.4-0.1C322.8,560.9,322.8,560.3,322.3,560z"/>
				<path d="M316.3,564.2c-0.6,0-1-0.5-1-1c0-1.7,0.9-3.2,2.4-3.8c1.5-0.6,3.4-0.4,4.7,0.6c0.2,0.2,0.3,0.4,0.4,0.7
					c0,0.3-0.1,0.5-0.2,0.7c-0.2,0.2-0.4,0.3-0.7,0.4c-0.3,0-0.5-0.1-0.7-0.2c-0.7-0.5-1.8-0.7-2.6-0.3c-0.7,0.3-1.2,1.1-1.2,2
					C317.3,563.7,316.8,564.2,316.3,564.2z M319.5,559c-0.6,0-1.2,0.1-1.8,0.3c-1.5,0.6-2.4,2.1-2.4,3.8c0,0.5,0.4,0.9,0.9,0.9
					s0.9-0.4,0.9-0.9c0-1,0.5-1.7,1.2-2c0.9-0.4,2-0.2,2.7,0.3c0.2,0.2,0.4,0.2,0.7,0.2c0.3,0,0.5-0.1,0.6-0.3
					c0.2-0.2,0.2-0.4,0.2-0.7c0-0.3-0.1-0.5-0.3-0.6C321.5,559.4,320.5,559,319.5,559z"/>
			</g>
			<g>
				<path d="M332.3,558.7c-0.4-0.4-1-0.5-1.4-0.1c-0.7,0.5-1.7,0.7-2.6,0.4c-0.8-0.5-1.3-1.3-1.3-2.2c0-0.5-0.4-1-1-1s-1,0.4-1,1
					c0,1.6,0.9,3.1,2.3,3.9c0,0,0.1,0,0.1,0.1c0.6,0.2,1.2,0.4,1.8,0.4c1,0,2.1-0.3,2.9-1C332.6,559.7,332.7,559.1,332.3,558.7z"/>
				<path d="M329.3,561c-0.6,0-1.2-0.1-1.8-0.4c0,0-0.1,0-0.1-0.1c-1.5-0.8-2.3-2.3-2.3-3.9c0-0.6,0.5-1,1-1s1,0.5,1,1
					c0,0.9,0.5,1.7,1.2,2.2c0.8,0.3,1.9,0.2,2.5-0.4c0.4-0.4,1.1-0.3,1.4,0.1l0,0c0.4,0.4,0.3,1.1-0.1,1.4
					C331.4,560.7,330.4,561,329.3,561z M326.1,555.7c-0.5,0-0.9,0.4-0.9,0.9c0,1.6,0.9,3.1,2.3,3.9c0,0,0.1,0,0.1,0
					c0.5,0.2,1.2,0.3,1.8,0.3c1.1,0,2.1-0.3,2.8-1c0.4-0.3,0.5-0.9,0.1-1.3c-0.3-0.4-0.9-0.5-1.3-0.1c-0.7,0.6-1.7,0.7-2.6,0.4
					c-0.8-0.5-1.3-1.3-1.3-2.2C327.1,556.2,326.7,555.7,326.1,555.7z"/>
			</g>
			<g>
				<path d="M337.2,560.1c-0.5,0-1,0.4-1,1c0,0.9-0.6,1.7-1.4,2c-0.8,0.4-1.9,0.2-2.6-0.3c-0.4-0.4-1-0.3-1.4,0.1
					c-0.4,0.4-0.3,1,0.1,1.4c0.8,0.6,1.8,1,2.9,1c0.6,0,1.2-0.1,1.8-0.4c1.6-0.7,2.6-2.2,2.6-3.8
					C338.2,560.5,337.7,560.1,337.2,560.1z"/>
				<path d="M333.8,565.3c-1.1,0-2.1-0.4-2.9-1c-0.2-0.2-0.3-0.4-0.4-0.7c0-0.3,0.1-0.5,0.2-0.7c0.2-0.2,0.4-0.3,0.7-0.4
					c0.3,0,0.5,0.1,0.7,0.2c0.7,0.5,1.8,0.7,2.6,0.3c0.8-0.3,1.4-1.1,1.4-2c0-0.6,0.5-1,1-1s1,0.5,1,1c0,1.7-1,3.2-2.6,3.8
					C335,565.1,334.4,565.3,333.8,565.3z M331.6,562.5C331.6,562.5,331.5,562.5,331.6,562.5c-0.3,0-0.6,0.1-0.7,0.3
					c-0.2,0.2-0.2,0.4-0.2,0.7s0.1,0.5,0.3,0.6c0.8,0.6,1.8,1,2.8,1c0.6,0,1.2-0.1,1.8-0.3c1.5-0.7,2.5-2.1,2.5-3.8
					c0-0.5-0.4-0.9-0.9-0.9c-0.5,0-0.9,0.4-0.9,0.9c0,0.9-0.6,1.7-1.4,2c-0.9,0.4-2,0.2-2.7-0.3C332,562.6,331.8,562.5,331.6,562.5z
					"/>
			</g>
		</g>
	</g>
</g>
</svg>
