<svg xmlns="http://www.w3.org/2000/svg" viewBox="0 0 17.86 113.84"><defs><style>.cls-1,#csharp0{fill:none;stroke-miterlimit:10;}.cls-1{stroke:#000;stroke-width:1.57px;}#csharp0{stroke:#f4f4f4;opacity:0.7;isolation:isolate;}</style></defs><title>sharp-key</title><g id="Layer_2" data-name="Layer 2"><g id="Layer_1-2" data-name="Layer 1"><path d="M1.73.78a.94.94,0,0,0-.94.94V112.11a.94.94,0,0,0,.94.94H16.14a.94.94,0,0,0,.94-.94V1.72a.94.94,0,0,0-.94-.94H1.73Z"/><path class="cls-1" d="M1.73.78a.94.94,0,0,0-.94.94V112.11a.94.94,0,0,0,.94.94H16.14a.94.94,0,0,0,.94-.94V1.72a.94.94,0,0,0-.94-.94H1.73Z"/><line id="csharp0" x1="16.51" y1="1.64" x2="16.55" y2="112.29"/></g></g></svg>