<svg id="Layer_1" xmlns="http://www.w3.org/2000/svg" viewBox="0 0 36.2 73.6"><style>.st0{fill:none;} .st1{fill:#FFFFFF;} .st2{fill:none;stroke:#FFFFFF;stroke-width:0.7454;stroke-linecap:round;stroke-miterlimit:10;} .st3{fill:#FFFAFA;stroke:#FFFFFF;stroke-width:0.5764;stroke-linecap:round;stroke-miterlimit:10;} .st4{fill:none;stroke:#FFFFFF;stroke-width:0.5764;stroke-linecap:round;stroke-miterlimit:10;} .st5{fill:none;stroke:#FFFFFF;stroke-width:0.3636;stroke-linecap:round;stroke-miterlimit:10;}</style><path class="st0" d="M8.1 47.5c-6.2 0-5.3-6.2-5.3-6.2L3 29.8c1-.7 1.8-1.2 2.3-1.2.3 0 .8.7.8 1l-.3 8v.1c0 1.1.4 3.4 1.5 4 .3.2.9-1.2.9-1.5M16.2 24.9L12 23.7 10.9 5.1 13 3.9l-.8-1.7-1.4-.6-.1-.8c1.5 0 2.8.9 3.2 2.2 0 .2.1.5.1.6l2.2 21.3c-.1 0-.1 0 0 0z"/><path class="st1" d="M30 17c0 .1 0 .1 0 0z"/><path class="st0" d="M22.7 72.9c3.2 0 9.9 1.1 9.9-3.1v.3-8.9c0-.1 0-.2.1-.3.6-.9 3.3-6.4 3.3-9.9l-.4-18.8v-.1c-1.8-4.3-5.5-2.8-5.5-2.8-3-4.3-6.7-2.1-6.8-2-1.3-1.9-2.9-2.5-4.3-2.7v4.6l3.9 3-.2 40.7zM30.1 17.3c0 .1 0 .1 0 0zM7.8 3.4c0 .1 0 .1 0 0 0 .1 0 0 0 0z"/><path class="st2" d="M5.7 68.5c0 2.6 1.8 4.8 4.1 4.8h18.6c2.3 0 4.3-.7 4.3-4.9v.1-6.9c0-.1 0-.2.1-.3.6-.8 3-6.7 3-10.2l-.1-16v-1.9c0-.3-.1-.6-.2-.9-1.8-3.8-5.4-2.7-5.4-2.7-3-4.3-6.6-1.8-6.7-1.7-3-4.3-7.5-2.2-7.5-2.2v-.1L14 3.5c0-.1-.1-.4-.1-.7C13.5 1.5 12.4.5 11 .5 9.3.5 8 1.9 7.9 3.7v.1l-.1 21.6v16c0 .3-.4.5-.6.3-.3-.2-.6-.7-.8-1.1-.5-1.1-.7-2.3-.6-3.4.2-2.7.6-8.4-.4-8.5-.4 0-1.2.2-2 .9-1.5 1.3-3 4.3-3 11.4v6.4c0 .8.1 1.5.3 2.3.2.7 1.9 5.9 3.1 7C5.2 58 5.7 60 5.7 61.6v6.9"/><path class="st3" d="M12.9 3.9c-2.1 1.9-4 .6-4 .6 0-1.6.9-2.8 2.1-2.8"/><path class="st4" d="M12.9 3.8c-.2-1.2-1-2.1-2-2.1"/><path class="st3" d="M1.4 33.3c.5-3.1 2.8-4.4 3.4-4.4.6-.1.1 2.4-.3 3.8-.1.3-.4.6-.7.6-.8.1-2.5.4-2.4 0z"/><path class="st1" d="M16.7 28.3v11.8"/><path class="st2" d="M9.7 15.8s.8-.9 2.7-.3M9.7 17.7s1.4.4 2.9 0M10.3 16.6s.9.1 1.3 0"/></svg>