<?xml version="1.0" encoding="utf-8"?>
<!-- Generator: Adobe Illustrator 16.0.0, SVG Export Plug-In . SVG Version: 6.00 Build 0)  -->
<!DOCTYPE svg PUBLIC "-//W3C//DTD SVG 1.1//EN" "http://www.w3.org/Graphics/SVG/1.1/DTD/svg11.dtd">
<svg version="1.1" id="Layer_1" xmlns="http://www.w3.org/2000/svg" xmlns:xlink="http://www.w3.org/1999/xlink" x="0px" y="0px"
	 width="262px" height="38px" viewBox="0 0 262 38" enable-background="new 0 0 262 38" xml:space="preserve">
<g>
	<path fill="#FFFFFF" d="M32.259,5.35H3.958V2.481h23.903C29.965,2.481,31.43,3.438,32.259,5.35z M32.642,9.174H3.958V6.306h28.588
		c0.063,0.319,0.095,0.638,0.095,0.956V9.174z M11.129,12.999H3.958V10.13h7.171V12.999z M32.642,15.867
		c0,0.319-0.032,0.638-0.095,0.956H3.958v-2.868h28.684V15.867z M32.259,17.779c-0.829,1.913-2.294,2.869-4.398,2.869H3.958v-2.869
		H32.259z M11.129,24.472H3.958v-2.868h7.171V24.472z M11.129,28.297H3.958v-2.869h7.171V28.297z M11.129,32.121H3.958v-2.868h7.171
		V32.121z M11.129,35.946H3.958v-2.868h7.171V35.946z M32.642,12.999h-7.171V10.13h7.171V12.999z"/>
	<path fill="#FFFFFF" d="M64.193,9.174H35.51V7.262c0-0.318,0.031-0.637,0.096-0.956h28.493c0.063,0.319,0.095,0.638,0.095,0.956
		V9.174z M42.681,12.999H35.51V10.13h7.171V12.999z M42.681,16.823H35.51v-2.868h7.171V16.823z M42.681,20.648H35.51v-2.869h7.171
		V20.648z M42.681,24.472H35.51v-2.868h7.171V24.472z M42.681,28.297H35.51v-2.869h7.171V28.297z M64.193,31.165
		c0,0.319-0.032,0.638-0.095,0.956H35.605c-0.064-0.318-0.096-0.637-0.096-0.956v-1.912h28.684V31.165z M63.811,5.35H35.892
		c0.829-1.912,2.295-2.868,4.398-2.868h19.123C61.517,2.481,62.982,3.438,63.811,5.35z M63.811,33.078
		c-0.829,1.912-2.294,2.868-4.398,2.868H40.291c-2.104,0-3.57-0.956-4.398-2.868H63.811z M64.193,12.999h-7.171V10.13h7.171V12.999z
		 M64.193,16.823h-7.171v-2.868h7.171V16.823z M64.193,20.648h-7.171v-2.869h7.171V20.648z M64.193,24.472h-7.171v-2.868h7.171
		V24.472z M64.193,28.297h-7.171v-2.869h7.171V28.297z"/>
	<path fill="#FFFFFF" d="M95.362,5.35H67.061V2.481h23.903C93.068,2.481,94.533,3.438,95.362,5.35z M95.745,9.174H67.061V6.306
		h28.588c0.063,0.319,0.095,0.638,0.095,0.956V9.174z M74.232,12.999h-7.171V10.13h7.171V12.999z M95.362,13.955
		c-0.829,1.912-2.294,2.868-4.398,2.868H67.061v-2.868H95.362z M95.362,20.648H67.061v-2.869h23.903
		C93.068,17.779,94.533,18.735,95.362,20.648z M74.232,24.472h-7.171v-2.868h7.171V24.472z M74.232,28.297h-7.171v-2.869h7.171
		V28.297z M74.232,32.121h-7.171v-2.868h7.171V32.121z M74.232,35.946h-7.171v-2.868h7.171V35.946z M95.745,12.042
		c0,0.319-0.032,0.638-0.095,0.957h-7.076V10.13h7.171V12.042z M95.745,24.472h-7.171v-2.868h7.076
		c0.063,0.319,0.095,0.638,0.095,0.956V24.472z M95.745,28.297h-7.171v-2.869h7.171V28.297z M95.745,32.121h-7.171v-2.868h7.171
		V32.121z M95.745,35.946h-7.171v-2.868h7.171V35.946z"/>
	<path fill="#FFFFFF" d="M127.296,5.35H98.612V2.481h28.684V5.35z M127.296,9.174H98.612V6.306h28.684V9.174z M117.018,12.999
		h-7.171V10.13h7.171V12.999z M117.018,16.823h-7.171v-2.868h7.171V16.823z M117.018,20.648h-7.171v-2.869h7.171V20.648z
		 M117.018,24.472h-7.171v-2.868h7.171V24.472z M117.018,28.297h-7.171v-2.869h7.171V28.297z M117.018,32.121h-7.171v-2.868h7.171
		V32.121z M117.018,35.946h-7.171v-2.868h7.171V35.946z"/>
	<path fill="#FFFFFF" d="M156.457,9.174h-26.292V7.262c0-0.318,0.031-0.637,0.096-0.956h26.197V9.174z M137.335,12.999h-7.171V10.13
		h7.171V12.999z M156.457,16.823h-26.292v-2.868h26.292V16.823z M156.457,20.648h-26.292v-2.869h26.292V20.648z M137.335,24.472
		h-7.171v-2.868h7.171V24.472z M137.335,28.297h-7.171v-2.869h7.171V28.297z M137.335,32.121h-7.171v-2.868h7.171V32.121z
		 M137.335,35.946h-7.171v-2.868h7.171V35.946z M156.457,5.35h-25.911c0.829-1.912,2.295-2.868,4.398-2.868h21.512V5.35z"/>
	<path fill="#FFFFFF" d="M188.009,9.174h-28.684V7.262c0-0.318,0.031-0.637,0.096-0.956h28.492c0.063,0.319,0.096,0.638,0.096,0.956
		V9.174z M166.496,12.999h-7.171V10.13h7.171V12.999z M166.496,16.823h-7.171v-2.868h7.171V16.823z M166.496,20.648h-7.171v-2.869
		h7.171V20.648z M166.496,24.472h-7.171v-2.868h7.171V24.472z M166.496,28.297h-7.171v-2.869h7.171V28.297z M188.009,31.165
		c0,0.319-0.032,0.638-0.096,0.956h-28.492c-0.064-0.318-0.096-0.637-0.096-0.956v-1.912h28.684V31.165z M187.626,5.35h-27.919
		c0.829-1.912,2.295-2.868,4.398-2.868h19.122C185.331,2.481,186.797,3.438,187.626,5.35z M187.626,33.078
		c-0.829,1.912-2.295,2.868-4.398,2.868h-19.122c-2.104,0-3.569-0.956-4.398-2.868H187.626z M188.009,12.999h-7.171V10.13h7.171
		V12.999z M188.009,16.823h-7.171v-2.868h7.171V16.823z M188.009,20.648h-7.171v-2.869h7.171V20.648z M188.009,24.472h-7.171v-2.868
		h7.171V24.472z M188.009,28.297h-7.171v-2.869h7.171V28.297z"/>
	<path fill="#FFFFFF" d="M198.048,5.35h-7.171V2.481h7.171V5.35z M198.048,9.174h-7.171V6.306h7.171V9.174z M198.048,12.999h-7.171
		V10.13h7.171V12.999z M198.048,16.823h-7.171v-2.868h7.171V16.823z M198.048,20.648h-7.171v-2.869h7.171V20.648z M198.048,24.472
		h-7.171v-2.868h7.171V24.472z M198.048,28.297h-7.171v-2.869h7.171V28.297z M217.17,32.121h-26.197
		c-0.064-0.318-0.096-0.637-0.096-0.956v-1.912h26.293V32.121z M217.17,35.946h-21.513c-2.104,0-3.569-0.956-4.398-2.868h25.911
		V35.946z"/>
	<path fill="#FFFFFF" d="M227.209,5.35h-7.171V2.481h7.171V5.35z M227.209,9.174h-7.171V6.306h7.171V9.174z M227.209,12.999h-7.171
		V10.13h7.171V12.999z M227.209,16.823h-7.171v-2.868h7.171V16.823z M227.209,20.648h-7.171v-2.869h7.171V20.648z M227.209,24.472
		h-7.171v-2.868h7.171V24.472z M227.209,28.297h-7.171v-2.869h7.171V28.297z M227.209,32.121h-7.171v-2.868h7.171V32.121z
		 M227.209,35.946h-7.171v-2.868h7.171V35.946z"/>
	<path fill="#FFFFFF" d="M258.76,9.174h-28.684V7.262c0-0.318,0.031-0.637,0.096-0.956h28.492c0.063,0.319,0.096,0.638,0.096,0.956
		V9.174z M237.247,12.999h-7.171V10.13h7.171V12.999z M237.247,16.823h-7.171v-2.868h7.171V16.823z M237.247,20.648h-7.171v-2.869
		h7.171V20.648z M237.247,24.472h-7.171v-2.868h7.171V24.472z M237.247,28.297h-7.171v-2.869h7.171V28.297z M258.76,31.165
		c0,0.319-0.032,0.638-0.096,0.956h-28.492c-0.064-0.318-0.096-0.637-0.096-0.956v-1.912h28.684V31.165z M258.377,5.35h-27.919
		c0.829-1.912,2.295-2.868,4.398-2.868h19.122C256.082,2.481,257.548,3.438,258.377,5.35z M258.377,33.078
		c-0.829,1.912-2.295,2.868-4.398,2.868h-19.122c-2.104,0-3.569-0.956-4.398-2.868H258.377z M258.76,12.999h-7.171V10.13h7.171
		V12.999z M258.76,16.823h-7.171v-2.868h7.171V16.823z M258.76,20.648h-7.171v-2.869h7.171V20.648z M258.76,24.472h-7.171v-2.868
		h7.171V24.472z M258.76,28.297h-7.171v-2.869h7.171V28.297z"/>
</g>
</svg>
