<svg xmlns="http://www.w3.org/2000/svg" viewBox="0 0 148.61 112.04"><defs><style>.cls-1,.cls-3{fill:#606060;}.cls-2{fill:none;stroke:#606060;stroke-miterlimit:10;stroke-width:0.8px;}.cls-3{font-size:13px;font-family:WeblySleekUILight, WeblySleek UI;}</style></defs><title>cogs</title><g id="Layer_2" data-name="Layer 2"><g id="Layer_1-2" data-name="Layer 1"><path class="cls-1" d="M109.16,61.51A22.27,22.27,0,0,1,87.73,45.2h0a22.23,22.23,0,1,1,21.44,16.31Zm0-43.58a21.36,21.36,0,1,0,10.48,2.78A21.41,21.41,0,0,0,109.19,17.93Z"/><path class="cls-1" d="M106.81,78.82h-.14l-5.3-.71a1.12,1.12,0,0,1-1-1.26l.21-3.63a35,35,0,0,1-5-1.66l-2,3.05a1.1,1.1,0,0,1-.67.51A1.12,1.12,0,0,1,92.1,75l-4.64-2.62A1.14,1.14,0,0,1,87,70.84l1.55-3.26a35.4,35.4,0,0,1-4.46-3.85l-3,2a1.13,1.13,0,0,1-.82.2,1.11,1.11,0,0,1-.74-.43L76.3,61.25a1.12,1.12,0,0,1,.21-1.57l2.65-2.36a35.12,35.12,0,0,1-2.38-4.73l-3.49.7a1.09,1.09,0,0,1-.82-.11,1.12,1.12,0,0,1-.54-.68l-1.42-5.14a1.13,1.13,0,0,1,.1-.86,1.11,1.11,0,0,1,.69-.53l3.28-1.17a34.5,34.5,0,0,1-.44-5.95l-3.42-.7a1.12,1.12,0,0,1-.94-1.26l.7-5.29a1.12,1.12,0,0,1,.44-.75,1.15,1.15,0,0,1,.83-.22l3.42.2a35.31,35.31,0,0,1,1.7-5.08L74,23.84a1.13,1.13,0,0,1-.4-1.52l2.64-4.65a1.13,1.13,0,0,1,1.53-.42l3.07,1.45a35.31,35.31,0,0,1,3.93-4.54l-1.88-2.84a1.09,1.09,0,0,1-.2-.81,1.12,1.12,0,0,1,.44-.75l4.23-3.25a1.13,1.13,0,0,1,1.58.2l2.24,2.52A35.47,35.47,0,0,1,96,6.83l-.67-3.32a1.09,1.09,0,0,1,.11-.82,1.12,1.12,0,0,1,.68-.53L101.26.73a1.13,1.13,0,0,1,.86.11,1.11,1.11,0,0,1,.52.68l1.12,3.16a35,35,0,0,1,6-.42l.69-3.32A1.13,1.13,0,0,1,111.73,0l5.29.7a1.12,1.12,0,0,1,.75.44A1.11,1.11,0,0,1,118,2l-.2,3.37a34.92,34.92,0,0,1,5.09,1.72l1.9-2.85a1.12,1.12,0,0,1,1.52-.4l4.65,2.64a1.11,1.11,0,0,1,.53.67,1.13,1.13,0,0,1-.1.86l-1.47,3.09a34.76,34.76,0,0,1,4.5,3.93l2.9-1.91a1.12,1.12,0,0,1,1.56.23l3.24,4.23a1.12,1.12,0,0,1-.21,1.58l-2.59,2.3a35.18,35.18,0,0,1,2.36,4.78l3.46-.7a1.13,1.13,0,0,1,1.35.79l1.42,5.15a1.12,1.12,0,0,1-.79,1.39L143.76,34a35,35,0,0,1,.4,5.91l3.49.72a1.14,1.14,0,0,1,1,1.26l-.7,5.29a1.13,1.13,0,0,1-.44.76,1.1,1.1,0,0,1-.83.22L143.05,48a35.28,35.28,0,0,1-1.7,5l3,2a1.08,1.08,0,0,1,.5.67,1.1,1.1,0,0,1-.11.86l-2.63,4.64a1.11,1.11,0,0,1-.68.53,1.13,1.13,0,0,1-.85-.11L137.34,60a35.15,35.15,0,0,1-3.86,4.42l2,3.07a1.12,1.12,0,0,1-.23,1.55L131,72.3a1.07,1.07,0,0,1-.82.22,1.12,1.12,0,0,1-.75-.44L127,69.36a35.65,35.65,0,0,1-4.69,2.33l.73,3.61a1.12,1.12,0,0,1-.79,1.36l-5.15,1.43a1.14,1.14,0,0,1-1.39-.79l-1.23-3.44a34.84,34.84,0,0,1-5.85.41l-.74,3.6A1.13,1.13,0,0,1,106.81,78.82Zm-11.5-8.4.35.15a34,34,0,0,0,5.54,1.85l.37.09-.26,4.42a.24.24,0,0,0,0,.19.21.21,0,0,0,.14.08l5.3.71a.22.22,0,0,0,.25-.19l.9-4.37h.38a34.67,34.67,0,0,0,6.43-.45l.37-.06L116.61,77a.24.24,0,0,0,.28.19L122,75.79a.22.22,0,0,0,.15-.27l-.89-4.39.35-.14a34.91,34.91,0,0,0,5.23-2.6l.32-.19,2.95,3.32a.26.26,0,0,0,.17.11.21.21,0,0,0,.15,0l4.24-3.25a.22.22,0,0,0,0-.31l-2.45-3.72.27-.26a34,34,0,0,0,4.24-4.86l.22-.31,4,1.9a.25.25,0,0,0,.33-.07L144,56.06a.22.22,0,0,0,0-.17.21.21,0,0,0-.1-.13l-3.69-2.45.15-.35a34.25,34.25,0,0,0,1.89-5.56l.09-.37,4.36.26a.25.25,0,0,0,.19,0,.23.23,0,0,0,.09-.15l.7-5.28a.23.23,0,0,0-.2-.25h0l-4.24-.87v-.38a34,34,0,0,0-.43-6.49l-.06-.37L146.81,32a.24.24,0,0,0,.17-.11.21.21,0,0,0,0-.17l-1.42-5.14a.23.23,0,0,0-.27-.16l-4.23.85-.14-.36a34.27,34.27,0,0,0-2.62-5.31l-.19-.32,3.18-2.83a.25.25,0,0,0,.11-.17.21.21,0,0,0,0-.16l-3.24-4.23a.22.22,0,0,0-.31,0l-3.56,2.34-.26-.28a33.78,33.78,0,0,0-4.94-4.32l-.31-.22,1.81-3.8a.26.26,0,0,0,0-.2.21.21,0,0,0-.1-.13L125.84,4.6a.22.22,0,0,0-.3.09L123.2,8.2,122.85,8a34.25,34.25,0,0,0-5.66-1.91L116.83,6l.25-4.16a.24.24,0,0,0,0-.19.22.22,0,0,0-.15-.09L111.6.91a.22.22,0,0,0-.25.19l-.84,4.09h-.38a34.33,34.33,0,0,0-6.58.46l-.37.06-1.39-3.91a.25.25,0,0,0-.11-.16.23.23,0,0,0-.17,0L96.36,3a.22.22,0,0,0-.15.27L97,7.4l-.35.14a34.54,34.54,0,0,0-5.35,2.68l-.32.2L88.24,7.3a.24.24,0,0,0-.33-.06l-4.23,3.25a.21.21,0,0,0-.09.15.21.21,0,0,0,0,.16l2.31,3.5-.27.26a34.15,34.15,0,0,0-4.31,5l-.22.31-3.78-1.79a.26.26,0,0,0-.2,0,.21.21,0,0,0-.13.1l-2.64,4.65a.22.22,0,0,0,.09.3L78,25.42l-.15.35A34.35,34.35,0,0,0,76,31.41l-.09.37-4.22-.25a.24.24,0,0,0-.19,0,.22.22,0,0,0-.09.15L70.69,37a.2.2,0,0,0,0,.16.23.23,0,0,0,.16.09l4.19.86v.38A33.56,33.56,0,0,0,75.55,45l.06.38-4,1.44a.26.26,0,0,0-.19.28l1.42,5.14a.23.23,0,0,0,.1.13.19.19,0,0,0,.16,0l4.27-.86.14.35a33.86,33.86,0,0,0,2.64,5.27l.2.32-3.25,2.89a.25.25,0,0,0-.11.16.21.21,0,0,0,0,.16l3.25,4.24a.21.21,0,0,0,.14.08.28.28,0,0,0,.17,0l3.67-2.41.26.27a34.53,34.53,0,0,0,4.91,4.23l.31.22-1.88,4a.23.23,0,0,0,.07.33l4.64,2.62a.2.2,0,0,0,.16,0,.22.22,0,0,0,.14-.11Zm13.8-3.08a28.1,28.1,0,1,1,7.53-1A28.2,28.2,0,0,1,109.11,67.34Zm0-55.23A27.15,27.15,0,1,0,135.33,32,27.08,27.08,0,0,0,109.14,12.11Z"/><path class="cls-2" d="M107.38,47.43V41a1.54,1.54,0,0,0-1,.35,9.06,9.06,0,0,0-1,1.74l-1.76,4.39h-4l2-4.19q1.49-3.14,3.1-3.6A3.76,3.76,0,0,1,102.9,37a4.32,4.32,0,0,0-.88-1.87,3.56,3.56,0,0,0-1.87-.31V32.22q1.09-.07,1.52-.07a3.61,3.61,0,0,1,2.08.59,5.76,5.76,0,0,1,1.63,2.92,9.82,9.82,0,0,0,.94,2.29,1.31,1.31,0,0,0,1.06.51v-6.2H111v6.2a1.23,1.23,0,0,0,1.07-.5,9.92,9.92,0,0,0,.94-2.3,5.88,5.88,0,0,1,1.59-2.9,3.66,3.66,0,0,1,2.17-.6q.38,0,1.47.07v2.66a3.56,3.56,0,0,0-1.86.31,4.25,4.25,0,0,0-.89,1.87,3.76,3.76,0,0,1-1.85,2.59q1.61.46,3.1,3.6l2,4.19h-4L113,43a5.61,5.61,0,0,0-.87-1.6A1.67,1.67,0,0,0,111,41v6.48Z"/><path class="cls-1" d="M53.53,86.72a1.27,1.27,0,0,1-.4-.07l-3.22-1.11a1.13,1.13,0,0,1-.66-.56.86.86,0,0,1,0-.67l.58-2.05a17.47,17.47,0,0,1-5.9-5.21l-2,.84a.84.84,0,0,1-.63,0,1.15,1.15,0,0,1-.65-.58l-1.49-3.06a1.13,1.13,0,0,1-.1-.76.89.89,0,0,1,.46-.61l1.86-1A17.56,17.56,0,0,1,40.86,64l-2-.81a.84.84,0,0,1-.47-.43,1.15,1.15,0,0,1,0-.87l1.11-3.22A1.12,1.12,0,0,1,40,58a.85.85,0,0,1,.67,0l2.06.58a17.49,17.49,0,0,1,5.2-5.9l-.84-2a.84.84,0,0,1,0-.65,1.13,1.13,0,0,1,.58-.64l3.05-1.5a1,1,0,0,1,1.37.36l1,1.88A17.54,17.54,0,0,1,61,49.64l.81-2a.89.89,0,0,1,.54-.52,1.14,1.14,0,0,1,.77,0l3.22,1.1A1,1,0,0,1,67,49.45l-.58,2.06a17.42,17.42,0,0,1,5.9,5.2l2-.84a1,1,0,0,1,1.29.56l1.5,3.06a1.14,1.14,0,0,1,.06.87.87.87,0,0,1-.44.5l-1.86,1a17.42,17.42,0,0,1,.5,7.86l2,.8a.88.88,0,0,1,.49.46,1.12,1.12,0,0,1,0,.85l-1.1,3.22a1,1,0,0,1-1.23.71l-2-.58a17.47,17.47,0,0,1-5.21,5.91l.84,2a1,1,0,0,1-.55,1.29l-3.06,1.5a1.14,1.14,0,0,1-.86.07.86.86,0,0,1-.5-.44l-1-1.85a17.47,17.47,0,0,1-7.86.49l-.8,2A.92.92,0,0,1,53.53,86.72ZM44.14,76.16l.17.24a16.75,16.75,0,0,0,6.07,5.36l.26.14-.75,2.64a.15.15,0,0,0,0,.13.42.42,0,0,0,.24.19L53.37,86c.18.06.36,0,.39-.09l1-2.56.29.05a16.79,16.79,0,0,0,8.09-.51l.28-.09,1.34,2.39a.15.15,0,0,0,.1.09.42.42,0,0,0,.31,0l3.06-1.5c.19-.09.25-.26.21-.34l-1.07-2.54.24-.17A16.73,16.73,0,0,0,73,74.61l.14-.26,2.63.75c.1,0,.26-.07.33-.26l1.1-3.22a.39.39,0,0,0,0-.3.17.17,0,0,0-.08-.09h0l-2.54-1,.05-.29a16.71,16.71,0,0,0-.51-8.09L74,61.54l2.39-1.33a.16.16,0,0,0,.09-.1.42.42,0,0,0,0-.31l-1.5-3.06c-.09-.18-.25-.26-.34-.21L72.07,57.6l-.17-.24A16.7,16.7,0,0,0,65.83,52l-.26-.14.75-2.65c0-.11-.06-.27-.25-.33l-3.22-1.1a.43.43,0,0,0-.29,0,.17.17,0,0,0-.11.09l-1,2.57-.29-.05a16.77,16.77,0,0,0-8.07.51l-.28.09-1.34-2.41c0-.1-.24-.13-.41-.05L48,50a.4.4,0,0,0-.21.22.14.14,0,0,0,0,.11l1.08,2.55-.24.17a16.74,16.74,0,0,0-5.35,6.07l-.13.26-2.65-.75a.14.14,0,0,0-.13,0,.41.41,0,0,0-.19.24L39,62.15a.42.42,0,0,0,0,.31.14.14,0,0,0,.07.07l2.57,1-.05.29a16.86,16.86,0,0,0,.5,8.08l.09.28-2.39,1.33c-.11.05-.14.23-.05.41L41.26,77a.44.44,0,0,0,.23.22.13.13,0,0,0,.1,0Zm14,4a13.26,13.26,0,1,1,5.81-1.35h0A13.19,13.19,0,0,1,58.14,80.15Zm0-25.8a12.54,12.54,0,1,0,11.29,7A12.47,12.47,0,0,0,58.09,54.35Z"/><path class="cls-1" d="M58.12,76.58A9.73,9.73,0,0,1,55,76.06a9.63,9.63,0,1,1,3.15.53Zm0-18.65a9,9,0,0,0-8,12.9h0a9,9,0,1,0,8-12.9Z"/><path class="cls-2" d="M54.61,62.86h2v5.76h2.84V62.86h2v5.76h.79v3.5H60.62V70.18h-6Z"/><path class="cls-1" d="M25.13,52.6a14.2,14.2,0,1,1,6.63-1.66h0A14.1,14.1,0,0,1,25.13,52.6Zm0-27.62a13.42,13.42,0,1,0,6.31,25.27h0A13.41,13.41,0,0,0,25.08,25Z"/><path class="cls-1" d="M25.13,52.6A14.21,14.21,0,1,1,37.66,31.73h0A14.21,14.21,0,0,1,25.13,52.6Zm0-27.62A13.41,13.41,0,1,0,37,32.1h0A13.43,13.43,0,0,0,25.08,25Z"/><path class="cls-1" d="M25.56,63.61a.82.82,0,0,1-.83-.75l-.34-2.18a22.57,22.57,0,0,1-3.15-.33l-.8,2.08a.78.78,0,0,1-.38.46.81.81,0,0,1-.63.06l-3.23-1a.83.83,0,0,1-.55-1l.49-2.13A22.46,22.46,0,0,1,13,57.11l-1.53,1.58a.79.79,0,0,1-.54.27.82.82,0,0,1-.61-.19L7.71,56.59a.83.83,0,0,1-.11-1.16l1.27-1.75a21.61,21.61,0,0,1-2-2.48l-2,.88a.78.78,0,0,1-.59.05.83.83,0,0,1-.5-.4l-1.58-3a.82.82,0,0,1,.34-1.11L4.33,46.5a22.56,22.56,0,0,1-1-3.46l-2.13,0a.77.77,0,0,1-.56-.18.83.83,0,0,1-.29-.57L0,38.95a.82.82,0,0,1,.76-.89l2-.33a22,22,0,0,1,.33-3.22l-2-.75a.82.82,0,0,1-.52-1l1-3.24a.83.83,0,0,1,1-.54l2,.45a22.33,22.33,0,0,1,1.73-3.21L4.94,24.76a.81.81,0,0,1-.07-1.15L7,21a.82.82,0,0,1,.56-.29.79.79,0,0,1,.6.19l1.65,1.19a22.39,22.39,0,0,1,2.53-2l-.84-1.89a.8.8,0,0,1,0-.6.82.82,0,0,1,.4-.48l3-1.59a.82.82,0,0,1,1.11.34l1.08,1.72a22.16,22.16,0,0,1,3.51-1l0-2.06a.82.82,0,0,1,.75-.87l3.37-.29a.84.84,0,0,1,.9.75l.32,2a22.6,22.6,0,0,1,3.23.35l.75-1.94a.82.82,0,0,1,1-.52l3.24,1a.8.8,0,0,1,.48.4.82.82,0,0,1,.06.63l-.46,2a22.82,22.82,0,0,1,3.19,1.74l1.47-1.52a.79.79,0,0,1,.53-.27.87.87,0,0,1,.61.19l2.59,2.18a.82.82,0,0,1,.1,1.16l-1.24,1.71a21.91,21.91,0,0,1,2,2.51l2-.87a.78.78,0,0,1,.6,0,.82.82,0,0,1,.48.4l1.58,3a.83.83,0,0,1-.34,1.12l-1.81,1.13a22.86,22.86,0,0,1,1,3.45l2.17,0a.79.79,0,0,1,.86.75L50.3,38a.84.84,0,0,1-.76.9l-2.15.34A23,23,0,0,1,47,42.39l2.07.8a.77.77,0,0,1,.45.38.82.82,0,0,1,.06.63l-1,3.23a.83.83,0,0,1-1,.55l-2.15-.5a22.71,22.71,0,0,1-1.71,3.13l1.6,1.56a.81.81,0,0,1,.08,1.14l-2.17,2.59a.82.82,0,0,1-1.15.11l-1.8-1.31a22.52,22.52,0,0,1-2.46,2l.91,2.06a.8.8,0,0,1,0,.61.81.81,0,0,1-.41.48l-3,1.58a.82.82,0,0,1-1.11-.34L33.13,59.2a22.14,22.14,0,0,1-3.41,1l0,2.25a.82.82,0,0,1-.75.86l-3.37.29Zm-4.82-4.16.33.06a21.75,21.75,0,0,0,3.68.39h.33l.45,2.86,3.41-.24,0-3,.33-.06a21.32,21.32,0,0,0,3.9-1.16l.31-.12L35,60.69l3-1.55-1.17-2.73.28-.18A21.47,21.47,0,0,0,40,53.91l.24-.23,2.35,1.71,2.24-2.58-2.1-2.08.18-.27a21.69,21.69,0,0,0,2-3.58l.13-.31,2.82.65L48.87,44l-2.73-1.08.06-.33a22.36,22.36,0,0,0,.4-3.69v-.33l2.82-.45-.24-3.41a0,0,0,0,0,0,0h0l-2.86,0-.06-.33a21.72,21.72,0,0,0-1.16-3.95L45,30.13l2.4-1.49-1.55-3-2.64,1.14L43,26.44a21.1,21.1,0,0,0-2.34-2.91l-.23-.24L42.07,21l-2.57-2.25-2,2-.28-.19a21.89,21.89,0,0,0-3.64-2l-.3-.13.62-2.69-3.25-1.06-1,2.61-.33-.06a21.86,21.86,0,0,0-3.75-.41H25.2l-.42-2.7-3.41.24,0,2.79-.33.06a21.34,21.34,0,0,0-4,1.18l-.31.13-1.44-2.31-3,1.55,1.1,2.56-.28.18a21.43,21.43,0,0,0-2.93,2.38l-.24.23-2.21-1.6L5.47,24.13l2,2-.19.28a21.36,21.36,0,0,0-2,3.65l-.13.31-2.68-.61L1.42,33,4,34,4,34.34a21,21,0,0,0-.39,3.74v.33l-2.74.43.24,3.4H3.93l.07.32a21.78,21.78,0,0,0,1.19,4l.13.31L2.93,48.31l1.55,3,2.66-1.15.19.27a20.51,20.51,0,0,0,2.35,2.88l.23.24L8.23,55.92l2.57,2.24,2.05-2.07.27.18a21.61,21.61,0,0,0,3.6,1.94l.31.13-.64,2.8,3.25,1.06Zm4.39-3.15a18,18,0,0,1-5.27-.79A17.91,17.91,0,1,1,33.5,54.2h0A17.81,17.81,0,0,1,25.13,56.3Zm-.06-35A17.11,17.11,0,1,0,33.13,53.5h0a17.11,17.11,0,0,0-8.06-32.22Z"/><path class="cls-1" d="M25.13,52.6a14.2,14.2,0,1,1,6.63-1.66h0A14.1,14.1,0,0,1,25.13,52.6Zm0-27.62a13.42,13.42,0,1,0,6.31,25.27h0A13.41,13.41,0,0,0,25.08,25Z"/><path class="cls-2" d="M17.63,30.22h6.85V36.9h3.06a8.5,8.5,0,0,1,2.79.35,3.15,3.15,0,0,1,1.6,1.55,5.75,5.75,0,0,1,.66,2.81,5.54,5.54,0,0,1-1,3.38q-1,1.32-3.66,1.32H21.42V33.66H17.63Zm6.85,13.39h2.85q1.34,0,1.72-.6a2.64,2.64,0,0,0,.38-1.45A1.8,1.8,0,0,0,28.79,40a4.4,4.4,0,0,0-2.32-.44h-2Z"/><text class="cls-3" transform="translate(15.01 107.93)">russian text analyser</text></g></g></svg>