<?xml version="1.0" encoding="utf-8"?>
<!-- Generator: Adobe Illustrator 21.0.2, SVG Export Plug-In . SVG Version: 6.00 Build 0)  -->
<svg version="1.1" id="Layer_1" xmlns="http://www.w3.org/2000/svg" xmlns:xlink="http://www.w3.org/1999/xlink" x="0px" y="0px"
	 viewBox="0 0 191.4 112" style="enable-background:new 0 0 191.4 112;" xml:space="preserve">
<style type="text/css">
	.st0{fill:#606060;}
	.st1{enable-background:new    ;}
</style>
<title>cogs</title>
<g id="Layer_2">
	<g id="Layer_1-2">
		<g>
			<path class="st0" d="M130.6,61.5c-10,0-18.8-6.7-21.4-16.3l0,0c-3.3-11.8,3.7-24.1,15.5-27.3s24.1,3.7,27.3,15.5
				c3.3,11.8-3.7,24.1-15.5,27.3C134.5,61.2,132.6,61.5,130.6,61.5L130.6,61.5z M130.6,17.9c-11.8,0-21.4,9.5-21.4,21.3
				s9.5,21.4,21.3,21.4c11.8,0,21.4-9.5,21.4-21.3c0-7.7-4.1-14.8-10.8-18.6C137.8,18.9,134.2,17.9,130.6,17.9L130.6,17.9z"/>
		</g>
		<g>
			<path class="st0" d="M128.2,78.8h-0.1l-5.3-0.7c-0.6-0.1-1.1-0.6-1-1.2c0,0,0,0,0,0l0.2-3.6c-1.7-0.4-3.4-1-5-1.7l-2,3.1
				c-0.1,0.3-0.4,0.4-0.7,0.5c-0.3,0.1-0.6,0-0.8-0.1l-4.6-2.6c-0.6-0.3-0.8-1-0.5-1.5l1.6-3.3c-1.6-1.2-3.1-2.4-4.5-3.8l-3,2
				c-0.2,0.2-0.5,0.2-0.8,0.2c-0.3,0-0.6-0.2-0.7-0.4l-3.2-4.2c-0.4-0.5-0.3-1.2,0.2-1.6c0,0,0,0,0,0l2.7-2.4
				c-0.9-1.5-1.7-3.1-2.4-4.7l-3.5,0.7c-0.3,0.1-0.6,0-0.8-0.1c-0.3-0.1-0.5-0.4-0.5-0.7l-1.4-5.1c-0.1-0.3,0-0.6,0.1-0.9
				c0.1-0.3,0.4-0.5,0.7-0.5l3.3-1.2c-0.3-2-0.5-4-0.4-6l-3.4-0.7c-0.6-0.1-1-0.7-0.9-1.3l0.7-5.3c0-0.3,0.2-0.6,0.4-0.8
				c0.2-0.2,0.5-0.3,0.8-0.2l3.4,0.2c0.4-1.7,1-3.4,1.7-5.1l-2.9-1.9c-0.5-0.3-0.7-1-0.4-1.5l2.6-4.6c0.3-0.5,1-0.7,1.5-0.4l3.1,1.5
				c1.2-1.6,2.5-3.1,3.9-4.5l-1.9-2.8c-0.2-0.2-0.2-0.5-0.2-0.8c0-0.3,0.2-0.6,0.4-0.8l4.2-3.3c0.5-0.4,1.2-0.3,1.6,0.2l2.2,2.5
				c1.5-0.9,3.2-1.7,4.8-2.4l-0.7-3.3c-0.1-0.3,0-0.6,0.1-0.8c0.1-0.3,0.4-0.5,0.7-0.5l5.1-1.4c0.3-0.1,0.6,0,0.9,0.1
				c0.3,0.1,0.4,0.4,0.5,0.7l1.1,3.2c2-0.3,4-0.5,6-0.4l0.7-3.3c0.1-0.6,0.7-1,1.3-0.9l5.3,0.7c0.3,0,0.6,0.2,0.8,0.4
				c0.2,0.2,0.3,0.6,0.2,0.9l-0.2,3.4c1.7,0.4,3.4,1,5.1,1.7l1.9-2.8c0.3-0.5,1-0.7,1.5-0.4l4.6,2.6c0.3,0.1,0.4,0.4,0.5,0.7
				c0.1,0.3,0,0.6-0.1,0.9l-1.5,3.1c1.6,1.2,3.1,2.5,4.5,3.9l2.9-1.9c0.5-0.4,1.2-0.3,1.6,0.2l3.2,4.2c0.4,0.5,0.3,1.2-0.2,1.6
				c0,0,0,0,0,0l-2.6,2.3c0.9,1.5,1.7,3.1,2.4,4.8l3.5-0.7c0.6-0.1,1.2,0.2,1.4,0.8l1.4,5.1c0.2,0.6-0.2,1.2-0.8,1.4c0,0,0,0,0,0
				l-3.4,1.1c0.3,2,0.4,3.9,0.4,5.9l3.5,0.7c0.6,0.1,1.1,0.6,1,1.3l-0.7,5.3c0,0.3-0.2,0.6-0.4,0.8c-0.2,0.2-0.5,0.3-0.8,0.2
				l-3.6-0.2c-0.4,1.7-1,3.4-1.7,5l3,2c0.2,0.1,0.4,0.4,0.5,0.7c0.1,0.3,0,0.6-0.1,0.9l-2.6,4.6c-0.1,0.3-0.4,0.5-0.7,0.5
				c-0.3,0.1-0.6,0-0.9-0.1l-3.2-1.6c-1.2,1.6-2.5,3.1-3.9,4.4l2,3.1c0.4,0.5,0.3,1.2-0.2,1.6l-4.3,3.3c-0.2,0.2-0.5,0.3-0.8,0.2
				c-0.3,0-0.6-0.2-0.8-0.4l-2.4-2.7c-1.5,0.9-3.1,1.7-4.7,2.3l0.7,3.6c0.2,0.6-0.2,1.2-0.8,1.4l-5.2,1.4c-0.6,0.2-1.2-0.2-1.4-0.8
				l-1.2-3.4c-1.9,0.3-3.9,0.4-5.9,0.4l-0.7,3.6C129.2,78.4,128.7,78.8,128.2,78.8z M116.7,70.4l0.3,0.2c1.8,0.8,3.6,1.4,5.5,1.8
				l0.4,0.1l-0.3,4.4c0,0.1,0,0.1,0,0.2c0,0,0.1,0.1,0.1,0.1l5.3,0.7c0.1,0,0.2-0.1,0.2-0.2c0,0,0,0,0,0l0.9-4.4h0.4
				c2.2,0.1,4.3-0.1,6.4-0.4l0.4-0.1L138,77c0,0.1,0.2,0.2,0.3,0.2l5.1-1.4c0.1,0,0.2-0.2,0.2-0.3l-0.9-4.4L143,71
				c1.8-0.7,3.6-1.6,5.2-2.6l0.3-0.2l2.9,3.3c0,0.1,0.1,0.1,0.2,0.1c0,0,0.1,0,0.1,0l4.2-3.3c0.1-0.1,0.1-0.2,0-0.3l-2.4-3.7
				l0.3-0.3c1.6-1.5,3-3.1,4.2-4.9l0.2-0.3l4,1.9c0.1,0.1,0.3,0,0.3-0.1l2.7-4.7c0-0.1,0-0.1,0-0.2c0-0.1-0.1-0.1-0.1-0.1l-3.7-2.5
				l0.1-0.3c0.8-1.8,1.4-3.7,1.9-5.6l0.1-0.4l4.4,0.3c0.1,0,0.1,0,0.2,0c0,0,0.1-0.1,0.1-0.2l0.7-5.3c0-0.1-0.1-0.2-0.2-0.3l0,0
				l-4.2-0.9v-0.4c0.1-2.2-0.1-4.3-0.4-6.5l-0.1-0.4l4.1-1.5c0.1,0,0.1-0.1,0.2-0.1c0-0.1,0-0.1,0-0.2l-1.4-5.1
				c0-0.1-0.2-0.2-0.3-0.2l-4.2,0.9l-0.1-0.4c-0.7-1.8-1.6-3.6-2.6-5.3l-0.2-0.3l3.2-2.8c0.1,0,0.1-0.1,0.1-0.2c0-0.1,0-0.1,0-0.2
				l-3.2-4.2c-0.1-0.1-0.2-0.1-0.3,0l-3.6,2.3l-0.3-0.3c-1.5-1.6-3.2-3-4.9-4.3l-0.3-0.2l1.8-3.8c0-0.1,0-0.1,0-0.2
				c0-0.1-0.1-0.1-0.1-0.1l-4.6-2.7c-0.1-0.1-0.2,0-0.3,0.1c0,0,0,0,0,0l-2.3,3.5L144.2,8c-1.8-0.8-3.7-1.4-5.7-1.9L138.2,6l0.3-4.2
				c0-0.1,0-0.1,0-0.2c0,0-0.1-0.1-0.1-0.1L133,0.9c-0.1,0-0.2,0.1-0.2,0.2c0,0,0,0,0,0l-0.8,4.1h-0.4c-2.2-0.1-4.4,0.1-6.6,0.5
				l-0.4,0.1l-1.4-3.9c0-0.1-0.1-0.1-0.1-0.2c-0.1,0-0.1,0-0.2,0L117.8,3c-0.1,0-0.2,0.2-0.2,0.3l0.8,4.1L118,7.5
				c-1.9,0.7-3.6,1.6-5.3,2.7l-0.3,0.2l-2.7-3.1c-0.1-0.1-0.2-0.1-0.3-0.1l-4.2,3.2c-0.1,0-0.1,0.1-0.1,0.1c0,0.1,0,0.1,0,0.2
				l2.3,3.5l-0.3,0.3c-1.6,1.5-3,3.2-4.3,5l-0.2,0.3l-3.8-1.8c-0.1,0-0.1,0-0.2,0c-0.1,0-0.1,0.1-0.1,0.1l-2.6,4.6
				c-0.1,0.1,0,0.2,0.1,0.3c0,0,0,0,0,0l3.6,2.3l-0.2,0.4c-0.8,1.8-1.4,3.7-1.8,5.6l-0.1,0.4l-4.2-0.3c-0.1,0-0.1,0-0.2,0
				c0,0-0.1,0.1-0.1,0.1L92.1,37c0,0.1,0,0.1,0,0.2c0,0.1,0.1,0.1,0.2,0.1l4.2,0.9v0.4c0,2.2,0.1,4.4,0.5,6.5l0.1,0.4l-4,1.4
				c-0.1,0-0.2,0.2-0.2,0.3l1.4,5.1c0,0.1,0.1,0.1,0.1,0.1c0.1,0,0.1,0,0.2,0l4.3-0.9l0.1,0.3c0.7,1.8,1.6,3.6,2.6,5.3l0.2,0.3
				l-3.3,2.9c-0.1,0-0.1,0.1-0.1,0.2c0,0.1,0,0.1,0,0.2l3.3,4.2c0,0,0.1,0.1,0.1,0.1c0.1,0,0.1,0,0.2,0l3.7-2.4l0.3,0.3
				c1.5,1.6,3.1,3,4.9,4.2l0.3,0.2l-1.9,4c-0.1,0.1,0,0.2,0.1,0.3c0,0,0,0,0,0l4.6,2.6c0.1,0,0.1,0,0.2,0c0.1,0,0.1-0.1,0.1-0.1
				L116.7,70.4z M130.5,67.3c-15.5-0.1-28.1-12.7-28-28.2s12.7-28.1,28.2-28s28.1,12.7,28,28.2c0,12.6-8.5,23.7-20.7,27
				C135.6,67,133,67.3,130.5,67.3z M130.5,12.1c-15,0-27.1,12.2-27.1,27.2s12.2,27.1,27.2,27.1c15,0,27.1-12.2,27.1-27.2
				c0-2.4-0.3-4.9-1-7.2C153.5,20.2,142.7,12.1,130.5,12.1L130.5,12.1z"/>
		</g>
		<g>
			<path class="st0" d="M132.8,47.9l-4.4-0.1v-6.4c-0.1,0-0.2,0.1-0.3,0.2c-0.3,0.4-0.6,1-0.9,1.6l-1.9,4.6h-4.9l2.3-4.8
				c0.8-1.8,1.7-2.9,2.7-3.5c-0.8-0.6-1.3-1.5-1.4-2.6c-0.1-0.6-0.4-1.1-0.7-1.6c-0.5-0.2-1-0.3-1.6-0.2l-0.4,0v-3.4l0.4,0
				c0.8-0.1,1.3-0.1,1.7-0.1c0.8,0,1.5,0.2,2.2,0.7c0.9,0.9,1.5,2,1.8,3.2c0.2,0.7,0.5,1.5,0.9,2.2c0.1,0.1,0.2,0.2,0.3,0.2v-6.1
				h4.4V38c0.1-0.1,0.3-0.2,0.3-0.3c0.4-0.7,0.7-1.4,0.9-2.2c0.3-1.2,0.8-2.2,1.7-3.1c0.8-0.5,1.6-0.8,2.5-0.7c0.3,0,0.7,0,1.5,0.1
				l0.4,0v3.5l-0.4,0c-0.5-0.1-1.1,0-1.6,0.2c-0.4,0.5-0.6,1-0.7,1.6c-0.2,1-0.7,1.8-1.4,2.4c0.9,0.6,1.8,1.7,2.7,3.5l2.3,4.8h-4.9
				l-1.8-4.7c-0.2-0.6-0.5-1.1-0.8-1.5c-0.1-0.1-0.3-0.2-0.4-0.2V47.9z M121.6,47.1h3.1l1.7-4.1c0.3-0.7,0.6-1.3,1-1.8
				c0.4-0.4,0.9-0.5,1.3-0.5l0.4,0V47l2.8,0v-6.5l0.4,0c0.5,0,1,0.2,1.4,0.5c0.5,0.6,0.8,1.2,1,1.8l1.6,4.2h3.1l-1.7-3.6
				c-0.9-2-1.9-3.1-2.8-3.4l-0.9-0.3l0.8-0.5c0.9-0.5,1.5-1.3,1.7-2.3c0.2-0.8,0.5-1.5,1-2.1l0.1-0.1c0.5-0.2,1.1-0.4,1.6-0.4v-1.9
				c-0.5,0-0.9,0-1.1,0c-0.7,0-1.4,0.2-2,0.5c-0.7,0.7-1.2,1.6-1.4,2.7c-0.2,0.9-0.6,1.7-1,2.4c-0.4,0.5-0.9,0.7-1.4,0.7l-0.4,0
				v-6.2h-2.8v6.2l-0.4,0c-0.5,0-1.1-0.2-1.4-0.7c-0.5-0.8-0.8-1.6-1-2.4c-0.2-1.1-0.8-2-1.5-2.7c-0.5-0.3-1.1-0.5-1.8-0.5
				c-0.2,0-0.6,0-1.1,0v1.8c0.6,0,1.1,0.1,1.6,0.4l0.1,0.1c0.5,0.6,0.8,1.3,1,2c0.2,1,0.7,1.9,1.6,2.4l0.8,0.5l-0.9,0.3
				c-1,0.3-1.9,1.4-2.8,3.4L121.6,47.1z"/>
		</g>
		<g>
			<path class="st0" d="M74.9,86.7c-0.1,0-0.3,0-0.4-0.1l-3.2-1.1c-0.3-0.1-0.5-0.3-0.7-0.6c-0.1-0.2-0.1-0.5,0-0.7l0.6-2.1
				c-2.3-1.3-4.4-3-5.9-5.2l-2,0.8c-0.2,0.1-0.4,0.1-0.6,0c-0.3-0.1-0.5-0.3-0.7-0.6l-1.5-3.1c-0.1-0.2-0.2-0.5-0.1-0.8
				c0.1-0.3,0.2-0.5,0.5-0.6l1.9-1c-0.8-2.6-0.9-5.2-0.5-7.9l-2-0.8c-0.2-0.1-0.4-0.2-0.5-0.4c-0.1-0.3-0.1-0.6,0-0.9l1.1-3.2
				c0.1-0.3,0.3-0.5,0.5-0.7c0.2-0.1,0.5-0.1,0.7,0l2.1,0.6c1.3-2.3,3-4.4,5.2-5.9l-0.8-2c-0.1-0.2-0.1-0.4,0-0.7
				c0.1-0.3,0.3-0.5,0.6-0.6l3.1-1.5c0.5-0.3,1.1-0.1,1.4,0.4c0,0,0,0,0,0l1,1.9c2.6-0.8,5.3-0.9,7.9-0.5l0.8-2
				c0.1-0.2,0.3-0.4,0.5-0.5c0.2-0.1,0.5-0.1,0.8,0l3.2,1.1c0.5,0.2,0.8,0.7,0.7,1.2l-0.6,2.1c2.3,1.3,4.4,3,5.9,5.2l2-0.8
				c0.5-0.2,1.1,0.1,1.3,0.6l1.5,3.1c0.1,0.3,0.2,0.6,0.1,0.9c-0.1,0.2-0.2,0.4-0.4,0.5l-1.9,1c0.8,2.5,0.9,5.2,0.5,7.9l2,0.8
				c0.2,0.1,0.4,0.2,0.5,0.5c0.1,0.3,0.1,0.6,0,0.8l-1.1,3.2c-0.1,0.5-0.7,0.9-1.2,0.7c0,0,0,0,0,0l-2-0.6c-1.3,2.3-3,4.4-5.2,5.9
				l0.8,2c0.2,0.5,0,1.1-0.6,1.3l-3.1,1.5c-0.3,0.1-0.6,0.2-0.9,0.1c-0.2-0.1-0.4-0.2-0.5-0.4l-1-1.8c-2.5,0.8-5.2,0.9-7.9,0.5
				l-0.8,2C75.8,86.6,75.3,86.8,74.9,86.7z M65.5,76.2l0.2,0.2c1.6,2.3,3.6,4.1,6.1,5.4l0.3,0.1l-0.8,2.6c0,0,0,0.1,0,0.1
				c0.1,0.1,0.1,0.2,0.2,0.2l3.2,1.1c0.2,0.1,0.4,0,0.4-0.1l1-2.6l0.3,0.1c2.7,0.5,5.5,0.3,8.1-0.5l0.3-0.1l1.3,2.4
				c0,0,0.1,0.1,0.1,0.1c0.1,0,0.2,0,0.3,0l3.1-1.5c0.2-0.1,0.3-0.3,0.2-0.3l-1.1-2.5l0.2-0.2c2.3-1.6,4.1-3.7,5.4-6.1l0.1-0.3
				l2.6,0.8c0.1,0,0.3-0.1,0.3-0.3l1.1-3.2c0-0.1,0-0.2,0-0.3c0,0,0-0.1-0.1-0.1l0,0l-2.5-1l0.1-0.3c0.5-2.7,0.3-5.5-0.5-8.1
				l-0.1-0.3l2.4-1.3c0,0,0.1-0.1,0.1-0.1c0-0.1,0-0.2,0-0.3l-1.5-3.1c-0.1-0.2-0.3-0.3-0.3-0.2l-2.6,1.1l-0.2-0.2
				c-1.6-2.3-3.6-4.1-6.1-5.4L87,51.9l0.8-2.7c0-0.1-0.1-0.3-0.3-0.3l-3.2-1.1c-0.1,0-0.2,0-0.3,0c0,0-0.1,0-0.1,0.1l-1,2.6l-0.3,0
				c-2.7-0.5-5.5-0.3-8.1,0.5L74.2,51l-1.3-2.4c0-0.1-0.2-0.1-0.4,0L69.4,50c-0.1,0-0.2,0.1-0.2,0.2c0,0,0,0.1,0,0.1l1.1,2.5L70,53
				c-2.3,1.6-4.1,3.6-5.4,6.1l-0.1,0.3l-2.7-0.8c0,0-0.1,0-0.1,0c-0.1,0.1-0.2,0.1-0.2,0.2l-1.2,3.3c0,0.1,0,0.2,0,0.3
				c0,0,0,0.1,0.1,0.1l2.6,1l0,0.3c-0.5,2.7-0.3,5.5,0.5,8.1l0.1,0.3l-2.4,1.3c-0.1,0.1-0.1,0.2,0,0.4l1.5,3.1
				c0,0.1,0.1,0.2,0.2,0.2c0,0,0.1,0,0.1,0L65.5,76.2z M79.5,80.2c-7.3,0-13.3-5.9-13.3-13.2c0-7.3,5.9-13.3,13.2-13.3
				c7.3,0,13.3,5.9,13.3,13.2c0,5.1-2.9,9.7-7.4,11.9l0,0C83.5,79.7,81.5,80.2,79.5,80.2L79.5,80.2z M79.5,54.4
				C72.6,54.4,67,60,67,66.9c0,6.9,5.7,12.5,12.6,12.5c6.9,0,12.5-5.7,12.5-12.6c0-1.9-0.4-3.8-1.3-5.5C88.7,57,84.3,54.3,79.5,54.4
				L79.5,54.4z"/>
		</g>
		<g>
			<path class="st0" d="M79.5,76.6c-1.1,0-2.1-0.2-3.1-0.5c-5-1.7-7.7-7.2-5.9-12.3c1.7-5,7.2-7.7,12.3-5.9c5,1.7,7.7,7.2,5.9,12.3
				C87.3,74,83.6,76.6,79.5,76.6L79.5,76.6z M79.5,57.9c-5,0.1-8.9,4.1-8.9,9.1c0,1.3,0.3,2.6,0.9,3.8l0,0c2.2,4.5,7.5,6.4,12,4.2
				c4.5-2.2,6.4-7.5,4.2-12C86.2,59.9,83,57.9,79.5,57.9z"/>
		</g>
		<g>
			<path class="st0" d="M84,72.5h-2.4v-1.9h-6l0-8.1h2.8v5.8h2v-5.8h2.8v5.8H84V72.5z M82.4,71.7h0.8V69h-0.8v-5.8h-1.2V69h-3.6
				v-5.8h-1.2l0,6.5h6V71.7z"/>
		</g>
		<g>
			<path class="st0" d="M46.5,52.6c-7.8,0-14.2-6.3-14.2-14.2s6.3-14.2,14.2-14.2s14.2,6.3,14.2,14.2c0,5.3-2.9,10.1-7.5,12.6l0,0
				C51.1,52,48.8,52.6,46.5,52.6z M46.5,25c-7.4,0-13.4,6-13.4,13.4s6,13.4,13.4,13.4c2.2,0,4.4-0.5,6.3-1.6l0,0
				c6.5-3.5,9-11.6,5.5-18.1C56,27.7,51.5,25,46.5,25L46.5,25z"/>
		</g>
		<g>
			<path class="st0" d="M46.5,52.6c-7.8,0-14.2-6.3-14.2-14.2s6.3-14.2,14.2-14.2c5.3,0,10.1,2.9,12.6,7.5l0,0
				c3.7,6.9,1,15.5-5.9,19.2C51.1,52,48.8,52.6,46.5,52.6z M46.5,25c-7.4,0-13.4,6-13.4,13.4c0,7.4,6,13.4,13.4,13.4
				c7.4,0,13.4-6,13.4-13.4c0-2.2-0.5-4.3-1.6-6.3l0,0C56,27.7,51.5,25,46.5,25L46.5,25z"/>
		</g>
		<g>
			<path class="st0" d="M46.9,63.6c-0.4,0-0.8-0.3-0.8-0.8l-0.3-2.2c-1.1,0-2.1-0.1-3.2-0.3l-0.8,2.1c-0.1,0.2-0.2,0.4-0.4,0.5
				C41.3,63,41,63,40.8,63l-3.2-1c-0.4-0.1-0.7-0.6-0.6-1l0.5-2.1c-1.1-0.5-2.1-1.1-3.1-1.7l-1.5,1.6c-0.1,0.2-0.3,0.3-0.5,0.3
				c-0.2,0-0.4,0-0.6-0.2l-2.6-2.2c-0.3-0.3-0.4-0.8-0.1-1.2l1.3-1.8c-0.7-0.8-1.4-1.6-2-2.5l-2,0.9c-0.2,0.1-0.4,0.1-0.6,0
				c-0.2-0.1-0.4-0.2-0.5-0.4l-1.6-3c-0.2-0.4-0.1-0.9,0.3-1.1c0,0,0,0,0,0l1.8-1.1c-0.4-1.1-0.8-2.3-1-3.5h-2.1
				c-0.2,0-0.4,0-0.6-0.2c-0.2-0.1-0.3-0.3-0.3-0.6L21.4,39c0-0.5,0.3-0.8,0.7-0.9c0,0,0,0,0,0l2-0.3c0-1.1,0.1-2.2,0.3-3.2l-2-0.8
				c-0.4-0.1-0.6-0.6-0.5-1l1-3.2c0.1-0.4,0.6-0.7,1-0.5l2,0.5c0.5-1.1,1.1-2.2,1.7-3.2l-1.4-1.5C26,24.5,26,24,26.3,23.6
				c0,0,0,0,0,0l2.1-2.6c0.1-0.2,0.3-0.3,0.6-0.3c0.2,0,0.4,0,0.6,0.2l1.6,1.2c0.8-0.7,1.6-1.4,2.5-2l-0.8-1.9
				c-0.1-0.2-0.1-0.4,0-0.6c0.1-0.2,0.2-0.4,0.4-0.5l3-1.6c0.4-0.2,0.9-0.1,1.1,0.3c0,0,0,0,0,0l1.1,1.7c1.1-0.4,2.3-0.8,3.5-1v-2.1
				c0-0.4,0.3-0.8,0.8-0.9l3.4-0.3c0.5,0,0.9,0.3,0.9,0.8l0.3,2c1.1,0,2.2,0.2,3.2,0.4l0.8-1.9c0.1-0.4,0.6-0.6,1-0.5l3.2,1
				c0.2,0.1,0.4,0.2,0.5,0.4c0.1,0.2,0.1,0.4,0.1,0.6l-0.5,2c1.1,0.5,2.2,1.1,3.2,1.7l1.5-1.5c0.1-0.2,0.3-0.3,0.5-0.3
				c0.2,0,0.4,0.1,0.6,0.2l2.6,2.2c0.3,0.3,0.4,0.8,0.1,1.2c0,0,0,0,0,0l-1.2,1.7c0.7,0.8,1.4,1.6,2,2.5l2-0.9
				c0.2-0.1,0.4-0.1,0.6,0c0.2,0.1,0.4,0.2,0.5,0.4l1.6,3c0.2,0.4,0.1,0.9-0.3,1.1l-1.8,1.1c0.4,1.1,0.8,2.3,1,3.4h2.2
				c0.4,0,0.8,0.3,0.9,0.7c0,0,0,0,0,0l0.3,3.3c0,0.5-0.3,0.9-0.8,0.9l-2.2,0.3c-0.1,1.1-0.2,2.1-0.4,3.1l2.1,0.8
				c0.2,0.1,0.4,0.2,0.5,0.4C71,43.8,71,44,71,44.2l-1,3.2c-0.1,0.4-0.6,0.7-1,0.5l-2.2-0.5c-0.5,1.1-1.1,2.1-1.7,3.1l1.6,1.6
				c0.3,0.3,0.4,0.8,0.1,1.1l-2.2,2.6c-0.3,0.3-0.8,0.4-1.2,0.1l-1.8-1.3c-0.8,0.7-1.6,1.4-2.5,2l0.9,2.1c0.1,0.2,0.1,0.4,0,0.6
				c-0.1,0.2-0.2,0.4-0.4,0.5l-3,1.6c-0.4,0.2-0.9,0.1-1.1-0.3c0,0,0,0,0,0l-1.1-1.9c-1.1,0.4-2.2,0.8-3.4,1v2.3
				c0,0.4-0.3,0.8-0.8,0.9L46.9,63.6L46.9,63.6z M42.1,59.5l0.3,0.1c1.2,0.2,2.4,0.4,3.7,0.4h0.3l0.4,2.9l3.4-0.2v-3l0.3-0.1
				c1.3-0.3,2.6-0.6,3.9-1.2l0.3-0.1l1.5,2.5l3-1.5l-1.2-2.7l0.3-0.2c1-0.7,2-1.5,2.9-2.3l0.2-0.2l2.3,1.7l2.2-2.6l-2.1-2.1l0.2-0.3
				c0.8-1.1,1.4-2.3,2-3.6l0.1-0.3l2.8,0.7l1-3.2l-2.7-1.1l0.1-0.3c0.2-1.2,0.4-2.5,0.4-3.7v-0.3l2.8-0.5l-0.2-3.4l0,0l0,0h-2.9
				l-0.1-0.3c-0.3-1.4-0.6-2.7-1.2-4l-0.1-0.3l2.4-1.5l-1.5-3l-2.6,1.1l-0.2-0.3c-0.7-1-1.5-2-2.3-2.9l-0.2-0.2l1.6-2.3l-2.6-2.3
				l-2,2l-0.3-0.2c-1.1-0.8-2.4-1.5-3.6-2l-0.3-0.1l0.6-2.7L52,14.7l-1,2.6l-0.3-0.1c-1.2-0.2-2.5-0.4-3.8-0.4h-0.4l-0.4-2.7
				l-3.4,0.2v2.8l-0.3,0.1c-1.4,0.3-2.7,0.7-4,1.2l-0.3,0.1l-1.4-2.3l-3,1.5l1.1,2.6l-0.3,0.2c-1,0.7-2,1.5-2.9,2.4l-0.2,0.2
				l-2.2-1.6l-2.3,2.6l2,2l-0.2,0.3c-0.8,1.1-1.5,2.4-2,3.6l-0.1,0.3l-2.7-0.6l-1,3.2l2.6,1v0.3c-0.2,1.2-0.4,2.5-0.4,3.7v0.3
				l-2.7,0.4l0.2,3.4h2.8l0.1,0.3c0.3,1.4,0.7,2.7,1.2,4l0.1,0.3l-2.4,1.4l1.5,3l2.7-1.2l0.2,0.3c0.7,1,1.5,2,2.4,2.9l0.2,0.2
				l-1.7,2.4l2.6,2.2l2-2.1l0.3,0.2c1.1,0.8,2.3,1.4,3.6,1.9l0.3,0.1l-0.6,2.8l3.3,1.1L42.1,59.5z M46.5,56.3
				c-1.8,0-3.6-0.3-5.3-0.8c-9.5-2.9-14.8-12.9-11.9-22.4s12.9-14.8,22.4-11.9s14.8,12.9,11.9,22.4c-1.4,4.5-4.5,8.3-8.7,10.6l0,0
				C52.3,55.6,49.4,56.3,46.5,56.3z M46.5,21.3c-9.4,0-17.1,7.7-17.1,17.1S37,55.5,46.5,55.5c2.8,0,5.6-0.7,8.1-2l0,0
				c8.3-4.4,11.5-14.8,7.1-23.1C58.6,24.8,52.8,21.3,46.5,21.3L46.5,21.3z"/>
		</g>
		<g>
			<path class="st0" d="M46.5,52.6c-7.8,0-14.2-6.3-14.2-14.2s6.3-14.2,14.2-14.2s14.2,6.3,14.2,14.2c0,5.3-2.9,10.1-7.5,12.6l0,0
				C51.1,52,48.8,52.6,46.5,52.6z M46.5,25c-7.4,0-13.4,6-13.4,13.4s6,13.4,13.4,13.4c2.2,0,4.4-0.5,6.3-1.6l0,0
				c6.5-3.5,9-11.6,5.5-18.1C56,27.7,51.5,25,46.5,25L46.5,25z"/>
		</g>
		<g>
			<path class="st0" d="M49.3,46.7h-6.9V34.1h-3.8v-4.2h7.6v6.7h2.7c1,0,2,0.1,2.9,0.4c0.8,0.4,1.5,1,1.8,1.8c0.5,0.9,0.7,1.9,0.7,3
				c0,1.3-0.3,2.5-1.1,3.6C52.6,46.2,51.2,46.7,49.3,46.7z M43.2,45.9h6.1c1.6,0,2.8-0.4,3.3-1.2c0.6-0.9,1-2,0.9-3.1
				c0-0.9-0.2-1.8-0.6-2.6c-0.3-0.6-0.8-1.1-1.4-1.4c-0.8-0.2-1.7-0.4-2.6-0.3l-3.5,0v-6.7h-6.1v2.6h3.8V45.9z M48.7,44h-3.2l0-4.8
				h2.4c0.8-0.1,1.7,0.1,2.5,0.5c0.6,0.5,0.9,1.2,0.9,2c0,0.5-0.1,1.1-0.4,1.6C50.4,43.8,49.8,44,48.7,44z M46.3,43.2h2.5
				c0.7,0,1.2-0.1,1.4-0.4c0.2-0.4,0.3-0.8,0.3-1.2c0-0.5-0.1-1-0.5-1.3c-0.6-0.3-1.3-0.4-2-0.3l-1.6,0L46.3,43.2z"/>
		</g>
		<g class="st1">
			<path class="st0" d="M40.5,102c-0.2-0.1-0.4-0.2-0.7-0.2c-0.5,0-0.9,0.3-1.3,0.8c-0.3,0.5-0.5,1.3-0.5,2.3v3.1h-0.6v-6.5H38v1.4
				h0c0.1-0.5,0.4-0.9,0.7-1.2c0.3-0.3,0.7-0.4,1.1-0.4c0.2,0,0.5,0,0.6,0.1V102z"/>
			<path class="st0" d="M46,107.9v-1.2h0c-0.5,0.9-1.2,1.3-2.1,1.3c-1.5,0-2.3-1-2.3-2.9v-3.8h0.6v3.6c0,0.9,0.1,1.5,0.4,1.9
				c0.3,0.4,0.7,0.6,1.4,0.6c0.6,0,1.1-0.2,1.5-0.7c0.4-0.4,0.6-1,0.6-1.8v-3.7h0.6v6.5H46z"/>
			<path class="st0" d="M48.4,107.6v-0.7c0.2,0.2,0.5,0.3,0.8,0.5c0.3,0.1,0.6,0.2,0.8,0.2c1,0,1.5-0.4,1.5-1.3
				c0-0.3-0.1-0.5-0.3-0.7c-0.2-0.2-0.6-0.4-1.1-0.6c-0.6-0.3-1.1-0.6-1.3-0.8c-0.3-0.3-0.4-0.6-0.4-1.1c0-0.5,0.2-1,0.6-1.3
				c0.4-0.3,0.9-0.5,1.5-0.5c0.6,0,1,0.1,1.4,0.3v0.7c-0.5-0.3-1-0.5-1.5-0.5c-0.4,0-0.8,0.1-1,0.3c-0.3,0.2-0.4,0.5-0.4,0.9
				c0,0.3,0.1,0.6,0.2,0.8s0.5,0.4,1.1,0.7c0.7,0.3,1.1,0.6,1.4,0.8c0.3,0.3,0.4,0.6,0.4,1c0,0.5-0.2,0.9-0.6,1.3
				c-0.4,0.3-0.9,0.5-1.6,0.5C49.3,108.1,48.8,107.9,48.4,107.6z"/>
			<path class="st0" d="M53.4,107.6v-0.7c0.2,0.2,0.5,0.3,0.8,0.5c0.3,0.1,0.6,0.2,0.8,0.2c1,0,1.5-0.4,1.5-1.3
				c0-0.3-0.1-0.5-0.3-0.7c-0.2-0.2-0.6-0.4-1.1-0.6c-0.6-0.3-1.1-0.6-1.3-0.8s-0.4-0.6-0.4-1.1c0-0.5,0.2-1,0.6-1.3
				s0.9-0.5,1.5-0.5c0.6,0,1,0.1,1.4,0.3v0.7c-0.5-0.3-1-0.5-1.5-0.5c-0.4,0-0.8,0.1-1,0.3c-0.3,0.2-0.4,0.5-0.4,0.9
				c0,0.3,0.1,0.6,0.2,0.8s0.5,0.4,1.1,0.7c0.7,0.3,1.1,0.6,1.4,0.8c0.3,0.3,0.4,0.6,0.4,1c0,0.5-0.2,0.9-0.6,1.3
				c-0.4,0.3-0.9,0.5-1.6,0.5C54.3,108.1,53.8,107.9,53.4,107.6z"/>
			<path class="st0" d="M59.1,99.8c-0.1,0-0.2,0-0.3-0.1c-0.1-0.1-0.1-0.2-0.1-0.4c0-0.1,0-0.3,0.1-0.3c0.1-0.1,0.2-0.1,0.3-0.1
				c0.1,0,0.2,0,0.3,0.1s0.1,0.2,0.1,0.3c0,0.1,0,0.3-0.1,0.3C59.3,99.7,59.2,99.8,59.1,99.8z M58.8,107.9v-6.5h0.6v6.5H58.8z"/>
			<path class="st0" d="M65.3,107.9v-1.3h0c-0.2,0.4-0.5,0.8-0.9,1.1s-0.8,0.4-1.3,0.4c-0.6,0-1.1-0.2-1.5-0.5
				c-0.4-0.3-0.5-0.8-0.5-1.3c0-1.1,0.8-1.8,2.3-2.1l2-0.3c0-1.4-0.5-2.1-1.6-2.1c-0.7,0-1.4,0.3-2.1,0.9V102c0.2-0.2,0.6-0.4,1-0.5
				c0.4-0.1,0.8-0.2,1.2-0.2c0.7,0,1.2,0.2,1.6,0.6c0.4,0.4,0.5,1,0.5,1.8v4.2H65.3z M63.5,104.7c-0.7,0.1-1.2,0.3-1.4,0.5
				c-0.3,0.2-0.4,0.6-0.4,1.1c0,0.4,0.1,0.7,0.4,1s0.6,0.4,1.1,0.4c0.6,0,1.1-0.2,1.6-0.7c0.4-0.5,0.6-1.1,0.6-1.8v-0.6L63.5,104.7z
				"/>
			<path class="st0" d="M72.3,107.9v-3.8c0-1.6-0.6-2.3-1.7-2.3c-0.6,0-1.1,0.2-1.5,0.7c-0.4,0.5-0.6,1-0.6,1.7v3.7h-0.6v-6.5h0.6
				v1.2h0c0.5-0.9,1.2-1.3,2.2-1.3c0.7,0,1.2,0.2,1.6,0.7c0.4,0.5,0.6,1.1,0.6,2v4H72.3z"/>
			<path class="st0" d="M81,107.8c-0.3,0.1-0.6,0.2-0.9,0.2c-1,0-1.4-0.6-1.4-1.7V102h-1.2v-0.5h1.2v-1.7c0.1,0,0.2-0.1,0.3-0.1
				c0.1,0,0.2-0.1,0.3-0.1v1.9H81v0.5h-1.7v4.3c0,0.4,0.1,0.8,0.2,1s0.4,0.3,0.7,0.3c0.2,0,0.5-0.1,0.8-0.2V107.8z"/>
			<path class="st0" d="M82.4,104.7c0,0.9,0.2,1.6,0.6,2.1c0.4,0.5,1,0.8,1.7,0.8c0.7,0,1.4-0.3,2.1-0.8v0.6
				c-0.7,0.5-1.4,0.7-2.3,0.7c-0.8,0-1.5-0.3-2-0.9c-0.5-0.6-0.8-1.5-0.8-2.5c0-0.9,0.3-1.7,0.8-2.4c0.5-0.6,1.2-1,2.1-1
				c0.8,0,1.4,0.3,1.9,0.8c0.4,0.6,0.6,1.3,0.6,2.3v0.3H82.4z M86.6,104.2c0-0.7-0.2-1.3-0.5-1.7c-0.3-0.4-0.8-0.6-1.4-0.6
				c-0.6,0-1.1,0.2-1.5,0.6c-0.4,0.4-0.6,1-0.7,1.8H86.6z"/>
			<path class="st0" d="M90.8,104.7l2.1,3.2h-0.7l-1.7-2.7h0l-0.2,0.4c0,0.1-0.1,0.1-0.1,0.2l-1.4,2.2H88l2.2-3.2l-2.1-3.3h0.7
				l1.4,2.3c0.2,0.3,0.3,0.5,0.3,0.6h0l0.3-0.5l1.5-2.4H93L90.8,104.7z"/>
			<path class="st0" d="M96.9,107.8c-0.3,0.1-0.6,0.2-0.9,0.2c-1,0-1.4-0.6-1.4-1.7V102h-1.2v-0.5h1.2v-1.7c0.1,0,0.2-0.1,0.3-0.1
				c0.1,0,0.2-0.1,0.3-0.1v1.9h1.7v0.5h-1.7v4.3c0,0.4,0.1,0.8,0.2,1s0.4,0.3,0.7,0.3c0.2,0,0.5-0.1,0.8-0.2V107.8z"/>
			<path class="st0" d="M105.6,107.9v-1.3h0c-0.2,0.4-0.5,0.8-0.9,1.1s-0.8,0.4-1.3,0.4c-0.6,0-1.1-0.2-1.5-0.5
				c-0.4-0.3-0.5-0.8-0.5-1.3c0-1.1,0.8-1.8,2.3-2.1l2-0.3c0-1.4-0.5-2.1-1.6-2.1c-0.7,0-1.4,0.3-2.1,0.9V102c0.2-0.2,0.6-0.4,1-0.5
				c0.4-0.1,0.8-0.2,1.2-0.2c0.7,0,1.2,0.2,1.6,0.6c0.4,0.4,0.5,1,0.5,1.8v4.2H105.6z M103.8,104.7c-0.7,0.1-1.2,0.3-1.4,0.5
				c-0.3,0.2-0.4,0.6-0.4,1.1c0,0.4,0.1,0.7,0.4,1s0.6,0.4,1.1,0.4c0.6,0,1.1-0.2,1.6-0.7c0.4-0.5,0.6-1.1,0.6-1.8v-0.6L103.8,104.7
				z"/>
			<path class="st0" d="M112.5,107.9v-3.8c0-1.6-0.6-2.3-1.7-2.3c-0.6,0-1.1,0.2-1.5,0.7c-0.4,0.5-0.6,1-0.6,1.7v3.7h-0.6v-6.5h0.6
				v1.2h0c0.5-0.9,1.2-1.3,2.2-1.3c0.7,0,1.2,0.2,1.6,0.7c0.4,0.5,0.6,1.1,0.6,2v4H112.5z"/>
			<path class="st0" d="M119,107.9v-1.3h0c-0.2,0.4-0.5,0.8-0.9,1.1s-0.8,0.4-1.3,0.4c-0.6,0-1.1-0.2-1.5-0.5
				c-0.4-0.3-0.5-0.8-0.5-1.3c0-1.1,0.8-1.8,2.3-2.1l2-0.3c0-1.4-0.5-2.1-1.6-2.1c-0.7,0-1.4,0.3-2.1,0.9V102c0.2-0.2,0.6-0.4,1-0.5
				c0.4-0.1,0.8-0.2,1.2-0.2c0.7,0,1.2,0.2,1.6,0.6c0.4,0.4,0.5,1,0.5,1.8v4.2H119z M117.2,104.7c-0.7,0.1-1.2,0.3-1.4,0.5
				c-0.3,0.2-0.4,0.6-0.4,1.1c0,0.4,0.1,0.7,0.4,1s0.6,0.4,1.1,0.4c0.6,0,1.1-0.2,1.6-0.7c0.4-0.5,0.6-1.1,0.6-1.8v-0.6L117.2,104.7
				z"/>
			<path class="st0" d="M121.5,107.9v-9.6h0.6v9.6H121.5z"/>
			<path class="st0" d="M125.8,109.3c-0.2,0.6-0.5,1-0.8,1.3c-0.3,0.3-0.7,0.4-1.1,0.4c-0.2,0-0.4,0-0.5-0.1v-0.6
				c0.2,0.1,0.3,0.1,0.5,0.1c0.5,0,0.9-0.4,1.2-1.1l0.6-1.4l-2.5-6.4h0.7l2,5.3c0,0.1,0.1,0.2,0.1,0.3c0,0.1,0,0.2,0.1,0.2h0
				l0.2-0.4l2.1-5.3h0.6L125.8,109.3z"/>
			<path class="st0" d="M129.7,107.6v-0.7c0.2,0.2,0.5,0.3,0.8,0.5c0.3,0.1,0.6,0.2,0.8,0.2c1,0,1.5-0.4,1.5-1.3
				c0-0.3-0.1-0.5-0.3-0.7c-0.2-0.2-0.6-0.4-1.1-0.6c-0.6-0.3-1.1-0.6-1.3-0.8c-0.3-0.3-0.4-0.6-0.4-1.1c0-0.5,0.2-1,0.6-1.3
				c0.4-0.3,0.9-0.5,1.5-0.5c0.6,0,1,0.1,1.4,0.3v0.7c-0.5-0.3-1-0.5-1.5-0.5c-0.4,0-0.8,0.1-1,0.3c-0.3,0.2-0.4,0.5-0.4,0.9
				c0,0.3,0.1,0.6,0.2,0.8s0.5,0.4,1.1,0.7c0.7,0.3,1.1,0.6,1.4,0.8c0.3,0.3,0.4,0.6,0.4,1c0,0.5-0.2,0.9-0.6,1.3
				c-0.4,0.3-0.9,0.5-1.6,0.5C130.7,108.1,130.1,107.9,129.7,107.6z"/>
			<path class="st0" d="M135.3,104.7c0,0.9,0.2,1.6,0.6,2.1c0.4,0.5,1,0.8,1.7,0.8c0.7,0,1.4-0.3,2.1-0.8v0.6
				c-0.7,0.5-1.4,0.7-2.3,0.7c-0.8,0-1.5-0.3-2-0.9c-0.5-0.6-0.8-1.5-0.8-2.5c0-0.9,0.3-1.7,0.8-2.4c0.5-0.6,1.2-1,2.1-1
				c0.8,0,1.4,0.3,1.9,0.8c0.4,0.6,0.6,1.3,0.6,2.3v0.3H135.3z M139.5,104.2c0-0.7-0.2-1.3-0.5-1.7c-0.3-0.4-0.8-0.6-1.4-0.6
				c-0.6,0-1.1,0.2-1.5,0.6c-0.4,0.4-0.6,1-0.7,1.8H139.5z"/>
			<path class="st0" d="M144.7,102c-0.2-0.1-0.4-0.2-0.7-0.2c-0.5,0-0.9,0.3-1.3,0.8c-0.3,0.5-0.5,1.3-0.5,2.3v3.1h-0.6v-6.5h0.6
				v1.4h0c0.1-0.5,0.4-0.9,0.7-1.2c0.3-0.3,0.7-0.4,1.1-0.4c0.2,0,0.5,0,0.6,0.1V102z"/>
		</g>
	</g>
</g>
</svg>
