<?xml version="1.0" encoding="utf-8"?>
<!-- Generator: Adobe Illustrator 21.0.2, SVG Export Plug-In . SVG Version: 6.00 Build 0)  -->
<svg version="1.1" id="Layer_1" xmlns="http://www.w3.org/2000/svg" xmlns:xlink="http://www.w3.org/1999/xlink" x="0px" y="0px"
	 viewBox="0 0 246.7 139.4" style="enable-background:new 0 0 246.7 139.4;" xml:space="preserve">
<style type="text/css">
	.st0{fill:#606060;}
	.st1{enable-background:new    ;}
</style>
<title>cogs</title>
<g id="Layer_2">
	<g id="Layer_1-2">
		<g>
			<path class="st0" d="M158.2,75.2c-10,0-18.8-6.7-21.4-16.3l0,0c-3.3-11.8,3.7-24.1,15.5-27.3c11.8-3.3,24.1,3.7,27.3,15.5
				c3.3,11.8-3.7,24.1-15.5,27.3C162.2,74.9,160.2,75.2,158.2,75.2L158.2,75.2z M158.2,31.6c-11.8,0-21.4,9.5-21.4,21.3
				c0,11.8,9.5,21.4,21.3,21.4c11.8,0,21.4-9.5,21.4-21.3c0-7.7-4.1-14.8-10.8-18.6C165.5,32.6,161.9,31.6,158.2,31.6L158.2,31.6z"
				/>
		</g>
		<g>
			<path class="st0" d="M155.9,92.5h-0.1l-5.3-0.7c-0.6-0.1-1.1-0.6-1-1.2c0,0,0,0,0,0l0.2-3.6c-1.7-0.4-3.4-1-5-1.7l-2,3.1
				c-0.1,0.3-0.4,0.4-0.7,0.5c-0.3,0.1-0.6,0-0.8-0.1l-4.6-2.6c-0.6-0.3-0.8-1-0.5-1.5l1.6-3.3c-1.6-1.2-3.1-2.4-4.5-3.8l-3,2
				c-0.2,0.2-0.5,0.2-0.8,0.2c-0.3,0-0.6-0.2-0.7-0.4l-3.2-4.2c-0.4-0.5-0.3-1.2,0.2-1.6c0,0,0,0,0,0l2.6-2.4
				c-0.9-1.5-1.7-3.1-2.4-4.7l-3.5,0.7c-0.3,0.1-0.6,0-0.8-0.1c-0.3-0.1-0.5-0.4-0.5-0.7l-1.4-5.1c-0.1-0.3,0-0.6,0.1-0.9
				c0.1-0.3,0.4-0.5,0.7-0.5l3.3-1.2c-0.3-2-0.5-4-0.4-6l-3.4-0.7c-0.6-0.1-1-0.7-0.9-1.3l0.7-5.3c0-0.3,0.2-0.6,0.4-0.8
				c0.2-0.2,0.5-0.3,0.8-0.2l3.4,0.2c0.4-1.7,1-3.4,1.7-5.1l-2.9-1.9c-0.5-0.3-0.7-1-0.4-1.5l2.6-4.6c0.3-0.5,1-0.7,1.5-0.4l3.1,1.4
				c1.2-1.6,2.5-3.1,3.9-4.5l-1.9-2.8c-0.2-0.2-0.2-0.5-0.2-0.8c0-0.3,0.2-0.6,0.4-0.8l4.2-3.3c0.5-0.4,1.2-0.3,1.6,0.2l2.2,2.5
				c1.5-0.9,3.2-1.7,4.8-2.4l-0.7-3.3c-0.1-0.3,0-0.6,0.1-0.8c0.1-0.3,0.4-0.5,0.7-0.5l5.1-1.4c0.3-0.1,0.6,0,0.9,0.1
				c0.3,0.1,0.4,0.4,0.5,0.7l1.1,3.2c2-0.3,4-0.5,6-0.4l0.7-3.3c0.1-0.6,0.7-1,1.3-0.9l5.3,0.7c0.3,0,0.6,0.2,0.8,0.4
				c0.2,0.2,0.3,0.6,0.2,0.9l-0.2,3.4c1.7,0.4,3.4,1,5.1,1.7l1.9-2.9c0.3-0.5,1-0.7,1.5-0.4l4.6,2.6c0.3,0.1,0.4,0.4,0.5,0.7
				c0.1,0.3,0,0.6-0.1,0.9l-1.5,3.1c1.6,1.2,3.1,2.5,4.5,3.9l2.9-1.9c0.5-0.4,1.2-0.3,1.6,0.2l3.2,4.2c0.4,0.5,0.3,1.2-0.2,1.6
				c0,0,0,0,0,0l-2.6,2.3c0.9,1.5,1.7,3.1,2.4,4.8l3.5-0.7c0.6-0.1,1.2,0.2,1.4,0.8l1.4,5.1c0.2,0.6-0.2,1.2-0.8,1.4c0,0,0,0,0,0
				l-3.4,1.1c0.3,2,0.4,3.9,0.4,5.9l3.5,0.7c0.6,0.1,1.1,0.6,1,1.3l-0.7,5.3c0,0.3-0.2,0.6-0.4,0.8c-0.2,0.2-0.5,0.3-0.8,0.2
				l-3.6-0.2c-0.4,1.7-1,3.4-1.7,5l3,2c0.2,0.1,0.4,0.4,0.5,0.7c0.1,0.3,0,0.6-0.1,0.9l-2.6,4.6c-0.1,0.3-0.4,0.5-0.7,0.5
				c-0.3,0.1-0.6,0-0.9-0.1l-3.2-1.6c-1.2,1.6-2.5,3.1-3.9,4.4l2,3.1c0.4,0.5,0.3,1.2-0.2,1.6l-4.3,3.3c-0.2,0.2-0.5,0.3-0.8,0.2
				c-0.3,0-0.6-0.2-0.8-0.4l-2.4-2.7c-1.5,0.9-3.1,1.7-4.7,2.3l0.7,3.6c0.2,0.6-0.2,1.2-0.8,1.4l-5.1,1.4c-0.6,0.2-1.2-0.2-1.4-0.8
				l-1.2-3.4c-1.9,0.3-3.9,0.4-5.8,0.4l-0.7,3.6C156.9,92.1,156.4,92.5,155.9,92.5z M144.4,84.1l0.4,0.2c1.8,0.8,3.6,1.4,5.5,1.8
				l0.4,0.1l-0.3,4.4c0,0.1,0,0.1,0,0.2c0,0,0.1,0.1,0.1,0.1l5.3,0.7c0.1,0,0.2-0.1,0.2-0.2c0,0,0,0,0,0L157,87h0.4
				c2.2,0.1,4.3-0.1,6.4-0.4l0.4-0.1l1.5,4.2c0,0.1,0.2,0.2,0.3,0.2l5.1-1.4c0.1,0,0.2-0.2,0.2-0.3l-0.9-4.4l0.3-0.1
				c1.8-0.7,3.6-1.6,5.2-2.6l0.3-0.2l2.9,3.3c0,0.1,0.1,0.1,0.2,0.1c0,0,0.1,0,0.1,0l4.2-3.3c0.1-0.1,0.1-0.2,0-0.3l-2.4-3.7
				l0.3-0.3c1.6-1.5,3-3.1,4.2-4.9l0.2-0.3l4,1.9c0.1,0.1,0.3,0,0.3-0.1l2.7-4.7c0-0.1,0-0.1,0-0.2c0-0.1-0.1-0.1-0.1-0.1l-3.7-2.5
				l0.1-0.3c0.8-1.8,1.4-3.7,1.9-5.6l0.1-0.4l4.4,0.3c0.1,0,0.1,0,0.2,0c0,0,0.1-0.1,0.1-0.2l0.7-5.3c0-0.1-0.1-0.2-0.2-0.3l0,0
				l-4.2-0.9V54c0.1-2.2-0.1-4.3-0.4-6.5l-0.1-0.4l4.1-1.5c0.1,0,0.1-0.1,0.2-0.1c0-0.1,0-0.1,0-0.2l-1.4-5.1c0-0.1-0.2-0.2-0.3-0.2
				l-4.2,0.8l-0.1-0.4c-0.7-1.8-1.6-3.6-2.6-5.3l-0.2-0.3l3.2-2.8c0.1,0,0.1-0.1,0.1-0.2c0-0.1,0-0.1,0-0.2l-3.2-4.2
				c-0.1-0.1-0.2-0.1-0.3,0l-3.6,2.3l-0.3-0.3c-1.5-1.6-3.2-3-4.9-4.3l-0.3-0.2l1.8-3.8c0-0.1,0-0.1,0-0.2c0-0.1-0.1-0.1-0.1-0.1
				l-4.6-2.7c-0.1-0.1-0.2,0-0.3,0.1c0,0,0,0,0,0l-2.3,3.5l-0.3-0.2c-1.8-0.8-3.7-1.4-5.7-1.9l-0.4-0.1l0.3-4.2c0-0.1,0-0.1,0-0.2
				c0,0-0.1-0.1-0.1-0.1l-5.3-0.6c-0.1,0-0.2,0.1-0.2,0.2c0,0,0,0,0,0l-0.8,4.1h-0.4c-2.2-0.1-4.4,0.1-6.6,0.5l-0.4,0.1l-1.4-3.9
				c0-0.1-0.1-0.1-0.1-0.2c-0.1,0-0.1,0-0.2,0l-5.2,1.4c-0.1,0-0.2,0.2-0.1,0.3l0.8,4.1l-0.3,0.1c-1.9,0.7-3.6,1.6-5.4,2.7l-0.3,0.2
				l-2.7-3.1c-0.1-0.1-0.2-0.1-0.3-0.1l-4.2,3.3c-0.1,0-0.1,0.1-0.1,0.1c0,0.1,0,0.1,0,0.2L135,28l-0.3,0.3c-1.6,1.5-3,3.2-4.3,5
				l-0.2,0.3l-3.8-1.8c-0.1,0-0.1,0-0.2,0c-0.1,0-0.1,0.1-0.1,0.1l-2.6,4.6c-0.1,0.1,0,0.2,0.1,0.3c0,0,0,0,0,0l3.6,2.3l-0.2,0.3
				c-0.8,1.8-1.4,3.7-1.8,5.6l-0.1,0.4l-4.2-0.3c-0.1,0-0.1,0-0.2,0c0,0-0.1,0.1-0.1,0.1l-0.7,5.3c0,0.1,0,0.1,0,0.2
				c0,0.1,0.1,0.1,0.2,0.1l4.2,0.9v0.4c0,2.2,0.1,4.4,0.5,6.5l0.1,0.4l-4,1.4c-0.1,0-0.2,0.2-0.2,0.3l1.4,5.1c0,0.1,0.1,0.1,0.1,0.1
				c0.1,0,0.1,0,0.2,0l4.3-0.9l0.1,0.3c0.7,1.8,1.6,3.6,2.6,5.3l0.2,0.3l-3.2,2.9c-0.1,0-0.1,0.1-0.1,0.2c0,0.1,0,0.1,0,0.2l3.2,4.2
				c0,0,0.1,0.1,0.1,0.1c0.1,0,0.1,0,0.2,0l3.7-2.4l0.3,0.3c1.5,1.6,3.1,3,4.9,4.2l0.3,0.2l-1.9,4c-0.1,0.1,0,0.2,0.1,0.3
				c0,0,0,0,0,0l4.6,2.6c0.1,0,0.1,0,0.2,0c0.1,0,0.1-0.1,0.1-0.1L144.4,84.1z M158.2,81c-15.5-0.1-28.1-12.7-28-28.2
				s12.7-28.1,28.2-28s28.1,12.7,28,28.2c0,12.6-8.5,23.7-20.7,27C163.2,80.7,160.7,81,158.2,81z M158.2,25.8
				c-15,0-27.1,12.2-27.1,27.2s12.2,27.1,27.2,27.1c15,0,27.1-12.2,27.1-27.2c0-2.4-0.3-4.9-1-7.2C181.1,33.9,170.4,25.7,158.2,25.8
				L158.2,25.8z"/>
		</g>
		<g>
			<path class="st0" d="M160.5,61.5l-4.4-0.1v-6.4c-0.1,0-0.2,0.1-0.3,0.2c-0.3,0.4-0.6,1-0.9,1.6l-1.9,4.6H148l2.3-4.8
				c0.8-1.8,1.7-2.9,2.7-3.5c-0.8-0.6-1.3-1.5-1.4-2.6c-0.1-0.6-0.4-1.1-0.7-1.6c-0.5-0.2-1-0.3-1.6-0.2l-0.4,0v-3.4l0.4,0
				c0.8-0.1,1.3-0.1,1.7-0.1c0.8,0,1.5,0.2,2.2,0.7c0.9,0.9,1.5,2,1.8,3.2c0.2,0.7,0.5,1.5,0.9,2.2c0.1,0.1,0.2,0.2,0.3,0.2v-6.1
				h4.4v6.1c0.1-0.1,0.3-0.2,0.3-0.3c0.4-0.7,0.7-1.4,0.9-2.2c0.3-1.2,0.8-2.2,1.7-3.1c0.8-0.5,1.6-0.8,2.5-0.7c0.3,0,0.7,0,1.5,0.1
				l0.4,0V49l-0.4,0c-0.5-0.1-1.1,0-1.6,0.2c-0.4,0.5-0.6,1-0.7,1.6c-0.2,1-0.7,1.8-1.4,2.4c0.9,0.6,1.8,1.7,2.7,3.5l2.3,4.8h-4.9
				l-1.8-4.7c-0.2-0.6-0.5-1.1-0.8-1.5c-0.1-0.1-0.3-0.2-0.4-0.2V61.5z M149.3,60.7h3.1l1.7-4.1c0.3-0.7,0.6-1.3,1-1.8
				c0.4-0.4,0.9-0.5,1.3-0.5l0.4,0v6.4l2.8,0v-6.5l0.4,0c0.5,0,1,0.2,1.4,0.5c0.5,0.6,0.8,1.2,1,1.8l1.6,4.2h3.1l-1.7-3.6
				c-0.9-2-1.9-3.1-2.8-3.4l-0.9-0.3l0.8-0.5c0.9-0.5,1.5-1.3,1.7-2.3c0.2-0.8,0.5-1.5,1-2.1l0.1-0.1c0.5-0.2,1.1-0.4,1.6-0.4v-1.9
				c-0.5,0-0.9,0-1.1,0c-0.7,0-1.4,0.2-2,0.5c-0.7,0.7-1.2,1.6-1.4,2.7c-0.2,0.9-0.6,1.7-1,2.4c-0.4,0.5-0.9,0.7-1.4,0.7l-0.4,0
				v-6.2h-2.8v6.2l-0.4,0c-0.5,0-1.1-0.2-1.4-0.7c-0.5-0.8-0.8-1.6-1-2.4c-0.2-1.1-0.8-2-1.5-2.7c-0.5-0.3-1.1-0.5-1.8-0.5
				c-0.2,0-0.6,0-1.1,0v1.8c0.6,0,1.1,0.1,1.6,0.4l0.1,0.1c0.5,0.6,0.8,1.3,1,2c0.2,1,0.7,1.9,1.6,2.4l0.8,0.5l-0.9,0.3
				c-1,0.3-1.9,1.4-2.8,3.4L149.3,60.7z"/>
		</g>
		<g>
			<path class="st0" d="M102.6,100.4c-0.1,0-0.3,0-0.4-0.1L99,99.2c-0.3-0.1-0.5-0.3-0.7-0.6c-0.1-0.2-0.1-0.5,0-0.7l0.6-2.1
				c-2.3-1.3-4.4-3-5.9-5.2l-2,0.8c-0.2,0.1-0.4,0.1-0.6,0c-0.3-0.1-0.5-0.3-0.7-0.6l-1.5-3.1c-0.1-0.2-0.2-0.5-0.1-0.8
				c0.1-0.3,0.2-0.5,0.5-0.6l1.9-1c-0.8-2.6-0.9-5.2-0.5-7.9l-2-0.8c-0.2-0.1-0.4-0.2-0.5-0.4c-0.1-0.3-0.1-0.6,0-0.9l1.1-3.2
				c0.1-0.3,0.3-0.5,0.5-0.7c0.2-0.1,0.5-0.1,0.7,0l2.1,0.6c1.3-2.3,3-4.4,5.2-5.9l-0.8-2c-0.1-0.2-0.1-0.4,0-0.7
				c0.1-0.3,0.3-0.5,0.6-0.6l3.1-1.5c0.5-0.3,1.1-0.1,1.4,0.4c0,0,0,0,0,0l1,1.9c2.6-0.8,5.3-0.9,7.9-0.5l0.8-2
				c0.1-0.2,0.3-0.4,0.5-0.5c0.2-0.1,0.5-0.1,0.8,0l3.2,1.1c0.5,0.2,0.8,0.7,0.7,1.2l-0.6,2.1c2.3,1.3,4.4,3,5.9,5.2l2-0.8
				c0.5-0.2,1.1,0.1,1.3,0.6l1.5,3.1c0.1,0.3,0.2,0.6,0.1,0.9c-0.1,0.2-0.2,0.4-0.4,0.5l-1.9,1c0.8,2.5,0.9,5.2,0.5,7.9l2,0.8
				c0.2,0.1,0.4,0.2,0.5,0.5c0.1,0.3,0.1,0.6,0,0.8l-1.1,3.2c-0.1,0.5-0.7,0.9-1.2,0.7c0,0,0,0,0,0l-2-0.6c-1.3,2.3-3,4.4-5.2,5.9
				l0.8,2c0.2,0.5,0,1.1-0.6,1.3l-3.1,1.5c-0.3,0.1-0.6,0.2-0.9,0.1c-0.2-0.1-0.4-0.2-0.5-0.4l-1-1.8c-2.5,0.8-5.2,0.9-7.9,0.5
				l-0.8,2C103.4,100.2,103,100.5,102.6,100.4z M93.2,89.8l0.2,0.2c1.6,2.3,3.6,4.1,6.1,5.4l0.3,0.1l-0.8,2.6c0,0,0,0.1,0,0.1
				c0.1,0.1,0.1,0.2,0.2,0.2l3.2,1.1c0.2,0.1,0.4,0,0.4-0.1l1-2.6l0.3,0.1c2.7,0.5,5.5,0.3,8.1-0.5l0.3-0.1l1.3,2.4
				c0,0,0.1,0.1,0.1,0.1c0.1,0,0.2,0,0.3,0l3.1-1.5c0.2-0.1,0.3-0.3,0.2-0.3l-1.1-2.5l0.2-0.2c2.3-1.6,4.1-3.7,5.4-6.1l0.1-0.3
				l2.6,0.8c0.1,0,0.3-0.1,0.3-0.3l1.1-3.2c0-0.1,0-0.2,0-0.3c0,0,0-0.1-0.1-0.1l0,0l-2.5-1l0.1-0.3c0.5-2.7,0.3-5.5-0.5-8.1
				l-0.1-0.3l2.4-1.3c0,0,0.1-0.1,0.1-0.1c0-0.1,0-0.2,0-0.3l-1.5-3.1c-0.1-0.2-0.3-0.3-0.3-0.2l-2.6,1.1L121,71
				c-1.6-2.3-3.6-4.1-6.1-5.4l-0.3-0.1l0.8-2.7c0-0.1-0.1-0.3-0.3-0.3l-3.2-1.1c-0.1,0-0.2,0-0.3,0c0,0-0.1,0-0.1,0.1l-1,2.6l-0.3,0
				c-2.7-0.5-5.5-0.3-8.1,0.5l-0.3,0.1l-1.3-2.4c0-0.1-0.2-0.1-0.4,0l-3.1,1.5c-0.1,0-0.2,0.1-0.2,0.2c0,0,0,0.1,0,0.1l1.1,2.5
				l-0.2,0.2c-2.3,1.6-4.1,3.6-5.3,6.1L92.2,73l-2.7-0.8c0,0-0.1,0-0.1,0c-0.1,0.1-0.2,0.1-0.2,0.2l-1.2,3.3c0,0.1,0,0.2,0,0.3
				c0,0,0,0.1,0.1,0.1l2.6,1l-0.1,0.3c-0.5,2.7-0.3,5.5,0.5,8.1l0.1,0.3l-2.4,1.3c-0.1,0.1-0.1,0.2-0.1,0.4l1.5,3.1
				c0,0.1,0.1,0.2,0.2,0.2c0,0,0.1,0,0.1,0L93.2,89.8z M107.2,93.8c-7.3,0-13.3-5.9-13.3-13.2s5.9-13.3,13.2-13.3
				s13.3,5.9,13.3,13.2c0,5.1-2.9,9.7-7.4,11.9l0,0C111.2,93.4,109.2,93.8,107.2,93.8L107.2,93.8z M107.2,68
				c-6.9,0-12.5,5.7-12.5,12.6c0,6.9,5.7,12.5,12.6,12.5c6.9,0,12.5-5.7,12.5-12.6c0-1.9-0.4-3.8-1.3-5.5
				C116.4,70.7,112,68,107.2,68L107.2,68z"/>
		</g>
		<g>
			<path class="st0" d="M107.2,90.2c-1.1,0-2.1-0.2-3.1-0.5c-5-1.7-7.7-7.2-5.9-12.3c1.7-5,7.2-7.7,12.3-5.9c5,1.7,7.7,7.2,5.9,12.3
				C115,87.7,111.3,90.3,107.2,90.2L107.2,90.2z M107.2,71.6c-5,0.1-8.9,4.1-8.9,9.1c0,1.3,0.3,2.6,0.9,3.8l0,0
				c2.2,4.5,7.5,6.4,12,4.2c4.5-2.2,6.4-7.5,4.2-12C113.9,73.5,110.7,71.6,107.2,71.6z"/>
		</g>
		<g>
			<path class="st0" d="M111.7,86.2h-2.4v-1.9h-6l0-8.1h2.8v5.8h2v-5.8h2.8v5.8h0.8V86.2z M110.1,85.4h0.8v-2.7h-0.8v-5.8h-1.2v5.8
				h-3.6v-5.8h-1.2l0,6.5h6V85.4z"/>
		</g>
		<g>
			<path class="st0" d="M74.2,66.3c-7.8,0-14.2-6.3-14.2-14.2s6.3-14.2,14.2-14.2S88.3,44.2,88.3,52c0,5.3-2.9,10.1-7.5,12.6l0,0
				C78.8,65.7,76.5,66.3,74.2,66.3z M74.2,38.6c-7.4,0-13.4,6-13.4,13.4c0,7.4,6,13.4,13.4,13.4c2.2,0,4.4-0.5,6.3-1.6l0,0
				c6.5-3.5,9-11.6,5.5-18.1C83.7,41.4,79.1,38.6,74.2,38.6L74.2,38.6z"/>
		</g>
		<g>
			<path class="st0" d="M74.2,66.3c-7.8,0-14.2-6.3-14.2-14.2s6.3-14.2,14.2-14.2c5.3,0,10.1,2.9,12.6,7.5l0,0
				c3.7,6.9,1,15.5-5.9,19.2C78.8,65.7,76.5,66.3,74.2,66.3z M74.2,38.6c-7.4,0-13.4,6-13.4,13.4s6,13.4,13.4,13.4s13.4-6,13.4-13.4
				c0-2.2-0.5-4.3-1.6-6.3l0,0C83.7,41.4,79.1,38.6,74.2,38.6L74.2,38.6z"/>
		</g>
		<g>
			<path class="st0" d="M74.6,77.3c-0.4,0-0.8-0.3-0.8-0.8l-0.3-2.2c-1.1,0-2.1-0.1-3.2-0.3l-0.8,2.1c-0.1,0.2-0.2,0.4-0.4,0.5
				c-0.2,0.1-0.4,0.1-0.6,0.1l-3.2-1c-0.4-0.1-0.7-0.6-0.6-1l0.5-2.1c-1.1-0.5-2.1-1.1-3.1-1.7l-1.5,1.6c-0.1,0.2-0.3,0.3-0.5,0.3
				c-0.2,0-0.4,0-0.6-0.2l-2.6-2.2c-0.3-0.3-0.4-0.8-0.1-1.2l1.3-1.8c-0.7-0.8-1.4-1.6-2-2.5l-2,0.9c-0.2,0.1-0.4,0.1-0.6,0
				c-0.2-0.1-0.4-0.2-0.5-0.4l-1.6-3c-0.2-0.4-0.1-0.9,0.3-1.1c0,0,0,0,0,0l1.8-1.1c-0.4-1.1-0.8-2.3-1-3.5h-2.1
				c-0.2,0-0.4,0-0.6-0.2c-0.2-0.1-0.3-0.3-0.3-0.6l-0.3-3.3c0-0.5,0.3-0.8,0.7-0.9c0,0,0,0,0,0l2-0.3c0-1.1,0.1-2.2,0.3-3.2l-2-0.8
				c-0.4-0.1-0.6-0.6-0.5-1l1-3.2c0.1-0.4,0.6-0.7,1-0.5l2,0.5c0.5-1.1,1.1-2.2,1.7-3.2L54,38.4c-0.3-0.3-0.4-0.8-0.1-1.1
				c0,0,0,0,0,0l2.1-2.6c0.1-0.2,0.3-0.3,0.6-0.3c0.2,0,0.4,0,0.6,0.2l1.6,1.2c0.8-0.7,1.6-1.4,2.5-2l-0.8-1.9
				c-0.1-0.2-0.1-0.4,0-0.6c0.1-0.2,0.2-0.4,0.4-0.5l3-1.6c0.4-0.2,0.9-0.1,1.1,0.3c0,0,0,0,0,0l1.1,1.7c1.1-0.4,2.3-0.8,3.5-1v-2.1
				c0-0.4,0.3-0.8,0.8-0.9l3.4-0.3c0.5,0,0.9,0.3,0.9,0.8l0.3,2c1.1,0,2.2,0.2,3.2,0.4l0.8-1.9c0.1-0.4,0.6-0.6,1-0.5l3.2,1
				c0.2,0.1,0.4,0.2,0.5,0.4c0.1,0.2,0.1,0.4,0.1,0.6l-0.5,2c1.1,0.5,2.2,1.1,3.2,1.7l1.5-1.5c0.1-0.2,0.3-0.3,0.5-0.3
				c0.2,0,0.4,0.1,0.6,0.2l2.6,2.2c0.3,0.3,0.4,0.8,0.1,1.2c0,0,0,0,0,0l-1.2,1.7c0.7,0.8,1.4,1.6,2,2.5l2-0.9
				c0.2-0.1,0.4-0.1,0.6,0c0.2,0.1,0.4,0.2,0.5,0.4l1.6,3c0.2,0.4,0.1,0.9-0.3,1.1l-1.8,1.1c0.4,1.1,0.8,2.3,1,3.4h2.2
				c0.4,0,0.8,0.3,0.9,0.7c0,0,0,0,0,0l0.3,3.3c0,0.5-0.3,0.9-0.8,0.9l-2.2,0.3c-0.1,1.1-0.2,2.1-0.4,3.1l2.1,0.8
				c0.2,0.1,0.4,0.2,0.4,0.4c0.1,0.2,0.1,0.4,0.1,0.6l-1,3.2c-0.1,0.4-0.6,0.7-1,0.5l-2.2-0.5c-0.5,1.1-1.1,2.1-1.7,3.1l1.6,1.6
				c0.3,0.3,0.4,0.8,0.1,1.1l-2.2,2.6c-0.3,0.3-0.8,0.4-1.2,0.1l-1.8-1.3c-0.8,0.7-1.6,1.4-2.5,2l0.9,2.1c0.1,0.2,0.1,0.4,0,0.6
				c-0.1,0.2-0.2,0.4-0.4,0.5l-3,1.6c-0.4,0.2-0.9,0.1-1.1-0.3c0,0,0,0,0,0l-1.1-1.9c-1.1,0.4-2.2,0.8-3.4,1v2.3
				c0,0.4-0.3,0.8-0.8,0.9L74.6,77.3L74.6,77.3z M69.8,73.1l0.3,0.1c1.2,0.2,2.4,0.4,3.7,0.4h0.3l0.4,2.9l3.4-0.2v-3l0.3-0.1
				c1.3-0.3,2.6-0.6,3.9-1.2l0.3-0.1l1.5,2.5l3-1.5l-1.2-2.7l0.3-0.2c1-0.7,2-1.5,2.9-2.3l0.2-0.2l2.3,1.7l2.2-2.6l-2.1-2.1l0.2-0.3
				c0.8-1.1,1.4-2.3,2-3.6l0.1-0.3l2.8,0.7l1-3.2l-2.7-1.1l0.1-0.3c0.2-1.2,0.4-2.5,0.4-3.7v-0.3l2.8-0.5l-0.2-3.4l0,0l0,0h-2.9
				L95.3,48c-0.3-1.4-0.6-2.7-1.2-4l-0.1-0.3l2.4-1.5l-1.6-3l-2.6,1.1l-0.2-0.3c-0.7-1-1.5-2-2.3-2.9L89.5,37l1.6-2.3l-2.6-2.3l-2,2
				l-0.3-0.2c-1.1-0.8-2.4-1.5-3.6-2l-0.3-0.1l0.6-2.7l-3.3-1.1l-1,2.6l-0.3-0.1c-1.2-0.2-2.5-0.4-3.8-0.4h-0.4l-0.4-2.7L70.4,28
				v2.8l-0.3,0.1c-1.4,0.3-2.7,0.7-4,1.2l-0.3,0.1l-1.4-2.3l-3,1.5l1.1,2.6l-0.3,0.2c-1,0.7-2,1.5-2.9,2.4L59,36.8l-2.2-1.6
				l-2.3,2.6l2,2l-0.2,0.3c-0.8,1.1-1.5,2.4-2,3.7L54.2,44l-2.7-0.6l-1,3.2l2.6,1V48c-0.2,1.2-0.4,2.5-0.4,3.7v0.3l-2.7,0.4l0.2,3.4
				H53l0.1,0.3c0.3,1.4,0.7,2.7,1.2,4l0.1,0.3L52,62l1.6,3l2.7-1.2l0.2,0.3c0.7,1,1.5,2,2.4,2.9l0.2,0.2l-1.7,2.4l2.6,2.2l2-2.1
				l0.3,0.2c1.1,0.8,2.3,1.4,3.6,1.9l0.3,0.1l-0.6,2.8l3.3,1.1L69.8,73.1z M74.2,70c-1.8,0-3.6-0.3-5.3-0.8
				C59.5,66.3,54.1,56.3,57,46.8c2.9-9.5,12.9-14.8,22.4-11.9c9.5,2.9,14.8,12.9,11.9,22.4c-1.4,4.5-4.5,8.3-8.7,10.6l0,0
				C80,69.2,77.1,70,74.2,70z M74.1,35C64.7,35,57,42.6,57,52.1c0,9.4,7.7,17.1,17.1,17.1c2.8,0,5.6-0.7,8.1-2l0,0
				c8.3-4.4,11.5-14.8,7.1-23.1C86.3,38.4,80.5,34.9,74.1,35L74.1,35z"/>
		</g>
		<g>
			<path class="st0" d="M74.2,66.3c-7.8,0-14.2-6.3-14.2-14.2s6.3-14.2,14.2-14.2S88.3,44.2,88.3,52c0,5.3-2.9,10.1-7.5,12.6l0,0
				C78.8,65.7,76.5,66.3,74.2,66.3z M74.2,38.6c-7.4,0-13.4,6-13.4,13.4c0,7.4,6,13.4,13.4,13.4c2.2,0,4.4-0.5,6.3-1.6l0,0
				c6.5-3.5,9-11.6,5.5-18.1C83.7,41.4,79.1,38.6,74.2,38.6L74.2,38.6z"/>
		</g>
		<g>
			<path class="st0" d="M77,60.4h-6.9V47.7h-3.8v-4.2h7.6v6.7h2.7c1,0,2,0.1,2.9,0.4c0.8,0.4,1.5,1,1.8,1.8c0.5,0.9,0.7,1.9,0.7,3
				c0,1.3-0.3,2.5-1.1,3.6C80.2,59.9,78.9,60.4,77,60.4z M70.9,59.6H77c1.6,0,2.8-0.4,3.3-1.2c0.6-0.9,1-2,0.9-3.1
				c0-0.9-0.2-1.8-0.6-2.6c-0.3-0.6-0.8-1.1-1.4-1.4c-0.8-0.2-1.7-0.4-2.6-0.3l-3.5,0v-6.7h-6.1v2.6h3.8V59.6z M76.4,57.7h-3.2
				l0-4.8h2.4c0.8-0.1,1.7,0.1,2.5,0.5c0.6,0.5,0.9,1.2,0.9,2c0,0.5-0.1,1.1-0.4,1.6C78.1,57.4,77.4,57.7,76.4,57.7z M73.9,56.9h2.5
				c0.7,0,1.2-0.1,1.4-0.4c0.2-0.4,0.3-0.8,0.3-1.2c0-0.5-0.1-1-0.5-1.3c-0.6-0.3-1.3-0.4-2-0.3l-1.6,0L73.9,56.9z"/>
		</g>
		<g class="st1">
			<path class="st0" d="M68.2,115.7c-0.2-0.1-0.4-0.2-0.7-0.2c-0.5,0-0.9,0.3-1.3,0.8c-0.3,0.5-0.5,1.3-0.5,2.3v3.1h-0.6v-6.5h0.6
				v1.4h0c0.1-0.5,0.4-0.9,0.7-1.2c0.3-0.3,0.7-0.4,1.1-0.4c0.2,0,0.5,0,0.6,0.1V115.7z"/>
			<path class="st0" d="M73.7,121.6v-1.2h0c-0.5,0.9-1.2,1.3-2.1,1.3c-1.5,0-2.3-1-2.3-2.9v-3.8h0.6v3.6c0,0.9,0.1,1.5,0.4,1.9
				c0.3,0.4,0.7,0.6,1.4,0.6c0.6,0,1.1-0.2,1.5-0.7c0.4-0.4,0.6-1,0.6-1.8v-3.7h0.6v6.5H73.7z"/>
			<path class="st0" d="M76,121.3v-0.7c0.2,0.2,0.5,0.3,0.8,0.5c0.3,0.1,0.6,0.2,0.8,0.2c1,0,1.5-0.4,1.5-1.3c0-0.3-0.1-0.5-0.3-0.7
				c-0.2-0.2-0.6-0.4-1.1-0.6c-0.6-0.3-1.1-0.6-1.3-0.8c-0.3-0.3-0.4-0.6-0.4-1.1c0-0.5,0.2-1,0.6-1.3c0.4-0.3,0.9-0.5,1.5-0.5
				c0.6,0,1,0.1,1.4,0.3v0.7c-0.5-0.3-1-0.5-1.5-0.5c-0.4,0-0.8,0.1-1,0.3c-0.3,0.2-0.4,0.5-0.4,0.9c0,0.3,0.1,0.6,0.2,0.8
				s0.5,0.4,1.1,0.7c0.7,0.3,1.1,0.6,1.4,0.8c0.3,0.3,0.4,0.6,0.4,1c0,0.5-0.2,0.9-0.6,1.3c-0.4,0.3-0.9,0.5-1.6,0.5
				C77,121.8,76.4,121.6,76,121.3z"/>
			<path class="st0" d="M81.1,121.3v-0.7c0.2,0.2,0.5,0.3,0.8,0.5c0.3,0.1,0.6,0.2,0.8,0.2c1,0,1.5-0.4,1.5-1.3
				c0-0.3-0.1-0.5-0.3-0.7c-0.2-0.2-0.6-0.4-1.1-0.6c-0.6-0.3-1.1-0.6-1.3-0.8s-0.4-0.6-0.4-1.1c0-0.5,0.2-1,0.6-1.3
				s0.9-0.5,1.5-0.5c0.6,0,1,0.1,1.4,0.3v0.7c-0.5-0.3-1-0.5-1.5-0.5c-0.4,0-0.8,0.1-1,0.3c-0.3,0.2-0.4,0.5-0.4,0.9
				c0,0.3,0.1,0.6,0.2,0.8s0.5,0.4,1.1,0.7c0.7,0.3,1.1,0.6,1.4,0.8c0.3,0.3,0.4,0.6,0.4,1c0,0.5-0.2,0.9-0.6,1.3
				c-0.4,0.3-0.9,0.5-1.6,0.5C82,121.8,81.5,121.6,81.1,121.3z"/>
			<path class="st0" d="M86.7,113.5c-0.1,0-0.2,0-0.3-0.1c-0.1-0.1-0.1-0.2-0.1-0.4c0-0.1,0-0.3,0.1-0.3c0.1-0.1,0.2-0.1,0.3-0.1
				c0.1,0,0.2,0,0.3,0.1s0.1,0.2,0.1,0.3c0,0.1,0,0.3-0.1,0.3C87,113.4,86.9,113.5,86.7,113.5z M86.4,121.6v-6.5H87v6.5H86.4z"/>
			<path class="st0" d="M93,121.6v-1.3h0c-0.2,0.4-0.5,0.8-0.9,1.1s-0.8,0.4-1.3,0.4c-0.6,0-1.1-0.2-1.5-0.5
				c-0.4-0.3-0.5-0.8-0.5-1.3c0-1.1,0.8-1.8,2.3-2.1l2-0.3c0-1.4-0.5-2.1-1.6-2.1c-0.7,0-1.4,0.3-2.1,0.9v-0.7
				c0.2-0.2,0.6-0.4,1-0.5c0.4-0.1,0.8-0.2,1.2-0.2c0.7,0,1.2,0.2,1.6,0.6c0.4,0.4,0.5,1,0.5,1.8v4.2H93z M91.2,118.4
				c-0.7,0.1-1.2,0.3-1.4,0.5c-0.3,0.2-0.4,0.6-0.4,1.1c0,0.4,0.1,0.7,0.4,1s0.6,0.4,1.1,0.4c0.6,0,1.1-0.2,1.6-0.7
				c0.4-0.5,0.6-1.1,0.6-1.8v-0.6L91.2,118.4z"/>
			<path class="st0" d="M100,121.6v-3.8c0-1.6-0.6-2.3-1.7-2.3c-0.6,0-1.1,0.2-1.5,0.7c-0.4,0.5-0.6,1-0.6,1.7v3.7h-0.6v-6.5h0.6
				v1.2h0c0.5-0.9,1.2-1.3,2.2-1.3c0.7,0,1.2,0.2,1.6,0.7c0.4,0.5,0.6,1.1,0.6,2v4H100z"/>
			<path class="st0" d="M108.6,121.5c-0.3,0.1-0.6,0.2-0.9,0.2c-1,0-1.4-0.6-1.4-1.7v-4.4h-1.2v-0.5h1.2v-1.7c0.1,0,0.2-0.1,0.3-0.1
				c0.1,0,0.2-0.1,0.3-0.1v1.9h1.7v0.5h-1.7v4.3c0,0.4,0.1,0.8,0.2,1s0.4,0.3,0.7,0.3c0.2,0,0.5-0.1,0.8-0.2V121.5z"/>
			<path class="st0" d="M110.1,118.4c0,0.9,0.2,1.6,0.6,2.1c0.4,0.5,1,0.8,1.7,0.8c0.7,0,1.4-0.3,2.1-0.8v0.6
				c-0.7,0.5-1.4,0.7-2.3,0.7c-0.8,0-1.5-0.3-2-0.9c-0.5-0.6-0.8-1.5-0.8-2.5c0-0.9,0.3-1.7,0.8-2.4c0.5-0.6,1.2-1,2.1-1
				c0.8,0,1.4,0.3,1.9,0.8c0.4,0.6,0.6,1.3,0.6,2.3v0.3H110.1z M114.3,117.8c0-0.7-0.2-1.3-0.5-1.7c-0.3-0.4-0.8-0.6-1.4-0.6
				c-0.6,0-1.1,0.2-1.5,0.6c-0.4,0.4-0.6,1-0.7,1.8H114.3z"/>
			<path class="st0" d="M118.5,118.4l2.1,3.2h-0.7l-1.7-2.7h0l-0.2,0.4c0,0.1-0.1,0.1-0.1,0.2l-1.4,2.2h-0.7l2.2-3.2l-2.1-3.3h0.7
				l1.4,2.3c0.2,0.3,0.3,0.5,0.3,0.6h0l0.3-0.5l1.5-2.4h0.7L118.5,118.4z"/>
			<path class="st0" d="M124.5,121.5c-0.3,0.1-0.6,0.2-0.9,0.2c-1,0-1.4-0.6-1.4-1.7v-4.4h-1.2v-0.5h1.2v-1.7c0.1,0,0.2-0.1,0.3-0.1
				c0.1,0,0.2-0.1,0.3-0.1v1.9h1.7v0.5h-1.7v4.3c0,0.4,0.1,0.8,0.2,1s0.4,0.3,0.7,0.3c0.2,0,0.5-0.1,0.8-0.2V121.5z"/>
			<path class="st0" d="M133.3,121.6v-1.3h0c-0.2,0.4-0.5,0.8-0.9,1.1s-0.8,0.4-1.3,0.4c-0.6,0-1.1-0.2-1.5-0.5
				c-0.4-0.3-0.5-0.8-0.5-1.3c0-1.1,0.8-1.8,2.3-2.1l2-0.3c0-1.4-0.5-2.1-1.6-2.1c-0.7,0-1.4,0.3-2.1,0.9v-0.7
				c0.2-0.2,0.6-0.4,1-0.5c0.4-0.1,0.8-0.2,1.2-0.2c0.7,0,1.2,0.2,1.6,0.6c0.4,0.4,0.5,1,0.5,1.8v4.2H133.3z M131.5,118.4
				c-0.7,0.1-1.2,0.3-1.4,0.5c-0.3,0.2-0.4,0.6-0.4,1.1c0,0.4,0.1,0.7,0.4,1s0.6,0.4,1.1,0.4c0.6,0,1.1-0.2,1.6-0.7
				c0.4-0.5,0.6-1.1,0.6-1.8v-0.6L131.5,118.4z"/>
			<path class="st0" d="M140.2,121.6v-3.8c0-1.6-0.6-2.3-1.7-2.3c-0.6,0-1.1,0.2-1.5,0.7c-0.4,0.5-0.6,1-0.6,1.7v3.7h-0.6v-6.5h0.6
				v1.2h0c0.5-0.9,1.2-1.3,2.2-1.3c0.7,0,1.2,0.2,1.6,0.7c0.4,0.5,0.6,1.1,0.6,2v4H140.2z"/>
			<path class="st0" d="M146.6,121.6v-1.3h0c-0.2,0.4-0.5,0.8-0.9,1.1s-0.8,0.4-1.3,0.4c-0.6,0-1.1-0.2-1.5-0.5
				c-0.4-0.3-0.5-0.8-0.5-1.3c0-1.1,0.8-1.8,2.3-2.1l2-0.3c0-1.4-0.5-2.1-1.6-2.1c-0.7,0-1.4,0.3-2.1,0.9v-0.7
				c0.2-0.2,0.6-0.4,1-0.5c0.4-0.1,0.8-0.2,1.2-0.2c0.7,0,1.2,0.2,1.6,0.6c0.4,0.4,0.5,1,0.5,1.8v4.2H146.6z M144.8,118.4
				c-0.7,0.1-1.2,0.3-1.4,0.5c-0.3,0.2-0.4,0.6-0.4,1.1c0,0.4,0.1,0.7,0.4,1s0.6,0.4,1.1,0.4c0.6,0,1.1-0.2,1.6-0.7
				c0.4-0.5,0.6-1.1,0.6-1.8v-0.6L144.8,118.4z"/>
			<path class="st0" d="M149.2,121.6V112h0.6v9.6H149.2z"/>
			<path class="st0" d="M153.4,122.9c-0.2,0.6-0.5,1-0.8,1.3c-0.3,0.3-0.7,0.4-1.1,0.4c-0.2,0-0.4,0-0.5-0.1V124
				c0.2,0.1,0.3,0.1,0.5,0.1c0.5,0,0.9-0.4,1.2-1.1l0.6-1.4l-2.5-6.4h0.7l2,5.3c0,0.1,0.1,0.2,0.1,0.3c0,0.1,0,0.2,0.1,0.2h0
				l0.2-0.4l2.1-5.3h0.6L153.4,122.9z"/>
			<path class="st0" d="M157.4,121.3v-0.7c0.2,0.2,0.5,0.3,0.8,0.5c0.3,0.1,0.6,0.2,0.8,0.2c1,0,1.5-0.4,1.5-1.3
				c0-0.3-0.1-0.5-0.3-0.7c-0.2-0.2-0.6-0.4-1.1-0.6c-0.6-0.3-1.1-0.6-1.3-0.8c-0.3-0.3-0.4-0.6-0.4-1.1c0-0.5,0.2-1,0.6-1.3
				c0.4-0.3,0.9-0.5,1.5-0.5c0.6,0,1,0.1,1.4,0.3v0.7c-0.5-0.3-1-0.5-1.5-0.5c-0.4,0-0.8,0.1-1,0.3c-0.3,0.2-0.4,0.5-0.4,0.9
				c0,0.3,0.1,0.6,0.2,0.8s0.5,0.4,1.1,0.7c0.7,0.3,1.1,0.6,1.4,0.8c0.3,0.3,0.4,0.6,0.4,1c0,0.5-0.2,0.9-0.6,1.3
				c-0.4,0.3-0.9,0.5-1.6,0.5C158.3,121.8,157.8,121.6,157.4,121.3z"/>
			<path class="st0" d="M162.9,118.4c0,0.9,0.2,1.6,0.6,2.1c0.4,0.5,1,0.8,1.7,0.8c0.7,0,1.4-0.3,2.1-0.8v0.6
				c-0.7,0.5-1.4,0.7-2.3,0.7c-0.8,0-1.5-0.3-2-0.9c-0.5-0.6-0.8-1.5-0.8-2.5c0-0.9,0.3-1.7,0.8-2.4c0.5-0.6,1.2-1,2.1-1
				c0.8,0,1.4,0.3,1.9,0.8c0.4,0.6,0.6,1.3,0.6,2.3v0.3H162.9z M167.1,117.8c0-0.7-0.2-1.3-0.5-1.7c-0.3-0.4-0.8-0.6-1.4-0.6
				c-0.6,0-1.1,0.2-1.5,0.6c-0.4,0.4-0.6,1-0.7,1.8H167.1z"/>
			<path class="st0" d="M172.4,115.7c-0.2-0.1-0.4-0.2-0.7-0.2c-0.5,0-0.9,0.3-1.3,0.8c-0.3,0.5-0.5,1.3-0.5,2.3v3.1h-0.6v-6.5h0.6
				v1.4h0c0.1-0.5,0.4-0.9,0.7-1.2c0.3-0.3,0.7-0.4,1.1-0.4c0.2,0,0.5,0,0.6,0.1V115.7z"/>
		</g>
	</g>
</g>
</svg>
