<svg xmlns="http://www.w3.org/2000/svg" viewBox="0 0 120.79 101.34"><defs><style>.cls-1{fill:#606060;}.cls-2,.cls-3{fill:none;stroke-miterlimit:10;}.cls-2{stroke:#fff;stroke-width:1.2px;}.cls-3{stroke:#606060;stroke-linecap:round;stroke-width:0.64px;}</style></defs><title>eye</title><g id="Layer_2" data-name="Layer 2"><g id="Layer_1-2" data-name="Layer 1"><path class="cls-1" d="M60.08,52.45c-31.39,0-57.23-25.75-57.48-26l-.21-.21L2.6,26c.26-.26,26.09-26,57.48-26s57.22,25.75,57.48,26l.21.21-.21.21C117.31,26.7,91.47,52.45,60.08,52.45ZM3.24,26.23c2.54,2.47,27.21,25.63,56.84,25.63s54.3-23.16,56.84-25.63C114.38,23.76,89.71.6,60.08.6S5.78,23.76,3.24,26.23Z"/><path class="cls-2" d="M81.35,25.07"/><path class="cls-1" d="M49.31,27.23,40,26.61a.3.3,0,0,1,0-.6l8.71.58A13,13,0,0,1,61.34,14l-.49-8.21a.3.3,0,0,1,.28-.32.32.32,0,0,1,.32.28L62,14.57h-.32A12.35,12.35,0,0,0,49.31,26.91Z"/><path class="cls-1" d="M40,26.63h0a.3.3,0,0,1-.28-.31c.63-11.63,10-21,21.41-21.36h0a.3.3,0,0,1,0,.6c-10.88.33-20.23,9.66-20.83,20.79A.3.3,0,0,1,40,26.63Z"/><path class="cls-2" d="M59.69,46.74"/><path class="cls-1" d="M59.08,45.78a.3.3,0,0,1-.3-.28l-.71-9.34h.32A12.35,12.35,0,0,0,70.62,23.71v-.32l8.85.44a.3.3,0,0,1,.28.31.29.29,0,0,1-.31.28L71.22,24a13,13,0,0,1-12.5,12.73l.66,8.71a.3.3,0,0,1-.28.32Z"/><path class="cls-1" d="M59.08,45.75a.3.3,0,0,1,0-.6c11.13-.71,20.36-10.15,20.59-21a.3.3,0,0,1,.3-.29h0a.3.3,0,0,1,.29.31C80,35.51,70.72,45,59.1,45.75Z"/><path class="cls-3" d="M12.17,90.51q-5.57,0-8.71-3.35T.32,77.93q0-6,2.91-9.48a9.92,9.92,0,0,1,8-3.45,9.68,9.68,0,0,1,7.47,3q2.74,3,2.74,8.15v2.83H5.54a8.24,8.24,0,0,0,1.88,5.51,6.43,6.43,0,0,0,5,1.93A17.85,17.85,0,0,0,16.35,86a20.19,20.19,0,0,0,3.92-1.37v4.25a15.21,15.21,0,0,1-3.76,1.29A22.36,22.36,0,0,1,12.17,90.51ZM11.24,69a5,5,0,0,0-3.88,1.58,7.66,7.66,0,0,0-1.74,4.61H16.46A7,7,0,0,0,15,70.53,4.8,4.8,0,0,0,11.24,69Z"/><path class="cls-3" d="M23.59,65.44h5.53L34,79.4A27.17,27.17,0,0,1,35.44,85h.17a24.06,24.06,0,0,1,.71-3q.52-1.75,5.48-16.6h5.48L37.08,93.34Q34.3,101,27.8,101a14.19,14.19,0,0,1-3.28-.38V96.5a11.56,11.56,0,0,0,2.61.27q3.67,0,5.16-4.39l.88-2.32Z"/><path class="cls-3" d="M61.34,90.51q-5.57,0-8.71-3.35t-3.14-9.23q0-6,2.91-9.48a9.92,9.92,0,0,1,8-3.45,9.68,9.68,0,0,1,7.47,3q2.74,3,2.74,8.15v2.83H54.72a8.24,8.24,0,0,0,1.88,5.51,6.43,6.43,0,0,0,5,1.93A17.85,17.85,0,0,0,65.52,86a20.19,20.19,0,0,0,3.92-1.37v4.25a15.21,15.21,0,0,1-3.76,1.29A22.36,22.36,0,0,1,61.34,90.51ZM60.42,69a5,5,0,0,0-3.88,1.58,7.66,7.66,0,0,0-1.74,4.61H65.64a7,7,0,0,0-1.42-4.62A4.8,4.8,0,0,0,60.42,69Z"/><path class="cls-3" d="M109.31,67.35q0,5.1-3.24,7.81t-9.22,2.72H93.57V90.06H88.41V57.51H97.5q5.91,0,8.86,2.49T109.31,67.35ZM93.57,73.41h2.74q4,0,5.83-1.42A5.26,5.26,0,0,0,104,67.53a5.13,5.13,0,0,0-1.66-4.19Q100.67,62,97.16,62H93.57Z"/><path class="cls-3" d="M114.77,58.92a3,3,0,0,1,.74-2.16,2.85,2.85,0,0,1,2.13-.76,2.79,2.79,0,0,1,2.08.76,3,3,0,0,1,.74,2.16,2.9,2.9,0,0,1-.74,2.1,2.77,2.77,0,0,1-2.08.77,2.83,2.83,0,0,1-2.13-.77A2.9,2.9,0,0,1,114.77,58.92Zm5.38,31.15h-5.07V65.44h5.07Z"/><path class="cls-1" d="M59.69,34.11a8.6,8.6,0,1,1,8.6-8.6A8.61,8.61,0,0,1,59.69,34.11Zm0-16.6a8,8,0,1,0,8,8A8,8,0,0,0,59.69,17.5Z"/><path class="cls-1" d="M60.08,52.45c-31.39,0-57.23-25.75-57.48-26l-.21-.21L2.6,26c.26-.26,26.09-26,57.48-26s57.22,25.75,57.48,26l.21.21-.21.21C117.31,26.7,91.47,52.45,60.08,52.45ZM3.24,26.23c2.54,2.47,27.21,25.63,56.84,25.63s54.3-23.16,56.84-25.63C114.38,23.76,89.71.6,60.08.6S5.78,23.76,3.24,26.23Z"/><path class="cls-1" d="M59.69,48.29A22.79,22.79,0,1,1,82.47,25.5,22.82,22.82,0,0,1,59.69,48.29Zm0-45A22.19,22.19,0,1,0,81.88,25.5,22.22,22.22,0,0,0,59.69,3.31Z"/></g></g></svg>