<?xml version="1.0" encoding="utf-8"?>
<!-- Generator: Adobe Illustrator 21.0.2, SVG Export Plug-In . SVG Version: 6.00 Build 0)  -->
<svg version="1.1" id="Layer_1" xmlns="http://www.w3.org/2000/svg" xmlns:xlink="http://www.w3.org/1999/xlink" x="0px" y="0px"
	 viewBox="0 0 187.3 101.3" style="enable-background:new 0 0 187.3 101.3;" xml:space="preserve">
<style type="text/css">
	.st0{fill:#606060;}
	.st1{fill:none;stroke:#FFFFFF;stroke-width:1.2;stroke-miterlimit:10;}
	.st2{fill:none;stroke:#606060;stroke-width:0.64;stroke-linecap:round;stroke-miterlimit:10;}
</style>
<title>eye</title>
<g id="Layer_2">
	<g id="Layer_1-2">
		<path class="st0" d="M93.3,52.5c-31.4,0-57.2-25.8-57.5-26l-0.2-0.2l0.2-0.2c0.3-0.3,26.1-26,57.5-26s57.2,25.8,57.5,26l0.2,0.2
			l-0.2,0.2C150.5,26.7,124.7,52.5,93.3,52.5z M36.5,26.2c2.5,2.5,27.2,25.6,56.8,25.6s54.3-23.2,56.8-25.6
			c-2.5-2.5-27.2-25.6-56.8-25.6S39,23.8,36.5,26.2z"/>
		<path class="st1" d="M114.6,25.1"/>
		<path class="st0" d="M82.5,27.2l-9.3-0.6c-0.2,0-0.3-0.1-0.3-0.3c0-0.2,0.1-0.3,0.3-0.3l8.7,0.6c0.2-6.9,5.8-12.4,12.6-12.6
			l-0.5-8.2c0-0.2,0.1-0.3,0.3-0.3c0,0,0,0,0,0c0.2,0,0.3,0.1,0.3,0.3l0.6,8.8h-0.3c-6.8,0-12.4,5.5-12.4,12.3c0,0,0,0,0,0V27.2z"/>
		<path class="st0" d="M73.2,26.6L73.2,26.6c-0.2,0-0.3-0.1-0.3-0.3C73.6,14.7,83,5.3,94.4,5l0,0c0.2,0,0.3,0.1,0.3,0.3
			c0,0.2-0.1,0.3-0.3,0.3c-10.9,0.3-20.2,9.7-20.8,20.8C73.5,26.5,73.4,26.6,73.2,26.6z"/>
		<path class="st1" d="M92.9,46.7"/>
		<path class="st0" d="M92.3,45.8c-0.2,0-0.3-0.1-0.3-0.3l-0.7-9.3h0.3c6.8-0.1,12.3-5.6,12.2-12.5v-0.3l8.8,0.4
			c0.2,0,0.3,0.1,0.3,0.3c0,0.2-0.1,0.3-0.3,0.3c0,0,0,0,0,0l-8.2-0.4c-0.1,6.9-5.6,12.5-12.5,12.7l0.7,8.7
			C92.6,45.6,92.5,45.7,92.3,45.8C92.3,45.8,92.3,45.8,92.3,45.8L92.3,45.8z"/>
		<path class="st0" d="M92.3,45.8c-0.2,0-0.3-0.1-0.3-0.3c0-0.2,0.1-0.3,0.3-0.3c11.1-0.7,20.4-10.2,20.6-21c0-0.2,0.1-0.3,0.3-0.3
			l0,0c0.2,0,0.3,0.1,0.3,0.3c0,0,0,0,0,0C113.2,35.5,104,45,92.3,45.8L92.3,45.8z"/>
		<path class="st2" d="M45.4,90.5c-3.7,0-6.6-1.1-8.7-3.3s-3.1-5.3-3.1-9.2c0-4,1-7.2,2.9-9.5c2-2.3,4.9-3.6,8-3.4
			c2.8-0.1,5.5,1,7.5,3c1.8,2,2.7,4.7,2.7,8.2V79H38.8c-0.1,2,0.6,4,1.9,5.5c1.3,1.3,3.1,2,5,1.9c1.3,0,2.6-0.1,3.9-0.4
			c1.4-0.3,2.7-0.8,3.9-1.4v4.3c-1.2,0.6-2.5,1-3.8,1.3C48.3,90.4,46.9,90.5,45.4,90.5z M44.5,69c-1.5-0.1-2.9,0.5-3.9,1.6
			c-1.1,1.3-1.7,2.9-1.7,4.6h10.8c0.1-1.7-0.4-3.3-1.5-4.7C47.3,69.5,45.9,68.9,44.5,69z"/>
		<path class="st2" d="M56.8,65.4h5.5l4.9,14c0.7,1.8,1.2,3.7,1.4,5.6h0.2c0.2-1,0.4-2,0.7-3c0.3-1.2,2.2-6.7,5.5-16.6h5.5
			L70.3,93.3c-1.9,5.1-4.9,7.7-9.3,7.7c-1.1,0-2.2-0.1-3.3-0.4v-4.1c0.9,0.2,1.7,0.3,2.6,0.3c2.4,0,4.2-1.5,5.2-4.4l0.9-2.3
			L56.8,65.4z"/>
		<path class="st2" d="M94.6,90.5c-3.7,0-6.6-1.1-8.7-3.3c-2.1-2.2-3.1-5.3-3.1-9.2c0-4,1-7.2,2.9-9.5c2-2.3,4.9-3.6,8-3.4
			c2.8-0.1,5.5,1,7.5,3c1.8,2,2.7,4.7,2.7,8.2V79H88c-0.1,2,0.6,4,1.9,5.5c1.3,1.3,3.1,2,5,1.9c1.3,0,2.6-0.1,3.9-0.4
			c1.4-0.3,2.7-0.8,3.9-1.4v4.3c-1.2,0.6-2.5,1-3.8,1.3C97.5,90.4,96,90.5,94.6,90.5z M93.7,69c-1.5-0.1-2.9,0.5-3.9,1.6
			c-1.1,1.3-1.7,2.9-1.7,4.6h10.8c0.1-1.7-0.4-3.3-1.4-4.6C96.5,69.5,95.1,68.9,93.7,69z"/>
		<path class="st2" d="M142.5,67.3c0,3.4-1.1,6-3.2,7.8c-2.2,1.8-5.2,2.7-9.2,2.7h-3.3v12.2h-5.2V57.5h9.1c3.9,0,6.9,0.8,8.9,2.5
			C141.6,61.7,142.5,64.1,142.5,67.3z M126.8,73.4h2.7c2.7,0,4.6-0.5,5.8-1.4c1.3-1.1,2-2.8,1.9-4.5c0.1-1.6-0.5-3.1-1.7-4.2
			c-1.1-0.9-2.8-1.3-5.2-1.3h-3.6V73.4z"/>
		<path class="st2" d="M148,58.9c0-0.8,0.2-1.6,0.7-2.2c0.6-0.5,1.3-0.8,2.1-0.8c0.8,0,1.5,0.2,2.1,0.8c0.5,0.6,0.8,1.4,0.7,2.2
			c0,0.8-0.2,1.5-0.7,2.1c-0.6,0.5-1.3,0.8-2.1,0.8c-0.8,0.1-1.6-0.2-2.1-0.8C148.2,60.4,148,59.7,148,58.9z M153.4,90.1h-5.1V65.4
			h5.1V90.1z"/>
		<path class="st0" d="M92.9,34.1c-4.7,0-8.6-3.9-8.6-8.6s3.9-8.6,8.6-8.6s8.6,3.9,8.6,8.6C101.5,30.3,97.7,34.1,92.9,34.1z
			 M92.9,17.5c-4.4,0-8,3.6-8,8c0,4.4,3.6,8,8,8c4.4,0,8-3.6,8-8C100.9,21.1,97.4,17.5,92.9,17.5C92.9,17.5,92.9,17.5,92.9,17.5
			L92.9,17.5z"/>
		<path class="st0" d="M93.3,52.5c-31.4,0-57.2-25.8-57.5-26l-0.2-0.2l0.2-0.2c0.3-0.3,26.1-26,57.5-26s57.2,25.8,57.5,26l0.2,0.2
			l-0.2,0.2C150.5,26.7,124.7,52.5,93.3,52.5z M36.5,26.2c2.5,2.5,27.2,25.6,56.8,25.6s54.3-23.2,56.8-25.6
			c-2.5-2.5-27.2-25.6-56.8-25.6S39,23.8,36.5,26.2z"/>
		<path class="st0" d="M92.9,48.3c-12.6,0-22.8-10.2-22.8-22.8c0-12.6,10.2-22.8,22.8-22.8s22.8,10.2,22.8,22.8c0,0,0,0,0,0
			C115.7,38.1,105.5,48.3,92.9,48.3z M92.9,3.3c-12.3,0-22.2,9.9-22.2,22.2c0,12.3,9.9,22.2,22.2,22.2c12.2,0,22.2-9.9,22.2-22.2
			C115.1,13.3,105.2,3.3,92.9,3.3L92.9,3.3z"/>
	</g>
</g>
</svg>
