<?xml version="1.0" encoding="utf-8"?>
<!-- Generator: Adobe Illustrator 21.0.2, SVG Export Plug-In . SVG Version: 6.00 Build 0)  -->
<svg version="1.1" id="Layer_1" xmlns="http://www.w3.org/2000/svg" xmlns:xlink="http://www.w3.org/1999/xlink" x="0px" y="0px"
	 viewBox="0 0 170 206" style="enable-background:new 0 0 170 206;" xml:space="preserve">
<style type="text/css">
	.st0{fill:none;stroke:#606060;stroke-miterlimit:10;}
	.st1{fill:#606060;}
</style>
<path id="github_contact_icon" class="st0" d="M81.2,8.9c-40,0-72.5,32.5-72.5,72.5c0,32,20.8,59.2,49.6,68.8c3.6,0.7,5-1.6,5-3.5
	c0-1.7-0.1-7.4-0.1-13.5c-20.2,4.4-24.4-8.6-24.4-8.6c-3.3-8.4-8-10.6-8-10.6c-6.6-4.5,0.5-4.4,0.5-4.4c7.3,0.5,11.1,7.5,11.1,7.5
	c6.5,11.1,17,7.9,21.1,6c0.7-4.7,2.5-7.9,4.6-9.7c-16.1-1.8-33-8.1-33-35.8c0-7.9,2.8-14.4,7.5-19.5c-0.8-1.8-3.2-9.2,0.7-19.2
	c0,0,6.1-1.9,19.9,7.4c5.8-1.6,12-2.4,18.1-2.4c6.2,0,12.4,0.8,18.2,2.4c13.8-9.4,19.9-7.4,19.9-7.4c3.9,10,1.5,17.4,0.7,19.2
	c4.6,5.1,7.5,11.5,7.5,19.5c0,27.8-17,34-33.1,35.8c2.6,2.3,4.9,6.7,4.9,13.4c0,9.7-0.1,17.5-0.1,19.9c0,1.9,1.3,4.2,5,3.5
	c28.8-9.6,49.5-36.8,49.5-68.8C153.7,41.4,121.2,8.9,81.2,8.9"/>
<path class="st1" d="M36.2,113c-0.2,0.4-0.7,0.5-1.2,0.2c-0.5-0.2-0.8-0.7-0.7-1.1c0.2-0.4,0.7-0.5,1.2-0.2
	C36,112.2,36.3,112.7,36.2,113"/>
<path class="st1" d="M39.1,116.3c-0.3,0.3-1,0.2-1.5-0.3c-0.5-0.5-0.6-1.2-0.2-1.5c0.4-0.3,1-0.2,1.5,0.3
	C39.4,115.3,39.5,116,39.1,116.3"/>
<path class="st1" d="M42,120.5c-0.4,0.3-1.2,0-1.6-0.6c-0.4-0.6-0.4-1.4,0-1.7c0.4-0.3,1.2,0,1.6,0.6
	C42.4,119.4,42.4,120.1,42,120.5"/>
<path class="st1" d="M45.9,124.5c-0.4,0.4-1.2,0.3-1.9-0.3c-0.6-0.6-0.8-1.4-0.4-1.9c0.4-0.4,1.3-0.3,1.9,0.3
	C46.1,123.2,46.3,124.1,45.9,124.5"/>
<path class="st1" d="M51.3,126.8c-0.2,0.6-1,0.8-1.8,0.6c-0.8-0.2-1.4-0.9-1.2-1.5c0.2-0.6,1-0.8,1.8-0.6
	C50.9,125.6,51.4,126.3,51.3,126.8"/>
<path class="st1" d="M57.2,127.3c0,0.6-0.7,1.1-1.5,1.1c-0.9,0-1.6-0.5-1.6-1.1c0-0.6,0.7-1.1,1.5-1.1
	C56.5,126.2,57.2,126.7,57.2,127.3"/>
<path class="st1" d="M62.7,126.3c0.1,0.6-0.5,1.2-1.4,1.3c-0.8,0.2-1.6-0.2-1.7-0.8c-0.1-0.6,0.5-1.2,1.3-1.4
	C61.8,125.4,62.6,125.7,62.7,126.3"/>
<g>
	<path class="st1" d="M46.2,169.9h2.5v15.2c0,2.7-0.2,4.6-0.7,5.9c-0.6,1.8-1.8,3.1-3.4,4.1s-3.5,1.4-5.7,1.4
		c-1.6,0-3.1-0.2-4.4-0.7c-1.3-0.5-2.4-1.1-3.2-1.9c-0.8-0.8-1.6-1.9-2.3-3.4h2.7c0.7,1.3,1.7,2.2,2.8,2.8c1.1,0.6,2.6,0.9,4.3,0.9
		c1.7,0,3.1-0.3,4.3-0.9s2-1.4,2.5-2.4c0.5-0.9,0.7-2.5,0.7-4.6v-1c-0.9,1.2-2.1,2.1-3.4,2.7c-1.3,0.6-2.8,0.9-4.3,0.9
		c-1.8,0-3.4-0.4-5-1.3c-1.5-0.9-2.7-2-3.6-3.5s-1.3-3.1-1.3-4.9s0.4-3.4,1.3-4.9c0.9-1.5,2.1-2.7,3.6-3.6s3.2-1.3,4.9-1.3
		c1.4,0,2.8,0.3,4,0.9c1.2,0.6,2.4,1.6,3.6,2.9L46.2,169.9L46.2,169.9z M39,171.8c-1.4,0-2.7,0.3-3.9,1s-2.1,1.6-2.8,2.8
		s-1,2.5-1,3.9c0,2.1,0.7,3.8,2.1,5.2s3.2,2.1,5.5,2.1c2.3,0,4.1-0.7,5.5-2s2.1-3.1,2.1-5.4c0-1.4-0.3-2.7-0.9-3.9s-1.5-2-2.7-2.7
		S40.3,171.8,39,171.8z"/>
	<path class="st1" d="M54.8,162c0.6,0,1,0.2,1.4,0.6s0.6,0.9,0.6,1.4c0,0.6-0.2,1-0.6,1.4s-0.9,0.6-1.4,0.6c-0.5,0-1-0.2-1.4-0.6
		c-0.4-0.4-0.6-0.9-0.6-1.4c0-0.6,0.2-1,0.6-1.4C53.8,162.2,54.3,162,54.8,162z M53.6,169.9h2.5V189h-2.5V169.9z"/>
	<path class="st1" d="M63.3,162.8h2.5v7.1h3.9v2.1h-3.9v17h-2.5v-17H60v-2.1h3.4V162.8z"/>
	<path class="st1" d="M73.4,162.5h2.5v10.8c1-1.3,2.1-2.3,3.3-2.9s2.5-1,3.9-1c1.4,0,2.7,0.4,3.8,1.1s1.9,1.7,2.5,2.9
		s0.8,3.1,0.8,5.8v9.8h-2.5v-9.1c0-2.2-0.1-3.7-0.3-4.4c-0.3-1.3-0.9-2.2-1.7-2.9s-1.9-1-3.2-1c-1.5,0-2.8,0.5-4,1.5s-2,2.2-2.3,3.7
		c-0.2,0.9-0.4,2.7-0.4,5.2v7h-2.5L73.4,162.5L73.4,162.5z"/>
	<path class="st1" d="M95,169.9h2.5v8.9c0,2.2,0.1,3.7,0.4,4.5c0.4,1.2,1,2.1,2,2.8c1,0.7,2.2,1,3.5,1s2.5-0.3,3.5-1
		c1-0.7,1.6-1.5,2-2.6c0.2-0.7,0.4-2.3,0.4-4.7v-8.9h2.5v9.4c0,2.6-0.3,4.6-0.9,6s-1.5,2.4-2.8,3.1s-2.8,1.1-4.6,1.1
		s-3.4-0.4-4.7-1.1s-2.2-1.8-2.8-3.2s-0.9-3.4-0.9-6.1L95,169.9L95,169.9z"/>
	<path class="st1" d="M117.4,189v-26.5h2.5v10.7c1-1.3,2.2-2.2,3.5-2.8c1.3-0.6,2.7-0.9,4.2-0.9c2.7,0,5,1,6.9,2.9s2.9,4.3,2.9,7.1
		c0,2.8-1,5.1-2.9,7.1s-4.3,2.9-7,2.9c-1.6,0-3-0.3-4.2-1s-2.4-1.7-3.4-3v3.5L117.4,189L117.4,189z M127.2,187.1
		c1.4,0,2.6-0.3,3.8-1s2.1-1.6,2.8-2.8c0.7-1.2,1-2.5,1-3.9s-0.3-2.7-1-3.9c-0.7-1.2-1.6-2.2-2.8-2.9s-2.4-1-3.7-1
		c-1.3,0-2.6,0.3-3.8,1s-2.1,1.6-2.8,2.8c-0.6,1.2-1,2.5-1,3.9c0,2.2,0.7,4.1,2.2,5.6C123.3,186.4,125.1,187.1,127.2,187.1z"/>
</g>
</svg>
