<?xml version="1.0" encoding="utf-8"?>
<!-- Generator: Adobe Illustrator 21.0.2, SVG Export Plug-In . SVG Version: 6.00 Build 0)  -->
<svg version="1.1" id="Layer_1" xmlns="http://www.w3.org/2000/svg" xmlns:xlink="http://www.w3.org/1999/xlink" x="0px" y="0px"
	 viewBox="0 0 146.1 96.1" style="enable-background:new 0 0 146.1 96.1;" xml:space="preserve">
<style type="text/css">
	.st0{enable-background:new    ;}
	.st1{fill:#606060;}
	.st2{fill:none;}
	.st3{fill:none;stroke:#606060;stroke-width:0.75;stroke-miterlimit:10;}
	.st4{fill:#FFFFFF;}
	.st5{fill:none;stroke:#606060;stroke-width:0.75;stroke-linecap:round;stroke-miterlimit:10;}
	.st6{fill:none;stroke:#606060;stroke-width:0.58;stroke-linecap:round;stroke-miterlimit:10;}
	.st7{fill:none;stroke:#606060;stroke-width:0.36;stroke-linecap:round;stroke-miterlimit:10;}
</style>
<title>hand</title>
<g id="Layer_2">
	<g id="Layer_1-2">
		<g class="st0">
			<path class="st1" d="M27.9,86.1c-0.2-0.1-0.4-0.2-0.7-0.2c-0.5,0-0.9,0.3-1.3,0.8s-0.5,1.3-0.5,2.3V92h-0.6v-6.5h0.6v1.4h0
				c0.1-0.5,0.4-0.9,0.7-1.2s0.7-0.4,1.1-0.4c0.2,0,0.5,0,0.6,0.1V86.1z"/>
			<path class="st1" d="M33.4,92v-1.2h0c-0.5,0.9-1.2,1.3-2.1,1.3c-1.5,0-2.3-1-2.3-2.9v-3.8h0.6v3.6c0,0.9,0.1,1.5,0.4,1.9
				c0.3,0.4,0.7,0.6,1.4,0.6c0.6,0,1.1-0.2,1.5-0.7c0.4-0.4,0.6-1,0.6-1.8v-3.7H34V92H33.4z"/>
			<path class="st1" d="M35.8,91.7V91c0.2,0.2,0.5,0.3,0.8,0.5c0.3,0.1,0.6,0.2,0.8,0.2c1,0,1.5-0.4,1.5-1.3c0-0.3-0.1-0.5-0.3-0.7
				S38,89.2,37.5,89c-0.6-0.3-1.1-0.6-1.3-0.8c-0.3-0.3-0.4-0.6-0.4-1.1c0-0.5,0.2-1,0.6-1.3c0.4-0.3,0.9-0.5,1.5-0.5
				c0.6,0,1,0.1,1.4,0.3v0.7c-0.5-0.3-1-0.5-1.5-0.5c-0.4,0-0.8,0.1-1,0.3s-0.4,0.5-0.4,0.9c0,0.3,0.1,0.6,0.2,0.8
				c0.2,0.2,0.5,0.4,1.1,0.7c0.7,0.3,1.1,0.6,1.4,0.8c0.3,0.3,0.4,0.6,0.4,1c0,0.5-0.2,0.9-0.6,1.3c-0.4,0.3-0.9,0.5-1.6,0.5
				C36.7,92.1,36.2,92,35.8,91.7z"/>
			<path class="st1" d="M40.8,91.7V91c0.2,0.2,0.5,0.3,0.8,0.5c0.3,0.1,0.6,0.2,0.8,0.2c1,0,1.5-0.4,1.5-1.3c0-0.3-0.1-0.5-0.3-0.7
				S43,89.2,42.5,89c-0.6-0.3-1.1-0.6-1.3-0.8c-0.3-0.3-0.4-0.6-0.4-1.1c0-0.5,0.2-1,0.6-1.3c0.4-0.3,0.9-0.5,1.5-0.5
				c0.6,0,1,0.1,1.4,0.3v0.7c-0.5-0.3-1-0.5-1.5-0.5c-0.4,0-0.8,0.1-1,0.3s-0.4,0.5-0.4,0.9c0,0.3,0.1,0.6,0.2,0.8
				c0.2,0.2,0.5,0.4,1.1,0.7c0.7,0.3,1.1,0.6,1.4,0.8c0.3,0.3,0.4,0.6,0.4,1c0,0.5-0.2,0.9-0.6,1.3c-0.4,0.3-0.9,0.5-1.6,0.5
				C41.7,92.1,41.2,92,40.8,91.7z"/>
			<path class="st1" d="M46.5,83.8c-0.1,0-0.2,0-0.3-0.1C46,83.6,46,83.5,46,83.3c0-0.1,0-0.3,0.1-0.3c0.1-0.1,0.2-0.1,0.3-0.1
				c0.1,0,0.2,0,0.3,0.1c0.1,0.1,0.1,0.2,0.1,0.3c0,0.1,0,0.3-0.1,0.3C46.7,83.8,46.6,83.8,46.5,83.8z M46.2,92v-6.5h0.6V92H46.2z"
				/>
			<path class="st1" d="M52.7,92v-1.3h0c-0.2,0.4-0.5,0.8-0.9,1.1c-0.4,0.3-0.8,0.4-1.3,0.4c-0.6,0-1.1-0.2-1.5-0.5
				c-0.4-0.3-0.5-0.8-0.5-1.3c0-1.1,0.8-1.8,2.3-2.1l2-0.3c0-1.4-0.5-2.1-1.6-2.1c-0.7,0-1.4,0.3-2.1,0.9V86c0.2-0.2,0.6-0.4,1-0.5
				c0.4-0.1,0.8-0.2,1.2-0.2c0.7,0,1.2,0.2,1.6,0.6c0.4,0.4,0.5,1,0.5,1.8V92H52.7z M50.9,88.7c-0.7,0.1-1.2,0.3-1.4,0.5
				c-0.3,0.2-0.4,0.6-0.4,1.1c0,0.4,0.1,0.7,0.4,1c0.3,0.3,0.6,0.4,1.1,0.4c0.6,0,1.1-0.2,1.6-0.7s0.6-1.1,0.6-1.8v-0.6L50.9,88.7z"
				/>
			<path class="st1" d="M59.7,92v-3.8c0-1.6-0.6-2.3-1.7-2.3c-0.6,0-1.1,0.2-1.5,0.7s-0.6,1-0.6,1.7V92h-0.6v-6.5h0.6v1.2h0
				c0.5-0.9,1.2-1.3,2.2-1.3c0.7,0,1.2,0.2,1.6,0.7c0.4,0.5,0.6,1.1,0.6,2v4H59.7z"/>
			<path class="st1" d="M70,91.7c-0.5,0.3-1.1,0.4-1.7,0.4c-0.9,0-1.6-0.3-2.1-0.9s-0.8-1.4-0.8-2.4c0-1,0.3-1.9,0.9-2.5
				s1.4-1,2.3-1c0.5,0,1,0.1,1.4,0.3v0.7c-0.5-0.3-1-0.4-1.5-0.4c-0.8,0-1.4,0.3-1.9,0.8c-0.5,0.5-0.7,1.3-0.7,2.1
				c0,0.8,0.2,1.5,0.7,2c0.4,0.5,1,0.8,1.7,0.8c0.7,0,1.2-0.2,1.7-0.5V91.7z"/>
			<path class="st1" d="M75.4,92v-1.3h0c-0.2,0.4-0.5,0.8-0.9,1.1c-0.4,0.3-0.8,0.4-1.3,0.4c-0.6,0-1.1-0.2-1.5-0.5
				c-0.4-0.3-0.5-0.8-0.5-1.3c0-1.1,0.8-1.8,2.3-2.1l2-0.3c0-1.4-0.5-2.1-1.6-2.1c-0.7,0-1.4,0.3-2.1,0.9V86c0.2-0.2,0.6-0.4,1-0.5
				c0.4-0.1,0.8-0.2,1.2-0.2c0.7,0,1.2,0.2,1.6,0.6c0.4,0.4,0.5,1,0.5,1.8V92H75.4z M73.7,88.7c-0.7,0.1-1.2,0.3-1.4,0.5
				c-0.3,0.2-0.4,0.6-0.4,1.1c0,0.4,0.1,0.7,0.4,1c0.3,0.3,0.6,0.4,1.1,0.4c0.6,0,1.1-0.2,1.6-0.7s0.6-1.1,0.6-1.8v-0.6L73.7,88.7z"
				/>
			<path class="st1" d="M77.6,91.7V91c0.2,0.2,0.5,0.3,0.8,0.5c0.3,0.1,0.6,0.2,0.8,0.2c1,0,1.5-0.4,1.5-1.3c0-0.3-0.1-0.5-0.3-0.7
				c-0.2-0.2-0.6-0.4-1.1-0.6c-0.6-0.3-1.1-0.6-1.3-0.8c-0.3-0.3-0.4-0.6-0.4-1.1c0-0.5,0.2-1,0.6-1.3s0.9-0.5,1.5-0.5
				c0.6,0,1,0.1,1.4,0.3v0.7c-0.5-0.3-1-0.5-1.5-0.5c-0.4,0-0.8,0.1-1,0.3c-0.3,0.2-0.4,0.5-0.4,0.9c0,0.3,0.1,0.6,0.2,0.8
				c0.2,0.2,0.5,0.4,1.1,0.7c0.7,0.3,1.1,0.6,1.4,0.8c0.3,0.3,0.4,0.6,0.4,1c0,0.5-0.2,0.9-0.6,1.3c-0.4,0.3-0.9,0.5-1.6,0.5
				C78.6,92.1,78.1,92,77.6,91.7z"/>
			<path class="st1" d="M83.2,88.8c0,0.9,0.2,1.6,0.6,2.1s1,0.8,1.7,0.8c0.7,0,1.4-0.3,2.1-0.8v0.6c-0.7,0.5-1.4,0.7-2.3,0.7
				c-0.8,0-1.5-0.3-2-0.9c-0.5-0.6-0.8-1.5-0.8-2.5c0-0.9,0.3-1.7,0.8-2.4c0.5-0.6,1.2-1,2.1-1c0.8,0,1.4,0.3,1.9,0.8
				s0.6,1.3,0.6,2.3v0.3H83.2z M87.4,88.2c0-0.8-0.2-1.3-0.5-1.7s-0.8-0.6-1.4-0.6c-0.6,0-1.1,0.2-1.5,0.6s-0.6,1-0.7,1.8H87.4z"/>
			<path class="st1" d="M95.7,91.9c-0.3,0.1-0.6,0.2-0.9,0.2c-1,0-1.4-0.6-1.4-1.7V86h-1.2v-0.5h1.2v-1.7c0.1,0,0.2-0.1,0.3-0.1
				c0.1,0,0.2-0.1,0.3-0.1v1.9h1.7V86H94v4.3c0,0.4,0.1,0.8,0.2,1c0.1,0.2,0.4,0.3,0.7,0.3c0.2,0,0.5-0.1,0.8-0.2V91.9z"/>
			<path class="st1" d="M97.2,88.8c0,0.9,0.2,1.6,0.6,2.1c0.4,0.5,1,0.8,1.7,0.8c0.7,0,1.4-0.3,2.1-0.8v0.6
				c-0.7,0.5-1.4,0.7-2.3,0.7c-0.8,0-1.5-0.3-2-0.9c-0.5-0.6-0.8-1.5-0.8-2.5c0-0.9,0.3-1.7,0.8-2.4c0.5-0.6,1.2-1,2.1-1
				c0.8,0,1.4,0.3,1.9,0.8s0.6,1.3,0.6,2.3v0.3H97.2z M101.4,88.2c0-0.8-0.2-1.3-0.5-1.7c-0.3-0.4-0.8-0.6-1.4-0.6
				c-0.6,0-1.1,0.2-1.5,0.6c-0.4,0.4-0.6,1-0.7,1.8H101.4z"/>
			<path class="st1" d="M103.2,91.7V91c0.2,0.2,0.5,0.3,0.8,0.5c0.3,0.1,0.6,0.2,0.8,0.2c1,0,1.5-0.4,1.5-1.3c0-0.3-0.1-0.5-0.3-0.7
				c-0.2-0.2-0.6-0.4-1.1-0.6c-0.6-0.3-1.1-0.6-1.3-0.8c-0.3-0.3-0.4-0.6-0.4-1.1c0-0.5,0.2-1,0.6-1.3s0.9-0.5,1.5-0.5
				c0.6,0,1,0.1,1.4,0.3v0.7c-0.5-0.3-1-0.5-1.5-0.5c-0.4,0-0.8,0.1-1,0.3c-0.3,0.2-0.4,0.5-0.4,0.9c0,0.3,0.1,0.6,0.2,0.8
				c0.2,0.2,0.5,0.4,1.1,0.7c0.7,0.3,1.1,0.6,1.4,0.8c0.3,0.3,0.4,0.6,0.4,1c0,0.5-0.2,0.9-0.6,1.3c-0.4,0.3-0.9,0.5-1.6,0.5
				C104.2,92.1,103.7,92,103.2,91.7z"/>
			<path class="st1" d="M111.2,91.9c-0.3,0.1-0.6,0.2-0.9,0.2c-1,0-1.4-0.6-1.4-1.7V86h-1.2v-0.5h1.2v-1.7c0.1,0,0.2-0.1,0.3-0.1
				c0.1,0,0.2-0.1,0.3-0.1v1.9h1.7V86h-1.7v4.3c0,0.4,0.1,0.8,0.2,1c0.1,0.2,0.4,0.3,0.7,0.3c0.2,0,0.5-0.1,0.8-0.2V91.9z"/>
			<path class="st1" d="M112.6,88.8c0,0.9,0.2,1.6,0.6,2.1s1,0.8,1.7,0.8c0.7,0,1.4-0.3,2.1-0.8v0.6c-0.7,0.5-1.4,0.7-2.3,0.7
				c-0.8,0-1.5-0.3-2-0.9c-0.5-0.6-0.8-1.5-0.8-2.5c0-0.9,0.3-1.7,0.8-2.4c0.5-0.6,1.2-1,2.1-1c0.8,0,1.4,0.3,1.9,0.8
				s0.6,1.3,0.6,2.3v0.3H112.6z M116.8,88.2c0-0.8-0.2-1.3-0.5-1.7s-0.8-0.6-1.4-0.6c-0.6,0-1.1,0.2-1.5,0.6s-0.6,1-0.7,1.8H116.8z"
				/>
			<path class="st1" d="M122.1,86.1c-0.2-0.1-0.4-0.2-0.7-0.2c-0.5,0-0.9,0.3-1.3,0.8c-0.3,0.5-0.5,1.3-0.5,2.3V92H119v-6.5h0.6v1.4
				h0c0.1-0.5,0.4-0.9,0.7-1.2s0.7-0.4,1.1-0.4c0.2,0,0.5,0,0.6,0.1V86.1z"/>
		</g>
		<path class="st2" d="M61.8,48.4c-6.2,0-5.3-6.2-5.3-6.2l0.2-11.6c0.6-0.6,1.4-1,2.3-1.2c0.3,0,0.8,0.7,0.8,1l-0.3,8v0.1
			c0,1.2,0.3,3.4,1.5,4c0.3,0.2,0.9-1.2,0.9-1.5"/>
		<polygon class="st3" points="58.7,14.4 58.7,18.6 51.2,18.6 51.2,23 41.9,16.7 51.2,10.4 51.2,14.4 		"/>
		<path class="st2" d="M69.9,25.7l-4.2-1.2L64.5,5.9l2.1-1.1L65.8,3l-1.4-0.6l0-0.8c1.4,0,2.7,0.8,3.2,2.2v0.1
			c0.1,0.2,0.1,0.4,0.2,0.6L69.9,25.7L69.9,25.7z"/>
		<polygon class="st3" points="70.3,4.8 70.3,9 77.7,9 77.7,13.3 87.1,7 77.7,0.7 77.7,4.8 		"/>
		<path class="st4" d="M83.6,17.9L83.6,17.9z"/>
		<path class="st2" d="M76.4,73.8c3.2,0,9.9,1.1,9.9-3.1V62c0-0.1,0-0.2,0.1-0.3c0.6-0.8,3.3-6.3,3.3-9.9l-0.4-18.8V33
			c-1.8-4.3-5.4-2.7-5.4-2.7c-3-4.3-6.7-2-6.8-2c-1-1.5-2.5-2.5-4.3-2.7v4.6l3.9,3L76.4,73.8z"/>
		<path class="st4" d="M62.5,73.8"/>
		<path class="st2" d="M83.8,18.2L83.8,18.2z"/>
		<path class="st2" d="M61.5,4.3L61.5,4.3z"/>
		<path class="st5" d="M59.4,69.3c0,2.6,1.8,4.8,4.1,4.8h18.6c2.3,0,4.3-0.7,4.3-4.9v-6.9c0-0.1,0-0.2,0.1-0.3c0.6-0.8,3-6.7,3-10.2
			l-0.1-16v-1.9c0-0.3-0.1-0.6-0.2-0.9c-0.8-2.1-3.1-3.3-5.3-2.7c-3-4.3-6.6-1.8-6.7-1.7c-1.6-2.4-4.8-3.4-7.5-2.2v-0.1l-2-21.9
			c0-0.2-0.1-0.5-0.2-0.7V3.6c-0.3-1.3-1.5-2.3-2.9-2.3c-1.7,0.1-3.1,1.5-3,3.2v0.1l-0.1,21.7v16c0,0.2-0.2,0.4-0.4,0.4
			c-0.1,0-0.1,0-0.2-0.1c-0.4-0.3-0.6-0.7-0.8-1.1c-0.5-1.1-0.7-2.3-0.6-3.4c0.2-2.7,0.6-8.4-0.4-8.5c-0.8,0-1.5,0.4-2,0.9
			c-1.5,1.3-3,4.3-3,11.4v6.4c0,0.8,0.1,1.5,0.3,2.3l0,0c0.2,0.7,1.9,5.9,3.1,7c1.3,1.3,1.9,3.1,1.9,4.9v7"/>
		<path class="st6" d="M66.5,4.8c-1,1.1-2.7,1.3-4,0.6c0-1.5,0.9-2.8,2.1-2.8"/>
		<path class="st6" d="M66.5,4.7c-0.3-1.2-1-2.1-2-2.1"/>
		<path class="st5" d="M93.9,7.3"/>
		<path class="st5" d="M95.9,29.2"/>
		<path class="st6" d="M55,34.2c0.2-2,1.5-3.7,3.5-4.4c0.6-0.1,0.1,2.4-0.3,3.8c-0.1,0.3-0.4,0.6-0.7,0.6C56.6,34.3,55,34.5,55,34.2
			z"/>
		<path class="st7" d="M55,34.1"/>
		<line class="st2" x1="70.3" y1="29.2" x2="70.3" y2="40.9"/>
		<path class="st4" d="M74.5,29.7"/>
		<path class="st5" d="M63.4,16.7c0,0,0.8-0.9,2.7-0.3"/>
		<path class="st5" d="M63.4,18.6c1,0.2,1.9,0.2,2.9,0"/>
		<path class="st5" d="M64,17.4c0.4,0.1,0.9,0.1,1.3,0"/>
	</g>
</g>
</svg>
