<svg xmlns="http://www.w3.org/2000/svg" viewBox="0 0 98.5 96.09"><defs><style>.cls-1{font-size:13px;fill:#606060;font-family:WeblySleekUILight, WeblySleek UI;}.cls-2,.cls-3,.cls-5,.cls-6,.cls-7{fill:none;}.cls-3,.cls-5,.cls-6,.cls-7{stroke:#606060;stroke-miterlimit:10;}.cls-3,.cls-5{stroke-width:0.75px;}.cls-4{fill:#fff;}.cls-5,.cls-6,.cls-7{stroke-linecap:round;}.cls-6{stroke-width:0.58px;}.cls-7{stroke-width:0.36px;}</style></defs><title>hand</title><g id="Layer_2" data-name="Layer 2"><g id="Layer_1-2" data-name="Layer 1"><text class="cls-1" transform="translate(0 91.98)">russian case tester</text><path class="cls-2" d="M38,48.4c-6.16,0-5.3-6.2-5.3-6.2l.16-11.56a5.43,5.43,0,0,1,2.28-1.23c.26,0,.84.73.84,1l-.34,8v.08c0,1.15.35,3.44,1.48,4,.26.15.89-1.17.89-1.48"/><polygon class="cls-3" points="34.85 14.42 34.85 18.6 27.44 18.6 27.44 22.95 18.14 16.68 27.44 10.4 27.44 14.42 34.85 14.42"/><path class="cls-2" d="M46.06,25.72,41.9,24.55,40.74,5.92,42.8,4.78,42,3.05l-1.44-.64-.05-.82a3.31,3.31,0,0,1,3.2,2.19v.08a3.47,3.47,0,0,1,.16.63l2.24,21.24Z"/><polygon class="cls-3" points="46.54 4.8 46.54 8.98 53.88 8.98 53.88 13.33 63.25 6.97 53.88 0.7 53.88 4.8 46.54 4.8"/><path class="cls-4" d="M59.84,17.88v0Z"/><path class="cls-2" d="M52.6,73.78c3.18,0,9.87,1.07,9.87-3.13V62a.34.34,0,0,1,.07-.25c.58-.84,3.27-6.35,3.27-9.86L65.43,33.1V33C63.64,28.71,60,30.28,60,30.28c-3-4.28-6.71-2.05-6.8-2a5.89,5.89,0,0,0-4.31-2.69V30.2l3.9,3Z"/><path class="cls-4" d="M38.72,73.78"/><path class="cls-2" d="M60,18.18v0Z"/><path class="cls-2" d="M37.68,4.3v0Z"/><path class="cls-5" d="M35.58,69.31c0,2.59,1.82,4.77,4.14,4.77H58.31c2.32,0,4.29-.73,4.29-4.93V62.27a.34.34,0,0,1,.07-.25c.58-.84,3-6.7,3-10.21l-.12-16,0-1.9a2.13,2.13,0,0,0-.2-.91A4.5,4.5,0,0,0,60,30.28c-3-4.28-6.57-1.76-6.66-1.71a6.1,6.1,0,0,0-7.47-2.24v-.08l-2-21.87a4.24,4.24,0,0,0-.15-.67V3.63a3.08,3.08,0,0,0-2.91-2.34,3.17,3.17,0,0,0-3.05,3.18v.08l-.07,21.67v16a.38.38,0,0,1-.58.33,3,3,0,0,1-.82-1.12A6.59,6.59,0,0,1,35.71,38c.24-2.7.62-8.4-.43-8.49a2.89,2.89,0,0,0-2,.92c-1.45,1.25-3,4.27-3,11.38v6.44a12,12,0,0,0,.29,2.26h0c.22.67,1.89,5.86,3.12,7a6.87,6.87,0,0,1,1.89,4.94v7"/><path class="cls-6" d="M42.7,4.81a3.31,3.31,0,0,1-4,.6c0-1.55.93-2.81,2.07-2.81"/><path class="cls-6" d="M42.7,4.67c-.25-1.18-1-2.07-2-2.07"/><path class="cls-5" d="M70.14,7.29"/><path class="cls-5" d="M72.1,29.16"/><path class="cls-6" d="M31.24,34.16a5.28,5.28,0,0,1,3.45-4.43c.57-.07.08,2.36-.28,3.77a.86.86,0,0,1-.69.63C32.83,34.29,31.18,34.54,31.24,34.16Z"/><path class="cls-7" d="M31.24,34.08"/><line class="cls-4" x1="46.54" y1="29.16" x2="46.54" y2="40.94"/><path class="cls-4" d="M50.74,29.72"/><path class="cls-5" d="M39.56,16.68s.85-.94,2.74-.29"/><path class="cls-5" d="M39.56,18.59a6.24,6.24,0,0,0,2.9,0"/><path class="cls-5" d="M40.17,17.43a4.59,4.59,0,0,0,1.28,0"/></g></g></svg>