<?xml version="1.0" encoding="utf-8"?>
<!-- Generator: Adobe Illustrator 21.0.2, SVG Export Plug-In . SVG Version: 6.00 Build 0)  -->
<svg version="1.1" id="Layer_1" xmlns="http://www.w3.org/2000/svg" xmlns:xlink="http://www.w3.org/1999/xlink" x="0px" y="0px"
	 viewBox="0 0 215.9 122.8" style="enable-background:new 0 0 215.9 122.8;" xml:space="preserve">
<style type="text/css">
	.st0{fill:#606060;}
	.st1{fill:none;stroke:#606060;stroke-width:0.75;stroke-linecap:round;stroke-miterlimit:10;}
</style>
<title>saft</title>
<g id="Layer_2">
	<g id="Layer_1-2">
		<path class="st0" d="M30.7,100.3C13.8,100.3,0,86.5,0,69.5c0-7.6,2.8-15,7.9-20.6c0.1-0.2,0.4-0.2,0.5,0c0.2,0.1,0.2,0.4,0,0.5
			l0,0C-2.6,61.7-1.6,80.7,10.7,91.8s31.3,10.1,42.4-2.2c3.6-4,6-8.8,7.1-14c0-0.2,0.2-0.3,0.4-0.3c0.2,0,0.3,0.2,0.3,0.4
			C57.9,90,45.3,100.2,30.7,100.3z"/>
		<path class="st1" d="M95.6,79.9c0.2,2.6-0.9,5.1-2.8,6.9c-1.9,1.6-4.5,2.4-8,2.4c-2.9,0.1-5.9-0.5-8.5-1.9v-5.6
			c2.6,1.5,5.6,2.4,8.7,2.5c3.4,0,5.2-1.2,5.2-3.6c0-0.7-0.2-1.4-0.6-1.9C89,78,88.4,77.4,87.6,77c-1.2-0.7-2.4-1.3-3.6-1.9
			c-3-1.4-5.1-2.7-6.2-4.1c-1.1-1.5-1.7-3.4-1.6-5.3c-0.1-2.4,0.9-4.6,2.8-6.1c2.1-1.5,4.7-2.3,7.4-2.2c3.1,0,6.1,0.7,8.8,2.2
			l-1.8,4.9c-2.2-1.2-4.7-1.9-7.2-2.1c-3,0-4.4,1-4.4,3c0,0.9,0.4,1.8,1.2,2.4c1.6,1.1,3.2,2,5,2.8c1.7,0.7,3.3,1.6,4.7,2.7
			c0.9,0.8,1.7,1.7,2.2,2.8C95.4,77.3,95.6,78.6,95.6,79.9z"/>
		<path class="st1" d="M118.1,88.6l-1.1-4.3h-0.2c-0.9,1.5-2.3,2.8-3.8,3.8c-1.6,0.7-3.3,1.1-5,1c-2.3,0.1-4.5-0.8-6-2.4
			c-1.5-1.6-2.2-3.9-2.2-6.9c0-3.2,1-5.6,3-7.2s5.1-2.5,9.2-2.6l4.6-0.2v-1.6c0.1-1.6-0.3-3.1-1.2-4.4c-0.9-1-2.3-1.5-3.6-1.4
			c-1.3,0-2.6,0.2-3.9,0.7c-1.2,0.5-2.4,1-3.6,1.6l-1.8-4.7c1.5-0.9,3-1.6,4.7-2c1.6-0.4,3.2-0.7,4.8-0.7c3.3,0,5.9,0.9,7.6,2.5
			c1.7,1.7,2.6,4.4,2.6,8v20.7H118.1z M109.8,84.2c1.8,0.1,3.6-0.7,4.9-2c1.3-1.5,2-3.5,1.8-5.6V74l-3.4,0.2
			c-2.7,0.1-4.6,0.6-5.8,1.5c-1.2,1-1.9,2.6-1.8,4.2c-0.1,1.1,0.3,2.3,1,3.2C107.5,83.9,108.6,84.3,109.8,84.2L109.8,84.2z"/>
		<path class="st1" d="M143.2,62.9h-6.4v25.8h-5.6V62.9h-4.3v-3l4.3-2v-2c0-3.6,0.7-6.3,2.2-8.1c1.5-1.8,3.7-2.6,6.7-2.6
			c2,0,4,0.4,5.8,1.1l-1.5,4.9c-1.3-0.5-2.6-0.8-4-0.8c-1.1-0.1-2.2,0.4-2.8,1.4c-0.7,1.3-1,2.7-0.9,4.1v2h6.4L143.2,62.9z"/>
		<path class="st1" d="M157.4,83.9c1.4,0,2.8-0.3,4.1-0.8v4.9c-0.8,0.4-1.6,0.6-2.4,0.8c-1,0.2-2,0.3-3,0.3c-5.3,0-8-3.3-8-9.8V62.9
			h-3.6V60l3.9-2.4l1.9-6.5h3.4v6.8h7.5v4.9h-7.5v16.5c-0.1,1.2,0.3,2.5,1,3.5C155.5,83.5,156.4,84,157.4,83.9z"/>
		<path class="st1" d="M166,85.2c-0.1-1.1,0.2-2.2,0.9-3.1c1.4-1.5,3.8-1.5,5.2,0c0,0,0,0,0,0c0.6,0.9,1,2,0.9,3.1
			c0.1,1.1-0.3,2.2-0.9,3.1c-1.3,1.4-3.6,1.5-5.1,0.2c-0.1-0.1-0.1-0.1-0.2-0.2C166.3,87.3,165.9,86.3,166,85.2z"/>
		<path class="st1" d="M179.9,49.8c-0.1-1,0.2-1.9,0.8-2.7c0.6-0.7,1.5-1,2.4-0.9c0.9,0,1.7,0.3,2.3,0.9c0.6,0.8,0.9,1.7,0.8,2.7
			c0.1,0.9-0.2,1.9-0.8,2.6c-0.6,0.7-1.4,1-2.3,1c-0.9,0-1.8-0.3-2.4-1C180.1,51.7,179.8,50.7,179.9,49.8z M185.8,88.6h-5.6V57.9
			h5.6V88.6z"/>
		<path class="st1" d="M205.3,89.2c-3.7,0.2-7.2-1.4-9.6-4.2c-2.3-2.8-3.5-6.6-3.5-11.5c0-5,1.1-9,3.2-11.8c2-2.8,5.4-4.4,8.8-4.3
			c3.2-0.1,6.2,1.2,8.2,3.7c2,2.5,3,5.8,3,10.2v3.5H198c0.1,3,0.8,5.3,2.1,6.9c1.4,1.6,3.4,2.5,5.5,2.4c1.5,0,2.9-0.2,4.4-0.5
			c1.5-0.4,2.9-1,4.3-1.7v5.3c-1.3,0.7-2.7,1.3-4.1,1.6C208.5,89,206.9,89.2,205.3,89.2z M204.3,62.3c-1.7-0.1-3.3,0.7-4.3,2
			c-1.2,1.7-1.9,3.7-1.9,5.8h12c0.1-2-0.4-4.1-1.6-5.8C207.6,63,206,62.2,204.3,62.3L204.3,62.3z"/>
		<path class="st0" d="M37.7,86.2c-16.8,0-30.4-13.6-30.4-30.3c0-16.8,13.6-30.4,30.3-30.4C54.3,25.3,68,38.9,68,55.7c0,0,0,0,0,0.1
			C68,72.5,54.4,86.1,37.7,86.2z M37.7,26.2C21.3,26.2,8,39.4,8,55.8c0,16.4,13.3,29.6,29.7,29.6s29.6-13.3,29.6-29.7c0,0,0,0,0,0
			C67.3,39.4,54,26.1,37.7,26.2L37.7,26.2z"/>
		<path class="st0" d="M37.6,53.5c-0.2,0-0.5-0.1-0.5-0.4c-3.4-8.7-6.3-17.9-6.8-21.4c-0.1-0.5,0.2-1,0.7-1.2l0,0
			c1.6-0.6,7.3-2.4,13.1,0c0.5,0.2,0.8,0.8,0.7,1.3c-1.9,7.4-5.8,19-6.6,21.2C38.1,53.4,37.9,53.6,37.6,53.5L37.6,53.5z M37.8,52.9
			L37.8,52.9z M31.3,31.3c-0.2,0.1-0.3,0.2-0.2,0.4c0.5,3.3,3.3,12.4,6.6,20.8c1-3,4.6-13.8,6.5-20.8c0-0.2-0.1-0.4-0.2-0.5
			C38.3,29,32.8,30.7,31.3,31.3L31.3,31.3z"/>
		<path class="st0" d="M36,54.1c-0.1,0-0.2,0-0.3-0.1c-7.8-5-15.6-10.8-18-13.3c-0.4-0.4-0.4-1-0.1-1.4l0,0c1-1.4,4.5-6.2,10.6-7.7
			c0.6-0.1,1.1,0.2,1.4,0.7c2.8,7.1,6.4,18.8,7.1,21.1c0.1,0.3-0.1,0.6-0.4,0.7C36.1,54.1,36.1,54.1,36,54.1L36,54.1z M36.1,53.4
			L36.1,53.4z M18.1,39.7c-0.1,0.1-0.1,0.3,0,0.5c2.3,2.4,10,8.1,17.5,13c-0.9-3-4.4-13.9-7-20.6c-0.1-0.2-0.3-0.3-0.5-0.2
			C22.5,33.7,19,38.4,18.1,39.7L18.1,39.7z"/>
		<path class="st0" d="M22.8,55.9c-3.4,0.1-6.8-0.1-10.2-0.5c-0.5-0.1-0.9-0.5-0.9-1l0,0c-0.1-1.7,0-7.7,4-12.5
			c0.4-0.4,1-0.5,1.5-0.2c6.2,4,15.5,10.8,18.2,12.8c0.2,0.2,0.3,0.6,0,0.8c-0.1,0.1-0.2,0.2-0.3,0.2C30.8,55.7,26.5,55.9,22.8,55.9
			z M12.4,54.3c0,0.2,0.1,0.3,0.3,0.3c3.3,0.6,12.8,0.7,21.8,0.2c-3.1-2.3-11.8-8.7-17.8-12.6c-0.2-0.1-0.4-0.1-0.5,0.1
			C13.6,45.7,12.2,50,12.4,54.3L12.4,54.3z M34.9,54.8L34.9,54.8z"/>
		<path class="st0" d="M16.6,70.3c-0.3,0-0.7-0.2-0.9-0.4c-1.1-1.3-4.5-6.2-4.1-12.4c0-0.6,0.5-1,1.1-1.1c7.4-0.5,18.9-0.3,22.2-0.3
			c0.3,0,0.6,0.3,0.5,0.6c0,0.1-0.1,0.3-0.2,0.4c-7.2,5.9-15,11.5-18.2,13C17,70.2,16.8,70.3,16.6,70.3z M27.8,56.8
			c-4.7,0-10.6,0.1-15,0.3c-0.2,0-0.4,0.2-0.4,0.4c-0.4,5.9,2.9,10.6,3.9,11.9l0,0c0.1,0.1,0.3,0.2,0.5,0.1c3-1.5,10.8-7,17.7-12.7
			C33.1,56.8,30.6,56.8,27.8,56.8z"/>
		<path class="st0" d="M28.5,80.1c-0.1,0-0.2,0-0.3,0l0,0c-1.6-0.5-7.3-2.4-10.6-7.7c-0.3-0.5-0.2-1.1,0.2-1.5
			c5.9-4.9,15.9-11.9,17.8-13.3c0.3-0.2,0.6-0.1,0.8,0.2c0.1,0.1,0.1,0.3,0.1,0.5c-2.4,9-5.4,18.2-7.1,21.3
			C29.3,79.9,28.9,80.1,28.5,80.1z M28.4,79.4c0.2,0,0.3,0,0.4-0.2c1.6-3,4.6-12,6.9-20.7c-2.6,1.8-11.8,8.4-17.4,13
			c-0.2,0.1-0.2,0.4-0.1,0.5C20.6,75.6,24.2,78.2,28.4,79.4z"/>
		<path class="st0" d="M37.4,82.2c-2.1,0-4.2-0.4-6.2-1.2c-0.5-0.2-0.8-0.8-0.7-1.3c1.9-7.2,5.5-18.1,6.6-21.3
			c0.1-0.2,0.3-0.4,0.5-0.4c0.3,0,0.5,0.1,0.6,0.4c3.4,8.7,6.3,17.9,6.8,21.4c0.1,0.5-0.2,1-0.7,1.2l0,0
			C42.1,81.7,39.7,82.1,37.4,82.2z M37.7,59.1C36.4,62.7,33,73,31.2,79.9c0,0.2,0.1,0.4,0.2,0.5c4.1,1.5,8.5,1.4,12.5-0.1l0,0
			c0.2-0.1,0.3-0.2,0.2-0.4C43.8,76.5,40.9,67.5,37.7,59.1z M44.1,80.6L44.1,80.6z"/>
		<path class="st0" d="M47,80c-0.5,0-0.9-0.3-1.1-0.7c-2.8-7.1-6.4-18.8-7.1-21.1c-0.1-0.3,0.1-0.6,0.4-0.7c0.2,0,0.3,0,0.5,0.1
			c7.8,5,15.6,10.8,18,13.3c0.4,0.4,0.4,1,0.1,1.4c-1,1.4-4.5,6.2-10.5,7.7C47.2,80,47.1,80,47,80z M39.6,58.4
			c0.9,3,4.3,13.9,7,20.6c0.1,0.2,0.3,0.3,0.5,0.2c4.1-1.2,7.7-3.8,10.1-7.4l0,0c0.1-0.1,0.1-0.3,0-0.5C54.8,69,47.2,63.3,39.6,58.4
			z"/>
		<path class="st0" d="M58.8,70.1c-0.2,0-0.4-0.1-0.6-0.2C51.7,65.8,41.9,58.5,40,57.1c-0.3-0.2-0.3-0.6-0.1-0.8
			c0.1-0.1,0.3-0.2,0.4-0.2c9.3-0.5,18.9-0.5,22.4,0.1c0.5,0.1,0.9,0.5,0.9,1l0,0c0.1,1.7,0,7.7-4,12.5C59.4,70,59.1,70.1,58.8,70.1
			z M40.8,56.8c2.5,1.9,11.7,8.7,17.8,12.5c0.2,0.1,0.4,0.1,0.5-0.1c2.6-3.4,4-7.7,3.8-12l0,0c0-0.2-0.1-0.3-0.3-0.3
			C59.3,56.4,49.8,56.3,40.8,56.8L40.8,56.8z"/>
		<path class="st0" d="M47.5,55.5c-3.2,0-5.8,0-7.2,0c-0.3,0-0.6-0.3-0.5-0.6c0-0.1,0.1-0.3,0.2-0.4c7.2-5.9,15-11.5,18.2-13
			c0.5-0.2,1-0.1,1.4,0.3l0,0c1.1,1.3,4.5,6.2,4.1,12.4c0,0.6-0.5,1-1.1,1.1C58.1,55.5,52.3,55.5,47.5,55.5z M40.8,54.7
			c3.8,0,14.7,0.1,21.8-0.3c0.2,0,0.4-0.2,0.4-0.4c0.4-5.9-2.9-10.6-3.9-11.9c-0.1-0.1-0.3-0.2-0.5-0.1
			C55.5,43.5,47.8,49.1,40.8,54.7z"/>
		<path class="st0" d="M39.3,54.1c-0.3,0-0.6-0.3-0.6-0.6c0-0.1,0-0.1,0-0.1c2.4-9,5.4-18.2,7.1-21.3c0.2-0.5,0.8-0.7,1.3-0.6
			c1.7,0.5,7.3,2.4,10.6,7.6c0.3,0.5,0.2,1.1-0.2,1.5C51.7,45.4,42.4,52,39.6,54C39.5,54,39.4,54.1,39.3,54.1z M46.8,32.2
			c-0.1,0-0.3,0.1-0.3,0.2c-1.6,3-4.6,12-6.9,20.7c3.1-2.2,11.9-8.5,17.4-13c0.2-0.1,0.2-0.4,0.1-0.5C54.6,36,51,33.4,46.8,32.2
			L46.8,32.2L46.8,32.2z"/>
		<path class="st0" d="M35.9,44.6c-0.3,0-0.4-0.4-0.5-0.6c-0.9-2.6-1.3-9.7-1.3-10l0.7-0.1c1.9,10.5,1.7,10.6,1.3,10.7L35.9,44.6z
			 M35.9,44.3L35.9,44.3z"/>
		<path class="st0" d="M37.8,49.2h-0.1c-0.4-0.1-0.6-0.2,1.2-9.4l0.7,0.1c0,0.3-0.4,6.4-1.3,8.7C38.2,48.9,38.1,49.2,37.8,49.2z"/>
		<path class="st0" d="M37.9,39h-0.2c-0.3-0.1-0.7-0.3,1-8.1l0.7-3.1l0.1,3.2c0,0.2,0.1,5.4-1,7.6C38.4,38.6,38.2,39,37.9,39z
			 M38.2,38.4L38.2,38.4z"/>
		<path class="st0" d="M42.7,46.6c-0.1,0-0.1,0-0.2,0c-0.3-0.2-0.2-0.6-0.1-0.9c1.1-2.6,5.5-8,5.7-8.3l0.6,0.4
			C44,45.6,43.1,46.6,42.7,46.6z"/>
		<path class="st0" d="M41.1,51.3c-0.1,0-0.3-0.1-0.3-0.2c-0.2-0.3-0.3-0.6,7.2-6.1l0.5,0.6c-0.2,0.2-4.6,4.5-6.8,5.6
			C41.4,51.2,41.2,51.2,41.1,51.3z"/>
		<path class="st0" d="M48.1,43.8c-0.2,0-0.3-0.1-0.4-0.2c-0.2-0.3-0.4-0.7,6.2-5.4l2.6-1.9l-2.1,2.4c-0.2,0.2-3.6,4.1-5.8,4.9
			C48.4,43.7,48.3,43.8,48.1,43.8z"/>
		<path class="st0" d="M48.4,51.3c-0.1,0-0.2-0.1-0.3-0.2c-0.2-0.3,0.1-0.6,0.4-0.8c2.2-1.8,8.7-4.5,9-4.6l0.3,0.7
			C50.7,50.5,48.9,51.3,48.4,51.3z"/>
		<path class="st0" d="M45.3,54.6h-0.2c-0.3,0-0.7,0-0.7-0.4c0-0.4,0-0.7,9.2-2l0.2,0.7C53.5,53,47.9,54.6,45.3,54.6z"/>
		<path class="st0" d="M55.4,51.5c-0.2,0-0.4,0-0.6,0c-0.2,0-0.7-0.1-0.7-0.5s0-0.8,8-1.8l3.2-0.4l-3,1.1
			C62.1,49.9,57.9,51.5,55.4,51.5z"/>
		<path class="st0" d="M27.2,75.6l-0.6-0.4c5.3-9.3,5.5-9.2,5.9-9c0.4,0.2,0.2,0.6,0.1,0.9C31.6,69.6,27.4,75.3,27.2,75.6z"/>
		<path class="st0" d="M27.2,68l-0.5-0.5c0.2-0.2,4.4-4.7,6.5-5.9c0.2-0.1,0.6-0.3,0.8,0S34.5,62.1,27.2,68z"/>
		<path class="st0" d="M19.1,77l2-2.5c0.1-0.2,3.4-4.3,5.6-5.2c0.2-0.1,0.6-0.3,0.9,0.1s0.4,0.7-5.9,5.7L19.1,77z"/>
		<path class="st0" d="M18.8,66.4l-0.4-0.7c9.1-5.6,9.2-5.4,9.5-5.1s-0.1,0.6-0.3,0.8C25.5,63.3,19.1,66.3,18.8,66.4z"/>
		<path class="st0" d="M22.5,59.8l-0.2-0.7c0.3-0.1,6.1-2,8.6-2c0.3,0,0.7,0,0.7,0.4S31.7,58.1,22.5,59.8z"/>
		<path class="st0" d="M11,63.8l2.9-1.3c0.2-0.1,5-2.1,7.4-1.9c0.2,0,0.7,0.1,0.7,0.5s0,0.8-7.9,2.1L11,63.8z"/>
		<path class="st0" d="M25.7,54.5c-3.1-0.2-6.2-0.6-9.2-1.2l0.1-0.7c10.7,0.8,10.7,1,10.7,1.4c0,0.4-0.4,0.4-0.7,0.5
			C26.2,54.5,26,54.5,25.7,54.5z"/>
		<path class="st0" d="M31.7,53.7c-0.5,0-2.3-0.7-8.5-3.6l0.3-0.7c0.3,0.1,6.1,1.9,8.1,3.4c0.2,0.1,0.6,0.4,0.4,0.8
			C32,53.6,31.9,53.7,31.7,53.7z"/>
		<path class="st0" d="M21.8,51.1c-0.6,0-2.1-0.6-7.3-3.1l-2.9-1.4l3.1,0.7c0.2,0,5.3,1.2,7.1,2.8c0.2,0.1,0.5,0.5,0.3,0.8
			C22,51,21.9,51.1,21.8,51.1z M21.5,50.8L21.5,50.8z"/>
		<path class="st0" d="M30.2,48.1c-0.2,0-0.4-0.1-0.6-0.3c-2.3-1.7-6.5-7.3-6.7-7.5l0.6-0.5c7.5,7.7,7.3,7.8,7,8.2
			C30.4,48,30.3,48.1,30.2,48.1z"/>
		<path class="st0" d="M34.3,50.8c-0.4,0-0.9-0.8-4.2-8.4l0.7-0.3c0.1,0.2,3.3,5.5,3.8,7.9c0.1,0.3,0.2,0.7-0.2,0.8L34.3,50.8z
			 M34.3,50.5L34.3,50.5z"/>
		<path class="st0" d="M28.6,42.3c-0.4,0-1-0.7-3.7-7.3l-1.2-3l1.9,2.6c0.1,0.2,3.1,4.4,3.5,6.8c0,0.2,0.1,0.7-0.3,0.8L28.6,42.3z"
			/>
		<path class="st0" d="M52.5,71.4c-7.7-7.4-7.5-7.6-7.3-7.9s0.6,0,0.9,0.1c2.3,1.6,6.8,7.1,6.9,7.3L52.5,71.4z"/>
		<path class="st0" d="M45,69.4c-0.1-0.2-3.5-5.4-4.1-7.8c-0.1-0.3-0.2-0.7,0.2-0.8s0.6-0.2,4.5,8.3L45,69.4z"/>
		<path class="st0" d="M52.4,79.2l-1.9-2.5c-0.1-0.2-3.3-4.3-3.7-6.7c0-0.2-0.1-0.7,0.3-0.8c0.4-0.1,0.7-0.2,4,7.1L52.4,79.2z"/>
		<path class="st0" d="M59.4,60.8C48.9,58.6,49,58.3,49,57.9s0.5-0.4,0.8-0.4c2.8,0.2,9.5,2.4,9.8,2.5L59.4,60.8z"/>
		<path class="st0" d="M52,63c-0.2-0.1-5.8-2.7-7.6-4.5c-0.2-0.2-0.5-0.5-0.3-0.8s0.4-0.5,8.2,4.6L52,63z"/>
		<path class="st0" d="M63.4,67.4l-3-1.1c-0.2-0.1-5.1-1.9-6.7-3.8c-0.1-0.2-0.5-0.5-0.2-0.8s0.5-0.6,7.2,3.9L63.4,67.4z"/>
		<path class="st0" d="M39.8,78.5H39c-0.5-10.7-0.3-10.7,0.1-10.8c0.4-0.1,0.5,0.4,0.5,0.7C40.3,71.1,39.8,78.2,39.8,78.5z"/>
		<path class="st0" d="M35.7,72.1L35,71.9c0-0.3,1.2-6.3,2.4-8.5c0.1-0.2,0.3-0.6,0.7-0.5S38.6,63.2,35.7,72.1z"/>
		<path class="st0" d="M33.6,84.1l0.4-3.2c0-0.2,0.6-5.4,1.9-7.4c0.1-0.2,0.4-0.6,0.8-0.4s0.7,0.3-2,8L33.6,84.1z"/>
		<path class="st1" d="M56.1,85.3"/>
	</g>
</g>
</svg>
