<svg xmlns="http://www.w3.org/2000/svg" viewBox="0 0 215.95 74.88"><defs><style>.cls-1{fill:#606060;}.cls-2,.cls-3{fill:none;stroke:#606060;stroke-linecap:round;stroke-miterlimit:10;}.cls-2{stroke-width:0.75px;}.cls-3{stroke-width:0.75px;}</style></defs><title>saft</title><g id="Layer_2" data-name="Layer 2"><g id="Layer_1-2" data-name="Layer 1"><path class="cls-1" d="M30.74,74.88A30.74,30.74,0,0,1,7.92,23.53a.37.37,0,0,1,.55.5A30,30,0,1,0,60.13,50.18a.37.37,0,0,1,.73.15A30.83,30.83,0,0,1,30.74,74.88Z"/><path class="cls-2" d="M95.59,54.5a8.57,8.57,0,0,1-2.81,6.9Q90,63.8,84.73,63.8a16.71,16.71,0,0,1-8.46-1.86V56.31a18.41,18.41,0,0,0,8.65,2.5q5.17,0,5.17-3.64a3.19,3.19,0,0,0-.57-1.94,7,7,0,0,0-1.88-1.61A30.54,30.54,0,0,0,84,49.73q-4.55-2.05-6.16-4.11a8.4,8.4,0,0,1-1.61-5.33A7.39,7.39,0,0,1,79,34.17,11.56,11.56,0,0,1,86.38,32a18.53,18.53,0,0,1,8.79,2.19l-1.81,4.91A17.32,17.32,0,0,0,86.19,37Q81.75,37,81.75,40a3.11,3.11,0,0,0,1.16,2.44,24,24,0,0,0,5,2.75,22,22,0,0,1,4.74,2.69,7.77,7.77,0,0,1,2.19,2.82A9.3,9.3,0,0,1,95.59,54.5Z"/><path class="cls-2" d="M118.13,63.25,117,59h-.19A11.4,11.4,0,0,1,113,62.79a10.62,10.62,0,0,1-5,1A7.7,7.7,0,0,1,102,61.36q-2.18-2.44-2.18-6.91,0-4.75,3-7.16T112,44.65l4.55-.17V42.84a6.91,6.91,0,0,0-1.18-4.4A4.43,4.43,0,0,0,111.74,37a11,11,0,0,0-3.88.69,27.06,27.06,0,0,0-3.57,1.64l-1.81-4.66a17.81,17.81,0,0,1,4.69-2A18.66,18.66,0,0,1,112,32q5,0,7.59,2.55t2.56,8V63.25Zm-8.34-4.44a6.37,6.37,0,0,0,4.9-2,7.86,7.86,0,0,0,1.85-5.57V48.59l-3.38.17q-4,.17-5.75,1.54a5,5,0,0,0-1.8,4.21,4.48,4.48,0,0,0,1,3.18A4.09,4.09,0,0,0,109.79,58.8Z"/><path class="cls-2" d="M143.16,37.48h-6.43V63.25h-5.62V37.48h-4.34V34.43l4.34-2v-2q0-5.44,2.19-8.07T140,19.74a15.59,15.59,0,0,1,5.81,1.14l-1.48,4.94a11.25,11.25,0,0,0-4-.78,3,3,0,0,0-2.77,1.37,7.82,7.82,0,0,0-.87,4.12v2h6.43Z"/><path class="cls-2" d="M157.45,58.53a11.87,11.87,0,0,0,4.1-.75v4.91a10.08,10.08,0,0,1-2.39.79,14.28,14.28,0,0,1-3,.32q-8,0-8-9.77V37.48h-3.6V34.59l3.86-2.39,1.91-6.5h3.45v6.83h7.5v4.94h-7.5V53.92a5.09,5.09,0,0,0,1,3.48A3.4,3.4,0,0,0,157.45,58.53Z"/><path class="cls-2" d="M166,59.78a4.73,4.73,0,0,1,.91-3.11,3.69,3.69,0,0,1,5.26,0,4.76,4.76,0,0,1,.91,3.07,4.88,4.88,0,0,1-.92,3.12,3.58,3.58,0,0,1-5.25,0A4.91,4.91,0,0,1,166,59.78Z"/><path class="cls-2" d="M179.89,24.41a4,4,0,0,1,.82-2.69,2.94,2.94,0,0,1,2.35-.94,2.89,2.89,0,0,1,2.3.94,4,4,0,0,1,.82,2.69,3.9,3.9,0,0,1-.82,2.62,2.87,2.87,0,0,1-2.3,1,2.92,2.92,0,0,1-2.35-1A3.9,3.9,0,0,1,179.89,24.41Zm5.93,38.84h-5.6V32.54h5.6Z"/><path class="cls-2" d="M205.33,63.8a11.8,11.8,0,0,1-9.61-4.18q-3.47-4.18-3.47-11.51,0-7.52,3.22-11.83a10.43,10.43,0,0,1,8.84-4.3,10.09,10.09,0,0,1,8.24,3.69q3,3.69,3,10.16v3.53H198q.12,4.47,2.07,6.87a6.69,6.69,0,0,0,5.5,2.4,17.53,17.53,0,0,0,4.35-.51,20.62,20.62,0,0,0,4.32-1.71v5.3a15.53,15.53,0,0,1-4.14,1.61A21.92,21.92,0,0,1,205.33,63.8Zm-1-26.87a5.24,5.24,0,0,0-4.28,2,10.3,10.3,0,0,0-1.92,5.75h12a9.45,9.45,0,0,0-1.57-5.76A5,5,0,0,0,204.31,36.93Z"/><path class="cls-1" d="M37.65,60.79A30.4,30.4,0,1,1,68,30.4,30.43,30.43,0,0,1,37.65,60.79Zm0-60A29.65,29.65,0,1,0,67.3,30.4,29.68,29.68,0,0,0,37.65.75Z"/><path class="cls-1" d="M37.63,28.14a.58.58,0,0,1-.55-.37C33.71,19.08,30.8,9.9,30.31,6.41A1.11,1.11,0,0,1,31,5.21h0c1.61-.59,7.32-2.35,13.08,0a1.15,1.15,0,0,1,.68,1.35c-1.92,7.38-5.84,19-6.6,21.24a.58.58,0,0,1-.54.4Zm.15-.64h0ZM31.28,5.91a.37.37,0,0,0-.23.4c.47,3.33,3.34,12.4,6.58,20.79,1-3,4.63-13.79,6.45-20.77a.4.4,0,0,0-.24-.47c-5.51-2.2-11-.51-12.55.06Z"/><path class="cls-1" d="M36,28.7a.59.59,0,0,1-.32-.09c-7.84-5-15.59-10.76-18-13.3a1.12,1.12,0,0,1-.13-1.39h0c1-1.43,4.54-6.2,10.55-7.73a1.15,1.15,0,0,1,1.35.69c2.79,7.11,6.44,18.79,7.14,21.06a.59.59,0,0,1-.56.76Zm.09-.72h0Zm-18-13.65a.37.37,0,0,0,0,.46c2.34,2.42,10,8.07,17.54,13-.94-3-4.35-13.87-7-20.59a.4.4,0,0,0-.47-.24C22.46,8.36,19,13,18.1,14.33Z"/><path class="cls-1" d="M22.76,30.47A71.75,71.75,0,0,1,12.56,30a1.11,1.11,0,0,1-.92-1.05h0c-.07-1.72,0-7.69,4-12.46a1.14,1.14,0,0,1,1.5-.23c6.23,4,15.47,10.83,18.16,12.84A.59.59,0,0,1,35,30.12C30.77,30.36,26.5,30.47,22.76,30.47ZM12.39,28.88a.37.37,0,0,0,.31.35c3.31.59,12.83.66,21.8.17-3.06-2.28-11.8-8.74-17.76-12.55a.4.4,0,0,0-.52.08,18.36,18.36,0,0,0-3.82,12Zm22.55.49h0Z"/><path class="cls-1" d="M16.6,44.9a1.1,1.1,0,0,1-.87-.42c-1.06-1.35-4.5-6.24-4.09-12.43A1.15,1.15,0,0,1,12.72,31c7.41-.45,18.9-.33,22.24-.28a.59.59,0,0,1,.36,1c-7.22,5.89-15,11.5-18.22,13A1.13,1.13,0,0,1,16.6,44.9ZM27.76,31.4c-4.72,0-10.59.07-15,.33a.4.4,0,0,0-.37.37C12,38,15.3,42.72,16.32,44h0a.37.37,0,0,0,.45.1c3-1.47,10.76-7,17.74-12.68C33.07,31.42,30.63,31.4,27.76,31.4Z"/><path class="cls-1" d="M28.49,54.71a1.06,1.06,0,0,1-.3,0h0c-1.65-.47-7.3-2.4-10.61-7.65a1.15,1.15,0,0,1,.24-1.5c5.91-4.86,15.89-11.93,17.83-13.3a.59.59,0,0,1,.9.63c-2.37,9-5.41,18.15-7.07,21.27A1.13,1.13,0,0,1,28.49,54.71ZM28.4,54a.38.38,0,0,0,.42-.19c1.58-3,4.59-12,6.9-20.68-2.59,1.83-11.84,8.42-17.42,13a.4.4,0,0,0-.08.52A18.36,18.36,0,0,0,28.4,54Z"/><path class="cls-1" d="M37.4,56.79a16.72,16.72,0,0,1-6.22-1.15,1.15,1.15,0,0,1-.69-1.35C32.36,47.11,36,36.21,37.1,33a.58.58,0,0,1,.54-.4.54.54,0,0,1,.56.38c3.37,8.68,6.29,17.87,6.78,21.36a1.11,1.11,0,0,1-.72,1.2h0A20.62,20.62,0,0,1,37.4,56.79Zm.27-23.09C36.44,37.31,33,47.6,31.22,54.47a.4.4,0,0,0,.24.47A18.36,18.36,0,0,0,44,54.89h0a.37.37,0,0,0,.24-.4C43.78,51.15,40.91,42.08,37.67,33.7Zm6.47,21.54h0Z"/><path class="cls-1" d="M47,54.65a1.15,1.15,0,0,1-1.07-.73c-2.79-7.11-6.44-18.79-7.14-21.06a.59.59,0,0,1,.88-.67c7.83,5,15.59,10.76,18,13.3a1.11,1.11,0,0,1,.13,1.39c-1,1.43-4.54,6.2-10.55,7.73A1.16,1.16,0,0,1,47,54.65ZM39.61,33.06c.94,3,4.35,13.87,7,20.59a.4.4,0,0,0,.47.24,18.36,18.36,0,0,0,10.12-7.42h0a.37.37,0,0,0,0-.46C54.81,43.58,47.15,37.94,39.61,33.06Z"/><path class="cls-1" d="M58.77,44.75a1.13,1.13,0,0,1-.61-.18C51.72,40.46,41.9,33.15,40,31.73a.59.59,0,0,1,.32-1.06c9.3-.53,18.94-.46,22.41.15a1.12,1.12,0,0,1,.92,1.05h0c.07,1.72,0,7.69-4,12.46A1.15,1.15,0,0,1,58.77,44.75Zm-18-13.36c2.54,1.89,11.67,8.66,17.76,12.55a.4.4,0,0,0,.52-.08,18.35,18.35,0,0,0,3.82-12h0a.36.36,0,0,0-.31-.35C59.28,31,49.77,30.91,40.79,31.39Z"/><path class="cls-1" d="M47.53,30.14c-3.19,0-5.85,0-7.2,0a.59.59,0,0,1-.36-1c7.22-5.89,15-11.5,18.22-13a1.11,1.11,0,0,1,1.37.31h0c1.06,1.35,4.5,6.24,4.09,12.43a1.15,1.15,0,0,1-1.07,1.07C58.14,30.08,52.26,30.14,47.53,30.14Zm-6.75-.79c3.81,0,14.66.14,21.75-.29a.4.4,0,0,0,.38-.37C63.29,22.77,60,18.07,59,16.77a.37.37,0,0,0-.45-.1C55.49,18.15,47.75,23.68,40.78,29.35Z"/><path class="cls-1" d="M39.3,28.68a.59.59,0,0,1-.57-.74c2.37-9,5.41-18.15,7.07-21.27a1.1,1.1,0,0,1,1.29-.55c1.65.47,7.3,2.4,10.61,7.65a1.15,1.15,0,0,1-.24,1.5C51.74,20,42.37,26.64,39.64,28.57A.58.58,0,0,1,39.3,28.68ZM46.79,6.83a.37.37,0,0,0-.33.2c-1.58,3-4.59,12-6.9,20.68,3.11-2.2,11.94-8.51,17.42-13a.4.4,0,0,0,.08-.52A18.36,18.36,0,0,0,46.89,6.84h-.1Z"/><path class="cls-1" d="M35.87,19.25c-.3,0-.43-.37-.52-.62C34.43,16,34,8.93,34,8.63l.74-.09C36.63,19.06,36.4,19.12,36,19.23Zm0-.37h0Z"/><path class="cls-1" d="M37.78,23.83l-.12,0c-.4-.12-.63-.18,1.17-9.36l.74.09c0,.26-.37,6.39-1.28,8.72C38.21,23.48,38.07,23.83,37.78,23.83Z"/><path class="cls-1" d="M37.92,13.57l-.15,0c-.35-.12-.72-.25.95-8.13l.66-3.13.07,3.2c0,.22.11,5.43-1,7.58C38.39,13.23,38.22,13.57,37.92,13.57Zm.29-.55h0Z"/><path class="cls-1" d="M42.73,21.22a.35.35,0,0,1-.16-.05c-.35-.19-.18-.6-.06-.87,1.11-2.59,5.55-8.05,5.74-8.29l.6.43C44,20.22,43.11,21.22,42.73,21.22Z"/><path class="cls-1" d="M41.06,25.87a.37.37,0,0,1-.33-.19c-.21-.35-.34-.56,7.17-6.13l.48.57c-.19.18-4.57,4.47-6.82,5.59A1.24,1.24,0,0,1,41.06,25.87Z"/><path class="cls-1" d="M48.12,18.4a.41.41,0,0,1-.39-.22c-.17-.32-.36-.67,6.17-5.37l2.6-1.87-2.1,2.42c-.15.17-3.57,4.09-5.83,4.94A1.33,1.33,0,0,1,48.12,18.4Z"/><path class="cls-1" d="M48.42,25.89a.27.27,0,0,1-.26-.16c-.22-.33.13-.61.36-.8,2.21-1.75,8.71-4.47,9-4.58l.33.67C50.67,25.08,48.94,25.89,48.42,25.89Z"/><path class="cls-1" d="M45.3,29.26h-.18c-.26,0-.7,0-.72-.42s0-.66,9.21-2l.16.73C53.52,27.63,47.89,29.26,45.3,29.26Z"/><path class="cls-1" d="M55.42,26.08a4.58,4.58,0,0,1-.62,0c-.21,0-.69-.09-.69-.5s0-.76,8-1.81l3.17-.42-3,1.13C62.08,24.52,57.94,26.08,55.42,26.08Z"/><path class="cls-1" d="M27.24,50.17l-.62-.4c5.26-9.3,5.47-9.2,5.86-9s.2.59.1.87C31.58,44.26,27.41,49.93,27.24,50.17Z"/><path class="cls-1" d="M27.23,42.62l-.51-.54c.18-.19,4.35-4.69,6.54-5.91.23-.13.61-.34.83,0S34.46,36.7,27.23,42.62Z"/><path class="cls-1" d="M19.06,51.65l2-2.51c.14-.17,3.37-4.26,5.59-5.22.19-.08.64-.28.85.08s.39.66-5.91,5.67Z"/><path class="cls-1" d="M18.83,41l-.35-.66c9.09-5.61,9.23-5.43,9.48-5.08s-.1.62-.33.81C25.49,37.94,19.1,40.9,18.83,41Z"/><path class="cls-1" d="M22.46,34.4l-.19-.72c.25-.08,6.07-2,8.58-2,.26,0,.7,0,.74.39S31.66,32.7,22.46,34.4Z"/><path class="cls-1" d="M11,38.37l2.95-1.25c.2-.09,5-2.09,7.41-1.88.21,0,.69.07.7.47s0,.76-7.91,2.11Z"/><path class="cls-1" d="M25.66,29.11a66.44,66.44,0,0,1-9.23-1.17l.1-.74c10.66.75,10.66,1,10.66,1.42s-.44.44-.74.46S25.95,29.11,25.66,29.11Z"/><path class="cls-1" d="M31.73,28.28c-.55,0-2.26-.66-8.49-3.6l.27-.69c.25.08,6.1,1.91,8.15,3.36.21.15.57.41.37.75A.29.29,0,0,1,31.73,28.28Z"/><path class="cls-1" d="M21.76,25.67c-.56,0-2.15-.56-7.31-3.08l-2.88-1.41,3.12.71c.22,0,5.29,1.21,7.11,2.8.16.14.52.46.3.8A.34.34,0,0,1,21.76,25.67Zm-.3-.27h0Z"/><path class="cls-1" d="M30.16,22.72a1.12,1.12,0,0,1-.58-.28c-2.26-1.69-6.54-7.28-6.72-7.51l.56-.49c7.46,7.65,7.3,7.83,7,8.15A.36.36,0,0,1,30.16,22.72Z"/><path class="cls-1" d="M34.26,25.45c-.36,0-.92-.82-4.16-8.43l.66-.34c.13.22,3.29,5.49,3.85,7.93.06.26.16.68-.22.81Zm0-.38h0Z"/><path class="cls-1" d="M28.6,16.89c-.35,0-1-.67-3.66-7.28l-1.21-3,1.86,2.6c.13.18,3.15,4.43,3.45,6.82,0,.21.09.69-.31.79Z"/><path class="cls-1" d="M52.46,46.05c-7.68-7.42-7.53-7.6-7.26-7.94s.62,0,.87.12c2.31,1.62,6.75,7.08,6.94,7.31Z"/><path class="cls-1" d="M45,44c-.14-.22-3.45-5.39-4.08-7.81-.07-.25-.18-.68.2-.81s.62-.21,4.54,8.27Z"/><path class="cls-1" d="M52.39,53.84l-1.94-2.55c-.13-.18-3.28-4.33-3.65-6.72,0-.21-.11-.68.29-.8s.73-.21,4,7.14Z"/><path class="cls-1" d="M59.38,35.41C48.93,33.18,49,32.95,49,32.52s.5-.37.8-.36c2.82.15,9.48,2.43,9.76,2.53Z"/><path class="cls-1" d="M52,37.61c-.23-.11-5.78-2.74-7.6-4.47-.19-.18-.51-.48-.26-.79s.41-.52,8.23,4.61Z"/><path class="cls-1" d="M63.43,42.05l-3-1.14c-.21-.08-5.07-1.94-6.65-3.77-.14-.16-.45-.52-.18-.83s.51-.57,7.17,3.94Z"/><path class="cls-1" d="M39.75,53.08H39c-.54-10.67-.31-10.7.12-10.75s.49.39.55.68C40.26,45.76,39.78,52.79,39.75,53.08Z"/><path class="cls-1" d="M35.71,46.71,35,46.52c0-.26,1.16-6.29,2.36-8.49.12-.23.33-.61.7-.46S38.64,37.83,35.71,46.71Z"/><path class="cls-1" d="M33.63,58.71,34,55.52c0-.22.57-5.4,1.92-7.4.12-.17.39-.57.75-.39s.68.34-2,7.95Z"/><path class="cls-3" d="M56.07,59.88"/></g></g></svg>