<svg xmlns="http://www.w3.org/2000/svg" viewBox="0 0 146.69 93.18"><defs><style>.cls-1{fill:#606060;}.cls-2,.cls-3{fill:none;}.cls-3{stroke:#606060;stroke-linecap:round;stroke-miterlimit:10;stroke-width:0.67px;}</style></defs><title>scoop</title><g id="Layer_2" data-name="Layer 2"><g id="Layer_1-2" data-name="Layer 1"><path class="cls-1" d="M16,37.68c-4.65,0-8.38-1.08-11.08-3.2a10.68,10.68,0,0,1-4.1-8.86v-.33H8.18v.3l.33,0A6.59,6.59,0,0,0,9.77,29c1.15,1.36,3.16,2.05,6,2.05a12.93,12.93,0,0,0,4.18-.55,3.74,3.74,0,0,0,2.9-3.75,2.67,2.67,0,0,0-1.37-2.41,16.68,16.68,0,0,0-4.75-1.6l-3.79-.82c-3.82-.84-6.38-1.74-7.81-2.74-2.44-1.66-3.68-4.31-3.68-7.87A10.45,10.45,0,0,1,5,3.21C7.4,1.08,10.9,0,15.43,0a15.89,15.89,0,0,1,9.75,3,10.83,10.83,0,0,1,4.28,8.78v.34h-7.7l0-.31a4.69,4.69,0,0,0-2.65-4.22,9.26,9.26,0,0,0-4.21-.85,8.12,8.12,0,0,0-4.45,1.09,3.24,3.24,0,0,0-1.58,2.91,2.67,2.67,0,0,0,1.54,2.51A21.75,21.75,0,0,0,15,14.7l6.16,1.46a15.8,15.8,0,0,1,6.2,2.62,8.9,8.9,0,0,1,3.25,7.42,10.41,10.41,0,0,1-3.83,8.24C24.22,36.59,20.62,37.68,16,37.68ZM1.54,26a10,10,0,0,0,3.84,8C8,36,11.55,37,16,37s7.87-1,10.27-3.09a9.78,9.78,0,0,0,3.6-7.73,8.27,8.27,0,0,0-3-6.9A15.4,15.4,0,0,0,21,16.8l-6.16-1.46a21.82,21.82,0,0,1-4.74-1.49,3.32,3.32,0,0,1-1.88-3.1,3.91,3.91,0,0,1,1.89-3.47A8.76,8.76,0,0,1,14.9,6.09,9.91,9.91,0,0,1,19.41,7a5.31,5.31,0,0,1,3,4.46h6.39a10,10,0,0,0-4-7.93A15.25,15.25,0,0,0,15.43.67c-4.36,0-7.71,1-9.95,3a9.81,9.81,0,0,0-3.36,7.58c0,3.37,1.11,5.76,3.39,7.32,1.34.94,3.89,1.83,7.57,2.64l3.78.82a17,17,0,0,1,5,1.68,3.33,3.33,0,0,1,1.69,3,4.39,4.39,0,0,1-3.35,4.37,13.37,13.37,0,0,1-4.4.59c-3,0-5.23-.77-6.5-2.29A6.78,6.78,0,0,1,7.89,26Z"/><path class="cls-1" d="M45.51,37.63c-4.27,0-7.46-1.29-9.47-3.84A15.37,15.37,0,0,1,33,24c0-4.51,1.13-8.07,3.34-10.6A11.71,11.71,0,0,1,45.6,9.53a14,14,0,0,1,8.17,2.25c2.16,1.52,3.44,4.2,3.81,8l0,.37H50.35v-.3l-.33,0a5.87,5.87,0,0,0-.93-2.48,3.74,3.74,0,0,0-3.28-1.43,4.35,4.35,0,0,0-4.39,3.18,13.53,13.53,0,0,0-.64,4.67,13.07,13.07,0,0,0,.64,4.47,4.21,4.21,0,0,0,4.27,3,3.75,3.75,0,0,0,3.11-1.15A6,6,0,0,0,49.95,27l0-.3h7.57l0,.36a11.71,11.71,0,0,1-2.3,6C53,36.09,49.78,37.63,45.51,37.63ZM45.6,10.2a11.08,11.08,0,0,0-8.74,3.6c-2.11,2.4-3.18,5.81-3.18,10.16a14.73,14.73,0,0,0,2.87,9.42c1.88,2.38,4.89,3.59,9,3.59s7.13-1.45,9.17-4.31a11.15,11.15,0,0,0,2.14-5.31H50.57a6.47,6.47,0,0,1-1.24,3.2A4.36,4.36,0,0,1,45.69,32a4.87,4.87,0,0,1-4.9-3.45,13.71,13.71,0,0,1-.68-4.7,14.14,14.14,0,0,1,.68-4.91,5,5,0,0,1,5-3.61A4.41,4.41,0,0,1,49.64,17a6.45,6.45,0,0,1,1,2.46h6.26c-.4-3.38-1.57-5.77-3.49-7.13A13.13,13.13,0,0,0,45.6,10.2Z"/><path class="cls-1" d="M73.56,37.66c-4.55,0-8-1.41-10.23-4.18A15.36,15.36,0,0,1,60,23.5a15.48,15.48,0,0,1,3.36-9.92C65.58,10.77,69,9.35,73.56,9.35s8,1.42,10.23,4.23a15.48,15.48,0,0,1,3.36,9.92,15.45,15.45,0,0,1-3.36,10h0C81.53,36.25,78.09,37.66,73.56,37.66Zm0-27.64c-4.39,0-7.56,1.3-9.71,4a14.82,14.82,0,0,0-3.21,9.51,14.71,14.71,0,0,0,3.21,9.55C66,35.67,69.23,37,73.56,37s7.58-1.32,9.71-3.94h0a14.61,14.61,0,0,0,3.21-9.55A14.83,14.83,0,0,0,83.27,14C81.16,11.36,77.89,10,73.56,10Zm10,23.25h0ZM73.54,32a5.75,5.75,0,0,1-4.85-2.25A10,10,0,0,1,67,23.5a10,10,0,0,1,1.67-6.2,6.36,6.36,0,0,1,9.67,0A10,10,0,0,1,80,23.5a10.13,10.13,0,0,1-1.66,6.2A5.67,5.67,0,0,1,73.54,32Zm0-16.22a5.15,5.15,0,0,0-4.32,2,9.41,9.41,0,0,0-1.53,5.79,9.41,9.41,0,0,0,1.53,5.79,5.66,5.66,0,0,0,8.61,0h0a9.5,9.5,0,0,0,1.53-5.8,9.37,9.37,0,0,0-1.53-5.8A5.06,5.06,0,0,0,73.54,15.74Z"/><path class="cls-1" d="M103.3,37.66c-4.55,0-8-1.41-10.23-4.18a15.36,15.36,0,0,1-3.36-10,15.48,15.48,0,0,1,3.36-9.92c2.25-2.81,5.69-4.23,10.23-4.23s8,1.42,10.23,4.23a15.48,15.48,0,0,1,3.36,9.92,15.45,15.45,0,0,1-3.36,10h0C111.27,36.25,107.83,37.66,103.3,37.66Zm0-27.64c-4.39,0-7.56,1.3-9.71,4a14.82,14.82,0,0,0-3.21,9.51,14.71,14.71,0,0,0,3.21,9.55C95.7,35.67,99,37,103.3,37s7.58-1.32,9.71-3.94a14.61,14.61,0,0,0,3.21-9.55A14.82,14.82,0,0,0,113,14C110.89,11.36,107.63,10,103.3,10Zm10,23.25h0Zm-10-1.31a5.75,5.75,0,0,1-4.85-2.25,10,10,0,0,1-1.66-6.2,10,10,0,0,1,1.67-6.2,6.36,6.36,0,0,1,9.67,0,10,10,0,0,1,1.67,6.2,10.13,10.13,0,0,1-1.66,6.2A5.67,5.67,0,0,1,103.28,32Zm0-16.22a5.15,5.15,0,0,0-4.32,2,9.41,9.41,0,0,0-1.53,5.79A9.41,9.41,0,0,0,99,29.3a5.66,5.66,0,0,0,8.61,0h0a9.5,9.5,0,0,0,1.53-5.8,9.37,9.37,0,0,0-1.53-5.8A5.06,5.06,0,0,0,103.28,15.74Z"/><path class="cls-1" d="M128.22,47h-7.37V10.17H128v3.11a10.14,10.14,0,0,1,1.81-1.88,8.94,8.94,0,0,1,5.61-1.8,10.65,10.65,0,0,1,8,3.46h0c2.16,2.28,3.26,5.67,3.26,10.08,0,4.64-1.07,8.23-3.18,10.66a10.44,10.44,0,0,1-8.23,3.7,8.84,8.84,0,0,1-5.37-1.62,9.2,9.2,0,0,1-1.68-1.73Zm-6.71-.67h6V32l.61.89a10.11,10.11,0,0,0,2.14,2.41,8.08,8.08,0,0,0,5,1.48A9.68,9.68,0,0,0,143,33.37c2-2.31,3-5.75,3-10.23,0-4.23-1-7.47-3.08-9.62a9.88,9.88,0,0,0-7.51-3.25,8.29,8.29,0,0,0-5.2,1.66A10.53,10.53,0,0,0,128,14.52l-.61.94V10.84h-5.83Zm12-14.5a6,6,0,0,1-3.62-1.14c-1.69-1.26-2.55-3.49-2.55-6.61a13.44,13.44,0,0,1,.75-4.82,5.39,5.39,0,0,1,5.42-3.7A5.14,5.14,0,0,1,138.27,18h0a10.5,10.5,0,0,1,1.44,5.46,10.45,10.45,0,0,1-1.56,6A5.29,5.29,0,0,1,133.52,31.8Zm0-15.6a4.72,4.72,0,0,0-4.8,3.28,12.79,12.79,0,0,0-.71,4.58c0,2.9.77,4.94,2.28,6.07a5.3,5.3,0,0,0,3.22,1,4.61,4.61,0,0,0,4.08-2A9.81,9.81,0,0,0,139,23.46a9.84,9.84,0,0,0-1.34-5.12h0A4.51,4.51,0,0,0,133.52,16.2Z"/><path class="cls-1" d="M138.29,90.17c-4.45,0-10.3-1.17-14.36-6.37-7-8.92-5.58-15-4.24-21l.27-1.21.28-.22,1.19-.13c6-.66,12.28-1.35,20.36,6.6,8.54,8.38,3.27,21.11,3.22,21.23l0,.11-.3.14A25.09,25.09,0,0,1,138.29,90.17ZM120.56,62.05l-.21.94c-1.31,5.76-2.66,11.72,4.12,20.39,6.91,8.85,19.27,5.56,20,5.36.49-1.26,4.67-12.74-3.12-20.39s-13.94-7.06-19.82-6.41Zm24,27h0Z"/><path class="cls-2" d="M138.55,89.71q-.88,0-1.82-.07a16.72,16.72,0,0,1-12.16-6.21c-6-7.6-5.26-12.77-4.54-17.79.11-.76.22-1.57.31-2.36l1.51.16c-.09.81-.2,1.62-.31,2.41-.7,4.9-1.35,9.53,4.23,16.64,6.3,8,17.36,5.22,17.47,5.19l.38,1.46A22.36,22.36,0,0,1,138.55,89.71Z"/><path class="cls-1" d="M133.47,67.52a10.17,10.17,0,0,1-2.65-.62c-1.23-.39-2.62-.83-3.31-.62l-.24.08-.14-.21c-.73-1.09-.54-1.78-.25-2.17.73-1,2.83-1,4.53-.46,1.92.59,3.11,1.69,3.17,2.95a.93.93,0,0,1-.33.84A1.24,1.24,0,0,1,133.47,67.52Zm-5.52-2a11.51,11.51,0,0,1,3.07.7c1.1.35,2.47.79,2.82.52,0,0,.09-.07.08-.28-.05-1.14-1.43-2-2.69-2.35-1.63-.5-3.34-.4-3.8.22-.25.33-.08.81.15,1.21A2.42,2.42,0,0,1,128,65.56Z"/><path class="cls-1" d="M23.31,90.67a7.09,7.09,0,0,1-2.78-.54,6.33,6.33,0,0,1-2.23-1.52,6.87,6.87,0,0,1-1.46-2.36,8.53,8.53,0,0,1-.52-3.06A8.87,8.87,0,0,1,16.84,80a7.26,7.26,0,0,1,1.46-2.4,6.93,6.93,0,0,1,2.23-1.52,7.11,7.11,0,0,1,2.78-.54,7.25,7.25,0,0,1,2.8.54,6.32,6.32,0,0,1,2.23,1.52A7.26,7.26,0,0,1,29.81,80a8.86,8.86,0,0,1,.52,3.15,8.07,8.07,0,0,1-.56,3.07,7.14,7.14,0,0,1-1.53,2.36A6.64,6.64,0,0,1,26,90.13,6.9,6.9,0,0,1,23.31,90.67Zm0-14.44a6.45,6.45,0,0,0-2.53.49,6.24,6.24,0,0,0-2,1.37,6.58,6.58,0,0,0-1.32,2.18A8.22,8.22,0,0,0,17,83.19,7.88,7.88,0,0,0,17.46,86a6.23,6.23,0,0,0,1.32,2.14,5.68,5.68,0,0,0,2,1.36,6.43,6.43,0,0,0,2.53.49,6.22,6.22,0,0,0,2.41-.49,6,6,0,0,0,2-1.36A6.47,6.47,0,0,0,29.14,86a7.41,7.41,0,0,0,.51-2.82,8.21,8.21,0,0,0-.47-2.92,6.58,6.58,0,0,0-1.33-2.18,5.66,5.66,0,0,0-2-1.36A6.58,6.58,0,0,0,23.31,76.23ZM5.55,90.29H1.21L23,61.69a3.8,3.8,0,0,1,.68-.61,1.82,1.82,0,0,1,.85-.29v0h4.6L7.32,89.42a2.41,2.41,0,0,1-.74.63A2.14,2.14,0,0,1,5.55,90.29Zm-3-.67h3a1.48,1.48,0,0,0,.72-.16A1.72,1.72,0,0,0,6.8,89l21-27.59-2.93,0a1.45,1.45,0,0,0-.8.19,3.17,3.17,0,0,0-.55.49Zm20.76-2.17a3.43,3.43,0,0,1-1.24-.22,2.64,2.64,0,0,1-1-.75,3.73,3.73,0,0,1-.65-1.34,7.61,7.61,0,0,1-.21-2,8.19,8.19,0,0,1,.21-2A3.81,3.81,0,0,1,21,79.79,2.77,2.77,0,0,1,22,79a3.5,3.5,0,0,1,2.51,0,2.41,2.41,0,0,1,1.07.8,3.45,3.45,0,0,1,.67,1.38,7.06,7.06,0,0,1,.24,2,6.58,6.58,0,0,1-.24,2,3.73,3.73,0,0,1-.66,1.33,2.51,2.51,0,0,1-1.07.76A3.43,3.43,0,0,1,23.31,87.45Zm0-8a2.68,2.68,0,0,0-1,.18,2.08,2.08,0,0,0-.76.59A3.15,3.15,0,0,0,21,81.34a7.53,7.53,0,0,0-.19,1.85A6.94,6.94,0,0,0,21,85a3.05,3.05,0,0,0,.52,1.1,1.94,1.94,0,0,0,.76.55,2.84,2.84,0,0,0,2,0,1.84,1.84,0,0,0,.79-.56A3,3,0,0,0,25.64,85h0a5.94,5.94,0,0,0,.21-1.76,6.44,6.44,0,0,0-.21-1.84,2.83,2.83,0,0,0-.54-1.14,1.8,1.8,0,0,0-.79-.6A2.79,2.79,0,0,0,23.31,79.43ZM7,75.54A7.12,7.12,0,0,1,4.19,75,6,6,0,0,1,2,73.52a6.56,6.56,0,0,1-1-1.37,9.63,9.63,0,0,1-.44-1A8.55,8.55,0,0,1,0,68.1a8.87,8.87,0,0,1,.52-3.15A7.26,7.26,0,0,1,2,62.54,6.93,6.93,0,0,1,4.21,61,6.72,6.72,0,0,1,7,60.48a7.24,7.24,0,0,1,2.8.54A6.51,6.51,0,0,1,12,62.54a6.15,6.15,0,0,1,.83,1.07,7.12,7.12,0,0,1,.66,1.34h0a9.6,9.6,0,0,1-.09,6.22,7.12,7.12,0,0,1-.61,1.2,7.47,7.47,0,0,1-.76,1,1.3,1.3,0,0,1-.17.19,6.93,6.93,0,0,1-4.91,2ZM7,61.15a6.09,6.09,0,0,0-2.52.49,6.27,6.27,0,0,0-2,1.37,6.58,6.58,0,0,0-1.32,2.18A8.22,8.22,0,0,0,.67,68.1a7.88,7.88,0,0,0,.47,2.83,9,9,0,0,0,.41.91,6,6,0,0,0,.89,1.24,5.31,5.31,0,0,0,2,1.33A6.46,6.46,0,0,0,7,74.87a6.27,6.27,0,0,0,4.44-1.81.91.91,0,0,0,.12-.13,7.28,7.28,0,0,0,.72-.92,6.45,6.45,0,0,0,.55-1.08,9,9,0,0,0,.09-5.74h0a6.45,6.45,0,0,0-.6-1.22,5.5,5.5,0,0,0-.74-1,5.85,5.85,0,0,0-2-1.37A6.56,6.56,0,0,0,7,61.15ZM7,72.37a3.43,3.43,0,0,1-1.24-.22,2.44,2.44,0,0,1-1-.76,3.73,3.73,0,0,1-.64-1.33A.89.89,0,0,1,4,69.76a6.91,6.91,0,0,1-.16-1.66,7.07,7.07,0,0,1,.24-2,3.77,3.77,0,0,1,.64-1.37,2.69,2.69,0,0,1,1-.79,3.49,3.49,0,0,1,2.51,0,2.41,2.41,0,0,1,1.07.8,3.51,3.51,0,0,1,.6,1.14c0,.08,0,.15.07.25a7,7,0,0,1,.24,2,6.67,6.67,0,0,1-.24,2h0a3.74,3.74,0,0,1-.69,1.33,2.5,2.5,0,0,1-1.06.75A3.43,3.43,0,0,1,7,72.37Zm0-8a2.68,2.68,0,0,0-1,.18,2,2,0,0,0-.74.59,3.14,3.14,0,0,0-.52,1.14,6.44,6.44,0,0,0-.21,1.85,6.88,6.88,0,0,0,.15,1.59.73.73,0,0,0,0,.17A3.09,3.09,0,0,0,5.25,71a1.77,1.77,0,0,0,.74.55,2.86,2.86,0,0,0,2,0A1.84,1.84,0,0,0,8.78,71a3.09,3.09,0,0,0,.56-1.1,6.05,6.05,0,0,0,.21-1.77,6.44,6.44,0,0,0-.21-1.84c0-.1,0-.16-.06-.22a2.89,2.89,0,0,0-.48-.93,1.79,1.79,0,0,0-.78-.6A2.79,2.79,0,0,0,7,64.34ZM9.66,70h0Z"/><path class="cls-1" d="M38.75,79.13H36.69V77H34.54v-2h2.16V72.76h2.06v2.16h2.16v2H38.75Zm-1.39-.67h.73V76.29h2.16v-.71H38.09V73.42h-.73v2.16H35.2v.71h2.16Z"/><path class="cls-1" d="M70.23,79.13H68.17V77H66v-2h2.16V72.76h2.06v2.16h2.16v2H70.23Zm-1.39-.67h.73V76.29h2.16v-.71H69.57V73.42h-.73v2.16H66.68v.71h2.16Z"/><path class="cls-1" d="M111.6,79.13h-2.06V77h-2.16v-2h2.16V72.76h2.06v2.16h2.16v2H111.6Zm-1.39-.67h.73V76.29h2.16v-.71h-2.16V73.42h-.73v2.16h-2.16v.71h2.16Z"/><path class="cls-1" d="M93.2,70.23,93,69.77a10.92,10.92,0,0,0-1.25-2.11A18.82,18.82,0,0,0,90,69.15l-.36.35L89.45,69a24.48,24.48,0,0,0-2-4l-.08-.13.05-.15a12.92,12.92,0,0,1,5.62-6.6l.23-.14.19.2c2.47,2.58,3.12,6.81,3.29,8.51l0,.18-.14.11a24.79,24.79,0,0,0-3.1,2.9Zm-1.34-3.48.2.24A10.8,10.8,0,0,1,93.38,69a25.25,25.25,0,0,1,2.7-2.5c-.18-1.68-.81-5.37-2.91-7.73a12.26,12.26,0,0,0-5.05,6,24.88,24.88,0,0,1,1.77,3.56,19.71,19.71,0,0,1,1.72-1.4Z"/><path class="cls-1" d="M86,75.06l-.33-.56A29.29,29.29,0,0,0,83.2,71l-.07-.09v-.12a14.19,14.19,0,0,1,2.81-8.3l.25-.34.27.32A18,18,0,0,1,88,64.63a25.09,25.09,0,0,1,2,4.16l.08.21-.16.15a16.73,16.73,0,0,0-3.73,5.32Zm-2.21-4.42a29.78,29.78,0,0,1,2.12,3,17.54,17.54,0,0,1,3.45-4.8A24.24,24.24,0,0,0,87.47,65a17.77,17.77,0,0,0-1.24-1.77A13.51,13.51,0,0,0,83.79,70.65Z"/><path class="cls-1" d="M94.71,76.8l-.07-.59A22.17,22.17,0,0,0,93,69.77l-.09-.2.15-.16a25.49,25.49,0,0,1,3.18-3,18.43,18.43,0,0,1,2.53-1.67l.37-.2.11.41a14,14,0,0,1-.49,9l-.16.18a29.57,29.57,0,0,0-3.41,2.32Zm-1-7.1a22.46,22.46,0,0,1,1.55,5.85,30,30,0,0,1,2.94-2,13.57,13.57,0,0,0,.52-8A18.11,18.11,0,0,0,96.64,67,24.62,24.62,0,0,0,93.68,69.7Z"/><path class="cls-1" d="M90.72,80.6l-.24-.24c-.33-.33-.61-.58-.77-.72-.2.07-.55.2-1,.39l-.32.14-.13-.32a36.11,36.11,0,0,0-2.6-5.34l-.09-.15.07-.16a17.39,17.39,0,0,1,3.88-5.53,19.58,19.58,0,0,1,2.08-1.74l.25-.18.2.24a11.21,11.21,0,0,1,1.54,2.51,22.84,22.84,0,0,1,1.71,6.64l0,.18-.15.12A36.2,36.2,0,0,0,91,80.35Zm-.87-1.71L90,79s.29.24.71.64A36.85,36.85,0,0,1,94.62,76,21.92,21.92,0,0,0,93,69.77a10.92,10.92,0,0,0-1.25-2.11A18.82,18.82,0,0,0,90,69.15a16.77,16.77,0,0,0-3.66,5.16,36.76,36.76,0,0,1,2.44,5c.54-.22.89-.34.91-.34Z"/><path class="cls-1" d="M82.88,85.26l-.19-1c0-.13-.63-3.24-4.73-4.41l-.16,0-.13-.34a14.84,14.84,0,0,1,3.82-10.78l.23-.27.25.25a25.17,25.17,0,0,1,1.75,1.93,30,30,0,0,1,2.52,3.61,36.78,36.78,0,0,1,2.65,5.44l.12.3-.3.13c-1.6.69-4.42,2.16-5.4,4.27Zm-4.57-6a7.1,7.1,0,0,1,4.8,4.11,12.26,12.26,0,0,1,5.05-3.77,36,36,0,0,0-2.48-5A29.29,29.29,0,0,0,83.2,71c-.47-.58-1-1.12-1.45-1.62A14.53,14.53,0,0,0,78.3,79.21Z"/><path class="cls-1" d="M94,87.35l-.06-1.05c-.14-2.33-2.22-4.72-3.45-5.94l-.23-.23.22-.24a36.93,36.93,0,0,1,4.3-4h0a30.2,30.2,0,0,1,3.49-2.37,25.53,25.53,0,0,1,2.65-1.34l.33-.14.12.34A14.93,14.93,0,0,1,101,83.75l-.29.33-.16,0c-4.26-.4-6,2.27-6,2.38Zm-2.82-7.24a12.26,12.26,0,0,1,3.31,5.35,7.11,7.11,0,0,1,6-2.08h0a14.62,14.62,0,0,0,.35-10.43,25,25,0,0,0-2.25,1.16,29.57,29.57,0,0,0-3.41,2.32h0A36.11,36.11,0,0,0,91.17,80.11ZM95,76.17h0Z"/><path class="cls-1" d="M90.14,93.18a15.91,15.91,0,0,1-2.9-.28c-8.14-1.56-10.4-7.53-11.64-13.74l-.09-.44.44,0a12,12,0,0,1,2.19.4,7.14,7.14,0,0,1,5,4.16c1.28-1.93,3.84-3.25,5.35-3.9.72-.31,1.2-.47,1.22-.48l.17-.06L90,79s.4.34,1,.88C92.1,81,94,83.2,94.48,85.47a7.16,7.16,0,0,1,6.16-2.06,12,12,0,0,1,2.16.42l.43.12-.24.38C100,89,96.38,93.18,90.14,93.18Zm-13.8-13.7c1.21,5.82,3.46,11.31,11,12.77,7.1,1.31,11.1-2.18,14.82-7.9a11.1,11.1,0,0,0-1.61-.28c-4.25-.41-6,2.27-6,2.38l-.55.9-.06-1.05c-.14-2.33-2.22-4.72-3.45-5.94-.33-.33-.61-.58-.77-.72-.2.07-.55.2-1,.39-1.6.69-4.42,2.16-5.4,4.27l-.44,1-.19-1c0-.13-.63-3.24-4.73-4.41A10.84,10.84,0,0,0,76.34,79.48Z"/><polygon class="cls-1" points="87.49 92.95 87.49 92.95 86.97 92.86 87.1 92.2 87.61 92.3 87.49 92.95"/><path class="cls-1" d="M53.9,91.91H45.33a2.13,2.13,0,0,1-2.11-2.13L42,77.4h0V77l-.8-8.18h.29a18.67,18.67,0,0,1,4.62-1.17A23.8,23.8,0,0,1,57.77,68.8h.29L57.24,77v.09L56,89.79A2.13,2.13,0,0,1,53.9,91.91ZM42.64,76.8h.07l0,.23,1.22,12.68a1.45,1.45,0,0,0,1.44,1.52H53.9a1.48,1.48,0,0,0,1.44-1.52l1.22-12.67V77a.32.32,0,0,1,0,0l.23-2,.54-5.57a23.29,23.29,0,0,0-11.16-1.06,18.13,18.13,0,0,0-4.28,1.06Z"/><path class="cls-3" d="M56.29,73.78"/><path class="cls-1" d="M57.7,69.47a.33.33,0,0,1-.33-.33l0-3A21.32,21.32,0,0,0,46.21,65a16.83,16.83,0,0,0-4.28,1.16l0,3a.33.33,0,0,1-.33.33h0a.33.33,0,0,1-.33-.34l0-3.52h.25a17.43,17.43,0,0,1,4.59-1.27,21.91,21.91,0,0,1,11.62,1.27H58l0,3.52a.33.33,0,0,1-.33.34Z"/></g></g></svg>